<svg width="512" height="512" viewBox="0 0 512 512" fill="none"
     xmlns="http://www.w3.org/2000/svg">
  <path
      d="M259.273 405.05C244.383 411.351 228.348 414.491 212.183 414.272C198.974 414.33 185.84 412.286 173.272 408.216C161.689 404.443 151.014 398.303 141.924 390.186C132.905 382.202 125.707 372.368 120.819 361.353C115.453 349.083 112.803 335.796 113.051 322.404C112.949 312.175 114.865 302.026 118.688 292.539C122.346 283.542 127.507 275.235 133.95 267.972C140.391 260.597 147.683 254.014 155.674 248.36C163.886 242.71 172.502 237.673 181.453 233.289C173.667 223.923 166.763 213.856 160.829 203.217C155.054 192.365 152.165 180.208 152.443 167.915C152.271 157.88 154.561 147.957 159.111 139.013C163.459 130.459 169.52 122.893 176.916 116.786C184.555 110.592 193.239 105.814 202.558 102.679C212.157 99.371 222.242 97.6963 232.394 97.7243C243.662 97.6002 254.882 99.2015 265.667 102.473C275.355 105.312 284.409 109.984 292.34 116.235C299.983 122.482 306.137 130.358 310.351 139.288C315.051 149.241 317.403 160.142 317.226 171.15C317.717 187.759 312.145 203.979 301.552 216.774C290.641 229.451 277.441 239.957 262.642 247.74L302.239 296.392C305.334 290.722 307.779 284.72 309.526 278.5C311.257 272.362 312.544 266.106 313.376 259.783H366.31C364.881 273.485 361.692 286.946 356.824 299.833C351.974 312.713 345.156 324.762 336.612 335.548L398.965 408.285H323.619L298.665 377.937C287.312 389.324 273.958 398.515 259.273 405.05V405.05ZM198.021 281.184C192.958 284.265 188.334 288.015 184.272 292.332C180.305 296.535 177.033 301.343 174.579 306.577C172.108 311.971 170.864 317.847 170.935 323.78C170.947 329.219 172.193 334.584 174.579 339.47C176.91 344.37 180.207 348.747 184.272 352.338C188.324 355.98 192.976 358.89 198.021 360.94C203.283 363.08 208.909 364.179 214.589 364.175C224.635 364.406 234.545 361.807 243.187 356.674C251.772 351.288 259.53 344.681 266.217 337.062L213.695 272.926C208.269 275.252 203.029 277.99 198.021 281.115V281.184ZM255.011 147.202C252.521 144.486 249.492 142.318 246.119 140.837C242.746 139.356 239.102 138.594 235.419 138.6C228.277 138.428 221.349 141.044 216.101 145.895C213.365 148.392 211.212 151.463 209.798 154.889C208.384 158.315 207.743 162.011 207.92 165.713C207.65 174.664 210.358 183.451 215.62 190.693C220.845 197.574 226.275 204.456 231.981 211.819C240.022 206.779 247.451 200.821 254.117 194.065C257.334 190.536 259.813 186.398 261.407 181.895C263.001 177.392 263.678 172.615 263.398 167.846C263.442 164.02 262.723 160.223 261.283 156.678C259.843 153.133 257.711 149.912 255.011 147.202V147.202Z"
      fill="white"/>
</svg>
