<svg width="32" height="32" viewBox="0 0 32 32" fill="none" xmlns="http://www.w3.org/2000/svg">
<path fill-rule="evenodd" clip-rule="evenodd" d="M3.00098 15.9776C3.00098 15.4805 3.40392 15.0776 3.90098 15.0776H24.0481C24.5451 15.0776 24.9481 15.4805 24.9481 15.9776C24.9481 16.4747 24.5451 16.8776 24.0481 16.8776H3.90098C3.40392 16.8776 3.00098 16.4747 3.00098 15.9776Z" fill="currentColor"/>
<path fill-rule="evenodd" clip-rule="evenodd" d="M16.9602 8.88896C17.311 8.53675 17.8808 8.53556 18.233 8.8863L24.736 15.3621C24.9056 15.531 25.001 15.7605 25.001 15.9998C25.001 16.2392 24.9056 16.4686 24.736 16.6375L18.233 23.1133C17.8808 23.464 17.311 23.4629 16.9602 23.1106C16.6095 22.7584 16.6107 22.1886 16.9629 21.8379L22.8255 15.9998L16.9629 10.1617C16.6107 9.81101 16.6095 9.24116 16.9602 8.88896Z" fill="currentColor"/>
</svg>
