<svg height="512pt" viewBox="0 0 512 512" width="512pt" xmlns="http://www.w3.org/2000/svg"><path d="m512 256c0 141.386719-114.613281 256-256 256s-256-114.613281-256-256 114.613281-256 256-256 256 114.613281 256 256zm0 0" fill="#f46d11"/><path d="m359.019531 137.527344h-206.054687l9.382812-49.359375 3.949219-20.792969c4.578125-24.085938 30.21875-37.785156 52.78125-28.203125l21.890625 9.300781c9.601562 4.085938 20.445312 4.085938 30.050781 0l21.890625-9.300781c22.558594-9.582031 48.199219 4.117187 52.777344 28.203125l3.949219 20.78125zm0 0" fill="#ffe05c"/><g fill="#e89f18"><path d="m240.96875 48.472656c-21.890625-9.300781-43.480469 30.175782-43.480469 64.65625 0 10.574219-8.546875 18.496094-20.40625 24.398438h-24.117187l13.332031-70.152344c4.578125-24.085938 30.21875-37.785156 52.78125-28.203125zm0 0"/><path d="m359.019531 137.527344h-206.054687l9.382812-49.359375c27.910156-5.183594 59.800782-8.109375 93.65625-8.109375 33.855469 0 65.722656 2.925781 93.632813 8.097656zm0 0"/><path d="m407.511719 168.875c0 31.890625-47.554688 58.714844-112.140625 66.589844-12.550782 1.546875-25.753906 2.363281-39.367188 2.363281-83.683594 0-151.519531-30.867187-151.519531-68.953125s67.835937-68.964844 151.519531-68.964844c13.617188 0 26.820313.816406 39.367188 2.363282 64.585937 7.878906 112.140625 34.710937 112.140625 66.601562zm0 0"/></g><path d="m407.511719 168.875c0 31.890625-47.554688 58.714844-112.140625 66.589844-64.589844-7.875-91.960938-34.699219-91.960938-66.589844 0-23.417969 14.761719-44.109375 48.183594-56.570312 25.015625-9.324219 51.371094-10.339844 76.917969-3.992188 47.070312 11.695312 79 34.429688 79 60.5625zm0 0" fill="#ffe05c"/><path d="m382.113281 449.578125v29.246094c-37.21875 21.117187-80.261719 33.175781-126.121093 33.175781-27.03125 0-53.070313-4.191406-77.53125-11.953125-17.03125-5.402344-33.300782-12.550781-48.585938-21.222656v-29.246094c0-27.273437 11.480469-51.878906 29.871094-69.234375 11.046875-10.410156 24.585937-18.214844 39.632812-22.414062 5.75-1.601563 11.714844-2.675782 17.847656-3.167969 2.570313-.207031 5.164063-.3125 7.785157-.3125h61.953125c7.324218 0 14.449218.816406 21.292968 2.382812 42.296876 9.675781 73.855469 47.53125 73.855469 92.746094zm0 0" fill="#0c85a5"/><path d="m382.121094 449.578125v29.246094c-22.726563 12.894531-47.617188 22.414062-74 27.855469-14.777344 3.0625-30.023438 4.851562-45.613282 5.238281-2.160156.050781-4.335937.082031-6.507812.082031-27.03125 0-53.070312-4.191406-77.53125-11.953125v-50.46875c0-6.738281.699219-13.324219 2.039062-19.664063 2.714844-12.957031 8.074219-24.933593 15.484376-35.359374 17.238281-24.273438 45.589843-40.105469 77.625-40.105469h13.355468c52.554688 0 95.148438 42.589843 95.148438 95.128906zm0 0" fill="#1da2dd"/><path d="m264.363281 350.195312v160.621094c-2.78125.097656-5.558593.136719-8.359375.136719-2.800781 0-5.589844-.039063-8.359375-.136719v-160.621094zm0 0" fill="#0c85a5"/><path d="m162.886719 249.535156c0 15.714844-11.480469 28.742188-26.511719 31.160156-1.640625.265626-3.332031.40625-5.054688.40625-17.4375 0-31.566406-14.128906-31.566406-31.566406s14.128906-31.566406 31.566406-31.566406c1.722657 0 3.414063.140625 5.054688.40625 15.03125 2.417969 26.511719 15.445312 26.511719 31.160156zm0 0" fill="#f6ba97"/><path d="m162.886719 249.535156c0 15.714844-11.480469 28.742188-26.511719 31.160156-2.730469-9.929687-4.1875-20.375-4.1875-31.160156s1.457031-21.230468 4.1875-31.160156c15.03125 2.417969 26.511719 15.445312 26.511719 31.160156zm0 0" fill="#eaa27f"/><path d="m142.601562 249.535156c0 6.230469-5.050781 11.28125-11.28125 11.28125-6.230468 0-11.28125-5.050781-11.28125-11.28125 0-6.230468 5.050782-11.28125 11.28125-11.28125 6.230469 0 11.28125 5.050782 11.28125 11.28125zm0 0" fill="#eaa27f"/><path d="m349.101562 249.535156c0 15.714844 11.476563 28.742188 26.507813 31.160156 1.644531.265626 3.332031.40625 5.058594.40625 17.4375 0 31.5625-14.128906 31.5625-31.566406s-14.125-31.566406-31.5625-31.566406c-1.726563 0-3.414063.140625-5.058594.40625-15.03125 2.417969-26.507813 15.445312-26.507813 31.160156zm0 0" fill="#f6ba97"/><path d="m349.101562 249.535156c0 15.714844 11.476563 28.742188 26.507813 31.160156 2.730469-9.929687 4.191406-20.375 4.191406-31.160156s-1.457031-21.230468-4.191406-31.160156c-15.03125 2.417969-26.507813 15.445312-26.507813 31.160156zm0 0" fill="#eaa27f"/><path d="m373.4375 188.039062v44.722657c0 11.316406-1.597656 22.265625-4.597656 32.621093-12.433594 43.121094-48.921875 76.046876-93.996094 83.296876-.1875.03125-.386719.0625-.574219.097656-5.945312.949218-12.050781 1.417968-18.277343 1.417968-53.539063 0-98.710938-35.828124-112.839844-84.8125-2.996094-10.355468-4.597656-21.304687-4.597656-32.621093v-44.722657c0-4.253906.230468-8.464843.671874-12.601562 5.828126-3.207031 12.277344-6.164062 19.265626-8.839844 6.25-2.402344 12.9375-4.566406 19.980468-6.480468 22.683594-6.164063 49.203125-9.707032 77.53125-9.707032 13.613282 0 26.820313.816406 39.371094 2.363282 30.75 3.75 57.65625 11.808593 77.386719 22.652343.449219 4.148438.675781 8.351563.675781 12.613281zm0 0" fill="#eaa27f"/><path d="m391.949219 249.535156c0 6.230469-5.050781 11.28125-11.28125 11.28125s-11.28125-5.050781-11.28125-11.28125c0-6.230468 5.050781-11.28125 11.28125-11.28125s11.28125 5.050782 11.28125 11.28125zm0 0" fill="#eaa27f"/><path d="m373.4375 188.039062v44.722657c0 11.316406-1.597656 22.265625-4.597656 32.621093-12.433594 43.121094-48.921875 76.046876-93.996094 83.296876-.1875.03125-.386719.0625-.574219.097656-39.949219-6.238282-73.21875-32.632813-89.101562-68.441406-6.457031-14.546876-10.039063-30.648438-10.039063-47.574219v-44.722657c0-9.625 1.160156-18.976562 3.34375-27.921874 4.691406-1.273438 9.539063-2.433594 14.542969-3.46875v-.007813c19.175781-4.003906 40.511719-6.230469 62.988281-6.230469 13.613282 0 26.820313.816406 39.371094 2.363282 30.75 3.75 57.65625 11.808593 77.386719 22.652343.449219 4.148438.675781 8.351563.675781 12.613281zm0 0" fill="#f6ba97"/><path d="m255.992188 290.601562c-9.835938 0-19.667969-2.464843-28.632813-7.390624-2.527344-1.390626-3.453125-4.566407-2.0625-7.09375 1.390625-2.53125 4.566406-3.453126 7.097656-2.0625 14.773438 8.125 32.417969 8.121093 47.195313 0 2.527344-1.390626 5.703125-.46875 7.09375 2.0625 1.390625 2.527343.46875 5.703124-2.0625 7.09375-8.960938 4.925781-18.796875 7.390624-28.628906 7.390624zm0 0" fill="#eaa27f"/><path d="m269.3125 259.46875h-26.644531c-3.171875 0-5.746094-2.574219-5.746094-5.75 0-3.171875 2.574219-5.746094 5.746094-5.746094h26.644531c3.175781 0 5.75 2.574219 5.75 5.746094 0 3.175781-2.574219 5.75-5.75 5.75zm0 0" fill="#eaa27f"/><path d="m257.496094 462.503906-24.660156 10.550782c-4.324219 1.851562-9.339844-.144532-11.1875-4.480469l-34.890626-81.546875-11.148437-26.058594c14.117187-5.546875 29.589844-7.761719 45.117187-6.058594l16.636719 38.878906 24.617188 57.523438c1.847656 4.335938-.15625 9.339844-4.484375 11.191406zm0 0" fill="#673389"/><path d="m226 367.21875c-11.859375 6.855469-22.109375 16.207031-30.007812 27.332031-1.277344 1.800781-2.496094 3.648438-3.648438 5.539063l-16.738281-39.121094c14.128906-5.546875 29.589843-7.761719 45.128906-6.058594zm0 0" fill="#512375"/><path d="m230.984375 225.921875c0 7.359375-5.964844 13.324219-13.324219 13.324219-7.355468 0-13.320312-5.964844-13.320312-13.324219 0-7.355469 5.964844-13.320313 13.320312-13.320313 7.359375 0 13.324219 5.964844 13.324219 13.320313zm0 0" fill="#2f373b"/><path d="m307.652344 225.921875c0 7.359375-5.964844 13.324219-13.324219 13.324219-7.355469 0-13.320313-5.964844-13.320313-13.324219 0-7.355469 5.964844-13.320313 13.320313-13.320313 7.359375 0 13.324219 5.964844 13.324219 13.320313zm0 0" fill="#2f373b"/><path d="m228.265625 223.570312c0 3.152344-2.554687 5.710938-5.707031 5.710938s-5.707032-2.558594-5.707032-5.710938c0-3.152343 2.554688-5.707031 5.707032-5.707031s5.707031 2.554688 5.707031 5.707031zm0 0" fill="#fff"/><path d="m305.589844 223.570312c0 3.152344-2.558594 5.710938-5.710938 5.710938s-5.707031-2.558594-5.707031-5.710938c0-3.152343 2.554687-5.707031 5.707031-5.707031s5.710938 2.554688 5.710938 5.707031zm0 0" fill="#fff"/><path d="m340.359375 326.078125c3.652344 11.875 7.304687 23.75 10.957031 35.625 1.410156 4.484375-1.917968 9.53125-7.488281 11.054687-57.496094 15.738282-118.171875 15.738282-175.671875 0-5.566406-1.523437-8.894531-6.570312-7.488281-11.054687 3.65625-11.875 7.308593-23.75 10.960937-35.625 1.414063-4.5 6.257813-6.976563 10.871094-5.71875 48.109375 13.171875 98.878906 13.167969 146.988281 0 4.609375-1.257813 9.457031 1.21875 10.871094 5.71875zm0 0" fill="#512375"/><path d="m237.363281 393.789062c-16.96875-.949218-33.898437-3.195312-50.605469-6.761718l-11.148437-26.058594c14.117187-5.546875 29.589844-7.761719 45.117187-6.058594zm0 0" fill="#512375"/><path d="m340.359375 326.078125c3.652344 11.875 7.304687 23.75 10.957031 35.625 1.410156 4.484375-1.917968 9.53125-7.488281 11.054687-41.113281 11.253907-83.855469 14.460938-125.898437 9.621094-5.695313-.65625-9.710938-5.132812-9-9.777344 1.800781-12.292968 3.605468-24.585937 5.410156-36.878906.710937-4.660156 5.089844-7.855468 9.804687-7.3125 35.179688 4.050782 70.941407 1.367188 105.34375-8.050781 4.609375-1.257813 9.457031 1.21875 10.871094 5.71875zm0 0" fill="#673389"/><path d="m373.4375 188.039062v30.3125c-61.15625-1.304687-108.875-57.207031-180.421875-61.703124v-.007813c19.175781-4.003906 40.511719-6.230469 62.988281-6.230469 13.613282 0 26.820313.816406 39.371094 2.363282 30.75 3.75 57.65625 11.808593 77.386719 22.652343.449219 4.148438.675781 8.351563.675781 12.613281zm0 0" fill="#2f373b"/><path d="m158.492188 166.597656c0 21.941406-2.015626 46.527344-19.9375 51.304688v-29.863282c0-4.253906.230468-8.464843.671874-12.601562 5.828126-3.207031 12.277344-6.164062 19.265626-8.839844zm0 0" fill="#2f373b"/></svg>