<svg height="512pt" viewBox="0 0 512 512" width="512pt" xmlns="http://www.w3.org/2000/svg"><path d="m512 256c0 141.386719-114.613281 256-256 256s-256-114.613281-256-256 114.613281-256 256-256 256 114.613281 256 256zm0 0" fill="#27ba9e"/><path d="m382.121094 449.578125v29.246094c-14.898438 8.453125-30.730469 15.453125-47.300782 20.804687-24.828124 8.035156-51.316406 12.371094-78.816406 12.371094-22.882812 0-45.066406-3-66.175781-8.640625-3.824219-1.015625-7.605469-2.121094-11.355469-3.3125-.429687-.136719-.859375-.273437-1.285156-.417969-5.988281-1.925781-11.882812-4.078125-17.660156-6.4375-10.230469-4.160156-20.125-8.964844-29.644532-14.367187v-29.246094c0-20.03125 6.199219-38.621094 16.773438-53.949219 13.675781-19.851562 34.710938-34.242187 59.171875-39.246094 3.730469-.761718 7.53125-1.304687 11.410156-1.621093 2.570313-.207031 5.160157-.3125 7.785157-.3125h61.949218c6.679688 0 13.1875.679687 19.46875 1.984375.617188.125 1.222656.261718 1.828125.398437 23.5625 5.390625 43.78125 19.519531 57.082031 38.796875 10.574219 15.328125 16.769532 33.917969 16.769532 53.949219zm0 0" fill="#151a1c"/><path d="m382.121094 449.578125v29.246094c-37.222656 21.117187-80.261719 33.175781-126.121094 33.175781-27.03125 0-53.070312-4.191406-77.53125-11.953125v-50.46875c0-52.539063 42.601562-95.128906 95.148438-95.128906h13.355468c52.554688 0 95.148438 42.589843 95.148438 95.128906zm0 0" fill="#2f373b"/><path d="m298.84375 393.164062c0 22.203126-16.894531 40.46875-38.535156 42.628907-1.410156.136719-2.851563.210937-4.304688.210937-1.441406 0-2.875-.074218-4.285156-.210937-21.648438-2.152344-38.554688-20.414063-38.554688-42.628907 0-23.65625 19.183594-42.84375 42.839844-42.84375s42.839844 19.1875 42.839844 42.84375zm0 0" fill="#f2efea"/><path d="m255.992188 393.394531-42.828126 23.800781-13.03125-60.601562 26.613282-15.675781" fill="#d8d4ce"/><path d="m255.992188 393.394531 42.828124 23.800781 13.03125-60.601562-26.613281-15.675781" fill="#d8d4ce"/><path d="m289.941406 317.800781v41.65625c0 15.25-10.054687 28.140625-23.90625 32.421875-3.167968.980469-6.546875 1.515625-10.042968 1.515625-18.742188 0-33.9375-15.195312-33.9375-33.9375v-41.65625zm0 0" fill="#eaa27f"/><path d="m289.941406 356.816406v2.640625c0 15.25-10.054687 28.140625-23.90625 32.421875-12.496094-3.84375-21.890625-14.707031-23.625-28.003906 2.265625.140625 4.546875.210938 6.835938.210938 6.421875 0 12.71875-.511719 18.851562-1.519532 7.554688-1.210937 14.855469-3.15625 21.84375-5.75zm0 0" fill="#f6ba97"/><path d="m177.1875 449.578125v50.050781c-5.988281-1.925781-11.882812-4.078125-17.660156-6.4375-10.230469-4.160156-20.125-8.964844-29.644532-14.367187v-29.246094c0-20.03125 6.199219-38.621094 16.773438-53.949219zm0 0" fill="#d8d4ce"/><path d="m382.121094 449.578125v29.246094c-14.898438 8.453125-30.730469 15.453125-47.300782 20.804687v-50.050781l30.53125-53.949219c10.574219 15.328125 16.769532 33.917969 16.769532 53.949219zm0 0" fill="#f2efea"/><path d="m162.886719 249.535156c0 15.710938-11.480469 28.742188-26.511719 31.160156-1.640625.265626-3.332031.402344-5.054688.402344-17.4375 0-31.566406-14.125-31.566406-31.5625s14.128906-31.566406 31.566406-31.566406c1.722657 0 3.414063.140625 5.054688.40625 15.03125 2.417969 26.511719 15.445312 26.511719 31.160156zm0 0" fill="#f6ba97"/><path d="m162.886719 249.535156c0 15.710938-11.480469 28.742188-26.511719 31.160156-2.730469-9.929687-4.1875-20.378906-4.1875-31.160156 0-10.785156 1.457031-21.234375 4.1875-31.160156 15.03125 2.417969 26.511719 15.445312 26.511719 31.160156zm0 0" fill="#eaa27f"/><path d="m142.601562 249.535156c0 6.230469-5.050781 11.28125-11.28125 11.28125-6.230468 0-11.28125-5.050781-11.28125-11.28125 0-6.230468 5.050782-11.28125 11.28125-11.28125 6.230469 0 11.28125 5.050782 11.28125 11.28125zm0 0" fill="#eaa27f"/><path d="m349.101562 249.535156c0 15.710938 11.476563 28.742188 26.507813 31.160156 1.644531.265626 3.332031.402344 5.058594.402344 17.4375 0 31.5625-14.125 31.5625-31.5625s-14.125-31.566406-31.5625-31.566406c-1.726563 0-3.414063.140625-5.058594.40625-15.03125 2.417969-26.507813 15.445312-26.507813 31.160156zm0 0" fill="#f6ba97"/><g fill="#eaa27f"><path d="m349.101562 249.535156c0 15.710938 11.476563 28.742188 26.507813 31.160156 2.730469-9.929687 4.191406-20.378906 4.191406-31.160156 0-10.785156-1.457031-21.234375-4.191406-31.160156-15.03125 2.417969-26.507813 15.445312-26.507813 31.160156zm0 0"/><path d="m373.4375 188.039062v44.722657c0 58.441406-42.695312 106.925781-98.597656 115.921875-.1875.03125-.386719.0625-.574219.09375-5.945313.949218-12.046875 1.421875-18.277344 1.421875-64.855469 0-117.433593-52.582031-117.433593-117.4375v-44.722657c0-13.65625 2.328124-26.78125 6.632812-38.972656 16.0625-45.707031 59.613281-78.472656 110.800781-78.472656h.011719c6.21875 0 12.328125.480469 18.285156 1.421875 56.175782 8.777344 99.152344 57.382813 99.152344 116.023437zm0 0"/><path d="m391.949219 249.535156c0 6.230469-5.050781 11.28125-11.28125 11.28125s-11.28125-5.050781-11.28125-11.28125c0-6.230468 5.050781-11.28125 11.28125-11.28125s11.28125 5.050782 11.28125 11.28125zm0 0"/></g><path d="m373.4375 188.039062v44.722657c0 58.441406-42.695312 106.925781-98.597656 115.921875-.1875.03125-.386719.0625-.574219.09375-56.175781-8.777344-99.140625-57.386719-99.140625-116.015625v-44.722657c0-58.640624 42.976562-107.246093 99.160156-116.023437 56.175782 8.777344 99.152344 57.382813 99.152344 116.023437zm0 0" fill="#f6ba97"/><path d="m255.992188 301.050781c-9.835938 0-19.667969-2.464843-28.632813-7.390625-2.527344-1.390625-3.453125-4.566406-2.0625-7.097656 1.390625-2.527344 4.566406-3.449219 7.097656-2.058594 14.773438 8.121094 32.417969 8.121094 47.195313 0 2.527344-1.390625 5.703125-.46875 7.09375 2.058594 1.390625 2.53125.46875 5.707031-2.0625 7.097656-8.960938 4.925782-18.796875 7.390625-28.628906 7.390625zm0 0" fill="#eaa27f"/><path d="m269.3125 259.46875h-26.644531c-3.171875 0-5.746094-2.574219-5.746094-5.75 0-3.171875 2.574219-5.746094 5.746094-5.746094h26.644531c3.175781 0 5.75 2.574219 5.75 5.746094 0 3.175781-2.574219 5.75-5.75 5.75zm0 0" fill="#eaa27f"/><path d="m230.984375 225.921875c0 7.359375-5.964844 13.324219-13.324219 13.324219-7.355468 0-13.320312-5.964844-13.320312-13.324219 0-7.355469 5.964844-13.320313 13.320312-13.320313 7.359375 0 13.324219 5.964844 13.324219 13.320313zm0 0" fill="#2f373b"/><path d="m307.652344 225.921875c0 7.359375-5.964844 13.324219-13.324219 13.324219-7.355469 0-13.320313-5.964844-13.320313-13.324219 0-7.355469 5.964844-13.320313 13.320313-13.320313 7.359375 0 13.324219 5.964844 13.324219 13.320313zm0 0" fill="#2f373b"/><path d="m228.265625 223.570312c0 3.152344-2.554687 5.710938-5.707031 5.710938s-5.707032-2.558594-5.707032-5.710938c0-3.152343 2.554688-5.707031 5.707032-5.707031s5.707031 2.554688 5.707031 5.707031zm0 0" fill="#fff"/><path d="m305.589844 223.570312c0 3.152344-2.558594 5.710938-5.710938 5.710938s-5.707031-2.558594-5.707031-5.710938c0-3.152343 2.554687-5.707031 5.707031-5.707031s5.710938 2.554688 5.710938 5.707031zm0 0" fill="#fff"/><path d="m195.398438 276.074219v21.921875c0 33.652344 26.566406 61.300781 60.191406 62.644531l.410156.015625.410156-.015625c33.625-1.339844 60.191406-28.988281 60.191406-62.640625v-21.925781c0-8.527344-6.910156-15.4375-15.4375-15.4375h-90.328124c-8.523438 0-15.4375 6.910156-15.4375 15.4375zm100.304687 21.964843c0 7.316407-1.859375 14.1875-5.144531 20.164063-6.398438 11.640625-24.109375 7.089844-24.109375-6.195313h-20.898438v.003907c0 13.285156-17.707031 17.835937-24.109375 6.195312-3.285156-5.976562-5.144531-12.847656-5.144531-20.164062v-5.34375c0-6.167969 5-11.164063 11.164063-11.164063h57.078124c6.167969 0 11.164063 4.996094 11.164063 11.164063zm0 0" fill="#d65a05"/><path d="m370.910156 224.117188-2.402344-69.828126c-73.507812 24.898438-122.472656 36.65625-153.527343 31.347657 43.53125-8.320313 77.332031-37.347657 78.105469-38.015625-.910157.378906-50.53125 20.636718-81.40625 26.769531-14.484376 2.875-29.183594-4.605469-34.984376-18.191406-.042968-.070313-.074218-.15625-.105468-.226563 0 0-3.625 62.398438-40.21875 62.398438 0 0-44.9375-152.261719 32.90625-129.273438 0 0 22.515625-20.679687 56.132812-32.433594.125-.042968.25-.082031.386719-.136718.363281-.136719.738281-.261719 1.117187-.375.394532-.125.773438-.25 1.128907-.375 35.546875-11.726563 82.765625-12.949219 128.792969 29.664062 91.429687 84.636719 14.074218 138.675782 14.074218 138.675782zm0 0" fill="#f46d11"/><path d="m211.679688 174.390625c-14.484376 2.875-29.183594-4.605469-34.984376-18.191406-.042968-.070313-.074218-.15625-.105468-.226563 0 0-3.625 62.398438-40.21875 62.398438 0 0-44.9375-152.261719 32.90625-129.273438 0 0 22.515625-20.679687 56.132812-32.433594-46.132812 16.800782-33.972656 117.726563-13.730468 117.726563zm0 0" fill="#d65a05"/></svg>