<svg height="512pt" viewBox="0 0 512 512" width="512pt" xmlns="http://www.w3.org/2000/svg"><path d="m512 256c0 141.386719-114.613281 256-256 256s-256-114.613281-256-256 114.613281-256 256-256 256 114.613281 256 256zm0 0" fill="#27ba9e"/><g fill="#151a1c"><path d="m335.148438 329.945312v-22.988281c0-15.578125 12.632812-28.210937 28.214843-28.210937v22.988281c0 15.582031-12.632812 28.210937-28.214843 28.210937zm0 0"/><path d="m335.148438 370.957031v-22.984375c0-15.582031 12.632812-28.214844 28.214843-28.214844v22.988282c0 15.582031-12.632812 28.210937-28.214843 28.210937zm0 0"/><path d="m335.148438 411.972656v-22.988281c0-15.582031 12.632812-28.214844 28.214843-28.214844v22.988281c0 15.582032-12.632812 28.214844-28.214843 28.214844zm0 0"/><path d="m176.847656 329.945312v-22.988281c0-15.578125-12.632812-28.210937-28.214844-28.210937v22.988281c0 15.582031 12.632813 28.210937 28.214844 28.210937zm0 0"/><path d="m176.847656 370.957031v-22.984375c0-15.582031-12.632812-28.214844-28.214844-28.214844v22.988282c0 15.582031 12.632813 28.210937 28.214844 28.210937zm0 0"/><path d="m176.847656 411.972656v-22.988281c0-15.582031-12.632812-28.214844-28.214844-28.214844v22.988281c0 15.582032 12.632813 28.214844 28.214844 28.214844zm0 0"/></g><path d="m382.121094 449.578125v29.246094c-15.035156 8.515625-31.011719 15.578125-47.75 20.9375-1.734375.566406-3.46875 1.097656-5.226563 1.621093-6.507812 1.945313-13.132812 3.636719-19.851562 5.046876-2.945313.625-5.902344 1.203124-8.882813 1.714843-14.429687 2.539063-29.265625 3.855469-44.40625 3.855469s-29.980468-1.316406-44.410156-3.847656c-2.976562-.511719-5.933594-1.085938-8.878906-1.710938-7.808594-1.652344-15.464844-3.660156-22.988282-6-.417968-.136718-.835937-.261718-1.253906-.394531-.28125-.085937-.554687-.179687-.835937-.273437-16.730469-5.359376-32.714844-12.421876-47.753907-20.949219v-29.246094c0-35.289063 19.207032-66.089844 47.753907-82.507813 7.742187-4.460937 16.164062-7.855468 25.078125-9.988281 4.710937-1.136719 9.558594-1.921875 14.523437-2.320312 2.570313-.207031 5.160157-.3125 7.785157-.3125h61.949218c7.324219 0 14.453125.816406 21.296875 2.382812.34375.082031.6875.15625 1.023438.238281 8.914062 2.144532 17.335937 5.539063 25.078125 10 28.535156 16.425782 47.75 47.230469 47.75 82.507813zm0 0" fill="#0c85a5"/><path d="m382.121094 449.578125v29.246094c-35.421875 20.101562-76.121094 31.992187-119.503906 33.089843-2.203126.054688-4.398438.085938-6.613282.085938s-4.421875-.03125-6.613281-.09375c-24.671875-.617188-48.464844-4.734375-70.917969-11.859375v-50.46875c0-52.539063 42.597656-95.128906 95.148438-95.128906h13.351562c52.558594 0 95.148438 42.589843 95.148438 95.128906zm0 0" fill="#1da2dd"/><path d="m255.992188 393.394531-42.828126 23.800781-13.03125-60.601562 26.613282-15.675781" fill="#c1dce5"/><path d="m255.992188 393.394531 42.828124 23.800781 13.03125-60.601562-26.613281-15.675781" fill="#c1dce5"/><path d="m289.941406 317.800781v41.65625c0 15.25-10.054687 28.140625-23.90625 32.421875-3.167968.980469-6.546875 1.515625-10.042968 1.515625-18.742188 0-33.9375-15.195312-33.9375-33.9375v-41.65625zm0 0" fill="#eaa27f"/><path d="m289.941406 356.816406v2.640625c0 15.25-10.054687 28.140625-23.90625 32.421875-12.496094-3.84375-21.890625-14.707031-23.625-28.003906 2.265625.140625 4.546875.210938 6.835938.210938 6.421875 0 12.71875-.511719 18.851562-1.519532 7.554688-1.210937 14.855469-3.15625 21.84375-5.75zm0 0" fill="#f6ba97"/><path d="m161.355469 249.53125c0 15.714844-11.476563 28.742188-26.507813 31.160156-1.644531.269532-3.332031.40625-5.058594.40625-17.433593 0-31.5625-14.128906-31.5625-31.566406 0-17.433594 14.128907-31.5625 31.5625-31.5625 1.726563 0 3.414063.136719 5.058594.40625 15.03125 2.417969 26.507813 15.445312 26.507813 31.15625zm0 0" fill="#f6ba97"/><path d="m161.355469 249.53125c0 15.714844-11.476563 28.742188-26.507813 31.160156-2.730468-9.925781-4.1875-20.375-4.1875-31.160156 0-10.78125 1.457032-21.230469 4.1875-31.15625 15.03125 2.417969 26.507813 15.445312 26.507813 31.15625zm0 0" fill="#eaa27f"/><path d="m141.074219 249.53125c0 6.234375-5.050781 11.285156-11.285157 11.285156-6.230468 0-11.28125-5.050781-11.28125-11.285156 0-6.230469 5.050782-11.28125 11.28125-11.28125 6.234376 0 11.285157 5.050781 11.285157 11.28125zm0 0" fill="#eaa27f"/><path d="m350.640625 249.53125c0 15.714844 11.476563 28.742188 26.507813 31.160156 1.644531.269532 3.332031.40625 5.058593.40625 17.4375 0 31.5625-14.128906 31.5625-31.566406 0-17.433594-14.125-31.5625-31.5625-31.5625-1.726562 0-3.414062.136719-5.058593.40625-15.03125 2.417969-26.507813 15.445312-26.507813 31.15625zm0 0" fill="#f6ba97"/><path d="m350.640625 249.53125c0 15.714844 11.476563 28.742188 26.507813 31.160156 2.730468-9.925781 4.191406-20.375 4.191406-31.160156 0-10.78125-1.457032-21.230469-4.191406-31.15625-15.03125 2.417969-26.507813 15.445312-26.507813 31.15625zm0 0" fill="#eaa27f"/><path d="m393.488281 249.53125c0 6.234375-5.050781 11.285156-11.28125 11.285156s-11.28125-5.050781-11.28125-11.285156c0-6.230469 5.050781-11.28125 11.28125-11.28125s11.28125 5.050781 11.28125 11.28125zm0 0" fill="#eaa27f"/><path d="m373.4375 188.039062v44.722657c0 58.441406-42.691406 106.921875-98.59375 115.917969-.1875.03125-.386719.0625-.574219.097656-5.945312.949218-12.050781 1.417968-18.277343 1.417968-64.855469 0-117.4375-52.578124-117.4375-117.433593v-44.722657c0-13.65625 2.332031-26.78125 6.636718-38.976562 16.058594-45.703125 59.613282-78.46875 110.800782-78.46875h.011718c6.214844 0 12.328125.480469 18.285156 1.417969 56.171876 8.777343 99.148438 57.386719 99.148438 116.027343zm0 0" fill="#eaa27f"/><path d="m373.4375 188.039062v44.722657c0 9.664062-1.167969 19.066406-3.375 28.054687-4.011719 16.351563-11.441406 31.355469-21.503906 44.21875v.011719c-17.835938 22.800781-43.894532 38.828125-73.714844 43.632813-.1875.03125-.386719.0625-.574219.097656-56.175781-8.777344-99.140625-57.386719-99.140625-116.015625v-44.722657c0-58.640624 42.976563-107.25 99.160156-116.027343 49.359376 7.714843 88.535157 46.1875 97.3125 95.203125 1.210938 6.757812 1.835938 13.71875 1.835938 20.824218zm0 0" fill="#f6ba97"/><path d="m335.933594 263.59375c0 8.082031-6.550782 14.628906-14.628906 14.628906-8.078126 0-14.628907-6.546875-14.628907-14.628906 0-8.078125 6.550781-14.628906 14.628907-14.628906 8.078124 0 14.628906 6.550781 14.628906 14.628906zm0 0" fill="#eaa27f"/><path d="m205.320312 263.59375c0 8.082031-6.550781 14.628906-14.628906 14.628906s-14.628906-6.546875-14.628906-14.628906c0-8.078125 6.550781-14.628906 14.628906-14.628906s14.628906 6.550781 14.628906 14.628906zm0 0" fill="#eaa27f"/><path d="m319.066406 222.84375c0-10.773438-8.734375-19.507812-19.503906-19.507812-10.773438 0-19.507812 8.734374-19.507812 19.507812" fill="#eaa27f"/><path d="m231.949219 222.84375c0-10.773438-8.734375-19.507812-19.503907-19.507812-10.773437 0-19.507812 8.734374-19.507812 19.507812" fill="#eaa27f"/><path d="m225.765625 231.144531c0 7.359375-5.964844 13.324219-13.320313 13.324219-7.359374 0-13.324218-5.964844-13.324218-13.324219 0-7.355469 5.964844-13.320312 13.324218-13.320312 7.355469 0 13.320313 5.964843 13.320313 13.320312zm0 0" fill="#2f373b"/><path d="m312.882812 231.144531c0 7.359375-5.964843 13.324219-13.320312 13.324219-7.359375 0-13.324219-5.964844-13.324219-13.324219 0-7.355469 5.964844-13.320312 13.324219-13.320312 7.355469 0 13.320312 5.964843 13.320312 13.320312zm0 0" fill="#2f373b"/><path d="m269.324219 264.6875h-26.644531c-3.175782 0-5.746094-2.570312-5.746094-5.746094 0-3.171875 2.570312-5.746094 5.746094-5.746094h26.644531c3.175781 0 5.746093 2.574219 5.746093 5.746094 0 3.175782-2.570312 5.746094-5.746093 5.746094zm0 0" fill="#eaa27f"/><path d="m256.003906 301.046875c-9.835937 0-19.667968-2.460937-28.632812-7.390625-2.527344-1.390625-3.453125-4.566406-2.0625-7.09375s4.566406-3.449219 7.09375-2.0625c14.777344 8.125 32.421875 8.125 47.199218 0 2.527344-1.390625 5.703126-.46875 7.09375 2.0625 1.390626 2.527344.46875 5.703125-2.0625 7.09375-8.960937 4.929688-18.796874 7.390625-28.628906 7.390625zm0 0" fill="#eaa27f"/><path d="m223.050781 228.796875c0 3.152344-2.558593 5.707031-5.710937 5.707031s-5.707032-2.554687-5.707032-5.707031c0-3.15625 2.554688-5.710937 5.707032-5.710937s5.710937 2.554687 5.710937 5.710937zm0 0" fill="#fff"/><path d="m310.820312 228.796875c0 3.152344-2.554687 5.707031-5.707031 5.707031-3.152343 0-5.707031-2.554687-5.707031-5.707031 0-3.15625 2.554688-5.710937 5.707031-5.710937 3.152344 0 5.707031 2.554687 5.707031 5.710937zm0 0" fill="#fff"/><path d="m274.289062 61.5625c-5.957031-.9375-12.070312-1.417969-18.285156-1.417969-6.21875 0-12.332031.480469-18.285156 1.417969-56.175781 8.777344-111.367188 40.804688-111.367188 102.296875s12.214844 68.902344 12.214844 68.902344 96.539063-64.253907 117.4375-107.835938c20.898438 43.582031 117.433594 107.835938 117.433594 107.835938s12.214844-7.410157 12.214844-68.902344-55.191406-93.519531-111.363282-102.296875zm0 0" fill="#2f373b"/><path d="m256.003906 60.144531c-3.050781 0-6.0625.480469-8.988281 1.417969-27.617187 8.777344-54.75 40.804688-54.75 102.296875 0 11.253906.195313 20.699219.53125 28.621094-28.042969 22.851562-54.230469 40.28125-54.230469 40.28125s-12.214844-7.410157-12.214844-68.902344 55.191407-93.519531 111.367188-102.296875c5.953125-.9375 12.066406-1.417969 18.285156-1.417969zm0 0" fill="#151a1c"/><path d="m255.988281 60.140625c-.75 0-1.496093.027344-2.242187.042969.742187-.027344 1.488281-.042969 2.242187-.042969zm0 0" fill="#151a1c"/></svg>