<svg height="512pt" viewBox="0 0 512 512" width="512pt" xmlns="http://www.w3.org/2000/svg"><path d="m512 256c0 141.386719-114.613281 256-256 256s-256-114.613281-256-256 114.613281-256 256-256 256 114.613281 256 256zm0 0" fill="#1da2dd"/><path d="m160.625 249.265625c0 15.714844-11.476562 28.742187-26.507812 31.160156-1.640626.265625-3.332032.40625-5.054688.40625-17.4375 0-31.566406-14.128906-31.566406-31.566406s14.128906-31.5625 31.566406-31.5625c1.722656 0 3.414062.136719 5.054688.402344 15.03125 2.421875 26.507812 15.449219 26.507812 31.160156zm0 0" fill="#d39272"/><path d="m140.34375 249.265625c0 6.230469-5.050781 11.28125-11.28125 11.28125s-11.28125-5.050781-11.28125-11.28125 5.050781-11.28125 11.28125-11.28125 11.28125 5.050781 11.28125 11.28125zm0 0" fill="#bf7c5e"/><path d="m414.488281 249.265625c0 15.714844-11.476562 28.742187-26.507812 31.160156-1.640625.265625-3.332031.40625-5.054688.40625-17.4375 0-31.566406-14.128906-31.566406-31.566406s14.128906-31.5625 31.566406-31.5625c1.722657 0 3.414063.136719 5.054688.402344 15.03125 2.421875 26.507812 15.449219 26.507812 31.160156zm0 0" fill="#d39272"/><path d="m394.207031 249.265625c0 6.230469-5.050781 11.28125-11.28125 11.28125s-11.28125-5.050781-11.28125-11.28125 5.050781-11.28125 11.28125-11.28125 11.28125 5.050781 11.28125 11.28125zm0 0" fill="#bf7c5e"/><path d="m383.882812 188.039062v289.769532c-12.765624 7.390625-26.226562 13.691406-40.269531 18.800781h-175.230469c-14.042968-5.109375-27.511718-11.421875-40.28125-18.800781v-289.769532c0-14.578124 2.4375-28.859374 7.234376-42.453124 17.960937-51.097657 66.441406-85.441407 120.652343-85.441407 6.71875 0 13.417969.519531 19.925781 1.546875 29.789063 4.660156 57.113282 19.863282 76.925782 42.808594 20.019531 23.195312 31.042968 52.859375 31.042968 83.539062zm0 0" fill="#2f373b"/><path d="m153.054688 274.59375h202.710937v146.285156h-202.710937zm0 0" fill="#151a1c"/><path d="m190.6875 248.964844c17.25 60.773437 24.21875 165.609375 27.007812 247.644531h-49.308593c-14.042969-5.109375-27.511719-11.421875-40.277344-18.800781v-289.769532c0-14.578124 2.433594-28.859374 7.230469-42.453124 17.960937-51.097657 66.445312-85.441407 120.652344-85.441407-45.398438 0-96.671876 78.335938-65.304688 188.820313zm0 0" fill="#151a1c"/><path d="m382.121094 449.578125v29.246094c-14.898438 8.453125-30.730469 15.453125-47.300782 20.804687-24.828124 8.035156-51.316406 12.371094-78.816406 12.371094-27.03125 0-53.070312-4.191406-77.53125-11.953125-.429687-.136719-.859375-.273437-1.285156-.417969-16.5625-5.351562-32.402344-12.351562-47.304688-20.804687v-29.246094c0-35.097656 19.007813-65.757813 47.304688-82.246094 4.910156-2.863281 10.113281-5.308593 15.546875-7.261719 2.800781-1.011718 5.664063-1.902343 8.578125-2.644531.730469-.1875 1.472656-.363281 2.214844-.542969 4.453125-1.035156 9.027344-1.742187 13.710937-2.121093 2.570313-.207031 5.160157-.3125 7.785157-.3125h61.949218c7.324219 0 14.453125.816406 21.296875 2.382812.074219.019531.136719.03125.207031.050781.734376.167969 1.484376.347657 2.207032.535157 2.914062.75 5.789062 1.640625 8.589844 2.652343 5.433593 1.953126 10.625 4.398438 15.546874 7.261719 28.285157 16.488281 47.300782 47.15625 47.300782 82.246094zm0 0" fill="#17a388"/><path d="m382.121094 449.578125v29.246094c-37.222656 21.117187-80.261719 33.175781-126.121094 33.175781-27.03125 0-53.070312-4.191406-77.53125-11.953125v-50.46875c0-52.539063 42.601562-95.128906 95.148438-95.128906h13.355468c52.554688 0 95.148438 42.589843 95.148438 95.128906zm0 0" fill="#27ba9e"/><path d="m177.1875 367.332031v132.296875c-16.5625-5.351562-32.402344-12.351562-47.304688-20.804687v-29.246094c0-35.097656 19.007813-65.757813 47.304688-82.246094zm0 0" fill="#bf7c5e"/><path d="m382.121094 449.578125v29.246094c-14.898438 8.453125-30.730469 15.453125-47.300782 20.804687v-132.296875c28.285157 16.488281 47.300782 47.15625 47.300782 82.246094zm0 0" fill="#d39272"/><path d="m289.941406 317.800781v41.65625c0 15.25-10.054687 28.140625-23.90625 32.421875-3.167968.980469-6.546875 1.515625-10.042968 1.515625-18.742188 0-33.9375-15.195312-33.9375-33.9375v-41.65625zm0 0" fill="#bf7c5e"/><path d="m289.941406 356.820312v2.636719c0 15.25-10.054687 28.140625-23.90625 32.421875-12.496094-3.839844-21.890625-14.707031-23.625-28 2.265625.136719 4.546875.207032 6.835938.207032 6.421875 0 12.71875-.507813 18.851562-1.515626 7.554688-1.214843 14.855469-3.160156 21.84375-5.75zm0 0" fill="#d39272"/><path d="m373.433594 188.039062v44.722657c0 58.441406-42.691406 106.921875-98.59375 115.917969-.191406.03125-.386719.0625-.574219.097656-5.949219.949218-12.050781 1.417968-18.277344 1.417968-64.855469 0-117.4375-52.578124-117.4375-117.433593v-44.722657c0-13.65625 13.691407 14.953126 13.691407 14.953126h197.128906s24.0625-41.734376 24.0625-14.953126zm0 0" fill="#bf7c5e"/><path d="m373.433594 188.039062v44.722657c0 58.441406-42.691406 106.921875-98.59375 115.917969-.191406.03125-.386719.0625-.574219.097656-56.175781-8.777344-99.140625-57.386719-99.140625-116.015625v-24.542969c0-.242188 174.246094 0 174.246094 0s24.0625-46.960938 24.0625-20.179688zm0 0" fill="#d39272"/><path d="m132.433594 169.839844 1.324218-3.492188c-.441406-.398437-.890624-.78125-1.324218-1.1875zm0 0" fill="#2f373b"/><path d="m373.4375 159.453125-35.433594 43.539063 16.25 179.320312 29.628906-25.171875zm0 0" fill="#2f373b"/><path d="m138.546875 159.453125 35.4375 43.539063-16.25 179.320312-29.632813-25.171875zm0 0" fill="#151a1c"/><path d="m319.0625 222.84375c0-10.773438-8.734375-19.507812-19.507812-19.507812-10.769532 0-19.503907 8.734374-19.503907 19.507812" fill="#bf7c5e"/><path d="m231.945312 222.84375c0-10.773438-8.734374-19.507812-19.507812-19.507812-10.769531 0-19.503906 8.734374-19.503906 19.507812" fill="#bf7c5e"/><path d="m225.761719 231.144531c0 7.359375-5.964844 13.324219-13.324219 13.324219-7.355469 0-13.320312-5.964844-13.320312-13.324219 0-7.355469 5.964843-13.320312 13.320312-13.320312 7.359375 0 13.324219 5.964843 13.324219 13.320312zm0 0" fill="#2f373b"/><path d="m312.878906 231.144531c0 7.359375-5.964844 13.324219-13.324218 13.324219-7.355469 0-13.320313-5.964844-13.320313-13.324219 0-7.355469 5.964844-13.320312 13.320313-13.320312 7.359374 0 13.324218 5.964843 13.324218 13.320312zm0 0" fill="#2f373b"/><path d="m269.320312 264.6875h-26.644531c-3.175781 0-5.746093-2.570312-5.746093-5.746094 0-3.171875 2.570312-5.746094 5.746093-5.746094h26.644531c3.175782 0 5.746094 2.574219 5.746094 5.746094 0 3.175782-2.570312 5.746094-5.746094 5.746094zm0 0" fill="#bf7c5e"/><path d="m256 301.050781c-9.835938 0-19.667969-2.464843-28.632812-7.394531-2.527344-1.386719-3.453126-4.5625-2.0625-7.09375 1.390624-2.527344 4.566406-3.449219 7.09375-2.0625 14.777343 8.125 32.421874 8.125 47.199218 0 2.527344-1.386719 5.703125-.464844 7.09375 2.0625 1.390625 2.53125.46875 5.707031-2.0625 7.09375-8.960937 4.929688-18.796875 7.394531-28.628906 7.394531zm0 0" fill="#bf7c5e"/><path d="m223.046875 228.796875c0 3.152344-2.558594 5.707031-5.710937 5.707031-3.152344 0-5.707032-2.554687-5.707032-5.707031 0-3.15625 2.554688-5.710937 5.707032-5.710937 3.152343 0 5.710937 2.554687 5.710937 5.710937zm0 0" fill="#fff"/><path d="m310.816406 228.796875c0 3.152344-2.554687 5.707031-5.707031 5.707031s-5.707031-2.554687-5.707031-5.707031c0-3.15625 2.554687-5.710937 5.707031-5.710937s5.707031 2.554687 5.707031 5.710937zm0 0" fill="#fff"/><g fill="#bf7c5e"><path d="m335.929688 263.59375c0 8.082031-6.550782 14.628906-14.628907 14.628906s-14.628906-6.546875-14.628906-14.628906c0-8.078125 6.550781-14.628906 14.628906-14.628906s14.628907 6.550781 14.628907 14.628906zm0 0"/><path d="m205.316406 263.59375c0 8.082031-6.550781 14.628906-14.628906 14.628906s-14.628906-6.546875-14.628906-14.628906c0-8.078125 6.550781-14.628906 14.628906-14.628906s14.628906 6.550781 14.628906 14.628906zm0 0"/><path d="m338.003906 202.992188-3.109375-51.199219-9.929687 51.199219"/></g><path d="m403.417969 278.710938c0 4.957031-4.019531 8.976562-8.976563 8.976562-4.957031 0-8.972656-4.019531-8.972656-8.976562 0-4.957032 4.015625-8.972657 8.972656-8.972657 4.957032 0 8.976563 4.015625 8.976563 8.972657zm0 0" fill="#2f373b"/><path d="m126.539062 278.710938c0 4.957031-4.019531 8.976562-8.976562 8.976562s-8.972656-4.019531-8.972656-8.976562c0-4.957032 4.015625-8.972657 8.972656-8.972657s8.976562 4.015625 8.976562 8.972657zm0 0" fill="#2f373b"/><path d="m319.273438 360.070312c-2.800782-1.011718-5.675782-1.902343-8.589844-2.652343-.722656-.1875-1.472656-.367188-2.207032-.535157.316407 2.300782.472657 4.640626.472657 7.023438v26.464844c0 29.195312-23.75 52.945312-52.945313 52.945312-29.195312 0-52.945312-23.75-52.945312-52.945312v-26.464844c0-2.382812.15625-4.722656.46875-7.023438-.742188.179688-1.484375.355469-2.214844.542969-2.914062.742188-5.777344 1.632813-8.578125 2.644531-.082031 1.273438-.125 2.550782-.125 3.835938v26.464844c0 34.964844 28.441406 63.394531 63.394531 63.394531 34.949219 0 63.394532-28.429687 63.394532-63.394531v-26.464844c0-1.285156-.042969-2.5625-.125-3.835938zm0 0" fill="#ffe05c"/></svg>