<svg height="512pt" viewBox="0 0 512 512" width="512pt" xmlns="http://www.w3.org/2000/svg"><path d="m512 256c0 141.386719-114.613281 256-256 256s-256-114.613281-256-256 114.613281-256 256-256 256 114.613281 256 256zm0 0" fill="#27ba9e"/><path d="m382.121094 449.578125v29.246094c-28.222656 16.007812-59.789063 26.8125-93.390625 31.09375-10.722657 1.371093-21.640625 2.082031-32.726563 2.082031-13.3125 0-26.363281-1.015625-39.109375-2.96875-13.167969-2.015625-26-5.046875-38.421875-8.984375-17.03125-5.402344-33.300781-12.550781-48.589844-21.222656v-29.246094c0-44.441406 30.480469-81.785156 71.691407-92.214844 5.066406-1.292969 10.304687-2.171875 15.664062-2.601562 2.570313-.207031 5.160157-.3125 7.785157-.3125h61.949218c7.253906 0 14.316406.804687 21.097656 2.339843.0625.011719.136719.03125.199219.042969 42.296875 9.675781 73.851563 47.53125 73.851563 92.746094zm0 0" fill="#dd104f"/><path d="m382.121094 449.578125v29.246094c-22.726563 12.894531-47.613282 22.414062-74 27.855469-1.566406.324218-3.144532.636718-4.722656.929687-7.386719 1.390625-14.886719 2.457031-22.484376 3.175781-6.070312.597656-12.214843.972656-18.402343 1.128906-2.160157.054688-4.335938.085938-6.507813.085938-8.414062 0-16.71875-.410156-24.921875-1.191406-7.597656-.742188-15.097656-1.808594-22.484375-3.199219-10.273437-1.921875-20.324218-4.460937-30.125-7.5625v-50.46875c0-6.742187.699219-13.324219 2.035156-19.667969 2.613282-12.453125 7.671876-24 14.640626-34.136718.273437-.417969.5625-.8125.847656-1.222657 5.273437-7.425781 11.585937-14.0625 18.734375-19.683593 16.195312-12.789063 36.652343-20.417969 58.890625-20.417969h13.351562c4.285156 0 8.507813.28125 12.644532.835937 7.449218.980469 14.640624 2.84375 21.441406 5.464844 35.714844 13.6875 61.0625 48.296875 61.0625 88.828125zm0 0" fill="#f73b6c"/><path d="m308.070312 356.789062-5.664062 44.878907-13.675781 108.25c-10.722657 1.371093-21.640625 2.082031-32.726563 2.082031-13.3125 0-26.363281-1.015625-39.109375-2.96875l-1.140625-12.558594-11.996094-132.566406-2.183593-6.542969c5.066406-1.292969 10.304687-2.171875 15.664062-2.601562 2.570313-.207031 5.160157-.3125 7.785157-.3125h61.949218c7.253906 0 14.316406.804687 21.097656 2.339843zm0 0" fill="#c1dce5"/><path d="m302.40625 401.667969-13.675781 108.25c-10.722657 1.371093-21.640625 2.082031-32.726563 2.082031-13.3125 0-26.363281-1.015625-39.109375-2.96875l-1.140625-12.558594c2.164063-.367187 4.429688-.667968 6.8125-.910156 72.097656-7.3125 69.738282-79.445312 73.289063-109.023438zm0 0" fill="#9fc2cc"/><path d="m305.867188 373.394531c-4.578126 24.019531-25.726563 42.222657-51.042969 42.222657-25.320313 0-46.46875-18.203126-51.046875-42.222657h-10.605469c4.691406 29.800781 30.542969 52.671875 61.652344 52.671875 31.105469 0 56.957031-22.871094 61.648437-52.671875zm0 0" fill="#f46d11"/><path d="m289.941406 317.800781v41.65625c0 15.25-10.054687 28.140625-23.90625 32.421875-3.171875.980469-6.550781 1.515625-10.042968 1.515625-18.746094 0-33.9375-15.195312-33.9375-33.9375v-41.65625zm0 0" fill="#eaa27f"/><path d="m289.941406 356.816406v2.640625c0 15.25-10.054687 28.140625-23.90625 32.421875-12.496094-3.84375-21.890625-14.707031-23.628906-28.003906 2.269531.140625 4.550781.210938 6.839844.210938 6.421875 0 12.714844-.511719 18.847656-1.519532 7.558594-1.210937 14.859375-3.15625 21.847656-5.75zm0 0" fill="#f6ba97"/><path d="m231.082031 510.808594c-7.597656-.742188-15.097656-1.808594-22.484375-3.199219l-13.449218-111.835937-5.109376-42.472657 21.785157-2.625 2.90625 24.191407zm0 0" fill="#dd104f"/><path d="m321.957031 353.300781-.898437 7.449219-17.660156 146.859375c-7.386719 1.390625-14.886719 2.457031-22.484376 3.175781l18.703126-155.5.554687-4.609375zm0 0" fill="#dd104f"/><path d="m162.886719 249.535156c0 15.710938-11.480469 28.742188-26.511719 31.160156-1.640625.265626-3.332031.402344-5.054688.402344-17.4375 0-31.566406-14.125-31.566406-31.5625s14.128906-31.566406 31.566406-31.566406c1.722657 0 3.414063.140625 5.054688.40625 15.03125 2.417969 26.511719 15.445312 26.511719 31.160156zm0 0" fill="#f6ba97"/><path d="m162.886719 249.535156c0 15.710938-11.480469 28.742188-26.511719 31.160156-2.730469-9.929687-4.1875-20.378906-4.1875-31.160156 0-10.785156 1.457031-21.234375 4.1875-31.160156 15.03125 2.417969 26.511719 15.445312 26.511719 31.160156zm0 0" fill="#eaa27f"/><path d="m142.601562 249.535156c0 6.230469-5.050781 11.28125-11.28125 11.28125-6.230468 0-11.28125-5.050781-11.28125-11.28125 0-6.230468 5.050782-11.28125 11.28125-11.28125 6.230469 0 11.28125 5.050782 11.28125 11.28125zm0 0" fill="#eaa27f"/><path d="m349.101562 249.535156c0 15.710938 11.476563 28.742188 26.507813 31.160156 1.644531.265626 3.332031.402344 5.058594.402344 17.4375 0 31.5625-14.125 31.5625-31.5625s-14.125-31.566406-31.5625-31.566406c-1.726563 0-3.414063.140625-5.058594.40625-15.03125 2.417969-26.507813 15.445312-26.507813 31.160156zm0 0" fill="#f6ba97"/><g fill="#eaa27f"><path d="m349.101562 249.535156c0 15.710938 11.476563 28.742188 26.507813 31.160156 2.730469-9.929687 4.191406-20.378906 4.191406-31.160156 0-10.785156-1.457031-21.234375-4.191406-31.160156-15.03125 2.417969-26.507813 15.445312-26.507813 31.160156zm0 0"/><path d="m373.4375 188.039062v44.722657c0 58.441406-42.695312 106.925781-98.597656 115.921875-.1875.03125-.386719.0625-.574219.09375-5.945313.949218-12.046875 1.421875-18.277344 1.421875-64.855469 0-117.433593-52.582031-117.433593-117.4375v-44.722657c0-13.65625 2.328124-26.78125 6.632812-38.972656 16.0625-45.707031 59.613281-78.472656 110.800781-78.472656h.011719c6.21875 0 12.328125.480469 18.285156 1.421875 56.175782 8.777344 99.152344 57.382813 99.152344 116.023437zm0 0"/><path d="m391.949219 249.535156c0 6.230469-5.050781 11.28125-11.28125 11.28125s-11.28125-5.050781-11.28125-11.28125c0-6.230468 5.050781-11.28125 11.28125-11.28125s11.28125 5.050782 11.28125 11.28125zm0 0"/></g><path d="m373.4375 188.039062v44.722657c0 58.441406-42.695312 106.925781-98.597656 115.921875-.1875.03125-.386719.0625-.574219.09375-56.175781-8.777344-99.140625-57.386719-99.140625-116.015625v-44.722657c0-58.640624 42.976562-107.246093 99.160156-116.023437 56.175782 8.777344 99.152344 57.382813 99.152344 116.023437zm0 0" fill="#f6ba97"/><path d="m255.992188 295.828125c-9.835938 0-19.667969-2.464844-28.632813-7.394531-2.527344-1.386719-3.453125-4.566406-2.0625-7.09375s4.566406-3.449219 7.097656-2.0625c14.773438 8.125 32.417969 8.125 47.195313 0 2.527344-1.390625 5.703125-.46875 7.09375 2.0625 1.390625 2.527344.46875 5.707031-2.0625 7.09375-8.960938 4.929687-18.796875 7.394531-28.628906 7.394531zm0 0" fill="#eaa27f"/><path d="m269.3125 264.691406h-26.644531c-3.171875 0-5.746094-2.574218-5.746094-5.746094 0-3.175781 2.574219-5.746093 5.746094-5.746093h26.644531c3.175781 0 5.75 2.570312 5.75 5.746093 0 3.171876-2.574219 5.746094-5.75 5.746094zm0 0" fill="#eaa27f"/><path d="m138.554688 188.039062c106.050781-5.304687 155.679687-54.390624 155.679687-54.390624s23.617187 54.390624 79.203125 54.390624v-26.285156c0-64.859375-52.582031-117.441406-117.441406-117.441406-64.863282 0-117.441406 52.582031-117.441406 117.441406zm0 0" fill="#2f373b"/><path d="m278.714844 46.519531c-23.320313 4.566407-44.167969 16.039063-60.320313 32.191407-21.253906 21.253906-34.398437 50.613281-34.398437 83.046874v20.972657c-13.804688 2.589843-28.933594 4.484375-45.441406 5.308593v-26.28125c0-32.433593 13.144531-61.792968 34.398437-83.046874 21.25-21.253907 50.601563-34.398438 83.035156-34.398438 7.773438 0 15.382813.753906 22.726563 2.207031zm0 0" fill="#151a1c"/><path d="m229.140625 211.003906h71.445313v42.714844h-71.445313zm0 0" fill="#eaa27f"/><path d="m263.003906 217.613281c-4.90625-2.699219-10.769531-2.699219-15.679687 0l-6.339844-11.539062c8.878906-4.882813 19.484375-4.882813 28.363281 0zm0 0" fill="#f46d11"/><path d="m183.339844 290.382812c-7.359375 0-18.597656-2.867187-28.066406-10.914062-7.722657-6.5625-16.929688-18.90625-16.929688-40.410156 0-17.753906 7.242188-31.886719 20.945312-40.867188 13.363282-8.761718 28.855469-10.070312 36.902344-10.070312 1.640625 0 3.316406-.03125 5.09375-.066406 1.835938-.039063 3.738282-.074219 5.667969-.074219 13.371094 0 28.445313 2.070312 38.855469 17.429687 7.304687 10.773438 6.648437 25.53125-1.847656 41.554688-5.882813 11.09375-14.925782 21.632812-25.460938 29.667968-14.902344 11.363282-27.34375 13.75-35.160156 13.75zm0 0" fill="#f46d11"/><path d="m219.492188 264.308594c-10.867188 10.128906-24.121094 17.296875-36.148438 17.296875-11.394531 0-36.21875-9.347657-36.21875-42.542969 0-33.199219 28.914062-42.164062 49.066406-42.164062 4.804688 0 9.863282-.269532 14.871094-.066407 10.214844.414063 20.230469 2.804688 27.484375 13.5 9.558594 14.101563-1.699219 37.8125-19.054687 53.976563zm0 0" fill="#151a1c"/><path d="m328.648438 290.382812c-7.8125 0-20.257813-2.386718-35.15625-13.75-10.539063-8.035156-19.582032-18.574218-25.464844-29.667968-8.496094-16.027344-9.152344-30.78125-1.847656-41.554688 10.414062-15.359375 25.488281-17.433594 38.859374-17.433594 1.925782 0 3.828126.039063 5.667969.074219 1.773438.039063 3.449219.070313 5.089844.070313 8.046875 0 23.542969 1.308594 36.902344 10.066406 13.703125 8.980469 20.945312 23.117188 20.945312 40.871094 0 21.503906-9.207031 33.84375-16.929687 40.410156-9.464844 8.046875-20.703125 10.914062-28.066406 10.914062zm0 0" fill="#f46d11"/><path d="m364.867188 239.0625c0 28.894531-18.804688 39.714844-31.195313 42.035156-1.847656.347656-3.542969.507813-5.023437.507813-31.253907 0-70.75-48.34375-55.203126-71.273438 10.804688-15.9375 27.75-13.429687 42.347657-13.429687 3.792969 0 7.898437.3125 12.0625 1.050781 17.953125 3.175781 37.011719 14.152344 37.011719 41.109375zm0 0" fill="#151a1c"/><path d="m364.867188 239.0625c0 28.894531-18.804688 39.714844-31.195313 42.035156 17.25-28.097656 7.960937-67.867187-5.816406-83.144531 17.953125 3.175781 37.011719 14.152344 37.011719 41.109375zm0 0" fill="#2f373b"/><path d="m219.492188 264.308594c8.3125-24.207032 1.859374-52.679688-8.429688-67.472656 10.214844.410156 20.230469 2.804687 27.484375 13.496093 9.558594 14.101563-1.699219 37.8125-19.054687 53.976563zm0 0" fill="#2f373b"/></svg>