<svg id="Layer_1" data-name="Layer 1" xmlns="http://www.w3.org/2000/svg" viewBox="0 0 128 128"><defs><style>.cls-1{fill:#87b5d8;}.cls-2{fill:#6d9dc9;}.cls-15,.cls-16,.cls-17,.cls-3,.cls-4,.cls-5,.cls-7{fill:none;stroke-linejoin:round;}.cls-3{stroke:#3c6782;}.cls-3,.cls-4{stroke-width:4px;}.cls-15,.cls-16,.cls-17,.cls-4,.cls-5,.cls-7{stroke:#333;}.cls-15,.cls-5{stroke-width:2px;}.cls-6{fill:#fcaa06;}.cls-7{stroke-width:3px;}.cls-8{fill:#dadbc8;}.cls-9{fill:#9fc8e2;}.cls-10{fill:#efefe1;}.cls-11{fill:#f29f1c;}.cls-12{fill:#f9bf08;}.cls-13{fill:#7f8587;}.cls-14{fill:#929799;}.cls-15,.cls-17{stroke-linecap:square;}.cls-16{stroke-linecap:round;}</style></defs><title>robot-03</title><path class="cls-1" d="M86,83c-2.56,6.06-12,10-22,10S44.57,89.05,42,83a201.38,201.38,0,0,0-22,4c-9.78,2.46-9.75,14.52-10,16,.43.26,23,10,54,10,30.35,0,53.6-9.67,54-10-.15-1.13,0-13.5-10-16A206,206,0,0,0,86,83Z"/><path class="cls-2" d="M107.78,93.46,97.86,91a139.12,139.12,0,0,0-33.69-4.14H64A139.12,139.12,0,0,0,30.28,91l-9.92,2.47a12.9,12.9,0,0,0-9.22,8.88,132.83,132.83,0,0,0,52.93,10.94A132.83,132.83,0,0,0,117,102.34,12.9,12.9,0,0,0,107.78,93.46Z"/><path class="cls-2" d="M64,93a33,33,0,0,0,16-3.83V69H48V89.13A32.86,32.86,0,0,0,64,93Z"/><line class="cls-3" x1="48" y1="87" x2="80" y2="87"/><line class="cls-3" x1="48" y1="79" x2="80" y2="79"/><path class="cls-4" d="M80,69V89"/><path class="cls-4" d="M48,69V89"/><line class="cls-5" x1="34" y1="95" x2="44" y2="95"/><line class="cls-5" x1="34" y1="99" x2="44" y2="99"/><line class="cls-5" x1="84" y1="95" x2="94" y2="95"/><line class="cls-5" x1="84" y1="99" x2="94" y2="99"/><circle class="cls-6" cx="64" cy="103" r="4"/><circle class="cls-7" cx="64" cy="103" r="4"/><path class="cls-4" d="M86,83c-2.56,6.06-12,10-22,10S44.57,89.05,42,83a201.38,201.38,0,0,0-22,4c-9.78,2.46-9.75,14.52-10,16,.43.26,23,10,54,10,30.35,0,53.6-9.67,54-10-.15-1.13,0-13.5-10-16A206,206,0,0,0,86,83Z"/><path class="cls-1" d="M64,15c-17.64,0-23.6,9.38-23.49,21.58a44,44,0,0,0,.23,4.73l2.18,16.26c.21,12.2,7.94,16.74,9.84,19.31,3.44,4.65,8.52,4.76,11.24,4.74s7.8-.09,11.24-4.74c1.9-2.57,9.63-7.11,9.84-19.31l2.18-16.26a44,44,0,0,0,.23-4.73C87.6,24.38,81.64,15,64,15Z"/><path class="cls-8" d="M64,15c-17.64,0-23.6,9.38-23.49,21.58a44,44,0,0,0,.23,4.73l2.18,16.26a25.35,25.35,0,0,0,.34,3.75C52,63.28,56.7,63.26,64,63.26s12,0,20.74-1.94a25.35,25.35,0,0,0,.34-3.75l2.18-16.26a44,44,0,0,0,.23-4.73C87.6,24.38,81.64,15,64,15Z"/><path class="cls-9" d="M47.55,60.93,45.36,44.67a46,46,0,0,1-.22-4.73C45,25.15,51,18.37,68.63,18.37A32.4,32.4,0,0,1,83,21.86c-3.63-4-9.7-6.86-19-6.86-17.64,0-23.6,9.38-23.49,21.58a44,44,0,0,0,.23,4.73l2.18,16.26c.21,12.2,7.94,16.74,9.84,19.31a8.93,8.93,0,0,0,4.58,3.31C55.38,77.62,47.75,73.05,47.55,60.93Z"/><path class="cls-10" d="M43.26,61.32h0c1.41.08,2.86.15,4.32.21,0-.2,0-.39,0-.6L45.36,44.67a46,46,0,0,1-.22-4.73C45,25.15,51,18.37,68.63,18.37a32.47,32.47,0,0,1,14.31,3.45c-.22-.26-.46-.52-.7-.76C78.54,17.5,72.68,15,64,15c-6.61,0-11.59,1.32-15.21,3.61a16.79,16.79,0,0,0-3.19,2.61,15.84,15.84,0,0,0-1.84,2.33,16.43,16.43,0,0,0-1.4,2.62c-.14.3-.26.62-.38.93a26.69,26.69,0,0,0-1.47,9.48c0,2.1.13,3.71.19,4.38,0,.23,0,.35,0,.35l2.18,16.26c0,.68,0,1.34.11,2S43.17,60.75,43.26,61.32Z"/><path class="cls-4" d="M64,15.25c-17.64,0-23.6,9.13-23.49,21.33a44,44,0,0,0,.23,4.73l2.18,16.26c.21,12.2,7.94,16.74,9.84,19.31,3.44,4.65,8.52,4.4,11.24,4.37s7.8.28,11.24-4.37c1.9-2.57,9.63-7.11,9.84-19.31l2.18-16.26a44,44,0,0,0,.23-4.73C87.6,24.38,81.64,15.25,64,15.25Z"/><path class="cls-11" d="M75.43,34.6a11.43,11.43,0,1,0-19.49,8.07,11.26,11.26,0,0,1,3,7.68H69.06a11.26,11.26,0,0,1,3-7.68A11,11,0,0,0,75.43,34.6Z"/><path class="cls-12" d="M59,45a11.41,11.41,0,0,1,8.06-19.5,11.53,11.53,0,0,1,5.35,1.31A11.43,11.43,0,1,0,55.94,42.67a11.26,11.26,0,0,1,3,7.68h2.81A11.37,11.37,0,0,0,59,45Z"/><path class="cls-13" d="M59.88,50.35v3.19a3.76,3.76,0,0,0,3.75,3.75h.74a3.76,3.76,0,0,0,3.75-3.75V50.35Z"/><path class="cls-14" d="M62.48,55.68v-.42a2.76,2.76,0,0,1,2.76-2.76h2.88V50.35H59.88v3.19a3.76,3.76,0,0,0,2.93,3.65A3.62,3.62,0,0,1,62.48,55.68Z"/><path class="cls-15" d="M75.43,34.6a11.43,11.43,0,1,0-19.49,8.07,11.26,11.26,0,0,1,3,7.68H69.06a11.26,11.26,0,0,1,3-7.68A11,11,0,0,0,75.43,34.6Z"/><path class="cls-15" d="M59.88,50.35v3.19a3.76,3.76,0,0,0,3.75,3.75h.74a3.76,3.76,0,0,0,3.75-3.75V50.35Z"/><line class="cls-16" x1="61.94" y1="38.17" x2="66.06" y2="38.17"/><line class="cls-16" x1="61.94" y1="35.81" x2="66.06" y2="35.81"/><line class="cls-16" x1="61.94" y1="33.45" x2="66.06" y2="33.45"/><line class="cls-17" x1="64" y1="39.1" x2="64" y2="50.35"/><line class="cls-5" x1="60" y1="69.28" x2="68" y2="69.28"/><path class="cls-5" d="M44,61.28c8,2,12.7,2,20,2s12,0,20-2"/></svg>