<svg height="512pt" viewBox="0 0 512 512.00001" width="512pt" xmlns="http://www.w3.org/2000/svg"><path d="m512 256c0 141.386719-114.617188 256-256 256-141.386719 0-256-114.613281-256-256 0-141.382812 114.613281-256 256-256 141.382812 0 256 114.617188 256 256zm0 0" fill="#f46d11"/><path d="m307.902344 52.183594c0 22.578125-14.347656 41.816406-34.417969 49.078125-5.550781 2.003906-11.527344 3.101562-17.765625 3.101562-28.816406 0-52.179688-23.363281-52.179688-52.179687 0-28.820313 23.363282-52.183594 52.179688-52.183594 6.238281 0 12.214844 1.097656 17.765625 3.101562 20.070313 7.265626 34.417969 26.5 34.417969 49.082032zm0 0" fill="#e89f18"/><path d="m307.746094 48.097656c-15.695313-7.441406-33.238282-11.589844-51.753906-11.589844-5.015626 0-9.957032.304688-14.804688.898438 4.691406-15.933594 16.789062-28.691406 32.296875-34.304688 18.847656 6.824219 32.652344 24.203126 34.261719 44.996094zm0 0" fill="#ffe05c"/><path d="m382.121094 449.578125v29.246094c-12.203125 6.90625-25.023438 12.863281-38.367188 17.730469-3.09375 1.128906-6.230468 2.195312-9.382812 3.207031-1.734375.566406-3.46875 1.097656-5.226563 1.621093-6.507812 1.945313-13.132812 3.636719-19.851562 5.046876-2.949219.625-5.90625 1.203124-8.882813 1.714843-13.351562 2.351563-27.050781 3.65625-41.023437 3.832031-1.128907.011719-2.253907.023438-3.382813.023438s-2.257812-.011719-3.386718-.023438c-13.96875-.175781-27.667969-1.480468-41.023438-3.824218-2.976562-.511719-5.933594-1.085938-8.878906-1.710938-7.808594-1.652344-15.464844-3.660156-22.988282-6-.417968-.136718-.835937-.261718-1.253906-.394531-.285156-.085937-.554687-.179687-.835937-.273437-3.15625-1.011719-6.28125-2.089844-9.382813-3.21875-13.34375-4.859376-26.164062-10.8125-38.371094-17.730469v-29.246094c0-35.289063 19.207032-66.089844 47.753907-82.507813 7.742187-4.460937 16.164062-7.855468 25.078125-9.988281 4.710937-1.136719 9.558594-1.921875 14.523437-2.320312 2.570313-.207031 5.160157-.3125 7.78125-.3125h61.953125c7.324219 0 14.453125.816406 21.296875 2.382812.34375.082031.6875.15625 1.023438.238281 8.914062 2.144532 17.335937 5.539063 25.078125 10 28.535156 16.425782 47.75 47.230469 47.75 82.507813zm0 0" fill="#eaa27f"/><path d="m382.117188 449.578125v29.246094c-35.421876 20.105469-76.121094 31.996093-119.503907 33.09375-2.203125.050781-4.398437.082031-6.613281.082031s-4.421875-.03125-6.613281-.09375c-24.671875-.617188-48.464844-4.734375-70.917969-11.859375v-50.46875c0-52.539063 42.601562-95.128906 95.148438-95.128906h13.351562c52.558594 0 95.148438 42.589843 95.148438 95.128906zm0 0" fill="#f6ba97"/><path d="m289.9375 317.804688v41.652343c0 15.25-10.054688 28.140625-23.90625 32.421875-3.171875.984375-6.550781 1.515625-10.042969 1.515625-18.746093 0-33.9375-15.191406-33.9375-33.9375v-41.652343zm0 0" fill="#eaa27f"/><path d="m289.9375 356.820312v2.636719c0 15.25-10.054688 28.140625-23.90625 32.421875-12.496094-3.839844-21.890625-14.707031-23.625-28 2.265625.136719 4.546875.207032 6.835938.207032 6.421874 0 12.714843-.507813 18.847656-1.515626 7.558594-1.214843 14.859375-3.160156 21.847656-5.75zm0 0" fill="#f6ba97"/><path d="m161.351562 249.535156c0 15.714844-11.476562 28.742188-26.507812 31.160156-1.644531.265626-3.332031.40625-5.058594.40625-17.4375 0-31.5625-14.128906-31.5625-31.566406s14.125-31.566406 31.5625-31.566406c1.726563 0 3.414063.140625 5.058594.40625 15.03125 2.417969 26.507812 15.449219 26.507812 31.160156zm0 0" fill="#f6ba97"/><path d="m161.351562 249.535156c0 15.714844-11.476562 28.742188-26.507812 31.160156-2.730469-9.925781-4.191406-20.375-4.191406-31.160156s1.460937-21.230468 4.191406-31.160156c15.03125 2.417969 26.507812 15.449219 26.507812 31.160156zm0 0" fill="#eaa27f"/><path d="m141.066406 249.535156c0 6.230469-5.050781 11.28125-11.28125 11.28125-6.230468 0-11.28125-5.050781-11.28125-11.28125 0-6.230468 5.050782-11.28125 11.28125-11.28125 6.230469 0 11.28125 5.050782 11.28125 11.28125zm0 0" fill="#eaa27f"/><path d="m350.636719 249.535156c0 15.714844 11.476562 28.742188 26.507812 31.160156 1.644531.265626 3.332031.40625 5.054688.40625 17.4375 0 31.566406-14.128906 31.566406-31.566406s-14.128906-31.566406-31.566406-31.566406c-1.722657 0-3.410157.140625-5.054688.40625-15.03125 2.417969-26.507812 15.449219-26.507812 31.160156zm0 0" fill="#f6ba97"/><path d="m350.636719 249.535156c0 15.714844 11.476562 28.742188 26.507812 31.160156 2.730469-9.925781 4.1875-20.375 4.1875-31.160156s-1.457031-21.230468-4.1875-31.160156c-15.03125 2.417969-26.507812 15.449219-26.507812 31.160156zm0 0" fill="#eaa27f"/><path d="m393.484375 249.535156c0 6.230469-5.050781 11.28125-11.285156 11.28125-6.230469 0-11.28125-5.050781-11.28125-11.28125 0-6.230468 5.050781-11.28125 11.28125-11.28125 6.234375 0 11.285156 5.050782 11.285156 11.28125zm0 0" fill="#eaa27f"/><path d="m373.433594 188.039062v44.722657c0 58.441406-42.691406 106.925781-98.59375 115.921875-.1875.03125-.386719.0625-.574219.09375-5.945313.949218-12.050781 1.421875-18.277344 1.421875-64.855469 0-117.433593-52.582031-117.433593-117.4375v-44.722657c0-13.65625 2.328124-26.777343 6.632812-38.972656 16.0625-45.703125 59.613281-78.472656 110.800781-78.472656h.011719c6.214844 0 12.328125.480469 18.285156 1.421875 56.171875 8.777344 99.148438 57.386719 99.148438 116.023437zm0 0" fill="#eaa27f"/><path d="m373.433594 188.039062v44.722657c0 58.441406-42.691406 106.925781-98.59375 115.921875-.1875.03125-.386719.0625-.574219.09375-56.175781-8.777344-99.140625-57.386719-99.140625-116.015625v-44.722657c0-58.636718 42.976562-107.246093 99.160156-116.023437 56.171875 8.777344 99.148438 57.386719 99.148438 116.023437zm0 0" fill="#f6ba97"/><g fill="#eaa27f"><path d="m335.929688 263.597656c0 8.078125-6.550782 14.628906-14.628907 14.628906s-14.628906-6.550781-14.628906-14.628906 6.550781-14.628906 14.628906-14.628906 14.628907 6.550781 14.628907 14.628906zm0 0"/><path d="m205.316406 263.597656c0 8.078125-6.550781 14.628906-14.628906 14.628906s-14.628906-6.550781-14.628906-14.628906 6.550781-14.628906 14.628906-14.628906 14.628906 6.550781 14.628906 14.628906zm0 0"/><path d="m319.0625 222.84375c0-10.773438-8.734375-19.503906-19.503906-19.503906-10.773438 0-19.507813 8.730468-19.507813 19.503906"/><path d="m231.945312 222.84375c0-10.773438-8.734374-19.503906-19.507812-19.503906-10.769531 0-19.503906 8.730468-19.503906 19.503906"/></g><path d="m225.761719 231.148438c0 7.355468-5.964844 13.320312-13.320313 13.320312-7.359375 0-13.324218-5.964844-13.324218-13.320312 0-7.359376 5.964843-13.324219 13.324218-13.324219 7.355469 0 13.320313 5.964843 13.320313 13.324219zm0 0" fill="#2f373b"/><path d="m312.878906 231.148438c0 7.355468-5.964844 13.320312-13.320312 13.320312-7.359375 0-13.324219-5.964844-13.324219-13.320312 0-7.359376 5.964844-13.324219 13.324219-13.324219 7.355468 0 13.320312 5.964843 13.320312 13.324219zm0 0" fill="#2f373b"/><path d="m269.320312 264.691406h-26.644531c-3.175781 0-5.746093-2.574218-5.746093-5.746094 0-3.175781 2.570312-5.75 5.746093-5.75h26.644531c3.175782 0 5.746094 2.574219 5.746094 5.75 0 3.171876-2.570312 5.746094-5.746094 5.746094zm0 0" fill="#eaa27f"/><path d="m256 301.050781c-9.835938 0-19.667969-2.464843-28.632812-7.390625-2.53125-1.390625-3.453126-4.566406-2.0625-7.097656 1.390624-2.527344 4.566406-3.449219 7.09375-2.058594 14.777343 8.121094 32.421874 8.121094 47.199218 0 2.523438-1.390625 5.703125-.46875 7.09375 2.058594 1.390625 2.53125.46875 5.707031-2.0625 7.097656-8.960937 4.925782-18.796875 7.390625-28.628906 7.390625zm0 0" fill="#eaa27f"/><path d="m223.046875 228.796875c0 3.152344-2.558594 5.707031-5.710937 5.707031-3.152344 0-5.707032-2.554687-5.707032-5.707031s2.554688-5.707031 5.707032-5.707031c3.152343 0 5.710937 2.554687 5.710937 5.707031zm0 0" fill="#fff"/><path d="m222.125 216.054688h74.105469v42.53125h-74.105469zm0 0" fill="#eaa27f"/><path d="m377.136719 173.324219v45.050781c-77.375-6.5625-121.144531-47.773438-121.144531-84.347656 0 36.574218-43.769532 77.785156-121.144532 84.347656v-45.050781c0-66.90625 54.238282-121.144531 121.144532-121.144531s121.144531 54.238281 121.144531 121.144531zm0 0" fill="#ffe05c"/><path d="m275.582031 53.769531c-57.59375 9.351563-101.550781 59.320313-101.550781 119.558594v38.160156c-11.882812 3.300781-24.976562 5.683594-39.183594 6.882813v-45.042969c0-66.914063 54.238282-121.144531 121.144532-121.144531 6.675781 0 13.21875.542968 19.589843 1.585937zm0 0" fill="#e89f18"/><path d="m310.816406 228.796875c0 3.152344-2.554687 5.707031-5.707031 5.707031s-5.707031-2.554687-5.707031-5.707031 2.554687-5.707031 5.707031-5.707031 5.707031 2.554687 5.707031 5.707031zm0 0" fill="#fff"/><path d="m255.996094 218.699219c3.492187 0 7.375.453125 8.5625 8.660156.84375 5.242187 2.484375 10.246094 4.066406 14.464844 5.921875 15.78125 10.917969 23.902343 17.820312 28.964843 8.265626 6.0625 22.320313 6.054688 30.730469 6.054688 8.414063 0 22.464844.007812 30.730469-6.054688 6.90625-5.0625 11.902344-13.183593 17.824219-28.964843 3.25-8.492188 9.523437-25.800781 10.652343-37.207031.171876-1.722657.257813-4.324219.304688-6.769532.066406-3.570312-2.816406-6.5-6.386719-6.5h-52.230469c-36.679687 0-54.097656 6.140625-62.074218 6.140625-7.980469 0-25.398438-6.140625-62.074219-6.140625h-52.230469c-3.574218 0-6.453125 2.929688-6.386718 6.5.042968 2.445313.132812 5.046875.300781 6.769532 1.128906 11.40625 7.40625 28.714843 10.65625 37.207031 5.921875 15.78125 10.917969 23.902343 17.824219 28.964843 8.265624 6.0625 22.316406 6.054688 30.726562 6.054688 8.414062 0 22.464844.007812 30.730469-6.054688 6.90625-5.0625 11.902343-13.183593 17.824219-28.964843 1.582031-4.21875 3.222656-9.222657 4.0625-14.464844 1.1875-8.207031 5.066406-8.660156 8.566406-8.660156zm0 0" fill="#1da2dd"/><path d="m232.753906 237.851562c-10.867187 28.953126-17.148437 27.667969-37.941406 27.667969-3.082031 0-5.851562.03125-8.359375-.023437-14.398437-.257813-20.332031-2.988282-29.589844-27.644532-13.269531-35.359374 9.363281-35.171874 37.949219-35.171874 7.097656 0 13.835938-.011719 19.730469.511718 17.875 1.585938 28.191406 8.074219 18.210937 34.660156zm0 0" fill="#512375"/><path d="m355.121094 237.851562c-10.867188 28.953126-17.144532 27.667969-37.941406 27.667969-2.714844 0-5.179688.019531-7.4375 0-15.066407-.179687-21.066407-2.5-30.511719-27.667969-13.269531-35.359374 9.363281-35.171874 37.949219-35.171874 7.472656 0 14.535156-.011719 20.648437.59375 17.3125 1.734374 27.09375 8.453124 17.292969 34.578124zm0 0" fill="#512375"/><path d="m355.121094 237.851562c-10.867188 28.953126-17.144532 27.667969-37.941406 27.667969-2.714844 0-5.179688.019531-7.4375 0 19.9375-22.726562 26.363281-45.925781 28.085937-62.246093 17.3125 1.734374 27.09375 8.453124 17.292969 34.578124zm0 0" fill="#673389"/><path d="m232.753906 237.851562c-10.867187 28.953126-17.148437 27.667969-37.941406 27.667969-3.082031 0-5.851562.03125-8.359375-.023437 19.96875-22.765625 26.375-45.984375 28.089844-62.304688 17.875 1.585938 28.191406 8.074219 18.210937 34.660156zm0 0" fill="#673389"/><path d="m256.003906 495.039062c0 6.007813-1.203125 11.726563-3.386718 16.9375-13.96875-.175781-27.667969-1.480468-41.023438-3.824218-2.976562-.511719-5.933594-1.085938-8.878906-1.710938-7.808594-1.652344-15.464844-3.660156-22.988282-6-.417968-.136718-.835937-.261718-1.253906-.394531-.285156-.085937-.554687-.179687-.835937-.273437-3.15625-1.011719-6.28125-2.089844-9.382813-3.21875-.011718-.5-.023437-1.003907-.023437-1.515626 0-24.242187 19.644531-43.882812 43.886719-43.882812 24.242187 0 43.886718 19.640625 43.886718 43.882812zm0 0" fill="#512375"/><path d="m343.773438 495.039062c0 .511719-.011719 1.015626-.019532 1.515626-3.09375 1.128906-6.230468 2.195312-9.382812 3.207031-1.734375.566406-3.46875 1.097656-5.226563 1.621093-6.507812 1.945313-13.132812 3.636719-19.851562 5.046876-2.949219.625-5.90625 1.203124-8.882813 1.714843-13.351562 2.351563-27.050781 3.65625-41.023437 3.832031-2.183594-5.210937-3.382813-10.929687-3.382813-16.9375 0-24.242187 19.644532-43.882812 43.882813-43.882812 24.242187 0 43.886719 19.640625 43.886719 43.882812zm0 0" fill="#512375"/><path d="m272.722656 495.039062c0 9.234376-7.488281 16.71875-16.71875 16.71875-9.234375 0-16.71875-7.484374-16.71875-16.71875 0-9.230468 7.484375-16.71875 16.71875-16.71875 9.230469 0 16.71875 7.488282 16.71875 16.71875zm0 0" fill="#ffe05c"/></svg>