<svg height="512pt" viewBox="0 0 512 512" width="512pt" xmlns="http://www.w3.org/2000/svg"><path d="m512 256c0 141.386719-114.613281 256-256 256s-256-114.613281-256-256 114.613281-256 256-256 256 114.613281 256 256zm0 0" fill="#1da2dd"/><path d="m382.121094 449.578125v29.246094c-15.035156 8.515625-31.011719 15.578125-47.75 20.9375-1.734375.566406-3.46875 1.097656-5.226563 1.621093-6.507812 1.945313-13.132812 3.636719-19.851562 5.046876-2.945313.625-5.902344 1.203124-8.882813 1.714843-14.429687 2.539063-29.265625 3.855469-44.40625 3.855469s-29.980468-1.316406-44.410156-3.847656c-2.976562-.511719-5.933594-1.085938-8.878906-1.710938-7.808594-1.652344-15.464844-3.660156-22.988282-6-.417968-.136718-.835937-.261718-1.253906-.394531-.28125-.085937-.554687-.179687-.835937-.273437-16.730469-5.359376-32.714844-12.421876-47.753907-20.949219v-29.246094c0-35.289063 19.207032-66.089844 47.753907-82.507813 7.742187-4.460937 16.164062-7.855468 25.078125-9.988281 4.710937-1.136719 9.558594-1.921875 14.523437-2.320312 2.570313-.207031 5.160157-.3125 7.785157-.3125h61.949218c7.324219 0 14.453125.816406 21.296875 2.382812.34375.082031.6875.15625 1.023438.238281 8.914062 2.144532 17.335937 5.539063 25.078125 10 28.535156 16.425782 47.75 47.230469 47.75 82.507813zm0 0" fill="#e89f18"/><path d="m382.121094 449.578125v29.246094c-37.222656 21.117187-80.261719 33.175781-126.121094 33.175781-27.03125 0-53.070312-4.191406-77.53125-11.953125v-50.46875c0-52.539063 42.601562-95.128906 95.148438-95.128906h13.355468c52.554688 0 95.148438 42.589843 95.148438 95.128906zm0 0" fill="#ffe05c"/><path d="m297.101562 356.601562v2.371094c0 18.128906-11.628906 33.90625-28.953124 39.257813-3.917969 1.222656-8.015626 1.839843-12.152344 1.839843-22.664063 0-41.097656-18.433593-41.097656-41.097656v-4.242187c2.320312-.1875 4.660156-.28125 7.03125-.28125h55.945312c6.613281 0 13.050781.742187 19.226562 2.152343zm0 0" fill="#f2efea"/><path d="m289.941406 317.800781v41.65625c0 15.25-10.054687 28.140625-23.90625 32.421875-3.167968.980469-6.546875 1.515625-10.042968 1.515625-18.742188 0-33.9375-15.195312-33.9375-33.9375v-41.65625zm0 0" fill="#eaa27f"/><path d="m289.941406 356.816406v2.640625c0 15.25-10.054687 28.140625-23.90625 32.421875-12.496094-3.84375-21.890625-14.707031-23.625-28.003906 2.265625.140625 4.546875.210938 6.835938.210938 6.421875 0 12.71875-.511719 18.851562-1.519532 7.554688-1.210937 14.855469-3.15625 21.84375-5.75zm0 0" fill="#f6ba97"/><path d="m161.355469 249.53125c0 15.714844-11.476563 28.742188-26.507813 31.160156-1.644531.269532-3.332031.40625-5.058594.40625-17.433593 0-31.5625-14.128906-31.5625-31.566406 0-17.433594 14.128907-31.5625 31.5625-31.5625 1.726563 0 3.414063.136719 5.058594.40625 15.03125 2.417969 26.507813 15.445312 26.507813 31.15625zm0 0" fill="#f6ba97"/><path d="m161.355469 249.53125c0 15.714844-11.476563 28.742188-26.507813 31.160156-2.730468-9.925781-4.1875-20.375-4.1875-31.160156 0-10.78125 1.457032-21.230469 4.1875-31.15625 15.03125 2.417969 26.507813 15.445312 26.507813 31.15625zm0 0" fill="#eaa27f"/><path d="m141.074219 249.53125c0 6.234375-5.050781 11.285156-11.285157 11.285156-6.230468 0-11.28125-5.050781-11.28125-11.285156 0-6.230469 5.050782-11.28125 11.28125-11.28125 6.234376 0 11.285157 5.050781 11.285157 11.28125zm0 0" fill="#eaa27f"/><path d="m350.640625 249.53125c0 15.714844 11.476563 28.742188 26.507813 31.160156 1.644531.269532 3.332031.40625 5.058593.40625 17.4375 0 31.5625-14.128906 31.5625-31.566406 0-17.433594-14.125-31.5625-31.5625-31.5625-1.726562 0-3.414062.136719-5.058593.40625-15.03125 2.417969-26.507813 15.445312-26.507813 31.15625zm0 0" fill="#f6ba97"/><g fill="#eaa27f"><path d="m350.640625 249.53125c0 15.714844 11.476563 28.742188 26.507813 31.160156 2.730468-9.925781 4.191406-20.375 4.191406-31.160156 0-10.78125-1.457032-21.230469-4.191406-31.15625-15.03125 2.417969-26.507813 15.445312-26.507813 31.15625zm0 0"/><path d="m393.488281 249.53125c0 6.234375-5.050781 11.285156-11.28125 11.285156s-11.28125-5.050781-11.28125-11.285156c0-6.230469 5.050781-11.28125 11.28125-11.28125s11.28125 5.050781 11.28125 11.28125zm0 0"/><path d="m373.4375 188.039062v44.722657c0 58.441406-42.691406 106.921875-98.59375 115.917969-.1875.03125-.386719.0625-.574219.097656-5.945312.949218-12.050781 1.417968-18.277343 1.417968-64.855469 0-117.4375-52.578124-117.4375-117.433593v-44.722657c0-13.65625 2.332031-26.78125 6.636718-38.976562 16.058594-45.703125 59.613282-78.46875 110.800782-78.46875h.011718c6.214844 0 12.328125.480469 18.285156 1.417969 56.171876 8.777343 99.148438 57.386719 99.148438 116.027343zm0 0"/></g><path d="m312.882812 231.144531c0 7.359375-5.964843 13.324219-13.320312 13.324219-7.359375 0-13.324219-5.964844-13.324219-13.324219 0-7.355469 5.964844-13.320312 13.324219-13.320312 7.355469 0 13.320312 5.964843 13.320312 13.320312zm0 0" fill="#2f373b"/><path d="m310.820312 228.796875c0 3.152344-2.554687 5.707031-5.707031 5.707031-3.152343 0-5.707031-2.554687-5.707031-5.707031 0-3.15625 2.554688-5.710937 5.707031-5.710937 3.152344 0 5.707031 2.554687 5.707031 5.710937zm0 0" fill="#fff"/><path d="m331.339844 322.839844c-15.828125 13.261718-35.203125 22.414062-56.496094 25.839844-.1875.03125-.386719.0625-.574219.097656-56.175781-8.777344-99.140625-57.386719-99.140625-116.015625v-44.722657c0-12.800781 2.046875-25.121093 5.839844-36.644531 12.882812 7.660157 100.84375 62.890625 150.371094 171.445313zm0 0" fill="#f6ba97"/><path d="m373.4375 188.039062v8.390626l-167.777344-87.375c17.605469-19.363282 41.585938-32.820313 68.628906-37.042969 5.421876.847656 10.730469 2.070312 15.882813 3.636719 20.25 6.144531 38.179687 17.617187 52.160156 32.789062 10.785157 11.671875 19.214844 25.539062 24.554688 40.855469 4.253906 12.132812 6.550781 25.171875 6.550781 38.746093zm0 0" fill="#f6ba97"/><path d="m335.933594 263.59375c0 8.082031-6.550782 14.628906-14.628906 14.628906-8.078126 0-14.628907-6.546875-14.628907-14.628906 0-8.078125 6.550781-14.628906 14.628907-14.628906 8.078124 0 14.628906 6.550781 14.628906 14.628906zm0 0" fill="#eaa27f"/><path d="m205.320312 263.59375c0 8.082031-6.550781 14.628906-14.628906 14.628906s-14.628906-6.546875-14.628906-14.628906c0-8.078125 6.550781-14.628906 14.628906-14.628906s14.628906 6.550781 14.628906 14.628906zm0 0" fill="#eaa27f"/><path d="m231.949219 222.84375c0-10.773438-8.734375-19.507812-19.503907-19.507812-10.773437 0-19.507812 8.734374-19.507812 19.507812zm0 0" fill="#eaa27f"/><path d="m225.765625 231.144531c0 7.359375-5.964844 13.324219-13.320313 13.324219-7.359374 0-13.324218-5.964844-13.324218-13.324219 0-7.355469 5.964844-13.320312 13.324218-13.320312 7.355469 0 13.320313 5.964843 13.320313 13.320312zm0 0" fill="#2f373b"/><path d="m269.324219 264.6875h-26.644531c-3.175782 0-5.746094-2.570312-5.746094-5.746094 0-3.171875 2.570312-5.746094 5.746094-5.746094h26.644531c3.175781 0 5.746093 2.574219 5.746093 5.746094 0 3.175782-2.570312 5.746094-5.746093 5.746094zm0 0" fill="#eaa27f"/><path d="m256.003906 301.046875c-9.835937 0-19.667968-2.460937-28.632812-7.390625-2.527344-1.390625-3.453125-4.566406-2.0625-7.09375s4.566406-3.449219 7.09375-2.0625c14.777344 8.125 32.421875 8.125 47.199218 0 2.527344-1.390625 5.703126-.46875 7.09375 2.0625 1.390626 2.527344.46875 5.703125-2.0625 7.09375-8.960937 4.929688-18.796874 7.390625-28.628906 7.390625zm0 0" fill="#eaa27f"/><path d="m223.050781 228.796875c0 3.152344-2.558593 5.707031-5.710937 5.707031s-5.707032-2.554687-5.707032-5.707031c0-3.15625 2.554688-5.710937 5.707032-5.710937s5.710937 2.554687 5.710937 5.710937zm0 0" fill="#fff"/><path d="m177.1875 449.578125v50.058594c-16.574219-5.359375-32.402344-12.359375-47.304688-20.8125v-29.246094zm0 0" fill="#eaa27f"/><path d="m382.121094 449.578125v29.246094c-14.898438 8.453125-30.730469 15.453125-47.300782 20.8125v-50.058594zm0 0" fill="#f6ba97"/><path d="m334.820312 449.578125h47.300782v12.546875h-47.300782zm0 0" fill="#f2efea"/><path d="m373.4375 188.039062v30.230469c-62.671875-3.492187-48.472656-95.734375-48.472656-95.734375l17.367187-14.097656c19.320313 20.917969 31.105469 48.890625 31.105469 79.601562zm0 0" fill="#eaa27f"/><path d="m129.882812 449.578125h47.304688v12.546875h-47.304688zm0 0" fill="#f2efea"/><path d="m394.453125 216.753906-17.929687 107.101563-14.210938-24.148438c-28.671875-48.703125-68.410156-89.964843-116.007812-120.445312l-.59375-.375-39.402344-25.246094c-11.085938-11.085937-16.175782-24.984375-16.175782-38.652344 0-24.867187 16.8125-49.023437 44.835938-54.332031 12.152344-2.300781 24.117188-2.9375 35.703125-2.082031 18.726563 1.382812 36.449219 6.625 52.371094 14.964843.597656.304688 1.191406.617188 1.777343.941407.3125.164062.625.332031.941407.511719 48.085937 26.539062 78.792969 81.4375 68.691406 141.761718zm0 0" fill="#f73b6c"/><path d="m143.734375 149.292969c16.246094 3.367187 27.679687 2.980469 35.640625 1.171875 13.480469-3.074219 16.988281-10.25 16.988281-10.25l26.207031-64.566406h-2.121093c-21.964844 2.894531-40.992188 10.835937-54.636719 22.464843-15.328125 13.050781-23.855469 30.761719-22.078125 51.179688zm0 0" fill="#dd104f"/><path d="m323.042969 73.539062c-43.875-22.152343-121.605469 15.203126-77.332031 105.347657l-39.402344-25.246094c-11.085938-11.085937-16.175782-24.984375-16.175782-38.652344 0-24.867187 16.8125-49.023437 44.835938-54.332031 12.152344-2.300781 24.117188-2.9375 35.703125-2.082031 18.726563 1.382812 36.449219 6.625 52.371094 14.964843zm0 0" fill="#dd104f"/><path d="m325.761719 74.992188v.007812c-.316407-.175781-.628907-.355469-.941407-.519531.3125.164062.625.332031.941407.511719zm0 0" fill="#dd104f"/><path d="m403.417969 278.710938c0 4.957031-4.019531 8.972656-8.976563 8.972656-4.957031 0-8.972656-4.015625-8.972656-8.972656 0-4.957032 4.015625-8.976563 8.972656-8.976563 4.957032 0 8.976563 4.019531 8.976563 8.976563zm0 0" fill="#ffe05c"/><path d="m126.539062 278.710938c0 4.957031-4.019531 8.972656-8.976562 8.972656s-8.972656-4.015625-8.972656-8.972656c0-4.957032 4.015625-8.976563 8.972656-8.976563s8.976562 4.019531 8.976562 8.976563zm0 0" fill="#ffe05c"/><path d="m134.960938 160.222656 31.347656 5.222656-1.71875 10.308594-31.347656-5.226562zm0 0" fill="#dd104f"/><path d="m134.960938 181.121094 31.347656 5.222656-1.71875 10.308594-31.347656-5.226563zm0 0" fill="#dd104f"/><path d="m134.960938 202.019531 31.347656 5.222657-1.71875 10.308593-31.347656-5.226562zm0 0" fill="#dd104f"/></svg>