<svg height="512pt" viewBox="0 0 512 512" width="512pt" xmlns="http://www.w3.org/2000/svg"><path d="m512 256c0 141.386719-114.613281 256-256 256s-256-114.613281-256-256 114.613281-256 256-256 256 114.613281 256 256zm0 0" fill="#f73b6c"/><path d="m170.320312 303.300781h160.914063v117.027344h-160.914063zm0 0" fill="#512375"/><path d="m382.121094 449.578125v29.246094c-15.039063 8.515625-31.015625 15.578125-47.753906 20.941406-1.734376.5625-3.46875 1.097656-5.222657 1.617187-6.511719 1.945313-13.136719 3.636719-19.855469 5.046876-2.945312.628906-5.902343 1.203124-8.882812 1.714843-14.429688 2.539063-29.265625 3.855469-44.40625 3.855469s-29.976562-1.316406-44.40625-3.84375c-2.980469-.511719-5.9375-1.089844-8.882812-1.714844-7.804688-1.652344-15.464844-3.65625-22.988282-5.996094-.417968-.136718-.835937-.261718-1.253906-.398437-.28125-.085937-.554688-.179687-.835938-.273437-16.730468-5.359376-32.714843-12.421876-47.753906-20.949219v-29.246094c0-35.285156 19.207032-66.089844 47.753906-82.503906 7.742188-4.464844 16.164063-7.859375 25.078126-9.992188 4.710937-1.136719 9.558593-1.921875 14.523437-2.316406 2.570313-.210937 5.160156-.316406 7.785156-.316406h61.953125c7.324219 0 14.449219.816406 21.292969 2.382812.34375.085938.691406.15625 1.023437.242188 8.914063 2.140625 17.335938 5.535156 25.078126 10 28.535156 16.425781 47.753906 47.226562 47.753906 82.503906zm0 0" fill="#bf7c5e"/><path d="m382.121094 449.578125v29.246094c-35.425782 20.105469-76.121094 31.996093-119.507813 33.09375-2.203125.050781-4.398437.082031-6.613281.082031s-4.417969-.03125-6.613281-.09375c-24.671875-.617188-48.464844-4.734375-70.917969-11.859375v-50.46875c0-52.539063 42.601562-95.128906 95.148438-95.128906h13.355468c52.554688 0 95.148438 42.589843 95.148438 95.128906zm0 0" fill="#d39272"/><path d="m289.9375 317.800781v41.65625c0 15.25-10.054688 28.140625-23.90625 32.421875-3.167969.984375-6.546875 1.515625-10.042969 1.515625-18.742187 0-33.9375-15.191406-33.9375-33.9375v-41.65625zm0 0" fill="#bf7c5e"/><path d="m289.9375 356.820312v2.636719c0 15.25-10.054688 28.140625-23.90625 32.421875-12.492188-3.839844-21.890625-14.707031-23.625-28 2.265625.136719 4.546875.207032 6.835938.207032 6.421874 0 12.71875-.507813 18.851562-1.515626 7.554688-1.214843 14.855469-3.160156 21.84375-5.75zm0 0" fill="#d39272"/><path d="m161.351562 249.535156c0 15.710938-11.476562 28.742188-26.507812 31.160156-1.640625.265626-3.332031.402344-5.054688.402344-17.4375 0-31.566406-14.125-31.566406-31.5625s14.128906-31.566406 31.566406-31.566406c1.722657 0 3.414063.140625 5.054688.40625 15.03125 2.417969 26.507812 15.445312 26.507812 31.160156zm0 0" fill="#d39272"/><path d="m161.351562 249.535156c0 15.710938-11.476562 28.742188-26.507812 31.160156-2.730469-9.929687-4.1875-20.378906-4.1875-31.160156 0-10.785156 1.457031-21.234375 4.1875-31.160156 15.03125 2.417969 26.507812 15.445312 26.507812 31.160156zm0 0" fill="#bf7c5e"/><path d="m141.070312 249.535156c0 6.230469-5.050781 11.28125-11.28125 11.28125-6.230468 0-11.28125-5.050781-11.28125-11.28125 0-6.230468 5.050782-11.28125 11.28125-11.28125 6.230469 0 11.28125 5.050782 11.28125 11.28125zm0 0" fill="#bf7c5e"/><path d="m350.636719 249.535156c0 15.710938 11.480469 28.742188 26.511719 31.160156 1.640624.265626 3.332031.402344 5.054687.402344 17.4375 0 31.566406-14.125 31.566406-31.5625s-14.128906-31.566406-31.566406-31.566406c-1.722656 0-3.414063.140625-5.054687.40625-15.03125 2.417969-26.511719 15.445312-26.511719 31.160156zm0 0" fill="#d39272"/><path d="m350.636719 249.535156c0 15.710938 11.480469 28.742188 26.511719 31.160156 2.726562-9.929687 4.1875-20.378906 4.1875-31.160156 0-10.785156-1.457032-21.234375-4.1875-31.160156-15.03125 2.417969-26.511719 15.445312-26.511719 31.160156zm0 0" fill="#bf7c5e"/><path d="m393.484375 249.535156c0 6.230469-5.050781 11.28125-11.28125 11.28125s-11.28125-5.050781-11.28125-11.28125c0-6.230468 5.050781-11.28125 11.28125-11.28125s11.28125 5.050782 11.28125 11.28125zm0 0" fill="#bf7c5e"/><path d="m373.4375 188.039062v44.722657c0 58.441406-42.695312 106.925781-98.597656 115.921875-.1875.03125-.386719.0625-.574219.09375-5.945313.949218-12.046875 1.421875-18.277344 1.421875-64.855469 0-117.433593-52.582031-117.433593-117.4375v-44.722657c0-13.65625 2.328124-26.78125 6.632812-38.972656 16.0625-45.707031 59.613281-78.472656 110.800781-78.472656h.011719c6.21875 0 12.328125.480469 18.285156 1.421875 56.175782 8.777344 99.152344 57.382813 99.152344 116.023437zm0 0" fill="#bf7c5e"/><path d="m373.4375 188.039062v44.722657c0 58.441406-42.695312 106.925781-98.597656 115.921875-.1875.03125-.386719.0625-.574219.09375-56.175781-8.777344-99.140625-57.386719-99.140625-116.015625v-44.722657c0-58.640624 42.976562-107.246093 99.160156-116.023437 56.175782 8.777344 99.152344 57.382813 99.152344 116.023437zm0 0" fill="#d39272"/><g fill="#bf7c5e"><path d="m335.929688 263.597656c0 8.078125-6.550782 14.628906-14.628907 14.628906s-14.628906-6.550781-14.628906-14.628906c0-8.082031 6.550781-14.628906 14.628906-14.628906s14.628907 6.546875 14.628907 14.628906zm0 0"/><path d="m205.316406 263.597656c0 8.078125-6.546875 14.628906-14.628906 14.628906-8.078125 0-14.628906-6.550781-14.628906-14.628906 0-8.082031 6.550781-14.628906 14.628906-14.628906 8.082031 0 14.628906 6.546875 14.628906 14.628906zm0 0"/><path d="m319.0625 222.84375c0-10.773438-8.730469-19.503906-19.503906-19.503906-10.773438 0-19.507813 8.730468-19.507813 19.503906"/><path d="m231.945312 222.84375c0-10.773438-8.730468-19.503906-19.503906-19.503906-10.773437 0-19.507812 8.730468-19.507812 19.503906"/></g><path d="m225.761719 231.148438c0 7.355468-5.964844 13.320312-13.320313 13.320312-7.359375 0-13.324218-5.964844-13.324218-13.320312 0-7.359376 5.964843-13.324219 13.324218-13.324219 7.355469 0 13.320313 5.964843 13.320313 13.324219zm0 0" fill="#2f373b"/><path d="m312.882812 231.148438c0 7.355468-5.964843 13.320312-13.324218 13.320312s-13.324219-5.964844-13.324219-13.320312c0-7.359376 5.964844-13.324219 13.324219-13.324219s13.324218 5.964843 13.324218 13.324219zm0 0" fill="#2f373b"/><path d="m269.320312 264.691406h-26.644531c-3.171875 0-5.746093-2.574218-5.746093-5.746094 0-3.175781 2.574218-5.75 5.746093-5.75h26.644531c3.175782 0 5.746094 2.574219 5.746094 5.75 0 3.171876-2.570312 5.746094-5.746094 5.746094zm0 0" fill="#bf7c5e"/><path d="m256 301.050781c-9.835938 0-19.667969-2.464843-28.632812-7.394531-2.527344-1.386719-3.449219-4.5625-2.0625-7.09375 1.390624-2.527344 4.570312-3.449219 7.097656-2.0625 14.777344 8.125 32.417968 8.125 47.195312 0 2.527344-1.386719 5.703125-.464844 7.09375 2.0625 1.390625 2.53125.46875 5.707031-2.058594 7.09375-8.964843 4.929688-18.800781 7.394531-28.632812 7.394531zm0 0" fill="#bf7c5e"/><path d="m223.046875 228.796875c0 3.152344-2.554687 5.707031-5.710937 5.707031-3.152344 0-5.707032-2.554687-5.707032-5.707031s2.554688-5.710937 5.707032-5.710937c3.15625 0 5.710937 2.558593 5.710937 5.710937zm0 0" fill="#fff"/><path d="m310.820312 228.796875c0 3.152344-2.558593 5.707031-5.710937 5.707031s-5.707031-2.554687-5.707031-5.707031 2.554687-5.710937 5.707031-5.710937 5.710937 2.558593 5.710937 5.710937zm0 0" fill="#fff"/><path d="m260.933594 73.039062c-.644532 2.695313-2.347656 5.015626-4.667969 6.445313-.085937.050781-.167969.105469-.261719.144531-.273437.167969-.542968.316406-.835937.441406-1.160157.542969-2.445313.875-3.804688.949219-94.1875 5.328125-107.164062 63.1875-107.164062 124.917969 0 5.769531-4.679688 10.449219-10.449219 10.449219s-10.449219-4.679688-10.449219-10.449219c0-28.140625 2.332031-64.167969 20.53125-93.246094 19.226563-30.699218 52.945313-48.222656 100.300781-52.097656 1.503907-.136719 3.019532-.242188 4.554688-.335938.492188-.03125.992188-.0625 1.496094-.09375 2.121094-.125 4.117187.386719 5.820312 1.359376 2.945313 1.703124 4.992188 4.828124 5.203125 8.484374.0625 1.042969-.042969 2.066407-.273437 3.03125zm0 0" fill="#673389"/><path d="m265.773438 63.832031c-1.234376 3.269531-2.875 6.332031-4.839844 9.207031-1.460938 2.152344-3.113282 4.199219-4.929688 6.152344-.085937.09375-.179687.199219-.273437.292969-.175781.199219-.363281.386719-.5625.585937-10.492188 10.929688-25.851563 19.058594-40.855469 27-25.308594 13.394532-49.214844 26.046876-49.214844 48.753907v257.046875c0 5.765625-4.683594 10.449218-10.449218 10.449218-5.769532 0-10.449219-4.683593-10.449219-10.449218v-257.046875c0-35.285157 32.058593-52.253907 60.332031-67.226563 16.855469-8.925781 32.894531-17.410156 39.601562-28.003906 1.503907-.136719 3.019532-.242188 4.554688-.335938.492188-.03125.992188-.0625 1.496094-.09375 2.121094-.125 4.117187.386719 5.820312 1.359376 1.703125-.972657 3.699219-1.484376 5.808594-1.359376.5.03125.992188.0625 1.496094.09375 1.898437.972657 2.996094 2.152344 2.464844 3.574219zm0 0" fill="#512375"/><path d="m335.152344 477.800781v21.710938c-24.917969 8.109375-51.523438 12.488281-79.148438 12.488281-27.03125 0-53.070312-4.191406-77.53125-11.953125-.542968-.167969-1.078125-.347656-1.621094-.523437v-21.722657c0-23.375 18.945313-42.320312 42.320313-42.320312 15.796875 0 29.558594 8.664062 36.832031 21.496093 7.273438-12.832031 21.03125-21.496093 36.832032-21.496093 23.375 0 42.316406 18.945312 42.316406 42.320312zm0 0" fill="#ffe05c"/><path d="m133.75 462.980469c-5.769531 0-10.449219-4.675781-10.449219-10.449219v-246.59375c0-46.113281 45.257813-73.882812 81.625-96.195312 18.101563-11.109376 40.625-24.929688 40.625-33.375 0-5.769532 20.898438-5.769532 20.898438 0 0 20.140624-22.328125 33.839843-50.59375 51.1875-33.585938 20.609374-71.65625 43.96875-71.65625 78.382812v246.597656c0 5.765625-4.679688 10.445313-10.449219 10.445313zm0 0" fill="#673389"/><path d="m154.648438 473.429688c-5.769532 0-10.449219-4.675782-10.449219-10.449219v-257.042969c0-33.835938 33.441406-55.285156 62.949219-74.210938 18-11.542968 38.402343-24.628906 38.402343-34.460937 0-5.769531 4.679688-10.449219 10.449219-10.449219s10.449219 4.679688 10.449219 10.449219c0 21.253906-23.324219 41.441406-48.019531 57.277344-25 16.035156-53.332032 28.984375-53.332032 51.394531v257.046875c0 5.769531-4.679687 10.445313-10.449218 10.445313zm0 0" fill="#512375"/><path d="m175.125 479.890625c-5.769531 0-10.449219-4.679687-10.449219-10.449219v-257.046875c0-34.324219 28.746094-50 51.839844-62.597656 18.066406-9.851563 29.035156-16.460937 29.035156-25.171875 0-5.773438 4.679688-10.449219 10.449219-10.449219s10.449219 4.675781 10.449219 10.449219c0 21.746094-20.296875 32.8125-39.929688 43.519531-24.734375 13.488281-40.945312 23.859375-40.945312 44.25v257.046875c0 5.769532-4.679688 10.449219-10.449219 10.449219zm0 0" fill="#673389"/><path d="m388.707031 205.9375c0 5.769531-4.683593 10.449219-10.449219 10.449219-5.78125 0-10.449218-4.679688-10.449218-10.449219 0-.960938 0-1.933594-.011719-2.894531-.417969-60.636719-14.449219-116.777344-107.164063-122.023438-1.359374-.074219-2.644531-.40625-3.804687-.949219-.28125-.125-.554687-.273437-.824219-.441406-.09375-.039062-.179687-.09375-.273437-.144531-2.320313-1.441406-4.023438-3.75-4.667969-6.445313-.230469-.972656-.335938-1.988281-.273438-3.03125.210938-3.667968 2.257813-6.78125 5.214844-8.484374 1.703125-.972657 3.699219-1.484376 5.808594-1.359376.5.03125.992188.0625 1.496094.09375 1.535156.09375 3.050781.199219 4.554687.335938 47.355469 3.875 81.082031 21.398438 100.308594 52.097656 18.191406 29.078125 20.535156 65.105469 20.535156 93.246094zm0 0" fill="#673389"/><path d="m367.796875 155.824219v257.046875c0 5.765625-4.671875 10.449218-10.449219 10.449218-5.769531 0-10.449218-4.683593-10.449218-10.449218v-257.046875c0-22.707031-23.90625-35.359375-49.214844-48.753907-14.992188-7.941406-30.355469-16.070312-40.855469-27-.1875-.199218-.375-.386718-.5625-.585937-.085937-.09375-.179687-.199219-.261719-.292969-1.820312-1.953125-3.480468-4-4.941406-6.152344-1.964844-2.875-3.605469-5.9375-4.839844-9.207031-.53125-1.421875.566406-2.601562 2.464844-3.574219.492188-.03125.992188-.0625 1.496094-.09375 2.121094-.125 4.117187.386719 5.820312 1.359376 1.703125-.972657 3.699219-1.484376 5.808594-1.359376.5.03125.992188.0625 1.496094.09375 1.535156.09375 3.050781.199219 4.554687.335938 6.71875 10.59375 22.746094 19.078125 39.601563 28.003906 28.285156 14.972656 60.332031 31.941406 60.332031 67.226563zm0 0" fill="#512375"/><path d="m378.25 462.980469c5.769531 0 10.449219-4.675781 10.449219-10.449219v-246.59375c0-46.113281-45.257813-73.882812-81.625-96.195312-18.101563-11.109376-40.625-24.929688-40.625-33.375 0-5.769532-20.898438-5.769532-20.898438 0 0 20.140624 22.328125 33.839843 50.59375 51.1875 33.585938 20.609374 71.65625 43.96875 71.65625 78.382812v246.597656c0 5.765625 4.679688 10.445313 10.449219 10.445313zm0 0" fill="#673389"/><path d="m357.351562 473.429688c5.769532 0 10.449219-4.675782 10.449219-10.449219v-257.042969c0-33.835938-33.441406-55.285156-62.949219-74.210938-18-11.542968-38.402343-24.628906-38.402343-34.460937 0-5.769531-4.679688-10.449219-10.449219-10.449219s-10.449219 4.679688-10.449219 10.449219c0 21.253906 23.324219 41.441406 48.019531 57.277344 25 16.035156 53.332032 28.984375 53.332032 51.394531v257.046875c0 5.769531 4.679687 10.445313 10.449218 10.445313zm0 0" fill="#512375"/><path d="m336.875 479.890625c5.769531 0 10.449219-4.679687 10.449219-10.449219v-257.046875c0-34.324219-28.742188-50-51.839844-62.597656-18.066406-9.851563-29.035156-16.460937-29.035156-25.171875 0-5.773438-4.679688-10.449219-10.449219-10.449219s-10.449219 4.675781-10.449219 10.449219c0 21.746094 20.296875 32.8125 39.929688 43.519531 24.734375 13.488281 40.945312 23.859375 40.945312 44.25v257.046875c0 5.769532 4.679688 10.449219 10.449219 10.449219zm0 0" fill="#673389"/></svg>