<svg height="512pt" viewBox="0 0 512 512.00001" width="512pt" xmlns="http://www.w3.org/2000/svg"><path d="m512 256c0 141.386719-114.617188 256-256 256-141.386719 0-256-114.613281-256-256 0-141.382812 114.613281-256 256-256 141.382812 0 256 114.617188 256 256zm0 0" fill="#f73b6c"/><path d="m311.652344 55.660156c0 24.523438-15.859375 45.351563-37.886719 52.769532-5.578125 1.878906-11.554687 2.894531-17.761719 2.894531-30.742187 0-55.664062-24.921875-55.664062-55.664063 0-30.738281 24.921875-55.660156 55.664062-55.660156 6.207032 0 12.183594 1.011719 17.761719 2.894531 22.027344 7.417969 37.886719 28.242188 37.886719 52.765625zm0 0" fill="#151a1c"/><path d="m311.652344 55.660156c0 .753906-.007813 1.507813-.039063 2.257813-16.710937-8.464844-35.601562-13.226563-55.609375-13.226563h-.011718c-6.574219 0-13.03125.511719-19.320313 1.515625 3.46875-20.324219 17.960937-36.875 37.09375-43.3125 22.027344 7.417969 37.886719 28.242188 37.886719 52.765625zm0 0" fill="#2f373b"/><path d="m382.121094 449.578125v29.246094c-15.035156 8.515625-31.011719 15.578125-47.75 20.9375-1.734375.566406-3.46875 1.097656-5.226563 1.621093-6.507812 1.945313-13.132812 3.636719-19.851562 5.046876-2.949219.625-5.90625 1.203124-8.882813 1.714843-14.429687 2.539063-29.265625 3.855469-44.40625 3.855469s-29.980468-1.316406-44.410156-3.847656c-2.976562-.511719-5.933594-1.085938-8.878906-1.710938-7.808594-1.652344-15.464844-3.660156-22.988282-6-.417968-.136718-.835937-.261718-1.253906-.394531-.285156-.085937-.554687-.179687-.835937-.273437-16.730469-5.359376-32.71875-12.421876-47.753907-20.949219v-29.246094c0-35.289063 19.207032-66.089844 47.753907-82.507813 7.300781-4.210937 15.210937-7.46875 23.570312-9.613281.503907-.132812 1.003907-.25 1.507813-.375 4.710937-1.136719 9.558594-1.921875 14.523437-2.320312 2.570313-.207031 5.160157-.3125 7.78125-.3125h61.953125c7.324219 0 14.453125.816406 21.296875 2.382812.34375.082031.6875.15625 1.023438.238281.5.117188 1.003906.242188 1.492187.378907 8.359375 2.152343 16.28125 5.410156 23.585938 9.621093 28.535156 16.425782 47.75 47.230469 47.75 82.507813zm0 0" fill="#0c85a5"/><path d="m382.117188 449.578125v29.246094c-37.21875 21.117187-80.257813 33.175781-126.117188 33.175781-27.03125 0-53.070312-4.191406-77.53125-11.953125v-50.46875c0-52.539063 42.601562-95.128906 95.148438-95.128906h13.351562c52.558594 0 95.148438 42.589843 95.148438 95.128906zm0 0" fill="#1da2dd"/><path d="m310.785156 357.449219-2.652344 11.011719-24.148437 100.46875-7.667969 31.867187h-40.648437l-34.460938-143.339844c.503907-.132812 1.003907-.25 1.507813-.375 4.710937-1.136719 9.558594-1.921875 14.523437-2.320312 2.570313-.207031 5.160157-.3125 7.78125-.3125h61.953125c7.324219 0 14.453125.816406 21.296875 2.382812.34375.082031.6875.15625 1.023438.238281.5.117188 1.003906.242188 1.492187.378907zm0 0" fill="#ffe05c"/><path d="m289.941406 322.476562v32.285157l-2.121094 8.808593-24.160156 100.46875-7.667968 31.867188-33.9375-141.144531v-32.285157c0-25.964843 10.050781-47.917968 23.90625-55.203124 3.167968-1.683594 6.550781-2.582032 10.042968-2.582032 18.742188 0 33.9375 25.863282 33.9375 57.785156zm0 0" fill="#eaa27f"/><path d="m287.820312 363.570312-24.160156 100.46875-19.414062-80.71875c-2.414063-10.074218 5.214844-19.75 15.570312-19.75zm0 0" fill="#f6ba97"/><path d="m161.355469 249.535156c0 15.710938-11.480469 28.742188-26.507813 31.160156-1.644531.265626-3.332031.402344-5.058594.402344-17.4375 0-31.566406-14.125-31.566406-31.5625s14.128906-31.566406 31.566406-31.566406c1.726563 0 3.414063.136719 5.058594.40625 15.027344 2.417969 26.507813 15.445312 26.507813 31.160156zm0 0" fill="#f6ba97"/><path d="m161.355469 249.535156c0 15.710938-11.480469 28.742188-26.507813 31.160156-2.730468-9.929687-4.191406-20.378906-4.191406-31.160156 0-10.785156 1.457031-21.234375 4.191406-31.160156 15.027344 2.417969 26.507813 15.445312 26.507813 31.160156zm0 0" fill="#eaa27f"/><path d="m141.070312 249.535156c0 6.230469-5.050781 11.28125-11.28125 11.28125-6.230468 0-11.28125-5.050781-11.28125-11.28125 0-6.230468 5.050782-11.285156 11.28125-11.285156 6.230469 0 11.28125 5.054688 11.28125 11.285156zm0 0" fill="#eaa27f"/><path d="m350.640625 249.535156c0 15.710938 11.476563 28.742188 26.507813 31.160156 1.640624.265626 3.332031.402344 5.054687.402344 17.4375 0 31.566406-14.125 31.566406-31.5625s-14.128906-31.566406-31.566406-31.566406c-1.722656 0-3.414063.136719-5.054687.40625-15.03125 2.417969-26.507813 15.445312-26.507813 31.160156zm0 0" fill="#f6ba97"/><path d="m350.640625 249.535156c0 15.710938 11.476563 28.742188 26.507813 31.160156 2.730468-9.929687 4.1875-20.378906 4.1875-31.160156 0-10.785156-1.457032-21.234375-4.1875-31.160156-15.03125 2.417969-26.507813 15.445312-26.507813 31.160156zm0 0" fill="#eaa27f"/><path d="m393.484375 249.535156c0 6.230469-5.050781 11.28125-11.28125 11.28125s-11.28125-5.050781-11.28125-11.28125c0-6.230468 5.050781-11.285156 11.28125-11.285156s11.28125 5.054688 11.28125 11.285156zm0 0" fill="#eaa27f"/><path d="m373.4375 188.039062v44.722657c0 58.441406-42.695312 106.921875-98.59375 115.921875-.191406.03125-.386719.0625-.578125.09375-5.945313.949218-12.046875 1.417968-18.273437 1.417968-64.855469 0-117.4375-52.578124-117.4375-117.433593v-44.722657c0-13.65625 2.332031-26.78125 6.636718-38.972656 16.058594-45.707031 59.609375-78.472656 110.800782-78.472656h.011718c6.214844 0 12.328125.480469 18.285156 1.421875 56.171876 8.777344 99.148438 57.382813 99.148438 116.023437zm0 0" fill="#eaa27f"/><path d="m373.4375 188.039062v44.722657c0 58.441406-42.695312 106.921875-98.59375 115.921875-.191406.03125-.386719.0625-.578125.09375-56.171875-8.777344-99.136719-57.386719-99.136719-116.015625v-44.722657c0-58.640624 42.976563-107.246093 99.160156-116.023437 56.171876 8.777344 99.148438 57.382813 99.148438 116.023437zm0 0" fill="#f6ba97"/><g fill="#eaa27f"><path d="m335.933594 263.597656c0 8.078125-6.550782 14.625-14.628906 14.625-8.082032 0-14.628907-6.546875-14.628907-14.625 0-8.082031 6.546875-14.628906 14.628907-14.628906 8.078124 0 14.628906 6.546875 14.628906 14.628906zm0 0"/><path d="m205.320312 263.597656c0 8.078125-6.550781 14.625-14.628906 14.625s-14.628906-6.546875-14.628906-14.625c0-8.082031 6.550781-14.628906 14.628906-14.628906s14.628906 6.546875 14.628906 14.628906zm0 0"/><path d="m319.066406 222.84375c0-10.773438-8.734375-19.507812-19.507812-19.507812-10.769532 0-19.503906 8.734374-19.503906 19.507812"/><path d="m231.949219 222.84375c0-10.773438-8.734375-19.507812-19.507813-19.507812-10.769531 0-19.503906 8.734374-19.503906 19.507812"/></g><path d="m225.765625 231.148438c0 7.355468-5.964844 13.320312-13.324219 13.320312-7.355468 0-13.320312-5.964844-13.320312-13.320312 0-7.359376 5.964844-13.324219 13.320312-13.324219 7.359375 0 13.324219 5.964843 13.324219 13.324219zm0 0" fill="#2f373b"/><path d="m312.882812 231.148438c0 7.355468-5.964843 13.320312-13.324218 13.320312-7.355469 0-13.320313-5.964844-13.320313-13.320312 0-7.359376 5.964844-13.324219 13.320313-13.324219 7.359375 0 13.324218 5.964843 13.324218 13.324219zm0 0" fill="#2f373b"/><path d="m269.324219 264.691406h-26.644531c-3.175782 0-5.746094-2.574218-5.746094-5.75 0-3.171875 2.570312-5.746094 5.746094-5.746094h26.644531c3.175781 0 5.746093 2.574219 5.746093 5.746094 0 3.175782-2.570312 5.75-5.746093 5.75zm0 0" fill="#eaa27f"/><path d="m256 301.050781c-9.832031 0-19.667969-2.464843-28.628906-7.394531-2.53125-1.386719-3.453125-4.566406-2.0625-7.09375s4.566406-3.449219 7.09375-2.0625c14.777344 8.125 32.421875 8.125 47.195312 0 2.527344-1.386719 5.707032-.46875 7.097656 2.0625 1.390626 2.527344.464844 5.707031-2.0625 7.09375-8.964843 4.929688-18.796874 7.394531-28.632812 7.394531zm0 0" fill="#eaa27f"/><path d="m223.046875 228.796875c0 3.152344-2.554687 5.707031-5.707031 5.707031s-5.707032-2.554687-5.707032-5.707031 2.554688-5.710937 5.707032-5.710937 5.707031 2.558593 5.707031 5.710937zm0 0" fill="#fff"/><path d="m310.820312 228.796875c0 3.152344-2.554687 5.707031-5.707031 5.707031-3.152343 0-5.707031-2.554687-5.707031-5.707031s2.554688-5.710937 5.707031-5.710937c3.152344 0 5.707031 2.558593 5.707031 5.710937zm0 0" fill="#fff"/><path d="m255.996094 55.660156c-68.09375 0-123.296875 55.203125-123.296875 123.300782v19.503906h246.597656v-19.503906c0-68.097657-55.203125-123.300782-123.300781-123.300782zm0 0" fill="#2f373b"/><path d="m255.996094 55.660156c-37.324219 0-67.570313 55.203125-67.570313 123.300782v19.507812h-55.726562v-19.507812c0-68.097657 55.203125-123.300782 123.296875-123.300782zm0 0" fill="#151a1c"/><path d="m379.296875 198.464844v153.945312l-34.128906-169.269531" fill="#2f373b"/><path d="m132.699219 198.464844v153.945312l34.128906-169.269531" fill="#151a1c"/><path d="m403.417969 278.710938c0 4.957031-4.019531 8.976562-8.976563 8.976562-4.957031 0-8.972656-4.019531-8.972656-8.976562 0-4.957032 4.015625-8.972657 8.972656-8.972657 4.957032 0 8.976563 4.015625 8.976563 8.972657zm0 0" fill="#ffe05c"/><path d="m126.539062 278.710938c0 4.957031-4.019531 8.976562-8.976562 8.976562s-8.972656-4.019531-8.972656-8.976562c0-4.957032 4.015625-8.972657 8.972656-8.972657s8.976562 4.015625 8.976562 8.972657zm0 0" fill="#ffe05c"/></svg>