<svg height="512pt" viewBox="0 0 512 512" width="512pt" xmlns="http://www.w3.org/2000/svg"><path d="m512 256c0 141.386719-114.613281 256-256 256s-256-114.613281-256-256 114.613281-256 256-256 256 114.613281 256 256zm0 0" fill="#ffe05c"/><path d="m382.121094 449.578125v29.246094c-28.222656 16.007812-59.789063 26.8125-93.390625 31.09375-10.722657 1.371093-21.640625 2.082031-32.726563 2.082031-13.3125 0-26.363281-1.015625-39.109375-2.96875-13.167969-2.015625-26-5.046875-38.421875-8.984375-17.03125-5.402344-33.300781-12.550781-48.589844-21.222656v-29.246094c0-44.441406 30.480469-81.785156 71.691407-92.214844 5.066406-1.292969 10.304687-2.171875 15.664062-2.601562 2.570313-.207031 5.160157-.3125 7.785157-.3125h61.949218c7.253906 0 14.316406.804687 21.097656 2.339843.0625.011719.136719.03125.199219.042969 42.296875 9.675781 73.851563 47.53125 73.851563 92.746094zm0 0" fill="#0c85a5"/><path d="m382.121094 449.578125v29.246094c-22.726563 12.894531-47.613282 22.414062-74 27.855469-1.566406.324218-3.144532.636718-4.722656.929687-7.386719 1.390625-14.886719 2.457031-22.484376 3.175781-6.070312.597656-12.214843.972656-18.402343 1.128906-2.160157.054688-4.335938.085938-6.507813.085938-8.414062 0-16.71875-.410156-24.921875-1.191406-7.597656-.742188-15.097656-1.808594-22.484375-3.199219-10.273437-1.921875-20.324218-4.460937-30.125-7.5625v-50.46875c0-6.742187.699219-13.324219 2.035156-19.667969 2.613282-12.453125 7.671876-24 14.640626-34.136718.273437-.417969.5625-.8125.847656-1.222657 5.273437-7.425781 11.585937-14.0625 18.734375-19.683593 16.195312-12.789063 36.652343-20.417969 58.890625-20.417969h13.351562c4.285156 0 8.507813.28125 12.644532.835937 7.449218.980469 14.640624 2.84375 21.441406 5.464844 35.714844 13.6875 61.0625 48.296875 61.0625 88.828125zm0 0" fill="#1da2dd"/><path d="m289.941406 317.800781v41.65625c0 15.25-10.054687 28.140625-23.90625 32.421875-3.167968.980469-6.546875 1.515625-10.042968 1.515625-18.742188 0-33.9375-15.195312-33.9375-33.9375v-41.65625zm0 0" fill="#eaa27f"/><path d="m289.941406 356.816406v2.640625c0 15.25-10.054687 28.140625-23.90625 32.421875-12.496094-3.84375-21.890625-14.707031-23.625-28.003906 2.265625.140625 4.546875.210938 6.835938.210938 6.421875 0 12.71875-.511719 18.851562-1.519532 7.554688-1.210937 14.855469-3.15625 21.84375-5.75zm0 0" fill="#f6ba97"/><path d="m162.886719 249.53125c0 15.714844-11.476563 28.742188-26.507813 31.160156-1.640625.269532-3.332031.40625-5.054687.40625-17.4375 0-31.566407-14.128906-31.566407-31.566406 0-17.433594 14.128907-31.5625 31.566407-31.5625 1.722656 0 3.414062.136719 5.054687.40625 15.03125 2.417969 26.507813 15.445312 26.507813 31.15625zm0 0" fill="#f6ba97"/><path d="m162.886719 249.53125c0 15.714844-11.476563 28.742188-26.507813 31.160156-2.730468-9.925781-4.1875-20.375-4.1875-31.160156 0-10.78125 1.457032-21.230469 4.1875-31.15625 15.03125 2.417969 26.507813 15.445312 26.507813 31.15625zm0 0" fill="#eaa27f"/><path d="m142.605469 249.53125c0 6.234375-5.050781 11.285156-11.28125 11.285156s-11.285157-5.050781-11.285157-11.285156c0-6.230469 5.054688-11.28125 11.285157-11.28125s11.28125 5.050781 11.28125 11.28125zm0 0" fill="#eaa27f"/><path d="m349.105469 249.53125c0 15.714844 11.476562 28.742188 26.507812 31.160156 1.644531.269532 3.332031.40625 5.054688.40625 17.4375 0 31.566406-14.128906 31.566406-31.566406 0-17.433594-14.128906-31.5625-31.566406-31.5625-1.722657 0-3.410157.136719-5.054688.40625-15.03125 2.417969-26.507812 15.445312-26.507812 31.15625zm0 0" fill="#f6ba97"/><path d="m349.105469 249.53125c0 15.714844 11.476562 28.742188 26.507812 31.160156 2.730469-9.925781 4.1875-20.375 4.1875-31.160156 0-10.78125-1.457031-21.230469-4.1875-31.15625-15.03125 2.417969-26.507812 15.445312-26.507812 31.15625zm0 0" fill="#eaa27f"/><path d="m373.4375 188.039062v44.722657c0 58.441406-42.691406 106.921875-98.59375 115.917969-.1875.03125-.386719.0625-.574219.097656-5.945312.949218-12.050781 1.417968-18.277343 1.417968-64.855469 0-117.4375-52.578124-117.4375-117.433593v-44.722657c0-13.65625 2.332031-26.78125 6.636718-38.976562 16.058594-45.703125 59.613282-78.46875 110.800782-78.46875h.011718c6.214844 0 12.328125.480469 18.285156 1.417969 56.171876 8.777343 99.148438 57.386719 99.148438 116.027343zm0 0" fill="#eaa27f"/><path d="m391.953125 249.53125c0 6.234375-5.050781 11.285156-11.285156 11.285156-6.230469 0-11.28125-5.050781-11.28125-11.285156 0-6.230469 5.050781-11.28125 11.28125-11.28125 6.234375 0 11.285156 5.050781 11.285156 11.28125zm0 0" fill="#eaa27f"/><path d="m373.4375 188.039062v44.722657c0 58.441406-42.691406 106.921875-98.59375 115.917969-.1875.03125-.386719.0625-.574219.097656-56.175781-8.777344-99.140625-57.386719-99.140625-116.015625v-44.722657c0-58.640624 42.976563-107.25 99.160156-116.027343 56.171876 8.777343 99.148438 57.386719 99.148438 116.027343zm0 0" fill="#f6ba97"/><path d="m255.996094 290.601562c-9.835938 0-19.667969-2.464843-28.632813-7.390624-2.53125-1.390626-3.453125-4.566407-2.0625-7.097657 1.390625-2.527343 4.566407-3.449219 7.09375-2.0625 14.777344 8.125 32.421875 8.125 47.199219 0 2.527344-1.386719 5.703125-.464843 7.09375 2.0625 1.390625 2.53125.46875 5.707031-2.0625 7.097657-8.960938 4.925781-18.796875 7.390624-28.628906 7.390624zm0 0" fill="#eaa27f"/><path d="m269.316406 259.464844h-26.644531c-3.175781 0-5.746094-2.570313-5.746094-5.746094s2.570313-5.746094 5.746094-5.746094h26.644531c3.175782 0 5.746094 2.570313 5.746094 5.746094 0 3.171875-2.570312 5.746094-5.746094 5.746094zm0 0" fill="#eaa27f"/><path d="m230.984375 225.921875c0 7.359375-5.960937 13.320313-13.320313 13.320313-7.359374 0-13.324218-5.960938-13.324218-13.320313s5.964844-13.324219 13.324218-13.324219c7.359376 0 13.320313 5.964844 13.320313 13.324219zm0 0" fill="#2f373b"/><path d="m307.65625 225.921875c0 7.359375-5.964844 13.320313-13.324219 13.320313s-13.324219-5.960938-13.324219-13.320313 5.964844-13.324219 13.324219-13.324219 13.324219 5.964844 13.324219 13.324219zm0 0" fill="#2f373b"/><path d="m228.269531 223.570312c0 3.152344-2.554687 5.707032-5.707031 5.707032s-5.710938-2.554688-5.710938-5.707032c0-3.152343 2.558594-5.707031 5.710938-5.707031s5.707031 2.554688 5.707031 5.707031zm0 0" fill="#fff"/><path d="m305.59375 223.570312c0 3.152344-2.558594 5.707032-5.710938 5.707032-3.152343 0-5.707031-2.554688-5.707031-5.707032 0-3.152343 2.554688-5.707031 5.707031-5.707031 3.152344 0 5.710938 2.554688 5.710938 5.707031zm0 0" fill="#fff"/><g fill="#2f373b"><path d="m375.625 54.09375v164.277344c-6.375-2.851563-11.839844-7.175782-16.03125-12.515625-4.191406-5.332031-7.105469-11.664063-8.367188-18.527344l-5.601562-30.425781c-2.726562-14.777344-17.167969-24.347656-31.839844-21.085938l-36.914062 8.199219c-13.742188 3.0625-27.996094 3.0625-41.734375 0l-33.46875-7.4375-3.449219-.761719c-14.667969-3.261718-29.109375 6.308594-31.835938 21.085938l-5.601562 30.425781c-2.527344 13.730469-11.660156 25.339844-24.398438 31.042969v-164.277344h47.847657 143.546875zm0 0"/><path d="m184.230469 54.09375c0 13.21875-10.710938 23.929688-23.929688 23.929688-13.207031 0-23.917969-10.710938-23.917969-23.929688s10.710938-23.929688 23.917969-23.929688c13.21875 0 23.929688 10.710938 23.929688 23.929688zm0 0"/><path d="m232.074219 54.09375c0 13.21875-10.710938 23.929688-23.917969 23.929688-2.246094 0-4.429688-.316407-6.488281-.902344-10.0625-2.820313-17.4375-12.054688-17.4375-23.027344s7.375-20.207031 17.4375-23.03125c2.058593-.582031 4.242187-.898438 6.488281-.898438 13.207031 0 23.917969 10.710938 23.917969 23.929688zm0 0"/><path d="m279.929688 54.09375c0 13.214844-10.714844 23.925781-23.925782 23.925781-13.214844 0-23.925781-10.710937-23.925781-23.925781s10.710937-23.925781 23.925781-23.925781c13.210938 0 23.925782 10.710937 23.925782 23.925781zm0 0"/><path d="m327.777344 54.09375c0 13.214844-10.710938 23.925781-23.925782 23.925781-13.210937 0-23.921874-10.710937-23.921874-23.925781s10.710937-23.925781 23.921874-23.925781c13.214844 0 23.925782 10.710937 23.925782 23.925781zm0 0"/><path d="m375.628906 54.09375c0 13.214844-10.714844 23.925781-23.925781 23.925781-13.214844 0-23.925781-10.710937-23.925781-23.925781s10.710937-23.925781 23.925781-23.925781c13.210937 0 23.925781 10.710937 23.925781 23.925781zm0 0"/></g><path d="m184.230469 54.09375v82.398438c-8.914063 2.917968-16.019531 10.492187-17.847657 20.410156l-5.601562 30.425781c-2.527344 13.730469-11.660156 25.339844-24.398438 31.042969v-164.277344c0-13.21875 10.710938-23.929688 23.917969-23.929688 13.21875 0 23.929688 10.710938 23.929688 23.929688zm0 0" fill="#151a1c"/><path d="m177.1875 449.578125v50.058594c-16.574219-5.359375-32.402344-12.359375-47.304688-20.8125v-29.246094zm0 0" fill="#eaa27f"/><path d="m382.121094 449.578125v29.246094c-14.898438 8.453125-30.730469 15.453125-47.300782 20.8125v-50.058594zm0 0" fill="#f6ba97"/><path d="m334.820312 449.578125h47.300782v12.546875h-47.300782zm0 0" fill="#f2efea"/><path d="m129.882812 449.578125h47.304688v12.546875h-47.304688zm0 0" fill="#f2efea"/></svg>