<svg height="512pt" viewBox="0 0 512 512" width="512pt" xmlns="http://www.w3.org/2000/svg"><path d="m512 256c0 141.386719-114.613281 256-256 256s-256-114.613281-256-256 114.613281-256 256-256 256 114.613281 256 256zm0 0" fill="#f73b6c"/><path d="m382.121094 449.578125v29.246094c-37.222656 21.117187-80.261719 33.175781-126.121094 33.175781-27.03125 0-53.070312-4.191406-77.53125-11.953125-17.03125-5.402344-33.300781-12.550781-48.589844-21.222656v-29.246094c0-49.917969 38.445313-90.867187 87.355469-94.816406 2.570313-.207031 5.160156-.3125 7.785156-.3125h61.953125c7.324219 0 14.449219.816406 21.292969 2.382812 42.296875 9.675781 73.855469 47.53125 73.855469 92.746094zm0 0" fill="#9fc2cc"/><path d="m382.121094 449.578125v29.246094c-30.769532 17.460937-65.515625 28.722656-102.546875 32.089843-7.761719.71875-15.628907 1.085938-23.570313 1.085938-7.953125 0-15.820312-.367188-23.585937-1.078125-18.628907-1.703125-36.683594-5.402344-53.945313-10.875v-50.46875c0-52.539063 42.597656-95.128906 95.148438-95.128906h13.351562c52.558594 0 95.148438 42.589843 95.148438 95.128906zm0 0" fill="#c1dce5"/><path d="m281.539062 388.773438-25.539062 40.960937-25.539062-40.960937" fill="#2f373b"/><path d="m279.574219 510.914062c-7.761719.71875-15.628907 1.085938-23.570313 1.085938-7.953125 0-15.820312-.367188-23.585937-1.078125l23.585937-91.84375zm0 0" fill="#2f373b"/><path d="m255.992188 393.394531-42.828126 23.800781-13.03125-60.601562 26.613282-15.675781" fill="#9fc2cc"/><path d="m255.992188 393.394531 42.828124 23.800781 13.03125-60.601562-26.613281-15.675781" fill="#9fc2cc"/><path d="m289.941406 317.800781v41.65625c0 15.25-10.054687 28.136719-23.90625 32.417969-3.167968.984375-6.546875 1.519531-10.042968 1.519531-18.742188 0-33.9375-15.195312-33.9375-33.9375v-41.65625zm0 0" fill="#eaa27f"/><path d="m289.941406 356.816406v2.640625c0 15.25-10.054687 28.140625-23.90625 32.421875-12.496094-3.84375-21.890625-14.707031-23.625-28.003906 2.265625.140625 4.546875.210938 6.835938.210938 6.421875 0 12.71875-.511719 18.851562-1.519532 7.554688-1.214844 14.855469-3.15625 21.84375-5.75zm0 0" fill="#f6ba97"/><path d="m294.664062 446.453125h51.199219v15.671875h-51.199219zm0 0" fill="#9fc2cc"/><path d="m349.101562 249.535156c0 15.714844 11.476563 28.742188 26.507813 31.160156 1.644531.265626 3.332031.40625 5.058594.40625 17.4375 0 31.5625-14.128906 31.5625-31.566406s-14.125-31.566406-31.5625-31.566406c-1.726563 0-3.414063.140625-5.058594.40625-15.03125 2.417969-26.507813 15.445312-26.507813 31.160156zm0 0" fill="#f6ba97"/><path d="m349.101562 249.535156c0 15.714844 11.476563 28.742188 26.507813 31.160156 2.730469-9.929687 4.191406-20.375 4.191406-31.160156s-1.457031-21.230468-4.191406-31.160156c-15.03125 2.417969-26.507813 15.445312-26.507813 31.160156zm0 0" fill="#eaa27f"/><path d="m391.949219 249.535156c0 6.230469-5.050781 11.28125-11.28125 11.28125s-11.28125-5.050781-11.28125-11.28125c0-6.230468 5.050781-11.28125 11.28125-11.28125s11.28125 5.050782 11.28125 11.28125zm0 0" fill="#eaa27f"/><path d="m162.886719 249.535156c0 15.714844-11.480469 28.742188-26.511719 31.160156-1.640625.265626-3.332031.40625-5.054688.40625-17.4375 0-31.566406-14.128906-31.566406-31.566406s14.128906-31.566406 31.566406-31.566406c1.722657 0 3.414063.140625 5.054688.40625 15.03125 2.417969 26.511719 15.445312 26.511719 31.160156zm0 0" fill="#f6ba97"/><path d="m162.886719 249.535156c0 15.714844-11.480469 28.742188-26.511719 31.160156-2.730469-9.929687-4.1875-20.375-4.1875-31.160156s1.457031-21.230468 4.1875-31.160156c15.03125 2.417969 26.511719 15.445312 26.511719 31.160156zm0 0" fill="#eaa27f"/><path d="m142.601562 249.535156c0 6.230469-5.050781 11.28125-11.28125 11.28125-6.230468 0-11.28125-5.050781-11.28125-11.28125 0-6.230468 5.050782-11.28125 11.28125-11.28125 6.230469 0 11.28125 5.050782 11.28125 11.28125zm0 0" fill="#eaa27f"/><path d="m375.613281 218.371094-2.175781 14.390625c0 55.910156-39.078125 102.710937-91.417969 114.53125-2.371093.53125-4.761719 1-7.175781 1.386719-.1875.03125-.386719.0625-.574219.097656-5.945312.949218-12.050781 1.417968-18.277343 1.417968-8.945313 0-17.648438-1-26.015626-2.894531-52.339843-11.835937-91.421874-58.628906-91.421874-114.539062l-2.183594-14.390625c0-13.65625 4.515625-57.113282 8.820312-69.308594 16.058594-45.703125 59.613282-78.46875 110.800782-78.46875h.011718c6.214844 0 12.328125.480469 18.285156 1.417969 56.171876 8.777343 101.324219 87.722656 101.324219 146.359375zm0 0" fill="#151a1c"/><path d="m362.992188 188.039062v44.722657c0 25.578125-9.175782 50.320312-25.8125 69.695312-8.257813 9.597657-18.085938 17.601563-28.957032 23.679688-3.59375 2.011719-7.554687 3.359375-11.65625 3.730469-8.339844.753906-16.78125-1.855469-23.15625-7.609376-4.617187-4.148437-10.71875-6.679687-17.417968-6.679687-6.699219 0-12.800782 2.53125-17.417969 6.679687-5.652344 5.109376-12.9375 7.742188-20.332031 7.742188-.039063 0-.074219 0-.113282 0-5.101562-.019531-10.097656-1.484375-14.539062-3.992188-32.5625-18.359374-54.585938-53.277343-54.585938-93.246093v-44.722657c0-12.203124 2.027344-24.148437 6.042969-35.496093 13.476563-38.367188 47.507813-65.441407 87.113281-70.601563 4.542969-.597656 9.160156-.898437 13.832032-.898437 5.621093 0 11.234374.4375 16.667968 1.292969 24.929688 3.898437 47.78125 16.613281 64.355469 35.820312 16.75 19.402344 25.976563 44.21875 25.976563 69.882812zm0 0" fill="#eaa27f"/><path d="m362.992188 188.039062v44.722657c0 25.578125-9.175782 50.320312-25.8125 69.695312-9.128907 10.613281-20.1875 19.277344-32.441407 25.546875-10.699219 4-22.84375 1.910156-31.328125-5.746094-4.617187-4.148437-10.71875-6.679687-17.417968-6.679687-6.699219 0-12.800782 2.53125-17.417969 6.679687-3.792969 3.425782-8.316407 5.734376-13.125 6.882813-30.425781-21.21875-50.320313-56.476563-50.320313-96.378906v-44.722657c0-46.8125 27.386719-87.238281 67.03125-106.097656 4.542969-.597656 9.160156-.898437 13.832032-.898437 5.621093 0 11.234374.4375 16.667968 1.292969 24.929688 3.898437 47.78125 16.613281 64.355469 35.820312 16.75 19.402344 25.976563 44.21875 25.976563 69.882812zm0 0" fill="#f6ba97"/><path d="m255.992188 290.601562c-9.835938 0-19.667969-2.464843-28.632813-7.390624-2.527344-1.390626-3.453125-4.566407-2.0625-7.09375 1.390625-2.53125 4.566406-3.453126 7.097656-2.0625 14.773438 8.125 32.417969 8.121093 47.195313 0 2.527344-1.390626 5.703125-.46875 7.09375 2.0625 1.390625 2.527343.46875 5.703124-2.0625 7.09375-8.960938 4.925781-18.796875 7.390624-28.628906 7.390624zm0 0" fill="#eaa27f"/><path d="m269.3125 259.46875h-26.644531c-3.171875 0-5.746094-2.574219-5.746094-5.75 0-3.171875 2.574219-5.746094 5.746094-5.746094h26.644531c3.175781 0 5.75 2.574219 5.75 5.746094 0 3.175781-2.574219 5.75-5.75 5.75zm0 0" fill="#eaa27f"/><path d="m230.984375 225.921875c0 7.359375-5.964844 13.324219-13.324219 13.324219-7.355468 0-13.320312-5.964844-13.320312-13.324219 0-7.355469 5.964844-13.320313 13.320312-13.320313 7.359375 0 13.324219 5.964844 13.324219 13.320313zm0 0" fill="#2f373b"/><path d="m307.652344 225.921875c0 7.359375-5.964844 13.324219-13.324219 13.324219-7.355469 0-13.320313-5.964844-13.320313-13.324219 0-7.355469 5.964844-13.320313 13.320313-13.320313 7.359375 0 13.324219 5.964844 13.324219 13.320313zm0 0" fill="#2f373b"/><path d="m228.265625 223.570312c0 3.152344-2.554687 5.710938-5.707031 5.710938s-5.707032-2.558594-5.707032-5.710938c0-3.152343 2.554688-5.707031 5.707032-5.707031s5.707031 2.554688 5.707031 5.707031zm0 0" fill="#fff"/><path d="m305.589844 223.570312c0 3.152344-2.558594 5.710938-5.710938 5.710938s-5.707031-2.558594-5.707031-5.710938c0-3.152343 2.554687-5.707031 5.707031-5.707031s5.710938 2.554688 5.710938 5.707031zm0 0" fill="#fff"/><path d="m235.136719 144.019531-36.921875-8.203125c-14.664063-3.257812-29.109375 6.304688-31.832032 21.082032l-5.605468 30.425781c-2.527344 13.734375-11.652344 25.34375-24.398438 31.050781v-65.1875c0-54.726562 44.367188-99.09375 99.097656-99.09375h41.054688c54.730469 0 99.097656 44.367188 99.097656 99.09375v65.1875l-5.070312-2.269531c-9.570313-4.285157-16.425782-13.003907-18.324219-23.320313l-6.613281-35.886718c-2.722656-14.777344-17.164063-24.34375-31.832032-21.082032l-36.921874 8.203125c-13.742188 3.054688-27.984376 3.054688-41.730469 0zm0 0" fill="#2f373b"/><path d="m279.511719 54.136719c-47.628907 1.410156-86.820313 36.433593-94.667969 82.167969-9.207031 2.757812-16.59375 10.449218-18.464844 20.597656l-6.609375 35.882812c-1.898437 10.3125-8.753906 19.035156-18.324219 23.320313l-5.0625 2.265625v-65.179688c0-54.730468 44.367188-99.097656 99.097657-99.097656h41.054687c.988282 0 1.980469.011719 2.976563.042969zm0 0" fill="#151a1c"/></svg>