<svg height="512pt" viewBox="0 0 512 512" width="512pt" xmlns="http://www.w3.org/2000/svg"><path d="m512 256c0 141.386719-114.613281 256-256 256s-256-114.613281-256-256 114.613281-256 256-256 256 114.613281 256 256zm0 0" fill="#1da2dd"/><path d="m382.121094 449.578125v29.246094c-37.222656 21.117187-80.261719 33.175781-126.121094 33.175781-27.03125 0-53.070312-4.191406-77.53125-11.953125-17.03125-5.402344-33.300781-12.550781-48.589844-21.222656v-29.246094c0-49.914063 38.445313-90.863281 87.355469-94.8125 2.570313-.210937 5.160156-.316406 7.785156-.316406h61.953125c7.324219 0 14.449219.816406 21.292969 2.382812 42.296875 9.675781 73.855469 47.53125 73.855469 92.746094zm0 0" fill="#512375"/><path d="m382.121094 449.578125v29.246094c-22.726563 12.894531-47.613282 22.414062-74 27.855469-14.773438 3.0625-30.019532 4.847656-45.609375 5.234374-2.160157.054688-4.335938.085938-6.507813.085938-27.03125 0-53.070312-4.191406-77.53125-11.953125v-50.46875c0-6.742187.699219-13.324219 2.035156-19.667969 2.71875-12.957031 8.078126-24.929687 15.488282-35.359375 17.238281-24.269531 45.585937-40.101562 77.625-40.101562h13.351562c52.558594 0 95.148438 42.589843 95.148438 95.128906zm0 0" fill="#673389"/><g fill="#512375"><path d="m262.550781 376.300781v135.617188c-2.183593.050781-4.355469.082031-6.550781.082031s-4.378906-.03125-6.550781-.09375v-135.605469zm0 0"/><path d="m297.800781 442.273438c0 6.347656-5.148437 11.492187-11.496093 11.492187-6.347657 0-11.492188-5.144531-11.492188-11.492187 0-6.347657 5.144531-11.496094 11.492188-11.496094 6.347656 0 11.496093 5.148437 11.496093 11.496094zm0 0"/><path d="m297.800781 478.84375c0 6.347656-5.148437 11.496094-11.496093 11.496094-6.347657 0-11.492188-5.148438-11.492188-11.496094s5.144531-11.492188 11.492188-11.492188c6.347656 0 11.496093 5.144532 11.496093 11.492188zm0 0"/><path d="m255.992188 393.394531-42.828126 23.800781-13.03125-60.601562 26.613282-15.675781"/><path d="m255.992188 393.394531 42.828124 23.800781 13.03125-60.601562-26.613281-15.675781"/></g><path d="m289.941406 317.800781v41.65625c0 15.25-10.054687 28.140625-23.90625 32.421875-3.167968.980469-6.546875 1.515625-10.042968 1.515625-18.742188 0-33.9375-15.195312-33.9375-33.9375v-41.65625zm0 0" fill="#eaa27f"/><path d="m289.941406 356.816406v2.640625c0 15.25-10.054687 28.140625-23.90625 32.421875-12.496094-3.84375-21.890625-14.707031-23.625-28.003906 2.265625.140625 4.546875.210938 6.835938.210938 6.421875 0 12.71875-.511719 18.851562-1.519532 7.554688-1.210937 14.855469-3.15625 21.84375-5.75zm0 0" fill="#f6ba97"/><path d="m162.886719 249.53125c0 15.714844-11.476563 28.742188-26.507813 31.160156-1.640625.269532-3.332031.40625-5.054687.40625-17.4375 0-31.566407-14.128906-31.566407-31.566406 0-17.433594 14.128907-31.5625 31.566407-31.5625 1.722656 0 3.414062.136719 5.054687.40625 15.03125 2.417969 26.507813 15.445312 26.507813 31.15625zm0 0" fill="#f6ba97"/><path d="m162.886719 249.53125c0 15.714844-11.476563 28.742188-26.507813 31.160156-2.730468-9.925781-4.1875-20.375-4.1875-31.160156 0-10.78125 1.457032-21.230469 4.1875-31.15625 15.03125 2.417969 26.507813 15.445312 26.507813 31.15625zm0 0" fill="#eaa27f"/><path d="m142.605469 249.53125c0 6.234375-5.050781 11.285156-11.28125 11.285156s-11.285157-5.050781-11.285157-11.285156c0-6.230469 5.054688-11.28125 11.285157-11.28125s11.28125 5.050781 11.28125 11.28125zm0 0" fill="#eaa27f"/><path d="m349.105469 249.53125c0 15.714844 11.476562 28.742188 26.507812 31.160156 1.644531.269532 3.332031.40625 5.054688.40625 17.4375 0 31.566406-14.128906 31.566406-31.566406 0-17.433594-14.128906-31.5625-31.566406-31.5625-1.722657 0-3.410157.136719-5.054688.40625-15.03125 2.417969-26.507812 15.445312-26.507812 31.15625zm0 0" fill="#f6ba97"/><path d="m349.105469 249.53125c0 15.714844 11.476562 28.742188 26.507812 31.160156 2.730469-9.925781 4.1875-20.375 4.1875-31.160156 0-10.78125-1.457031-21.230469-4.1875-31.15625-15.03125 2.417969-26.507812 15.445312-26.507812 31.15625zm0 0" fill="#eaa27f"/><path d="m373.4375 188.039062v44.722657c0 58.441406-42.691406 106.921875-98.59375 115.917969-.1875.03125-.386719.0625-.574219.097656-5.945312.949218-12.050781 1.417968-18.277343 1.417968-64.855469 0-117.4375-52.578124-117.4375-117.433593v-44.722657c0-13.65625 2.332031-26.78125 6.636718-38.976562 16.058594-45.703125 59.613282-78.46875 110.800782-78.46875h.011718c6.214844 0 12.328125.480469 18.285156 1.417969 56.171876 8.777343 99.148438 57.386719 99.148438 116.027343zm0 0" fill="#eaa27f"/><path d="m391.953125 249.53125c0 6.234375-5.050781 11.285156-11.285156 11.285156-6.230469 0-11.28125-5.050781-11.28125-11.285156 0-6.230469 5.050781-11.28125 11.28125-11.28125 6.234375 0 11.285156 5.050781 11.285156 11.28125zm0 0" fill="#eaa27f"/><path d="m373.4375 188.039062v44.722657c0 58.441406-42.691406 106.921875-98.59375 115.917969-.1875.03125-.386719.0625-.574219.097656-56.175781-8.777344-99.140625-57.386719-99.140625-116.015625v-44.722657c0-58.640624 42.976563-107.25 99.160156-116.027343 56.171876 8.777343 99.148438 57.386719 99.148438 116.027343zm0 0" fill="#f6ba97"/><path d="m373.4375 201.582031v35.484375c0 58.441406-42.691406 106.925782-98.59375 115.921875-.1875.03125-.386719.0625-.574219.09375-6.074219.96875-12.304687 1.441407-18.671875 1.417969-64.878906-.203125-117.042968-53.632812-117.042968-118.511719v-28.878906l13.3125 1.273437 17.78125 60.285157c2.585937 8.773437 9.464843 15.625 18.25 18.183593 13.613281 3.960938 27.960937-3.34375 32.761718-16.6875 2.398438-6.65625 8.710938-11.09375 15.789063-11.09375h39.085937c7.078125 0 13.390625 4.4375 15.789063 11.09375 4.800781 13.339844 19.148437 20.648438 32.761719 16.6875 8.785156-2.558593 15.664062-9.410156 18.25-18.183593l17.78125-60.285157zm0 0" fill="#eaa27f"/><path d="m256.003906 295.824219c-9.835937 0-19.671875-2.464844-28.632812-7.390625-2.53125-1.390625-3.453125-4.566406-2.0625-7.097656 1.390625-2.527344 4.566406-3.449219 7.09375-2.058594 14.777344 8.121094 32.421875 8.121094 47.199218 0 2.523438-1.390625 5.703126-.46875 7.09375 2.058594 1.390626 2.53125.464844 5.707031-2.0625 7.097656-8.964843 4.925781-18.796874 7.390625-28.628906 7.390625zm0 0" fill="#d88d6f"/><path d="m269.316406 259.464844h-26.644531c-3.175781 0-5.746094-2.570313-5.746094-5.746094s2.570313-5.746094 5.746094-5.746094h26.644531c3.175782 0 5.746094 2.570313 5.746094 5.746094 0 3.171875-2.570312 5.746094-5.746094 5.746094zm0 0" fill="#d88d6f"/><path d="m230.984375 225.921875c0 7.359375-5.960937 13.320313-13.320313 13.320313-7.359374 0-13.324218-5.960938-13.324218-13.320313s5.964844-13.324219 13.324218-13.324219c7.359376 0 13.320313 5.964844 13.320313 13.324219zm0 0" fill="#2f373b"/><path d="m307.65625 225.921875c0 7.359375-5.964844 13.320313-13.324219 13.320313s-13.324219-5.960938-13.324219-13.320313 5.964844-13.324219 13.324219-13.324219 13.324219 5.964844 13.324219 13.324219zm0 0" fill="#2f373b"/><path d="m228.269531 223.570312c0 3.152344-2.554687 5.707032-5.707031 5.707032s-5.710938-2.554688-5.710938-5.707032c0-3.152343 2.558594-5.707031 5.710938-5.707031s5.707031 2.554688 5.707031 5.707031zm0 0" fill="#fff"/><path d="m305.59375 223.570312c0 3.152344-2.558594 5.707032-5.710938 5.707032-3.152343 0-5.707031-2.554688-5.707031-5.707032 0-3.152343 2.554688-5.707031 5.707031-5.707031 3.152344 0 5.710938 2.554688 5.710938 5.707031zm0 0" fill="#fff"/><path d="m373.4375 192.011719v45.8125c-12.070312 0-21.859375-9.789063-21.859375-21.859375v-90.421875l-157.777344 47.085937-33.386719-6.207031v49.542969c0 12.070312-9.785156 21.859375-21.859374 21.859375v-45.8125c0-52.21875 42.335937-94.554688 94.554687-94.554688h45.789063c1.242187 0 2.484374.023438 3.730468.085938 50.476563 1.941406 90.808594 43.488281 90.808594 94.46875zm0 0" fill="#151a1c"/><path d="m373.4375 125.542969v63.625h-234.882812v-63.625c0-38.964844 32.441406-70.5625 72.464843-70.5625h89.953125c40.027344 0 72.464844 31.597656 72.464844 70.5625zm0 0" fill="#e89f18"/><path d="m373.4375 125.542969v63.625h-180.15625v-63.625c0-38.964844 32.441406-70.5625 72.464844-70.5625h35.230468c40.023438 0 72.460938 31.597656 72.460938 70.5625zm0 0" fill="#ffe05c"/><path d="m283.691406 159.472656v29.695313h-221.246094c-8.203124 0-14.847656-6.644531-14.847656-14.847657 0-4.097656 1.660156-7.816406 4.347656-10.503906 2.683594-2.683594 6.40625-4.34375 10.5-4.34375zm0 0" fill="#512375"/><path d="m323.921875 159.472656v29.695313h-128.261719c-8.203125 0-14.847656-6.644531-14.847656-14.847657 0-4.097656 1.660156-7.816406 4.347656-10.503906 2.683594-2.683594 6.394532-4.34375 10.5-4.34375zm0 0" fill="#673389"/></svg>