<svg height="512pt" viewBox="0 0 512 512" width="512pt" xmlns="http://www.w3.org/2000/svg"><path d="m512 256c0 141.386719-114.613281 256-256 256s-256-114.613281-256-256 114.613281-256 256-256 256 114.613281 256 256zm0 0" fill="#2f373b"/><path d="m143.148438 204.035156h225.699218v210.027344h-225.699218zm0 0" fill="#17a388"/><path d="m382.121094 449.578125v29.246094c-14.898438 8.453125-30.730469 15.453125-47.300782 20.804687-24.828124 8.035156-51.316406 12.371094-78.816406 12.371094-22.882812 0-45.066406-3-66.175781-8.640625-3.824219-1.015625-7.605469-2.121094-11.355469-3.3125-.429687-.136719-.859375-.273437-1.285156-.417969-5.988281-1.925781-11.882812-4.078125-17.660156-6.4375-10.230469-4.160156-20.125-8.964844-29.644532-14.367187v-29.246094c0-20.03125 6.199219-38.621094 16.773438-53.949219 13.675781-19.851562 34.710938-34.242187 59.171875-39.246094 3.730469-.761718 7.53125-1.304687 11.410156-1.621093 2.570313-.207031 5.160157-.3125 7.785157-.3125h61.949218c6.679688 0 13.1875.679687 19.46875 1.984375.617188.125 1.222656.261718 1.828125.398437 23.5625 5.390625 43.78125 19.519531 57.082031 38.796875 10.574219 15.328125 16.769532 33.917969 16.769532 53.949219zm0 0" fill="#e89f18"/><path d="m382.121094 449.578125v29.246094c-37.222656 21.117187-80.261719 33.175781-126.121094 33.175781-27.03125 0-53.070312-4.191406-77.53125-11.953125v-50.46875c0-52.539063 42.601562-95.128906 95.148438-95.128906h13.355468c52.554688 0 95.148438 42.589843 95.148438 95.128906zm0 0" fill="#ffe05c"/><path d="m298.84375 393.164062c0 22.203126-16.894531 40.46875-38.535156 42.628907-1.410156.136719-2.851563.210937-4.304688.210937-1.441406 0-2.875-.074218-4.285156-.210937-21.648438-2.152344-38.554688-20.414063-38.554688-42.628907 0-23.65625 19.183594-42.84375 42.839844-42.84375s42.839844 19.1875 42.839844 42.84375zm0 0" fill="#f2efea"/><path d="m255.992188 393.394531-42.828126 23.800781-13.03125-60.601562 26.613282-15.675781" fill="#d8d4ce"/><path d="m255.992188 393.394531 42.828124 23.800781 13.03125-60.601562-26.613281-15.675781" fill="#d8d4ce"/><path d="m289.941406 317.800781v41.65625c0 15.25-10.054687 28.140625-23.90625 32.421875-3.167968.980469-6.546875 1.515625-10.042968 1.515625-18.742188 0-33.9375-15.195312-33.9375-33.9375v-41.65625zm0 0" fill="#eaa27f"/><path d="m289.941406 356.816406v2.640625c0 15.25-10.054687 28.140625-23.90625 32.421875-12.496094-3.84375-21.890625-14.707031-23.625-28.003906 2.265625.140625 4.546875.210938 6.835938.210938 6.421875 0 12.71875-.511719 18.851562-1.519532 7.554688-1.210937 14.855469-3.15625 21.84375-5.75zm0 0" fill="#f6ba97"/><path d="m161.355469 249.535156c0 15.710938-11.476563 28.742188-26.507813 31.160156-1.644531.265626-3.332031.402344-5.058594.402344-17.433593 0-31.5625-14.125-31.5625-31.5625s14.128907-31.566406 31.5625-31.566406c1.726563 0 3.414063.140625 5.058594.40625 15.03125 2.417969 26.507813 15.445312 26.507813 31.160156zm0 0" fill="#f6ba97"/><path d="m161.355469 249.535156c0 15.710938-11.476563 28.742188-26.507813 31.160156-2.730468-9.929687-4.1875-20.378906-4.1875-31.160156 0-10.785156 1.457032-21.234375 4.1875-31.160156 15.03125 2.417969 26.507813 15.445312 26.507813 31.160156zm0 0" fill="#eaa27f"/><path d="m141.074219 249.535156c0 6.230469-5.050781 11.28125-11.285157 11.28125-6.230468 0-11.28125-5.050781-11.28125-11.28125 0-6.230468 5.050782-11.28125 11.28125-11.28125 6.234376 0 11.285157 5.050782 11.285157 11.28125zm0 0" fill="#eaa27f"/><path d="m350.640625 249.535156c0 15.710938 11.476563 28.742188 26.507813 31.160156 1.644531.265626 3.332031.402344 5.058593.402344 17.4375 0 31.5625-14.125 31.5625-31.5625s-14.125-31.566406-31.5625-31.566406c-1.726562 0-3.414062.140625-5.058593.40625-15.03125 2.417969-26.507813 15.445312-26.507813 31.160156zm0 0" fill="#f6ba97"/><path d="m350.640625 249.535156c0 15.710938 11.476563 28.742188 26.507813 31.160156 2.730468-9.929687 4.191406-20.378906 4.191406-31.160156 0-10.785156-1.457032-21.234375-4.191406-31.160156-15.03125 2.417969-26.507813 15.445312-26.507813 31.160156zm0 0" fill="#eaa27f"/><path d="m393.488281 249.535156c0 6.230469-5.050781 11.28125-11.28125 11.28125s-11.28125-5.050781-11.28125-11.28125c0-6.230468 5.050781-11.28125 11.28125-11.28125s11.28125 5.050782 11.28125 11.28125zm0 0" fill="#eaa27f"/><path d="m373.4375 188.039062v44.722657c0 58.441406-42.691406 106.921875-98.59375 115.917969-.1875.03125-.386719.0625-.574219.097656-5.945312.949218-12.050781 1.417968-18.277343 1.417968-64.855469 0-117.4375-52.578124-117.4375-117.433593v-44.722657c0-13.65625 2.332031-26.78125 6.636718-38.976562 16.058594-45.703125 59.613282-78.46875 110.800782-78.46875h.011718c6.214844 0 12.328125.480469 18.285156 1.417969 56.171876 8.777343 99.148438 57.386719 99.148438 116.027343zm0 0" fill="#eaa27f"/><path d="m373.4375 188.039062v44.722657c0 58.441406-42.691406 106.921875-98.59375 115.917969-.1875.03125-.386719.0625-.574219.097656-56.175781-8.777344-99.140625-57.386719-99.140625-116.015625v-44.722657c0-58.640624 42.976563-107.25 99.160156-116.027343 56.171876 8.777343 99.148438 57.386719 99.148438 116.027343zm0 0" fill="#f6ba97"/><g fill="#eaa27f"><path d="m335.933594 263.59375c0 8.082031-6.550782 14.628906-14.628906 14.628906-8.078126 0-14.628907-6.546875-14.628907-14.628906 0-8.078125 6.550781-14.628906 14.628907-14.628906 8.078124 0 14.628906 6.550781 14.628906 14.628906zm0 0"/><path d="m205.320312 263.59375c0 8.082031-6.550781 14.628906-14.628906 14.628906s-14.628906-6.546875-14.628906-14.628906c0-8.078125 6.550781-14.628906 14.628906-14.628906s14.628906 6.550781 14.628906 14.628906zm0 0"/><path d="m319.066406 222.84375c0-10.773438-8.734375-19.507812-19.503906-19.507812-10.773438 0-19.507812 8.734374-19.507812 19.507812"/><path d="m231.949219 222.84375c0-10.773438-8.734375-19.507812-19.503907-19.507812-10.773437 0-19.507812 8.734374-19.507812 19.507812"/></g><path d="m225.765625 231.144531c0 7.359375-5.964844 13.324219-13.320313 13.324219-7.359374 0-13.324218-5.964844-13.324218-13.324219 0-7.355469 5.964844-13.320312 13.324218-13.320312 7.355469 0 13.320313 5.964843 13.320313 13.320312zm0 0" fill="#2f373b"/><path d="m312.882812 231.144531c0 7.359375-5.964843 13.324219-13.320312 13.324219-7.359375 0-13.324219-5.964844-13.324219-13.324219 0-7.355469 5.964844-13.320312 13.324219-13.320312 7.355469 0 13.320312 5.964843 13.320312 13.320312zm0 0" fill="#2f373b"/><path d="m269.324219 264.6875h-26.644531c-3.171876 0-5.746094-2.570312-5.746094-5.746094 0-3.171875 2.574218-5.746094 5.746094-5.746094h26.644531c3.175781 0 5.75 2.574219 5.75 5.746094 0 3.175782-2.574219 5.746094-5.75 5.746094zm0 0" fill="#eaa27f"/><path d="m256.003906 301.046875c-9.835937 0-19.667968-2.460937-28.632812-7.390625-2.527344-1.390625-3.453125-4.566406-2.0625-7.09375s4.566406-3.449219 7.09375-2.0625c14.777344 8.125 32.421875 8.125 47.199218 0 2.527344-1.390625 5.703126-.46875 7.09375 2.0625 1.390626 2.527344.46875 5.703125-2.0625 7.09375-8.960937 4.929688-18.796874 7.390625-28.628906 7.390625zm0 0" fill="#eaa27f"/><path d="m223.050781 228.796875c0 3.152344-2.554687 5.707031-5.707031 5.707031-3.15625 0-5.710938-2.554687-5.710938-5.707031 0-3.15625 2.554688-5.710937 5.710938-5.710937 3.152344 0 5.707031 2.554687 5.707031 5.710937zm0 0" fill="#fff"/><path d="m310.820312 228.796875c0 3.152344-2.554687 5.707031-5.707031 5.707031-3.152343 0-5.707031-2.554687-5.707031-5.707031 0-3.15625 2.554688-5.710937 5.707031-5.710937 3.152344 0 5.707031 2.554687 5.707031 5.710937zm0 0" fill="#fff"/><path d="m377.148438 218.371094c-163.066407 0-181.75-65.535156-181.75-65.535156s-23.925782 65.535156-60.550782 65.535156c0 0-11.546875-44.636719-3.1875-100.015625 8.359375-55.378907 64.785156-43.886719 64.785156-43.886719 240.324219-68.964844 180.703126 143.902344 180.703126 143.902344zm0 0" fill="#27ba9e"/><path d="m195.398438 152.835938s-23.925782 65.535156-60.550782 65.535156c0 0-11.546875-44.636719-3.1875-100.015625 8.359375-55.378907 64.785156-43.886719 64.785156-43.886719s-29.082031 46.738281-1.046874 78.367188zm0 0" fill="#17a388"/><path d="m404.582031 134.101562c-2.050781-1.183593-4.359375-2.261718-6.800781-3.207031 2.441406-.945312 4.75-2.027343 6.800781-3.210937 12.320313-7.113282 10.734375-15.152344 5.953125-23.433594-4.78125-8.285156-10.953125-13.675781-23.273437-6.5625-2.046875 1.183594-4.136719 2.640625-6.179688 4.28125.402344-2.585938.621094-5.125.621094-7.488281 0-14.226563-7.753906-16.875-17.316406-16.875-9.566407 0-17.320313 2.648437-17.320313 16.875 0 2.363281.21875 4.902343.621094 7.488281-2.039062-1.640625-4.128906-3.097656-6.179688-4.28125-12.320312-7.113281-18.488281-1.722656-23.273437 6.5625-4.78125 8.28125-6.363281 16.320312 5.953125 23.433594 2.050781 1.183594 4.359375 2.265625 6.800781 3.210937-2.441406.945313-4.75 2.023438-6.800781 3.207031-12.316406 7.113282-10.734375 15.152344-5.953125 23.4375 4.785156 8.28125 10.957031 13.671876 23.273437 6.5625 2.050782-1.183593 4.140626-2.644531 6.179688-4.285156-.402344 2.585938-.621094 5.125-.621094 7.492188 0 14.226562 7.753906 16.875 17.320313 16.875 9.5625 0 17.316406-2.652344 17.316406-16.875 0-2.367188-.21875-4.90625-.621094-7.492188 2.042969 1.640625 4.128907 3.101563 6.179688 4.285156 12.320312 7.109376 18.492187 1.71875 23.273437-6.5625 4.78125-8.285156 6.367188-16.324218-5.953125-23.4375zm0 0" fill="#ffe05c"/><path d="m383.480469 130.894531c0 10.546875-8.550781 19.09375-19.09375 19.09375-10.546875 0-19.097657-8.546875-19.097657-19.09375s8.550782-19.097656 19.097657-19.097656c10.542969 0 19.09375 8.550781 19.09375 19.097656zm0 0" fill="#f73b6c"/><path d="m403.417969 278.710938c0 4.957031-4.019531 8.976562-8.976563 8.976562-4.957031 0-8.972656-4.019531-8.972656-8.976562 0-4.957032 4.015625-8.972657 8.972656-8.972657 4.957032 0 8.976563 4.015625 8.976563 8.972657zm0 0" fill="#f73b6c"/><path d="m126.539062 278.710938c0 4.957031-4.019531 8.976562-8.976562 8.976562s-8.972656-4.019531-8.972656-8.976562c0-4.957032 4.015625-8.972657 8.972656-8.972657s8.976562 4.015625 8.976562 8.972657zm0 0" fill="#f73b6c"/></svg>