<svg height="512pt" viewBox="0 0 512 512" width="512pt" xmlns="http://www.w3.org/2000/svg"><path d="m512 256c0 141.386719-114.613281 256-256 256s-256-114.613281-256-256 114.613281-256 256-256 256 114.613281 256 256zm0 0" fill="#ffe05c"/><path d="m382.121094 449.578125v29.246094c-14.792969 8.390625-30.511719 15.359375-46.96875 20.6875-24.917969 8.109375-51.523438 12.488281-79.148438 12.488281-27.03125 0-53.070312-4.191406-77.53125-11.953125-.542968-.167969-1.078125-.347656-1.621094-.523437-16.445312-5.339844-32.160156-12.300782-46.96875-20.699219v-29.246094c0-44.347656 30.34375-81.617187 71.429688-92.152344 5.152344-1.324219 10.46875-2.222656 15.925781-2.664062 2.570313-.207031 5.160157-.3125 7.785157-.3125h61.949218c7.324219 0 14.453125.816406 21.296875 2.382812.804688.1875 1.617188.375 2.414063.585938 41.074218 10.542969 71.4375 47.8125 71.4375 92.160156zm0 0" fill="#eaa27f"/><path d="m382.121094 449.578125v29.246094c-37.222656 21.117187-80.261719 33.175781-126.121094 33.175781-27.03125 0-53.070312-4.191406-77.53125-11.953125v-50.46875c0-52.539063 42.601562-95.128906 95.148438-95.128906h13.355468c52.554688 0 95.148438 42.589843 95.148438 95.128906zm0 0" fill="#f6ba97"/><path d="m289.941406 317.800781v41.65625c0 15.25-10.054687 28.140625-23.90625 32.421875-3.167968.980469-6.546875 1.515625-10.042968 1.515625-18.742188 0-33.9375-15.195312-33.9375-33.9375v-41.65625zm0 0" fill="#eaa27f"/><path d="m289.941406 356.820312v2.636719c0 15.25-10.054687 28.140625-23.90625 32.421875-12.496094-3.839844-21.890625-14.707031-23.625-28 2.265625.136719 4.546875.207032 6.835938.207032 6.421875 0 12.71875-.507813 18.851562-1.515626 7.554688-1.214843 14.855469-3.160156 21.84375-5.75zm0 0" fill="#f6ba97"/><path d="m161.355469 249.535156c0 15.710938-11.476563 28.742188-26.507813 31.160156-1.644531.265626-3.332031.402344-5.058594.402344-17.433593 0-31.5625-14.125-31.5625-31.5625s14.128907-31.566406 31.5625-31.566406c1.726563 0 3.414063.140625 5.058594.40625 15.03125 2.417969 26.507813 15.445312 26.507813 31.160156zm0 0" fill="#f6ba97"/><path d="m161.355469 249.535156c0 15.710938-11.476563 28.742188-26.507813 31.160156-2.730468-9.929687-4.1875-20.378906-4.1875-31.160156 0-10.785156 1.457032-21.234375 4.1875-31.160156 15.03125 2.417969 26.507813 15.445312 26.507813 31.160156zm0 0" fill="#eaa27f"/><path d="m141.074219 249.535156c0 6.230469-5.050781 11.28125-11.285157 11.28125-6.230468 0-11.28125-5.050781-11.28125-11.28125 0-6.230468 5.050782-11.28125 11.28125-11.28125 6.234376 0 11.285157 5.050782 11.285157 11.28125zm0 0" fill="#eaa27f"/><path d="m350.640625 249.535156c0 15.710938 11.476563 28.742188 26.507813 31.160156 1.644531.265626 3.332031.402344 5.058593.402344 17.4375 0 31.5625-14.125 31.5625-31.5625s-14.125-31.566406-31.5625-31.566406c-1.726562 0-3.414062.140625-5.058593.40625-15.03125 2.417969-26.507813 15.445312-26.507813 31.160156zm0 0" fill="#f6ba97"/><path d="m350.640625 249.535156c0 15.710938 11.476563 28.742188 26.507813 31.160156 2.730468-9.929687 4.191406-20.378906 4.191406-31.160156 0-10.785156-1.457032-21.234375-4.191406-31.160156-15.03125 2.417969-26.507813 15.445312-26.507813 31.160156zm0 0" fill="#eaa27f"/><path d="m393.488281 249.535156c0 6.230469-5.050781 11.28125-11.28125 11.28125s-11.28125-5.050781-11.28125-11.28125c0-6.230468 5.050781-11.28125 11.28125-11.28125s11.28125 5.050782 11.28125 11.28125zm0 0" fill="#eaa27f"/><path d="m399.070312 280.5c0 5.542969-4.496093 10.035156-10.035156 10.035156-5.542968 0-10.035156-4.492187-10.035156-10.035156 0-5.539062 4.492188-10.035156 10.035156-10.035156 5.539063 0 10.035156 4.496094 10.035156 10.035156zm0 0" fill="#f73b6c"/><path d="m132.996094 280.5c0 5.542969-4.492188 10.035156-10.035156 10.035156-5.539063 0-10.03125-4.492187-10.03125-10.035156 0-5.539062 4.492187-10.035156 10.03125-10.035156 5.542968 0 10.035156 4.496094 10.035156 10.035156zm0 0" fill="#f73b6c"/><path d="m373.4375 188.039062v44.722657c0 58.441406-42.691406 106.921875-98.59375 115.917969-.1875.03125-.386719.0625-.574219.097656-5.945312.949218-12.050781 1.417968-18.277343 1.417968-64.855469 0-117.4375-52.578124-117.4375-117.433593v-44.722657c0-13.65625 2.332031-26.78125 6.636718-38.976562 6.144532-17.46875 16.289063-33.046875 29.351563-45.609375 21.105469-20.351563 49.820312-32.859375 81.449219-32.859375h.011718c6.214844 0 12.328125.480469 18.285156 1.417969 56.171876 8.777343 99.148438 57.386719 99.148438 116.027343zm0 0" fill="#eaa27f"/><path d="m373.4375 188.039062v44.722657c0 16.75-3.5 32.671875-9.832031 47.09375-15.722657 35.890625-48.878907 62.410156-88.761719 68.824219-.1875.03125-.386719.0625-.574219.097656-56.175781-8.777344-99.140625-57.386719-99.140625-116.015625v-44.722657c0-8.589843.917969-16.957031 2.675782-25.015624 10.1875-47 48.523437-83.519532 96.484374-91.011719 56.171876 8.777343 99.148438 57.386719 99.148438 116.027343zm0 0" fill="#f6ba97"/><g fill="#eaa27f"><path d="m335.933594 263.59375c0 8.082031-6.550782 14.628906-14.628906 14.628906-8.078126 0-14.628907-6.546875-14.628907-14.628906 0-8.078125 6.550781-14.628906 14.628907-14.628906 8.078124 0 14.628906 6.550781 14.628906 14.628906zm0 0"/><path d="m205.320312 263.59375c0 8.082031-6.550781 14.628906-14.628906 14.628906s-14.628906-6.546875-14.628906-14.628906c0-8.078125 6.550781-14.628906 14.628906-14.628906s14.628906 6.550781 14.628906 14.628906zm0 0"/><path d="m319.066406 222.84375c0-10.773438-8.734375-19.507812-19.503906-19.507812-10.773438 0-19.507812 8.734374-19.507812 19.507812"/><path d="m231.949219 222.84375c0-10.773438-8.734375-19.507812-19.503907-19.507812-10.773437 0-19.507812 8.734374-19.507812 19.507812"/></g><path d="m225.765625 231.144531c0 7.359375-5.964844 13.324219-13.320313 13.324219-7.359374 0-13.324218-5.964844-13.324218-13.324219 0-7.355469 5.964844-13.320312 13.324218-13.320312 7.355469 0 13.320313 5.964843 13.320313 13.320312zm0 0" fill="#2f373b"/><path d="m312.882812 231.144531c0 7.359375-5.964843 13.324219-13.320312 13.324219-7.359375 0-13.324219-5.964844-13.324219-13.324219 0-7.355469 5.964844-13.320312 13.324219-13.320312 7.355469 0 13.320312 5.964843 13.320312 13.320312zm0 0" fill="#2f373b"/><path d="m269.324219 264.6875h-26.644531c-3.171876 0-5.746094-2.570312-5.746094-5.746094 0-3.171875 2.574218-5.746094 5.746094-5.746094h26.644531c3.175781 0 5.75 2.574219 5.75 5.746094 0 3.175782-2.574219 5.746094-5.75 5.746094zm0 0" fill="#eaa27f"/><path d="m256.003906 301.050781c-9.835937 0-19.667968-2.464843-28.632812-7.394531-2.527344-1.386719-3.453125-4.5625-2.0625-7.09375 1.390625-2.527344 4.566406-3.449219 7.09375-2.0625 14.777344 8.125 32.421875 8.125 47.199218 0 2.527344-1.386719 5.703126-.464844 7.09375 2.0625 1.390626 2.53125.46875 5.707031-2.0625 7.09375-8.960937 4.929688-18.796874 7.394531-28.628906 7.394531zm0 0" fill="#eaa27f"/><path d="m223.050781 228.796875c0 3.152344-2.554687 5.707031-5.707031 5.707031-3.15625 0-5.710938-2.554687-5.710938-5.707031 0-3.15625 2.554688-5.710937 5.710938-5.710937 3.152344 0 5.707031 2.554687 5.707031 5.710937zm0 0" fill="#fff"/><path d="m310.820312 228.796875c0 3.152344-2.554687 5.707031-5.707031 5.707031-3.152343 0-5.707031-2.554687-5.707031-5.707031 0-3.15625 2.554688-5.710937 5.707031-5.710937 3.152344 0 5.707031 2.554687 5.707031 5.710937zm0 0" fill="#fff"/><path d="m138.554688 188.039062c0-13.65625 2.332031-26.78125 6.636718-38.976562 6.144532-17.46875 16.289063-33.046875 29.351563-45.609375l26.082031 47.292969s7.523438 37.292968-62.070312 37.292968zm0 0" fill="#17a388"/><path d="m373.4375 188.039062v44.722657c0 16.75-3.5 32.671875-9.832031 47.09375-17.21875 21.730469-33.800781 34.523437-34.324219 34.929687 24.878906-43.25 14.964844-94.019531-8.191406-125.648437-.011719-.011719-.019532-.03125-.042969-.054688-.90625-1.273437-1.859375-2.507812-2.832031-3.707031-.03125-.03125-.0625-.074219-.09375-.105469-6.5625-8.128906-14.03125-14.773437-21.984375-19.394531-.019531-.019531-.039063-.03125-.0625-.039062-13.351563-7.742188-28.042969-9.78125-42.046875-3.59375-22.328125 9.863281-13.132813-34.683594-34.59375-47.023438 10.1875-47 6.894531-35.714844 54.855468-43.207031 56.171876 8.777343 99.148438 57.386719 99.148438 116.027343zm0 0" fill="#eaa27f"/><path d="m342.867188 314.785156c24.878906-43.25 14.960937-94.019531-8.195313-125.648437-.007813-.011719-.019531-.03125-.039063-.054688-.910156-1.273437-1.859374-2.507812-2.832031-3.707031-.03125-.03125-.0625-.074219-.09375-.105469-6.5625-8.128906-14.035156-14.773437-21.984375-19.394531-.023437-.019531-.042968-.03125-.0625-.039062-13.355468-7.742188-28.046875-9.78125-42.046875-3.59375-30.628906 13.53125-80.238281 14.625-94.511719-19.855469-29.175781-59.191407 30.269532-119.011719 101.679688-115.410157 35.652344 1.800782 74.289062 19.425782 106.371094 60.835938 95.730468 123.632812-36.761719 225.800781-38.285156 226.972656zm0 0" fill="#27ba9e"/><path d="m309.660156 165.835938c-13.355468-7.742188-28.046875-9.78125-42.046875-3.59375-30.628906 13.53125-80.238281 14.625-94.511719-19.855469-29.175781-59.191407 30.269532-119.011719 101.679688-115.410157-42.8125 0-75.203125 50.628907-55.347656 88.242188 16.433594 31.140625 54.113281 26.332031 90.226562 50.617188zm0 0" fill="#17a388"/><path d="m334.632812 189.082031c-.910156-1.273437-1.859374-2.507812-2.832031-3.707031 1.128907 1.285156 2.078125 2.527344 2.832031 3.707031zm0 0" fill="#0c85a5"/><path d="m335.152344 477.800781v21.710938c-24.917969 8.109375-51.523438 12.488281-79.148438 12.488281-27.03125 0-53.070312-4.191406-77.53125-11.953125-.542968-.167969-1.078125-.347656-1.621094-.523437v-21.722657c0-23.375 18.945313-42.320312 42.320313-42.320312 15.796875 0 29.558594 8.664062 36.832031 21.496093 7.273438-12.832031 21.03125-21.496093 36.832032-21.496093 23.375 0 42.316406 18.945312 42.316406 42.320312zm0 0" fill="#2f373b"/></svg>