<svg height="512pt" viewBox="0 0 512 512" width="512pt" xmlns="http://www.w3.org/2000/svg"><path d="m512 256c0 141.386719-114.613281 256-256 256s-256-114.613281-256-256 114.613281-256 256-256 256 114.613281 256 256zm0 0" fill="#1da2dd"/><path d="m256 384.804688h-132.699219l11.542969-166.429688" fill="#dd104f"/><path d="m377.421875 218.375 11.542969 166.429688h-132.699219 6.753906" fill="#dd104f"/><path d="m382.121094 449.578125v29.246094c-15.035156 8.515625-31.011719 15.578125-47.75 20.9375-1.734375.566406-3.46875 1.097656-5.226563 1.621093-6.507812 1.945313-13.132812 3.636719-19.851562 5.046876-2.945313.625-5.902344 1.203124-8.882813 1.714843-14.429687 2.539063-29.265625 3.855469-44.40625 3.855469s-29.980468-1.316406-44.410156-3.847656c-2.976562-.511719-5.933594-1.085938-8.878906-1.710938-7.808594-1.652344-15.464844-3.660156-22.988282-6-.417968-.136718-.835937-.261718-1.253906-.394531-.28125-.085937-.554687-.179687-.835937-.273437-16.730469-5.359376-32.714844-12.421876-47.753907-20.949219v-29.246094c0-21.078125 6.855469-40.554687 18.453126-56.320313 7.828124-10.636718 17.804687-19.582031 29.300781-26.1875 7.742187-4.460937 16.164062-7.855468 25.078125-9.988281 4.710937-1.136719 9.558594-1.921875 14.523437-2.320312 2.570313-.207031 5.160157-.3125 7.785157-.3125h61.949218c7.324219 0 14.453125.816406 21.296875 2.382812.34375.082031.6875.15625 1.023438.238281 8.914062 2.144532 17.335937 5.539063 25.078125 10 11.492187 6.617188 21.460937 15.558594 29.277344 26.175782 11.621093 15.777344 18.472656 35.253906 18.472656 56.332031zm0 0" fill="#eaa27f"/><path d="m382.121094 449.578125v29.246094c-35.425782 20.105469-76.121094 31.996093-119.507813 33.09375-2.203125.050781-4.398437.082031-6.613281.082031s-4.417969-.03125-6.613281-.09375c-24.671875-.617188-48.464844-4.734375-70.917969-11.859375v-50.46875c0-52.539063 42.601562-95.128906 95.148438-95.128906h13.355468c52.554688 0 95.148438 42.589843 95.148438 95.128906zm0 0" fill="#f6ba97"/><path d="m289.9375 317.800781v41.65625c0 15.25-10.054688 28.140625-23.90625 32.421875-3.167969.984375-6.546875 1.515625-10.042969 1.515625-18.742187 0-33.9375-15.191406-33.9375-33.9375v-41.65625zm0 0" fill="#eaa27f"/><path d="m289.9375 356.820312v2.636719c0 15.25-10.054688 28.140625-23.90625 32.421875-12.492188-3.839844-21.890625-14.707031-23.625-28 2.265625.136719 4.546875.207032 6.835938.207032 6.421874 0 12.71875-.507813 18.851562-1.515626 7.554688-1.214843 14.855469-3.160156 21.84375-5.75zm0 0" fill="#f6ba97"/><path d="m161.351562 249.535156c0 15.710938-11.476562 28.742188-26.507812 31.160156-1.640625.265626-3.332031.402344-5.054688.402344-17.4375 0-31.566406-14.125-31.566406-31.5625s14.128906-31.566406 31.566406-31.566406c1.722657 0 3.414063.140625 5.054688.40625 15.03125 2.417969 26.507812 15.445312 26.507812 31.160156zm0 0" fill="#f6ba97"/><path d="m161.351562 249.535156c0 15.710938-11.476562 28.742188-26.507812 31.160156-2.730469-9.929687-4.1875-20.378906-4.1875-31.160156 0-10.785156 1.457031-21.234375 4.1875-31.160156 15.03125 2.417969 26.507812 15.445312 26.507812 31.160156zm0 0" fill="#eaa27f"/><path d="m141.070312 249.535156c0 6.230469-5.050781 11.28125-11.28125 11.28125-6.230468 0-11.28125-5.050781-11.28125-11.28125 0-6.230468 5.050782-11.28125 11.28125-11.28125 6.230469 0 11.28125 5.050782 11.28125 11.28125zm0 0" fill="#eaa27f"/><path d="m350.636719 249.535156c0 15.710938 11.480469 28.742188 26.511719 31.160156 1.640624.265626 3.332031.402344 5.054687.402344 17.4375 0 31.566406-14.125 31.566406-31.5625s-14.128906-31.566406-31.566406-31.566406c-1.722656 0-3.414063.140625-5.054687.40625-15.03125 2.417969-26.511719 15.445312-26.511719 31.160156zm0 0" fill="#f6ba97"/><path d="m350.636719 249.535156c0 15.710938 11.480469 28.742188 26.511719 31.160156 2.726562-9.929687 4.1875-20.378906 4.1875-31.160156 0-10.785156-1.457032-21.234375-4.1875-31.160156-15.03125 2.417969-26.511719 15.445312-26.511719 31.160156zm0 0" fill="#eaa27f"/><path d="m393.484375 249.535156c0 6.230469-5.050781 11.28125-11.28125 11.28125s-11.28125-5.050781-11.28125-11.28125c0-6.230468 5.050781-11.28125 11.28125-11.28125s11.28125 5.050782 11.28125 11.28125zm0 0" fill="#eaa27f"/><path d="m373.4375 188.039062v44.722657c0 58.441406-42.695312 106.925781-98.597656 115.921875-.1875.03125-.386719.0625-.574219.09375-5.945313.949218-12.046875 1.421875-18.277344 1.421875-64.855469 0-117.433593-52.582031-117.433593-117.4375v-44.722657c0-13.65625 2.328124-26.78125 6.632812-38.972656 16.0625-45.707031 59.613281-78.472656 110.800781-78.472656h.011719c6.21875 0 12.328125.480469 18.285156 1.421875 56.175782 8.777344 99.152344 57.382813 99.152344 116.023437zm0 0" fill="#eaa27f"/><path d="m373.4375 188.039062v44.722657c0 58.441406-42.695312 106.925781-98.597656 115.921875-.1875.03125-.386719.0625-.574219.09375-56.175781-8.777344-99.140625-57.386719-99.140625-116.015625v-44.722657c0-58.640624 42.976562-107.246093 99.160156-116.023437 56.175782 8.777344 99.152344 57.382813 99.152344 116.023437zm0 0" fill="#f6ba97"/><g fill="#eaa27f"><path d="m335.929688 263.597656c0 8.078125-6.550782 14.628906-14.628907 14.628906s-14.628906-6.550781-14.628906-14.628906c0-8.082031 6.550781-14.628906 14.628906-14.628906s14.628907 6.546875 14.628907 14.628906zm0 0"/><path d="m205.316406 263.597656c0 8.078125-6.546875 14.628906-14.628906 14.628906-8.078125 0-14.628906-6.550781-14.628906-14.628906 0-8.082031 6.550781-14.628906 14.628906-14.628906 8.082031 0 14.628906 6.546875 14.628906 14.628906zm0 0"/><path d="m319.0625 222.84375c0-10.773438-8.730469-19.503906-19.503906-19.503906-10.773438 0-19.507813 8.730468-19.507813 19.503906"/><path d="m231.945312 222.84375c0-10.773438-8.730468-19.503906-19.503906-19.503906-10.773437 0-19.507812 8.730468-19.507812 19.503906"/></g><path d="m225.761719 231.148438c0 7.355468-5.964844 13.320312-13.320313 13.320312-7.359375 0-13.324218-5.964844-13.324218-13.320312 0-7.359376 5.964843-13.324219 13.324218-13.324219 7.355469 0 13.320313 5.964843 13.320313 13.324219zm0 0" fill="#2f373b"/><path d="m312.882812 231.148438c0 7.355468-5.964843 13.320312-13.324218 13.320312s-13.324219-5.964844-13.324219-13.320312c0-7.359376 5.964844-13.324219 13.324219-13.324219s13.324218 5.964843 13.324218 13.324219zm0 0" fill="#2f373b"/><path d="m269.320312 264.691406h-26.644531c-3.171875 0-5.746093-2.574218-5.746093-5.746094 0-3.175781 2.574218-5.75 5.746093-5.75h26.644531c3.175782 0 5.746094 2.574219 5.746094 5.75 0 3.171876-2.570312 5.746094-5.746094 5.746094zm0 0" fill="#eaa27f"/><path d="m256 301.050781c-9.835938 0-19.667969-2.464843-28.632812-7.394531-2.527344-1.386719-3.449219-4.5625-2.0625-7.09375 1.390624-2.527344 4.570312-3.449219 7.097656-2.0625 14.777344 8.125 32.417968 8.125 47.195312 0 2.527344-1.386719 5.703125-.464844 7.09375 2.0625 1.390625 2.53125.46875 5.707031-2.058594 7.09375-8.964843 4.929688-18.800781 7.394531-28.632812 7.394531zm0 0" fill="#eaa27f"/><path d="m223.046875 228.796875c0 3.152344-2.554687 5.707031-5.710937 5.707031-3.152344 0-5.707032-2.554687-5.707032-5.707031s2.554688-5.710937 5.707032-5.710937c3.15625 0 5.710937 2.558593 5.710937 5.710937zm0 0" fill="#fff"/><path d="m310.820312 228.796875c0 3.152344-2.558593 5.707031-5.710937 5.707031s-5.707031-2.554687-5.707031-5.707031 2.554687-5.710937 5.707031-5.710937 5.710937 2.558593 5.710937 5.710937zm0 0" fill="#fff"/><path d="m377.421875 138.96875v60.886719h-242.867187v-34.949219l1.035156-38.664062 16.96875-26.695313 53.289062-39.707031 27.953125-4.261719 33.695313-5.140625 68.964844 25.078125zm0 0" fill="#f73b6c"/><path d="m202.828125 199.855469h-50.269531v27.167969h-18.003906v-62.117188l1.035156-38.664062 16.96875-26.695313 53.289062-39.707031 27.953125-4.261719c-24.003906 24.667969-34.453125 88.929687-30.972656 144.277344zm0 0" fill="#dd104f"/><path d="m378.601562 148.53125c0 5.570312-.398437 11.054688-1.179687 16.414062-8.289063-57.132812-59.488281-101.113281-121.429687-101.113281-6.707032 0-13.28125.5-19.675782 1.515625-15.683594 2.414063-30.363281 7.679688-43.445312 15.214844-31.011719 17.875-53.101563 48.535156-58.316406 84.34375-.773438-5.351562-1.171876-10.816406-1.171876-16.375 0-42.746094 23.847657-80.164062 59.488282-100.695312 13.09375-7.546876 27.773437-12.8125 43.445312-15.226563 6.394532-1.011719 12.96875-1.515625 19.675782-1.515625 67.71875 0 122.609374 52.582031 122.609374 117.4375zm0 0" fill="#ffe05c"/><path d="m382.121094 449.578125v29.246094c-15.035156 8.515625-31.011719 15.578125-47.75 20.9375-1.734375.566406-3.46875 1.097656-5.226563 1.621093-6.507812 1.945313-13.132812 3.636719-19.851562 5.046876-2.945313.625-5.902344 1.203124-8.882813 1.714843-14.429687 2.539063-29.265625 3.855469-44.40625 3.855469s-29.980468-1.316406-44.410156-3.847656c-2.976562-.511719-5.933594-1.085938-8.878906-1.710938-7.808594-1.652344-15.464844-3.660156-22.988282-6-.417968-.136718-.835937-.261718-1.253906-.394531-.28125-.085937-.554687-.179687-.835937-.273437-16.730469-5.359376-32.714844-12.421876-47.753907-20.949219v-29.246094c0-21.078125 6.855469-40.554687 18.453126-56.320313 9.675781 9.234376 21.914062 17.175782 36.007812 23.351563 20.617188 9.019531 45.222656 14.265625 71.648438 14.265625 7.199218 0 14.261718-.378906 21.128906-1.140625 16.84375-1.828125 32.609375-5.800781 46.652344-11.492187 15.726562-6.375 29.3125-14.914063 39.875-24.996094 11.621093 15.777344 18.472656 35.253906 18.472656 56.332031zm0 0" fill="#e89f18"/><path d="m359.417969 199.855469h18.003906v27.167969h-18.003906zm0 0" fill="#f73b6c"/><path d="m342.050781 199.855469s1.722657-45.972657-12.90625-70.007813l-2.089843 79.414063" fill="#f6ba97"/><path d="m382.121094 449.578125v29.246094c-15.035156 8.515625-31.011719 15.578125-47.75 20.9375-1.734375.566406-3.46875 1.097656-5.226563 1.621093-6.507812 1.945313-13.132812 3.636719-19.851562 5.046876-2.945313.625-5.902344 1.203124-8.882813 1.714843-14.429687 2.539063-29.265625 3.855469-44.40625 3.855469s-29.980468-1.316406-44.410156-3.847656c-2.976562-.511719-5.933594-1.085938-8.878906-1.710938-7.808594-1.652344-15.464844-3.660156-22.988282-6-.417968-.136718-.835937-.261718-1.253906-.394531v-50.46875c0-11.589844 2.066406-22.695313 5.871094-32.96875 20.617188 9.019531 45.222656 14.265625 71.648438 14.265625 7.199218 0 14.261718-.378906 21.128906-1.140625 16.84375-1.828125 32.609375-5.800781 46.652344-11.492187 15.726562-6.375 29.3125-14.914063 39.875-24.996094 11.621093 15.777344 18.472656 35.253906 18.472656 56.332031zm0 0" fill="#ffe05c"/><path d="m177.1875 449.578125v50.058594c-16.574219-5.359375-32.402344-12.359375-47.304688-20.8125v-29.246094zm0 0" fill="#eaa27f"/><path d="m382.121094 449.578125v29.246094c-14.898438 8.453125-30.730469 15.453125-47.300782 20.8125v-50.058594zm0 0" fill="#f6ba97"/></svg>