<svg height="512pt" viewBox="0 0 512 512" width="512pt" xmlns="http://www.w3.org/2000/svg"><path d="m512 256c0 141.382812-114.617188 256-256 256-141.386719 0-256-114.617188-256-256 0-141.386719 114.613281-256 256-256 141.382812 0 256 114.613281 256 256zm0 0" fill="#1da2dd"/><path d="m382.117188 449.578125v29.246094c-37.222657 21.117187-80.261719 33.175781-126.121094 33.175781-27.03125 0-53.070313-4.191406-77.53125-11.953125-17.03125-5.402344-33.300782-12.550781-48.585938-21.222656v-29.246094c0-49.914063 38.441406-90.863281 87.351563-94.8125 2.570312-.210937 5.160156-.316406 7.785156-.316406h61.953125c7.324219 0 14.449219.816406 21.292969 2.382812 42.296875 9.675781 73.855469 47.535157 73.855469 92.746094zm0 0" fill="#512375"/><path d="m382.121094 449.574219v29.25c-22.726563 12.890625-47.613282 22.410156-73.996094 27.855469-14.777344 3.0625-30.023438 4.847656-45.613281 5.234374-2.160157.050782-4.335938.082032-6.507813.082032-27.03125 0-53.070312-4.1875-77.53125-11.953125v-50.46875c0-6.738281.699219-13.320313 2.039063-19.664063 2.714843-12.957031 8.074219-24.929687 15.484375-35.359375 3.164062-4.460937 6.71875-8.640625 10.59375-12.484375l22.675781 17.710938 26.75-20.898438 26.746094 20.898438 26.742187-20.898438 26.746094 20.898438 19.886719-15.527344c16.113281 17.03125 25.984375 40.027344 25.984375 65.324219zm0 0" fill="#673389"/><g fill="#512375"><path d="m262.550781 376.296875v135.617187c-2.183593.054688-4.355469.085938-6.550781.085938s-4.378906-.03125-6.550781-.09375v-135.609375zm0 0"/><path d="m255.988281 393.394531-42.828125 23.800781-13.03125-60.601562 26.613282-15.675781"/><path d="m255.988281 393.394531 42.828125 23.800781 13.03125-60.601562-26.613281-15.675781"/></g><path d="m289.9375 317.800781v41.65625c0 15.25-10.054688 28.140625-23.90625 32.421875-3.167969.980469-6.546875 1.515625-10.042969 1.515625-18.742187 0-33.9375-15.195312-33.9375-33.9375v-41.65625zm0 0" fill="#eaa27f"/><path d="m389.738281 383.757812-26.738281-20.898437-26.75 20.898437-26.746094-20.898437-26.742187 20.898437-26.746094-20.898437-26.75 20.898437-26.75-20.898437-26.761719 20.898437-26.746094-20.898437-1.652343 1.285156-25.109375 19.613281c12.488281-107.277343 12.488281-214.546874 0-321.828124 7.542968-1.273438 15.097656-2.433594 22.644531-3.476563 81.625-11.433594 163.234375-10.261719 244.847656 3.476563-12.472656 107.28125-12.472656 214.550781 0 321.828124zm0 0" fill="#f46d11"/><path d="m249.964844 241.496094-12.351563 2.453125-31.535156 6.261719-16.582031 3.289062-13.773438-48.261719 29.21875-3.019531 20.332032-2.089844 16.144531-1.671875zm0 0" fill="#eaa27f"/><path d="m336.261719 205.238281-13.769531 48.261719-16.574219-3.289062-31.546875-6.261719-12.347656-2.453125 8.546874-43.039063 16.144532 1.671875 20.34375 2.089844zm0 0" fill="#eaa27f"/><path d="m244.5625 225.925781c0 6.917969-2.632812 13.25-6.949219 18.023438l-31.535156 6.261719-16.582031 3.289062-13.773438-48.261719 29.21875-3.019531 20.332032-2.089844c11.136718 3.28125 19.289062 13.601563 19.289062 25.796875zm0 0" fill="#f6ba97"/><path d="m230.984375 225.921875c0 7.359375-5.964844 13.324219-13.324219 13.324219s-13.324218-5.964844-13.324218-13.324219 5.964843-13.320313 13.324218-13.320313 13.324219 5.960938 13.324219 13.320313zm0 0" fill="#2f373b"/><path d="m321.238281 225.925781c0 10.691407-6.269531 19.949219-15.320312 24.285157l-31.546875-6.261719-12.347656-2.453125 8.546874-43.039063 16.144532 1.671875 20.34375 2.089844c8.429687 4.542969 14.179687 13.46875 14.179687 23.707031zm0 0" fill="#f6ba97"/><path d="m307.652344 225.921875c0 7.359375-5.964844 13.324219-13.324219 13.324219s-13.320313-5.964844-13.320313-13.324219 5.960938-13.320313 13.320313-13.320313 13.324219 5.960938 13.324219 13.320313zm0 0" fill="#2f373b"/><path d="m228.265625 223.570312c0 3.152344-2.554687 5.710938-5.707031 5.710938s-5.707032-2.558594-5.707032-5.710938c0-3.152343 2.554688-5.707031 5.707032-5.707031s5.707031 2.554688 5.707031 5.707031zm0 0" fill="#fff"/><path d="m305.589844 223.570312c0 3.152344-2.554688 5.710938-5.707032 5.710938-3.15625 0-5.710937-2.558594-5.710937-5.710938 0-3.152343 2.554687-5.707031 5.710937-5.707031 3.152344 0 5.707032 2.554688 5.707032 5.707031zm0 0" fill="#fff"/><path d="m147.355469 364.144531-25.109375 19.613281c12.488281-107.277343 12.488281-214.546874 0-321.828124 7.542968-1.273438 15.097656-2.433594 22.644531-3.476563 10.238281 57.71875 21.480469 201.894531 2.464844 305.691406zm0 0" fill="#d65a05"/></svg>