<svg height="512pt" viewBox="0 0 512 512" width="512pt" xmlns="http://www.w3.org/2000/svg"><path d="m512 256c0 141.386719-114.613281 256-256 256s-256-114.613281-256-256 114.613281-256 256-256 256 114.613281 256 256zm0 0" fill="#ffe05c"/><path d="m272.785156 108.941406c-4.734375 5.484375-10.3125 10.84375-16.78125 15.984375l-98.011718 59.738281c-46.425782 34.28125-104.039063-18.515624-104.039063-18.515624s62.679687 20.972656 62.679687-53.289063c0-94.03125 49.039063-112.859375 114.082032-111.628906 59.988281 1.152343 83.960937 59.246093 42.070312 107.710937zm0 0" fill="#151a1c"/><path d="m382.121094 449.578125v29.246094c-15.039063 8.515625-31.015625 15.578125-47.753906 20.941406-1.734376.5625-3.46875 1.097656-5.222657 1.617187-6.511719 1.945313-13.136719 3.636719-19.855469 5.046876-2.945312.628906-5.902343 1.203124-8.882812 1.714843-14.429688 2.539063-29.265625 3.855469-44.40625 3.855469s-29.976562-1.316406-44.40625-3.84375c-2.980469-.511719-5.9375-1.089844-8.882812-1.714844-7.804688-1.652344-15.464844-3.65625-22.988282-5.996094-.417968-.136718-.835937-.261718-1.253906-.398437-.28125-.085937-.554688-.179687-.835938-.273437-16.730468-5.359376-32.714843-12.421876-47.753906-20.949219v-29.246094c0-35.285156 19.207032-66.089844 47.753906-82.503906 7.742188-4.464844 16.164063-7.859375 25.078126-9.992188 4.710937-1.136719 9.558593-1.921875 14.523437-2.316406 2.570313-.210937 5.160156-.316406 7.785156-.316406h61.953125c7.324219 0 14.449219.816406 21.292969 2.382812.34375.085938.691406.15625 1.023437.242188 8.914063 2.140625 17.335938 5.535156 25.078126 10 28.535156 16.425781 47.753906 47.226562 47.753906 82.503906zm0 0" fill="#0c85a5"/><path d="m382.121094 449.578125v29.246094c-35.425782 20.105469-76.121094 31.996093-119.507813 33.09375-2.203125.050781-4.398437.082031-6.613281.082031s-4.417969-.03125-6.613281-.09375c-24.671875-.617188-48.464844-4.734375-70.917969-11.859375v-50.46875c0-52.539063 42.601562-95.128906 95.148438-95.128906h13.355468c52.554688 0 95.148438 42.589843 95.148438 95.128906zm0 0" fill="#1da2dd"/><path d="m298.84375 393.164062c0 22.203126-16.894531 40.46875-38.535156 42.628907-1.410156.136719-2.851563.210937-4.304688.210937-1.441406 0-2.875-.074218-4.285156-.210937-21.648438-2.152344-38.554688-20.414063-38.554688-42.628907 0-23.65625 19.183594-42.84375 42.839844-42.84375s42.839844 19.1875 42.839844 42.84375zm0 0" fill="#f2efea"/><path d="m255.992188 393.394531-42.828126 23.800781-13.03125-60.601562 26.613282-15.675781" fill="#d8d4ce"/><path d="m255.992188 393.394531 42.828124 23.800781 13.03125-60.601562-26.613281-15.675781" fill="#d8d4ce"/><path d="m289.9375 317.800781v41.65625c0 15.25-10.054688 28.140625-23.90625 32.421875-3.167969.984375-6.546875 1.515625-10.042969 1.515625-18.742187 0-33.9375-15.191406-33.9375-33.9375v-41.65625zm0 0" fill="#eaa27f"/><path d="m289.9375 356.820312v2.636719c0 15.25-10.054688 28.140625-23.90625 32.421875-12.492188-3.839844-21.890625-14.707031-23.625-28 2.265625.136719 4.546875.207032 6.835938.207032 6.421874 0 12.71875-.507813 18.851562-1.515626 7.554688-1.214843 14.855469-3.160156 21.84375-5.75zm0 0" fill="#f6ba97"/><path d="m161.351562 249.535156c0 15.710938-11.476562 28.742188-26.507812 31.160156-1.640625.265626-3.332031.402344-5.054688.402344-17.4375 0-31.566406-14.125-31.566406-31.5625s14.128906-31.566406 31.566406-31.566406c1.722657 0 3.414063.140625 5.054688.40625 15.03125 2.417969 26.507812 15.445312 26.507812 31.160156zm0 0" fill="#f6ba97"/><path d="m161.351562 249.535156c0 15.710938-11.476562 28.742188-26.507812 31.160156-2.730469-9.929687-4.1875-20.378906-4.1875-31.160156 0-10.785156 1.457031-21.234375 4.1875-31.160156 15.03125 2.417969 26.507812 15.445312 26.507812 31.160156zm0 0" fill="#eaa27f"/><path d="m141.070312 249.535156c0 6.230469-5.050781 11.28125-11.28125 11.28125-6.230468 0-11.28125-5.050781-11.28125-11.28125 0-6.230468 5.050782-11.28125 11.28125-11.28125 6.230469 0 11.28125 5.050782 11.28125 11.28125zm0 0" fill="#eaa27f"/><path d="m350.636719 249.535156c0 15.710938 11.480469 28.742188 26.511719 31.160156 1.640624.265626 3.332031.402344 5.054687.402344 17.4375 0 31.566406-14.125 31.566406-31.5625s-14.128906-31.566406-31.566406-31.566406c-1.722656 0-3.414063.140625-5.054687.40625-15.03125 2.417969-26.511719 15.445312-26.511719 31.160156zm0 0" fill="#f6ba97"/><path d="m350.636719 249.535156c0 15.710938 11.480469 28.742188 26.511719 31.160156 2.726562-9.929687 4.1875-20.378906 4.1875-31.160156 0-10.785156-1.457032-21.234375-4.1875-31.160156-15.03125 2.417969-26.511719 15.445312-26.511719 31.160156zm0 0" fill="#eaa27f"/><path d="m393.484375 249.535156c0 6.230469-5.050781 11.28125-11.28125 11.28125s-11.28125-5.050781-11.28125-11.28125c0-6.230468 5.050781-11.28125 11.28125-11.28125s11.28125 5.050782 11.28125 11.28125zm0 0" fill="#eaa27f"/><path d="m373.4375 188.039062v44.722657c0 58.441406-42.691406 106.921875-98.59375 115.917969-.1875.03125-.386719.0625-.574219.097656-5.945312.949218-12.050781 1.417968-18.277343 1.417968-64.855469 0-117.4375-52.578124-117.4375-117.433593v-44.722657c0-13.65625 2.332031-26.78125 6.636718-38.976562 16.058594-45.703125 59.613282-78.46875 110.800782-78.46875h.011718c6.214844 0 12.328125.480469 18.285156 1.417969 56.171876 8.777343 99.148438 57.386719 99.148438 116.027343zm0 0" fill="#eaa27f"/><path d="m373.4375 188.039062v44.722657c0 58.441406-42.695312 106.925781-98.597656 115.921875-.1875.03125-.386719.0625-.574219.09375-56.175781-8.777344-99.140625-57.386719-99.140625-116.015625v-44.722657c0-58.640624 42.976562-107.246093 99.160156-116.023437 56.175782 8.777344 99.152344 57.382813 99.152344 116.023437zm0 0" fill="#f6ba97"/><path d="m335.929688 263.597656c0 8.078125-6.550782 14.628906-14.628907 14.628906s-14.628906-6.550781-14.628906-14.628906c0-8.082031 6.550781-14.628906 14.628906-14.628906s14.628907 6.546875 14.628907 14.628906zm0 0" fill="#eaa27f"/><path d="m205.316406 263.597656c0 8.078125-6.546875 14.628906-14.628906 14.628906-8.078125 0-14.628906-6.550781-14.628906-14.628906 0-8.082031 6.550781-14.628906 14.628906-14.628906 8.082031 0 14.628906 6.546875 14.628906 14.628906zm0 0" fill="#eaa27f"/><path d="m319.0625 222.84375c0-10.773438-8.730469-19.503906-19.503906-19.503906-10.773438 0-19.507813 8.730468-19.507813 19.503906" fill="#eaa27f"/><path d="m231.945312 222.84375c0-10.773438-8.730468-19.503906-19.503906-19.503906-10.773437 0-19.507812 8.730468-19.507812 19.503906" fill="#eaa27f"/><path d="m242.996094 231.140625c0 21.429687-17.367188 38.796875-38.789063 38.796875-3.238281 0-6.394531-.398438-9.402343-1.148438-16.886719-4.199218-29.394532-19.457031-29.394532-37.648437 0-18.179687 12.507813-33.4375 29.394532-37.636719 3.007812-.753906 6.164062-1.148437 9.402343-1.148437 21.421875 0 38.789063 17.363281 38.789063 38.785156zm0 0" fill="#fff"/><path d="m346.679688 231.140625c0 21.429687-17.367188 38.796875-38.785157 38.796875-3.242187 0-6.398437-.398438-9.40625-1.148438-16.875-4.199218-29.382812-19.457031-29.382812-37.648437 0-18.179687 12.507812-33.4375 29.382812-37.636719 3.007813-.753906 6.164063-1.148437 9.40625-1.148437 21.417969 0 38.785157 17.363281 38.785157 38.785156zm0 0" fill="#fff"/><path d="m224.1875 231.140625c0 18.191406-12.507812 33.449219-29.382812 37.648437-16.886719-4.199218-29.394532-19.457031-29.394532-37.648437 0-18.179687 12.507813-33.4375 29.394532-37.636719 16.875 4.199219 29.382812 19.457032 29.382812 37.636719zm0 0" fill="#c1dce5"/><path d="m327.871094 231.140625c0 18.191406-12.507813 33.449219-29.382813 37.648437-16.875-4.199218-29.382812-19.457031-29.382812-37.648437 0-18.179687 12.507812-33.4375 29.382812-37.636719 16.875 4.199219 29.382813 19.457032 29.382813 37.636719zm0 0" fill="#c1dce5"/><g fill="#2f373b"><path d="m204.203125 276.117188c-24.796875 0-44.96875-20.175782-44.96875-44.972657s20.171875-44.96875 44.96875-44.96875 44.96875 20.171875 44.96875 44.96875-20.171875 44.972657-44.96875 44.972657zm0-77.578126c-17.980469 0-32.605469 14.625-32.605469 32.605469s14.628906 32.605469 32.605469 32.605469c17.980469 0 32.605469-14.625 32.605469-32.605469 0-17.976562-14.625-32.605469-32.605469-32.605469zm0 0"/><path d="m307.890625 276.117188c-24.796875 0-44.972656-20.175782-44.972656-44.972657s20.175781-44.96875 44.972656-44.96875 44.96875 20.171875 44.96875 44.96875-20.171875 44.972657-44.96875 44.972657zm0-77.578126c-17.980469 0-32.605469 14.625-32.605469 32.605469s14.625 32.605469 32.605469 32.605469c17.976563 0 32.605469-14.625 32.605469-32.605469 0-17.976562-14.625-32.605469-32.605469-32.605469zm0 0"/><path d="m242.992188 224.960938h26.109374v12.367187h-26.109374zm0 0"/><path d="m373.4375 204.746094v13.425781l-25.179688 10.660156-4.816406-11.390625zm0 0"/><path d="m168.097656 217.441406-4.820312 11.390625-24.722656-10.46875v-13.417969zm0 0"/><path d="m225.761719 231.148438c0 7.355468-5.964844 13.320312-13.320313 13.320312-7.359375 0-13.324218-5.964844-13.324218-13.320312 0-7.359376 5.964843-13.324219 13.324218-13.324219 7.355469 0 13.320313 5.964843 13.320313 13.324219zm0 0"/><path d="m312.882812 231.148438c0 7.355468-5.964843 13.320312-13.324218 13.320312s-13.324219-5.964844-13.324219-13.320312c0-7.359376 5.964844-13.324219 13.324219-13.324219s13.324218 5.964843 13.324218 13.324219zm0 0"/></g><path d="m269.320312 269.914062h-26.644531c-3.171875 0-5.746093-2.570312-5.746093-5.746093s2.574218-5.746094 5.746093-5.746094h26.644531c3.175782 0 5.746094 2.570313 5.746094 5.746094s-2.570312 5.746093-5.746094 5.746093zm0 0" fill="#eaa27f"/><path d="m256 306.273438c-9.835938 0-19.667969-2.460938-28.632812-7.390626-2.527344-1.390624-3.449219-4.566406-2.0625-7.09375 1.390624-2.527343 4.570312-3.449218 7.097656-2.0625 14.777344 8.125 32.417968 8.125 47.195312 0 2.527344-1.390624 5.703125-.46875 7.09375 2.0625 1.390625 2.527344.46875 5.703126-2.058594 7.09375-8.964843 4.925782-18.800781 7.390626-28.632812 7.390626zm0 0" fill="#eaa27f"/><path d="m223.046875 228.796875c0 3.152344-2.554687 5.707031-5.710937 5.707031-3.152344 0-5.707032-2.554687-5.707032-5.707031s2.554688-5.710937 5.707032-5.710937c3.15625 0 5.710937 2.558593 5.710937 5.710937zm0 0" fill="#fff"/><path d="m310.820312 228.796875c0 3.152344-2.558593 5.707031-5.710937 5.707031s-5.707031-2.554687-5.707031-5.707031 2.554687-5.710937 5.707031-5.710937 5.710937 2.558593 5.710937 5.710937zm0 0" fill="#fff"/><path d="m385.660156 163.855469c0 61.492187-12.214844 68.902343-12.214844 68.902343s-22.269531-107.835937-117.4375-107.835937h-.019531c-30.050781 0-52.832031 10.753906-69.9375 25.464844-37.070312 31.882812-47.5 82.371093-47.5 82.371093s-12.214843-7.410156-12.214843-68.902343c0-61.492188 55.191406-93.515625 111.367187-102.292969 5.234375-.828125 10.597656-1.277344 16.042969-1.378906.742187-.027344 1.488281-.042969 2.242187-.042969h.019531c6.21875 0 12.332032.480469 18.285157 1.421875 56.175781 8.777344 111.367187 40.800781 111.367187 102.292969zm0 0" fill="#2f373b"/><path d="m293.839844 57.238281c-6.449219-1.660156-12.988282-3.007812-19.550782-4.03125-5.957031-.941406-12.070312-1.421875-18.285156-1.421875h-.023437c-.75 0-1.492188.007813-2.234375.039063-5.445313.105469-10.804688.554687-16.050782 1.382812-21.753906 3.394531-43.363281 10.28125-61.679687 21.019531-11.042969-34.917968 16.636719-69.945312 54.699219-72.996093 38.933594.742187 62.707031 25.488281 63.125 56.007812zm0 0" fill="#2f373b"/><path d="m285.84375 102.632812c-18.5625 12.769532-23.261719 38.167969-10.492188 56.734376 12.765626 18.5625 38.164063 23.261718 56.730469 10.492187" fill="#2f373b"/><path d="m186.050781 150.386719c-37.070312 31.882812-47.5 82.371093-47.5 82.371093s-12.214843-7.410156-12.214843-68.902343c0-61.492188 55.191406-93.515625 111.367187-102.292969 5.234375-.828125 10.597656-1.277344 16.042969-1.378906-44.960938 1.6875-70.820313 53.957031-67.695313 90.203125zm0 0" fill="#151a1c"/></svg>