<svg height="512pt" viewBox="0 0 512 512" width="512pt" xmlns="http://www.w3.org/2000/svg"><path d="m512 256c0 141.386719-114.613281 256-256 256s-256-114.613281-256-256 114.613281-256 256-256 256 114.613281 256 256zm0 0" fill="#f73b6c"/><path d="m382.121094 449.578125v29.246094c-37.21875 21.117187-80.257813 33.175781-126.117188 33.175781-27.03125 0-53.070312-4.191406-77.53125-11.953125-17.03125-5.402344-33.300781-12.550781-48.589844-21.222656v-29.246094c0-49.914063 38.441407-90.863281 87.355469-94.8125 2.570313-.210937 5.160157-.316406 7.785157-.316406h61.949218c7.324219 0 14.453125.816406 21.296875 2.382812 42.296875 9.675781 73.851563 47.53125 73.851563 92.746094zm0 0" fill="#0c85a5"/><path d="m382.125 449.578125v29.246094c-22.726562 12.894531-47.617188 22.414062-74 27.855469-14.773438 3.0625-30.019531 4.847656-45.609375 5.234374-2.164063.054688-4.335937.085938-6.507813.085938-27.03125 0-53.070312-4.191406-77.53125-11.953125v-50.46875c0-6.742187.699219-13.324219 2.035157-19.667969 2.71875-12.957031 8.078125-24.929687 15.484375-35.359375 17.242187-24.269531 45.589844-40.101562 77.628906-40.101562h13.351562c52.558594 0 95.148438 42.589843 95.148438 95.128906zm0 0" fill="#1da2dd"/><path d="m255.996094 393.394531-42.832032 23.800781-13.027343-60.601562 26.613281-15.675781" fill="#c1dce5"/><path d="m255.996094 393.394531 42.828125 23.800781 13.03125-60.601562-26.613281-15.675781" fill="#c1dce5"/><path d="m289.945312 317.800781v41.65625c0 15.25-10.054687 28.140625-23.90625 32.421875-3.167968.980469-6.550781 1.515625-10.042968 1.515625-18.746094 0-33.9375-15.195312-33.9375-33.9375v-41.65625zm0 0" fill="#eaa27f"/><path d="m289.945312 356.816406v2.640625c0 15.25-10.054687 28.140625-23.90625 32.421875-12.496093-3.84375-21.890624-14.707031-23.625-28.003906 2.265626.140625 4.546876.210938 6.835938.210938 6.421875 0 12.714844-.511719 18.847656-1.519532 7.558594-1.210937 14.859375-3.15625 21.847656-5.75zm0 0" fill="#f6ba97"/><path d="m162.890625 249.535156c0 15.710938-11.476563 28.742188-26.507813 31.160156-1.644531.265626-3.332031.402344-5.058593.402344-17.4375 0-31.5625-14.125-31.5625-31.5625s14.125-31.566406 31.5625-31.566406c1.726562 0 3.414062.140625 5.058593.40625 15.03125 2.417969 26.507813 15.445312 26.507813 31.160156zm0 0" fill="#f6ba97"/><path d="m162.890625 249.535156c0 15.710938-11.476563 28.742188-26.507813 31.160156-2.730468-9.929687-4.191406-20.378906-4.191406-31.160156 0-10.785156 1.460938-21.234375 4.191406-31.160156 15.03125 2.417969 26.507813 15.445312 26.507813 31.160156zm0 0" fill="#eaa27f"/><path d="m142.609375 249.535156c0 6.230469-5.050781 11.28125-11.28125 11.28125s-11.28125-5.050781-11.28125-11.28125c0-6.230468 5.050781-11.28125 11.28125-11.28125s11.28125 5.050782 11.28125 11.28125zm0 0" fill="#eaa27f"/><path d="m349.109375 249.535156c0 15.710938 11.476563 28.742188 26.507813 31.160156 1.644531.265626 3.332031.402344 5.058593.402344 17.4375 0 31.5625-14.125 31.5625-31.5625s-14.125-31.566406-31.5625-31.566406c-1.726562 0-3.414062.140625-5.058593.40625-15.03125 2.417969-26.507813 15.445312-26.507813 31.160156zm0 0" fill="#f6ba97"/><path d="m349.109375 249.535156c0 15.710938 11.476563 28.742188 26.507813 31.160156 2.730468-9.929687 4.191406-20.378906 4.191406-31.160156 0-10.785156-1.460938-21.234375-4.191406-31.160156-15.03125 2.417969-26.507813 15.445312-26.507813 31.160156zm0 0" fill="#eaa27f"/><path d="m373.441406 188.039062v44.722657c0 58.441406-42.695312 106.921875-98.59375 115.917969-.191406.03125-.386718.0625-.578125.097656-5.945312.949218-12.046875 1.417968-18.273437 1.417968-64.855469 0-117.4375-52.578124-117.4375-117.433593v-44.722657c0-13.65625 2.332031-26.78125 6.636718-38.976562 16.058594-45.703125 59.609376-78.46875 110.800782-78.46875h.011718c6.214844 0 12.328126.480469 18.285157 1.417969 56.171875 8.777343 99.148437 57.386719 99.148437 116.027343zm0 0" fill="#eaa27f"/><path d="m391.953125 249.535156c0 6.230469-5.050781 11.28125-11.28125 11.28125s-11.28125-5.050781-11.28125-11.28125c0-6.230468 5.050781-11.28125 11.28125-11.28125s11.28125 5.050782 11.28125 11.28125zm0 0" fill="#eaa27f"/><path d="m373.441406 188.039062v44.722657c0 58.441406-42.695312 106.921875-98.59375 115.917969-.191406.03125-.386718.0625-.578125.097656-56.171875-8.777344-99.136719-57.386719-99.136719-116.015625v-44.722657c0-58.640624 42.976563-107.25 99.160157-116.027343 56.171875 8.777343 99.148437 57.386719 99.148437 116.027343zm0 0" fill="#f6ba97"/><path d="m227.441406 228.796875h72.445313v34.449219h-72.445313zm0 0" fill="#eaa27f"/><path d="m255.996094 297.914062c-9.832032 0-19.667969-2.464843-28.628906-7.390624-2.53125-1.390626-3.453126-4.566407-2.0625-7.09375 1.390624-2.53125 4.566406-3.453126 7.09375-2.0625 14.777343 8.125 32.421874 8.121093 47.199218 0 2.523438-1.390626 5.703125-.46875 7.09375 2.0625 1.390625 2.527343.464844 5.703124-2.0625 7.09375-8.960937 4.925781-18.796875 7.390624-28.632812 7.390624zm0 0" fill="#eaa27f"/><path d="m269.320312 266.78125h-26.644531c-3.175781 0-5.746093-2.574219-5.746093-5.746094 0-3.175781 2.570312-5.746094 5.746093-5.746094h26.644531c3.175782 0 5.746094 2.570313 5.746094 5.746094 0 3.171875-2.570312 5.746094-5.746094 5.746094zm0 0" fill="#eaa27f"/><path d="m370.910156 224.117188-2.402344-69.828126c-73.507812 24.898438-122.472656 36.65625-153.527343 31.347657 43.53125-8.320313 77.332031-37.347657 78.105469-38.015625-.910157.378906-50.53125 20.636718-81.40625 26.769531-14.484376 2.875-29.183594-4.605469-34.984376-18.191406-.042968-.070313-.074218-.15625-.105468-.226563 0 0-3.625 62.398438-40.21875 62.398438 0 0-44.9375-152.261719 32.90625-129.273438 0 0 22.515625-20.679687 56.132812-32.433594.125-.042968.25-.082031.386719-.136718.363281-.136719.738281-.261719 1.117187-.375.394532-.125.773438-.25 1.128907-.375 35.546875-11.726563 82.765625-12.949219 128.792969 29.664062 91.429687 84.636719 14.074218 138.675782 14.074218 138.675782zm0 0" fill="#ffe05c"/><path d="m211.679688 174.390625c-14.484376 2.875-29.183594-4.605469-34.984376-18.191406-.042968-.070313-.074218-.15625-.105468-.226563 0 0-3.625 62.398438-40.21875 62.398438 0 0-44.9375-152.261719 32.90625-129.273438 0 0 22.515625-20.679687 56.132812-32.433594-46.132812 16.800782-33.972656 117.726563-13.730468 117.726563zm0 0" fill="#e89f18"/><path d="m242.996094 231.140625c0 21.429687-17.367188 38.796875-38.789063 38.796875-3.238281 0-6.394531-.398438-9.402343-1.148438-16.886719-4.199218-29.394532-19.457031-29.394532-37.648437 0-18.179687 12.507813-33.4375 29.394532-37.636719 3.007812-.753906 6.164062-1.148437 9.402343-1.148437 21.421875 0 38.789063 17.363281 38.789063 38.785156zm0 0" fill="#fff"/><path d="m346.679688 231.140625c0 21.429687-17.367188 38.796875-38.785157 38.796875-3.242187 0-6.398437-.398438-9.40625-1.148438-16.875-4.199218-29.382812-19.457031-29.382812-37.648437 0-18.179687 12.507812-33.4375 29.382812-37.636719 3.007813-.753906 6.164063-1.148437 9.40625-1.148437 21.417969 0 38.785157 17.363281 38.785157 38.785156zm0 0" fill="#fff"/><path d="m224.1875 231.140625c0 18.191406-12.507812 33.449219-29.382812 37.648437-16.886719-4.199218-29.394532-19.457031-29.394532-37.648437 0-18.179687 12.507813-33.4375 29.394532-37.636719 16.875 4.199219 29.382812 19.457032 29.382812 37.636719zm0 0" fill="#c1dce5"/><path d="m327.871094 231.140625c0 18.191406-12.507813 33.449219-29.382813 37.648437-16.875-4.199218-29.382812-19.457031-29.382812-37.648437 0-18.179687 12.507812-33.4375 29.382812-37.636719 16.875 4.199219 29.382813 19.457032 29.382813 37.636719zm0 0" fill="#c1dce5"/><g fill="#2f373b"><path d="m204.203125 276.117188c-24.796875 0-44.96875-20.175782-44.96875-44.972657s20.171875-44.96875 44.96875-44.96875 44.96875 20.171875 44.96875 44.96875-20.171875 44.972657-44.96875 44.972657zm0-77.578126c-17.980469 0-32.605469 14.625-32.605469 32.605469s14.628906 32.605469 32.605469 32.605469c17.980469 0 32.605469-14.625 32.605469-32.605469 0-17.976562-14.625-32.605469-32.605469-32.605469zm0 0"/><path d="m307.890625 276.117188c-24.796875 0-44.972656-20.175782-44.972656-44.972657s20.175781-44.96875 44.972656-44.96875 44.96875 20.171875 44.96875 44.96875-20.171875 44.972657-44.96875 44.972657zm0-77.578126c-17.980469 0-32.605469 14.625-32.605469 32.605469s14.625 32.605469 32.605469 32.605469c17.976563 0 32.605469-14.625 32.605469-32.605469 0-17.976562-14.625-32.605469-32.605469-32.605469zm0 0"/><path d="m242.992188 224.960938h26.109374v12.367187h-26.109374zm0 0"/><path d="m373.4375 204.746094v13.425781l-25.179688 10.660156-4.816406-11.390625zm0 0"/><path d="m168.097656 217.441406-4.820312 11.390625-24.722656-10.46875v-13.417969zm0 0"/><path d="m230.988281 231.144531c0 7.359375-5.964843 13.324219-13.320312 13.324219-7.359375 0-13.324219-5.964844-13.324219-13.324219 0-7.355469 5.964844-13.320312 13.324219-13.320312 7.355469 0 13.320312 5.964843 13.320312 13.320312zm0 0"/><path d="m307.65625 231.144531c0 7.359375-5.964844 13.324219-13.320312 13.324219-7.359376 0-13.324219-5.964844-13.324219-13.324219 0-7.355469 5.964843-13.320312 13.324219-13.320312 7.355468 0 13.320312 5.964843 13.320312 13.320312zm0 0"/></g><path d="m228.273438 228.796875c0 3.152344-2.554688 5.707031-5.707032 5.707031s-5.710937-2.554687-5.710937-5.707031c0-3.15625 2.558593-5.710937 5.710937-5.710937s5.707032 2.554687 5.707032 5.710937zm0 0" fill="#fff"/><path d="m305.597656 228.796875c0 3.152344-2.558594 5.707031-5.710937 5.707031-3.152344 0-5.707031-2.554687-5.707031-5.707031 0-3.15625 2.554687-5.710937 5.707031-5.710937 3.152343 0 5.710937 2.554687 5.710937 5.710937zm0 0" fill="#fff"/></svg>