<svg xmlns="http://www.w3.org/2000/svg" width="604" height="666.667" viewBox="0 0 453 500"
     preserveAspectRatio="xMidYMid meet">
    <path d="M164.5 1.6c-41.1 7.2-74.6 30.7-91.1 63.9C66.2 80 64 89.1 63.3 106c-1.4 35.4 7.7 59.5 37.4 98.2 4.2 5.4 7.4 10 7.2 10.2-.2.1-4.7 2.5-9.9 5.2-23.3 12.2-40 24.3-57 41.3C26.9 275 19.8 285 12 301.2c-17.1 35.7-15.6 84.2 3.7 122.1 19.8 38.8 53.5 63.1 101.6 73.3 10.2 2.2 15.8 2.7 34.4 3.1 23.5.6 34.4-.2 50.8-3.8 30.3-6.7 58.3-21.6 85.1-45.5l7.1-6.3 38.8 47.8h59.8c36.9.1 59.7-.3 59.5-.8-.1-.6-21.4-25.6-47.3-55.7l-48.8-57c-1.8-2.3-1.7-2.4 3.1-9.1 15.5-21.3 27.8-48.1 34.7-75.5 2.7-10.3 6.5-31.3 6.5-35.4V256h-85v2.4c0 8.4-7.5 35.6-13.3 48l-3.2 6.9-61.6-75.6 6.4-3.7c22.9-13.3 46.3-33.5 59.1-51 9.1-12.4 15.8-28.4 18.7-45 1.6-9.3 1.6-35.2 0-44-9.2-50.3-47.2-83.8-104.9-92.5-12.3-1.9-41.8-1.8-52.7.1zM209 67.9c11.7 4.4 23.1 16.7 27 29 3.8 12.1 2.1 30.9-3.9 42.8-4.9 9.8-17.3 22-35.4 34.8l-6.9 4.8-2.3-2.4c-5.9-6.2-27.1-35.1-29.6-40.4-6.7-14.1-7.9-35.4-2.6-46.8 3.2-7 12.2-16.2 19.2-19.6 11-5.5 23.8-6.2 34.5-2.2zm-7.5 260l40.5 50.5c0 1.7-15.3 15.9-24.8 23.1-17.4 13.1-33.5 18.7-53.7 18.8-13.5 0-20.7-1.7-33.5-8-12.5-6.1-24.6-17.9-30.2-29.3-9.8-19.9-8.7-40 3.3-60.3 5-8.5 20.5-24.4 29.4-30.2 8.3-5.4 25.7-14.5 27.3-14.2.7.1 19.4 22.4 41.7 49.6z"/>
</svg>