<?xml version="1.0" encoding="utf-8"?>
<!-- Generator: Adobe Illustrator 16.0.0, SVG Export Plug-In . SVG Version: 6.00 Build 0)  -->
<!DOCTYPE svg PUBLIC "-//W3C//DTD SVG 1.1//EN" "http://www.w3.org/Graphics/SVG/1.1/DTD/svg11.dtd">
<svg version="1.1" id="Layer_1" xmlns="http://www.w3.org/2000/svg" x="0px" y="0px"
     width="829.971px" height="240.061px" viewBox="0 0 829.971 240.061" enable-background="new 0 0 829.971 240.061"
     xml:space="preserve">
<path id="F_MD" fill="#FFFFFF" d="M50.55,45.73h111.12V2.62H-0.01v233.19h50.56v-96.341h96.3V99.62h-96.3V45.73L50.55,45.73z
	 M485.671,162.98h-0.641L431.24,2.62h-71.181V227.43L320.45,180.62c6.4-8.209,11.504-17.353,15.13-27.11
	c3.649-9.782,6.032-19.992,7.09-30.38h-39.62c-0.637,4.799-1.605,9.547-2.9,14.21c-1.295,4.716-3.131,9.266-5.47,13.561
	l-29.63-36.91c11.115-5.923,21.007-13.9,29.149-23.51c7.831-9.36,11.747-20.9,11.751-34.62c0-9.15-1.664-17.207-4.99-24.17
	c-3.163-6.75-7.78-12.716-13.521-17.47c-5.91-4.795-12.691-8.4-19.971-10.62c-7.982-2.444-16.292-3.655-24.64-3.591
	c-7.622-0.015-15.191,1.256-22.391,3.761c-6.991,2.387-13.486,6.037-19.16,10.77c-5.551,4.643-10.1,10.365-13.37,16.82
	c-3.388,6.79-5.099,14.292-4.99,21.88c0,10.24,2.094,19.17,6.28,26.79c4.5,8.08,9.728,15.731,15.62,22.86
	c-6.728,3.302-13.187,7.124-19.32,11.43c-6.118,4.254-11.69,9.244-16.59,14.86c-4.814,5.527-8.677,11.816-11.43,18.609
	c-2.864,7.222-4.288,14.933-4.19,22.7c0,11.11,1.934,20.964,5.8,29.561c3.661,8.322,9.038,15.778,15.78,21.88
	c6.863,6.113,14.925,10.73,23.67,13.56c9.406,3.088,19.25,4.631,29.149,4.57c13.09,0,24.847-2.287,35.271-6.86
	c11.008-4.985,20.999-11.963,29.47-20.58l18.681,23.19h96.3V72.19h0.64l56.36,163.62h38.979l56.36-165.261h0.64V235.81h47.351V2.62
	h-71.181L485.671,162.98z M230.59,36.75c3.895-3.729,9.099-5.78,14.49-5.71c5.592,0,10.921,2.374,14.66,6.53
	c4.11,4.17,6.373,9.816,6.28,15.67c0,8.5-2.311,15.144-6.931,19.93c-4.989,5.091-10.553,9.584-16.58,13.391
	c-4.3-5.44-8.38-10.777-12.24-16.011c-3.869-5.22-5.803-11.533-5.8-18.939C224.47,45.52,226.51,40.566,230.59,36.75L230.59,36.75z
	 M251.04,196.46c-6.452,3.899-13.882,5.88-21.42,5.71c-4.254,0.008-8.468-0.825-12.399-2.449c-3.841-1.55-7.381-3.76-10.46-6.53
	c-3.038-2.758-5.502-6.088-7.25-9.8c-1.808-3.714-2.745-7.79-2.74-11.92c-0.062-4.503,0.873-8.963,2.74-13.061
	c1.842-3.948,4.287-7.585,7.25-10.78c3.029-3.286,6.495-6.143,10.3-8.489c3.814-2.362,7.798-4.438,11.92-6.21l39.29,48.67
	C263.285,187.37,257.479,192.377,251.04,196.46z M822.081,67.29c-5.26-14.37-12.561-26.347-21.9-35.93
	c-9.316-9.562-20.648-16.924-33.17-21.55C753.76,4.935,739.738,2.5,725.62,2.62h-99.199v233.19h99.199
	c17.601,0,32.9-2.993,45.9-8.98c12.561-5.668,23.68-14.098,32.529-24.659c8.96-10.955,15.589-23.624,19.48-37.23
	c4.422-15.28,6.595-31.123,6.45-47.03C829.98,98.53,827.346,81.657,822.081,67.29z M774.581,155.47
	c-3.221,8.933-7.518,16.173-12.891,21.72c-5.088,5.368-11.377,9.453-18.35,11.92c-6.834,2.39-14.021,3.604-21.26,3.59h-45.09V45.73
	h36.069c12.45,0,22.92,1.797,31.41,5.39c8.063,3.28,15.114,8.635,20.44,15.521c5.381,7.233,9.168,15.525,11.109,24.33
	c2.367,10.444,3.505,21.131,3.391,31.84C779.411,135.66,777.801,146.547,774.581,155.47z"/>
</svg>
