<svg version="1" xmlns="http://www.w3.org/2000/svg" width="889.333" height="889.333"
     viewBox="0 0 667.000000 667.000000">
    <path
        d="M264.8.5c-.2.2-3.4.5-7.3.8-3.8.3-8.1.8-9.5 1.1-1.4.3-3.4.8-4.5 1-18.9 3.8-51.3 16.9-58.9 23.8-1.1 1-2.3 1.8-2.8 1.8-3.3 0-27.2 21.1-35.2 31-14.4 18-26.8 43.3-29.1 59.5-.3 1.6-.7 4.3-1 6-.8 4.2-1.2 43.5-.5 44 .3.2.7 2.3.9 4.6.1 2.3.4 4.6.7 5.1.3.5.8 2.5 1 4.6.3 2 .8 4.6 1.1 5.7.4 1.1.8 2.6 1 3.2 2.2 8.9 9.4 25.7 16.2 38 4.9 8.7 13.9 22.2 24 35.8 5.4 7.1 10.7 14.4 11.9 16.2l2.3 3.2-4.3 2.3c-2.4 1.2-6.1 3.1-8.3 4.2-2.2 1.1-4.3 2.5-4.7 3-.4.6-.8.7-.8.3 0-.5-1.3.1-2.9 1.2-1.6 1.2-3.4 2.1-3.9 2.1-.6 0-1.7.6-2.4 1.3-.7.7-3.3 2.4-5.8 3.8-2.5 1.3-4.9 2.7-5.5 3.2-.5.4-3.7 2.5-7 4.7-17.4 11.5-24.8 17.6-42.4 35-13.7 13.5-20.5 21.5-27.7 32.5-10.5 16.1-18.4 34-23 52-1 4.2-1.1 4.6-1.8 8.5-.3 1.9-.8 4.8-1.1 6.4-1.3 6.5-1.7 12.9-2 28.1-.3 19.7 1.2 31.7 6.8 55 .1.5.6 1.6 1 2.2.5.7.6 1.3.2 1.3-.3 0 .2 1.7 1 3.7.9 2.1 1.6 4 1.7 4.3.2 1.3 1 3.7 1.9 5.2.5 1 .9 2.2.9 2.7 0 1.2 7.8 17.5 11.7 24.6 13.9 24.9 39.7 50.8 64.3 64.3 6.8 3.8 20.3 10.3 25.1 12.3 7.9 3.1 27.1 9.2 32.9 10.4.8.2 3.5.8 6 1.4 2.5.5 5.9 1.2 7.5 1.5 1.7.3 4.1.8 5.5 1.1 12.3 2.6 73.6 2.6 87 0 1.4-.3 4.5-.8 7-1.1 2.5-.3 4.8-.8 5.1-1 .3-.2 2.1-.6 4-.9 1.9-.3 7.2-1.7 11.9-3.1 4.7-1.4 9.3-2.7 10.2-2.9 2.9-.6 29.1-11.7 31.8-13.4 1.4-.9 4.8-2.7 7.5-4.1 2.8-1.4 5.2-2.7 5.5-3 .3-.3 2-1.3 3.8-2.3 1.8-1 6.9-4.4 11.3-7.5 4.5-3.1 8.9-6.2 9.8-6.7.9-.6 1.8-1.2 2.1-1.5.3-.3 2.5-2.1 5-4s5-3.9 5.6-4.5c1.1-1 9.8-8.6 14.9-12.9 1.7-1.4 3.3-2.6 3.6-2.6.3 0 3.7 3.9 7.5 8.7 3.8 4.9 7.3 9.3 7.9 9.9.5.6 2.4 2.8 4 4.8 1.7 2.1 3.7 4.6 4.5 5.6.8 1 3.3 4.1 5.5 6.9 2.2 2.8 4.3 5.1 4.7 5.1.5 0 .8.6.8 1.4 0 .8.3 1.6.8 1.8.4.2 3.6 3.9 7.2 8.3 3.5 4.4 7 8.6 7.7 9.3 1.4 1.5 13 2.1 15 .9.6-.4 1.4-.4 1.6 0 .6 1 29 .9 30.5-.1.6-.3 1.3-.3 1.5.1.6 1 29 .9 30.5-.1.6-.3 1.3-.3 1.5.1.3.5 8.3.7 17.9.5 9.5-.1 17.8-.2 18.3-.2h21.3c2.3 0 4.7.2 5.2.5s1.1.2 1.3-.2c.3-.5 3.7-.8 7.6-.8 4.9.1 7.1-.3 7.1-1.1 0-.7-.3-1.4-.8-1.6-.4-.2-2.3-2.3-4.2-4.8-1.9-2.4-4.2-5.2-5-6-.8-.8-3.3-3.8-5.5-6.5-2.2-2.8-4.7-5.7-5.5-6.5-.9-.8-5.3-6-10-11.5-4.6-5.5-8.9-10.5-9.5-11.1-.5-.6-2.6-3-4.5-5.4-1.9-2.4-4.7-5.6-6.2-7.2-1.5-1.6-4.2-4.7-6-7-1.8-2.2-3.8-4.5-4.3-5.2-1.3-1.3-25.1-29.1-30.9-36-2.3-2.6-4.6-5.3-5.2-6-3.4-3.6-31.4-36.8-31.4-37.2 0-.7 3-6.5 4.1-7.8 4.9-6.1 5.9-7.5 5.9-8.1 0-.3 1.1-2.1 2.5-3.9 1.4-1.8 2.5-3.8 2.5-4.4 0-.7.4-1.2.8-1.2 1 0 3.1-3.8 12.2-21.5 8.2-16 14.2-30.6 19-46 1.2-3.9 2.4-7.7 2.7-8.5.3-.8.7-2.4.8-3.5.1-1.1.7-3.7 1.4-5.7s1.4-4.7 1.6-6c.9-4.8 1.4-7 1.9-8.6.3-.9.7-3.3 1-5.2.5-3.3.9-5.5 2.1-11.8 1.6-8.1 2.4-16.1 1.8-17.7-.2-.7-19.7-1-56.5-1h-56.2l-.2 2.5c-.5 8.2-3.3 21.5-7.9 37-.9 3-1.9 6.4-2.2 7.5-.3 1.1-1 2.6-1.6 3.2-.5.7-.7 1.3-.3 1.3.7 0-2.4 8.1-5.9 15.8-1.4 2.9-2.5 5.7-2.5 6.2 0 1.6-2 2.1-3.3.8-1.2-1.3-26.5-32.3-35.7-43.7-2.5-3.1-5.3-6.5-6.2-7.6-1-1.1-5.2-6.3-9.4-11.5-12.5-15.5-13.9-17.2-14.9-18.4-.6-.6-2.8-3.3-5-6.1-2.2-2.7-5.2-6.3-6.7-7.9l-2.7-3 3.2-2.2c1.8-1.2 4.8-3 6.7-4 3.2-1.8 17.2-10.8 19.5-12.6.6-.5 4.2-3.2 8-6 3.9-2.8 7.2-5.4 7.5-5.7.3-.4 3-2.6 6-5.1 10.7-8.7 30.4-29.2 37.8-39.5 9.2-12.8 20.7-40.1 22.7-54 .4-2.2 1-5.4 1.5-7.2.8-3.2.6-52.5-.2-55.3-.3-.8-.8-2.9-1.2-4.5-2.9-12.2-4.9-19.1-5.7-20-.5-.5-.9-1.7-.9-2.7 0-1-.7-3-1.6-4.3-.9-1.4-1.4-2.5-1.1-2.5 1.1 0-10.9-20.9-16-27.8-5.6-7.5-18.3-20.8-24.1-25.2-1.9-1.4-3.9-3-4.5-3.5-3.5-3-16.9-11.1-25.7-15.4-12.9-6.4-35.4-14-46-15.7-.8-.1-2.6-.5-4-.8-3.5-.7-9.9-1.7-14-2.3-3.9-.4-50.8-1.2-51.2-.8zM304.5 89c14.8 3.7 30 17.1 38.8 34 5.1 9.9 6.2 24.8 3.3 44.9-1.2 8.2-7 21.6-12.2 28.1-3.6 4.5-24.5 25-25.5 25-.4 0-1.4.6-2.1 1.3-1.9 1.8-12.4 9.8-18.1 13.6-3.9 2.6-5 3-6 1.9-3.1-3.4-8.4-9.6-10.2-12.2-1.1-1.5-3-4-4.3-5.4-1.2-1.5-3.5-4.5-5-6.7s-2.9-4.2-3.2-4.5c-.4-.3-2.2-2.8-4.1-5.5-1.8-2.8-3.6-5.2-3.9-5.5-1.9-1.8-10.2-15.3-11.9-19.3-2.4-5.6-5.2-16.8-4.5-17.9.3-.5.2-.8-.3-.8-.9 0-.9-.9-1.3-13.5-.6-19.7 3.2-29.8 15.8-42.2C261.7 92.5 275.6 87 292 87.5c4.1.1 9.8.8 12.5 1.5zm-58.2 284.2c.8 1.3 2.3 3.2 3.3 4.3 2.2 2.3 12.1 14 17.9 21 2.2 2.7 5 6 6.2 7.4 1.2 1.4 5 6 8.3 10.1 3.4 4.1 7.7 9.3 9.5 11.5 1.8 2.2 6.1 7.4 9.5 11.5 3.4 4.1 6.9 8.4 7.8 9.5.9 1.1 4.3 5.4 7.7 9.5 3.3 4.1 6.8 8.4 7.7 9.5.9 1.1 4.7 5.8 8.4 10.5 3.8 4.7 7 8.7 7.3 9 .5.4 4.3 5.2 8.3 10.5.4.5 1.9 2.5 3.4 4.2l2.5 3.3-7.3 7.4c-12.5 12.7-37.3 32.6-40.6 32.6-.5 0-1.5.6-2.1 1.4-.7.8-2.6 1.8-4.2 2.1-1.6.4-2.9 1-2.9 1.5 0 .4-.8 1-1.7 1.3-1 .3-5.2 1.7-9.3 3.2-13.2 4.6-21 5.8-38 5.8-13.7 0-21.4-1.1-29-4-.8-.4-1.7-.7-2-.8-3.9-1.4-19.3-8.7-20-9.5-.3-.3-2.1-1.7-4-3-5.8-4-6-4.2-13-11.1-16.1-15.9-24.3-34.8-24.4-56.4 0-9.6.8-15.5 3.3-23.5 1.1-3.3 1.6-6 1.2-6-.3 0-.1-.4.4-.8.6-.4 3-4.6 5.4-9.4 2.4-4.8 5.1-9.5 6-10.5.9-1 3.3-3.8 5.3-6.3 4.3-5.3 14.9-16.2 19.9-20.5 5-4.3 11.7-9.5 12.2-9.5.3 0 3.6-1.9 7.3-4.2 6.4-3.9 26.1-13.8 27.5-13.8.4 0 1.3 1 2.2 2.2z"/>
</svg>
