<svg width="8" height="8" viewBox="0 0 8 8" fill="none" xmlns="http://www.w3.org/2000/svg">
<g clip-path="url(#clip0_4_25)">
<path d="M4 7C5.65685 7 7 5.65685 7 4C7 2.34315 5.65685 1 4 1C2.34315 1 1 2.34315 1 4C1 5.65685 2.34315 7 4 7Z" fill="black" fill-opacity="0.8"/>
<path fill-rule="evenodd" clip-rule="evenodd" d="M21.6753 32.7534V28.8749C21.6753 28.1877 21.1493 27.6283 20.4999 27.6283C19.8504 27.6283 19.3244 28.1877 19.3244 28.8749V32.7534C19.3244 33.4422 19.8504 34 20.4999 34C21.1493 34 21.6753 33.4422 21.6753 32.7534ZM27.9198 26.1323L30.5058 28.8732C30.9642 29.361 31.7091 29.361 32.169 28.8732C32.6274 28.387 32.6274 27.597 32.169 27.1108L29.5831 24.3683C29.1246 23.8821 28.3783 23.8821 27.9198 24.3683C27.4614 24.8561 27.4614 25.6445 27.9198 26.1323ZM10.4943 28.8732L13.0802 26.1323C13.5387 25.6445 13.5387 24.8561 13.0802 24.3683C12.6218 23.8821 11.8769 23.8821 11.4185 24.3683L8.83256 27.1108C8.37413 27.597 8.37413 28.387 8.83256 28.8732C9.291 29.361 10.0359 29.361 10.4943 28.8732ZM20.4694 7.82142C15.8926 7.82142 12.1753 11.7638 12.1753 16.6194C12.1753 21.4734 15.8925 25.4142 20.4694 25.4142C25.0477 25.4142 28.765 21.4734 28.765 16.6194C28.765 11.7639 25.0478 7.82142 20.4694 7.82142ZM32.169 17.7476H35.8246C36.474 17.7476 37 17.1882 37 16.501C37 15.8122 36.474 15.2544 35.8246 15.2544H32.169C31.5196 15.2544 30.9936 15.8122 30.9936 16.501C30.9936 17.1882 31.5196 17.7476 32.169 17.7476ZM5.17542 17.7476H8.83098C9.48042 17.7476 10.0064 17.1882 10.0064 16.501C10.0064 15.8122 9.48042 15.2544 8.83098 15.2544H5.17542C4.52599 15.2544 4 15.8122 4 16.501C4 17.1882 4.52599 17.7476 5.17542 17.7476ZM8.83245 5.88909L11.4184 8.63162C11.8768 9.11781 12.6217 9.11781 13.0801 8.63162C13.5386 8.14387 13.5386 7.35542 13.0801 6.86767L10.4942 4.1267C10.0358 3.63895 9.29088 3.63895 8.83245 4.1267C8.37402 4.61289 8.37402 5.4029 8.83245 5.88909ZM29.583 8.63162L32.1689 5.88909C32.6273 5.4029 32.6273 4.61289 32.1689 4.1267C31.709 3.63895 30.9641 3.63895 30.5057 4.1267L27.9198 6.86767C27.4613 7.35542 27.4613 8.14387 27.9198 8.63162C28.3782 9.11781 29.1246 9.11781 29.583 8.63162ZM21.6755 4.1251V0.246601C21.6755 -0.440605 21.1495 -1 20.5001 -1C19.8507 -1 19.3247 -0.440605 19.3247 0.246601V4.1251C19.3247 4.81387 19.8507 5.3717 20.5001 5.3717C21.1495 5.3717 21.6755 4.81387 21.6755 4.1251Z" fill="white"/>
<path fill-rule="evenodd" clip-rule="evenodd" d="M4.14246 5.85753V5.41427C4.14246 5.33574 4.0787 5.2718 3.99998 5.2718C3.92126 5.2718 3.85751 5.33574 3.85751 5.41427V5.85753C3.85751 5.93625 3.92126 6 3.99998 6C4.0787 6 4.14246 5.93625 4.14246 5.85753ZM4.89937 5.10083L5.21282 5.41408C5.26839 5.46983 5.35868 5.46983 5.41442 5.41408C5.46999 5.35852 5.46999 5.26823 5.41442 5.21267L5.10098 4.89923C5.04541 4.84367 4.95494 4.84367 4.89937 4.89923C4.84381 4.95498 4.84381 5.04509 4.89937 5.10083ZM2.78719 5.41408L3.10064 5.10083C3.1562 5.04509 3.1562 4.95498 3.10064 4.89923C3.04507 4.84367 2.95478 4.84367 2.89921 4.89923L2.58577 5.21267C2.5302 5.26823 2.5302 5.35852 2.58577 5.41408C2.64133 5.46983 2.73162 5.46983 2.78719 5.41408ZM3.99629 3.00816C3.44153 3.00816 2.99094 3.45872 2.99094 4.01365C2.99094 4.56839 3.44152 5.01877 3.99629 5.01877C4.55123 5.01877 5.00182 4.56839 5.00182 4.01365C5.00182 3.45873 4.55124 3.00816 3.99629 3.00816ZM5.41443 4.14258H5.85752C5.93624 4.14258 6 4.07865 6 4.00011C6 3.92139 5.93624 3.85764 5.85752 3.85764H5.41443C5.33571 3.85764 5.27195 3.92139 5.27195 4.00011C5.27195 4.07865 5.33571 4.14258 5.41443 4.14258ZM2.14247 4.14258H2.58557C2.66429 4.14258 2.72805 4.07865 2.72805 4.00011C2.72805 3.92139 2.66429 3.85764 2.58557 3.85764H2.14247C2.06376 3.85764 2 3.92139 2 4.00011C2 4.07865 2.06376 4.14258 2.14247 4.14258ZM2.58575 2.78733L2.8992 3.10076C2.95476 3.15632 3.04505 3.15632 3.10062 3.10076C3.15619 3.04501 3.15619 2.9549 3.10062 2.89916L2.78718 2.58591C2.73161 2.53017 2.64132 2.53017 2.58575 2.58591C2.53018 2.64147 2.53018 2.73176 2.58575 2.78733ZM5.10097 3.10076L5.41441 2.78733C5.46998 2.73176 5.46998 2.64147 5.41441 2.58591C5.35867 2.53017 5.26838 2.53017 5.21281 2.58591L4.89937 2.89916C4.8438 2.9549 4.8438 3.04501 4.89937 3.10076C4.95493 3.15632 5.0454 3.15632 5.10097 3.10076ZM4.14249 2.58573V2.14247C4.14249 2.06393 4.07873 2 4.00001 2C3.92129 2 3.85754 2.06393 3.85754 2.14247V2.58573C3.85754 2.66444 3.92129 2.72819 4.00001 2.72819C4.07873 2.72819 4.14249 2.66444 4.14249 2.58573Z" fill="white"/>
</g>
<defs>
<clipPath id="clip0_4_25">
<rect width="8" height="8" fill="white"/>
</clipPath>
</defs>
</svg>
