<svg xmlns="http://www.w3.org/2000/svg"><symbol fill="none" id="fmd-logo" viewBox="0 0 88 26"><path fill-rule="evenodd" clip-rule="evenodd" d="M24.031 25.632a9.238 9.238 0 0 0 3.723-.728 10.324 10.324 0 0 0 3.114-2.141l1.973 2.396h5.135v.017h5V8.144h.065l5.978 17.032h4.065l5.978-17.2h.065v17.2h5V.906h-7.494l-5.37 16.689h-.07L45.519.905h-7.543v23.298l-4.108-4.788a10.5 10.5 0 0 0 1.597-2.82 12.66 12.66 0 0 0 .75-3.163h-4.184c-.066.5-.168.993-.304 1.478a6.77 6.77 0 0 1-.576 1.413l-3.13-3.842a10.515 10.515 0 0 0 3.075-2.446 5.397 5.397 0 0 0 1.24-3.603 5.673 5.673 0 0 0-.544-2.516 5.238 5.238 0 0 0-1.424-1.82 6.244 6.244 0 0 0-2.109-1.087 8.738 8.738 0 0 0-2.63-.375c-.803-.003-1.6.13-2.359.39a6.521 6.521 0 0 0-2.027 1.115 5.52 5.52 0 0 0-1.407 1.755c-.36.707-.54 1.49-.527 2.283-.022.97.206 1.93.663 2.788a15.61 15.61 0 0 0 1.63 2.375 16.04 16.04 0 0 0-2.038 1.19 9.782 9.782 0 0 0-1.717 1.549 6.762 6.762 0 0 0-1.207 1.94 6.141 6.141 0 0 0-.445 2.358 7.331 7.331 0 0 0 .614 3.076c.386.87.955 1.647 1.668 2.277a6.957 6.957 0 0 0 2.478 1.424 9.852 9.852 0 0 0 3.076.478Zm-2.206-9.63c.321-.34.687-.637 1.087-.88v-.005c.396-.247.81-.464 1.239-.647l4.152 5.065a8.27 8.27 0 0 1-1.82 1.549 4.239 4.239 0 0 1-2.262.592c-.448 0-.893-.086-1.31-.255a3.723 3.723 0 0 1-1.086-.68 3.18 3.18 0 0 1-.766-1.016 2.838 2.838 0 0 1-.288-1.24 3.17 3.17 0 0 1 .288-1.358c.194-.413.452-.793.766-1.125Zm4.89-11.964c.266.117.505.288.702.503a2.27 2.27 0 0 1 .663 1.63 2.826 2.826 0 0 1-.734 2.07 9.677 9.677 0 0 1-1.75 1.403l-.436-.56v-.001c-.294-.377-.58-.742-.857-1.107a3.19 3.19 0 0 1-.609-1.973 1.988 1.988 0 0 1 .647-1.565c.415-.383.963-.59 1.527-.576.291 0 .58.06.846.176Zm-9.65 1.356V.905H0v24.27h5.337V15.15h10.162v-4.146H5.337v-5.61h11.727Zm63.87-3.739a12.467 12.467 0 0 0-4.347-.75H66.116v24.26h10.472c1.663.04 3.314-.28 4.842-.935a9.574 9.574 0 0 0 3.435-2.565 10.821 10.821 0 0 0 2.06-3.875c.464-1.588.693-3.236.679-4.89a15.13 15.13 0 0 0-.832-5.267 10.326 10.326 0 0 0-2.315-3.739 9.38 9.38 0 0 0-3.521-2.239Zm-2.477 18.662c-.722.25-1.48.377-2.245.375h-4.771V5.394h3.804a8.603 8.603 0 0 1 3.315.544 5.206 5.206 0 0 1 2.174 1.63 6.64 6.64 0 0 1 1.174 2.533c.25 1.086.37 2.2.358 3.314a10.03 10.03 0 0 1-.51 3.402 6.245 6.245 0 0 1-1.36 2.256 4.93 4.93 0 0 1-1.94 1.244Z" fill="currentColor"/></symbol><symbol fill="none" id="ic-arrow-right" viewBox="0 0 32 32"><path fill-rule="evenodd" clip-rule="evenodd" d="M3.001 15.978a.9.9 0 0 1 .9-.9h20.147a.9.9 0 0 1 0 1.8H3.901a.9.9 0 0 1-.9-.9Z" fill="currentColor"/><path fill-rule="evenodd" clip-rule="evenodd" d="M16.96 8.889a.9.9 0 0 1 1.273-.003l6.503 6.476a.9.9 0 0 1 0 1.275l-6.503 6.476a.9.9 0 1 1-1.27-1.275L22.826 16l-5.863-5.838a.9.9 0 0 1-.003-1.273Z" fill="currentColor"/></symbol><symbol fill="none" id="ic-web-vitals-danger" viewBox="0 0 22 23"><path d="M11 .989c1.01 0 1.984.129 2.922.386.938.258 1.812.63 2.621 1.118.81.487 1.55 1.06 2.224 1.718.673.66 1.25 1.4 1.73 2.224a11.078 11.078 0 0 1 1.116 8.476 10.4 10.4 0 0 1-1.117 2.62 12.02 12.02 0 0 1-1.719 2.224 10.5 10.5 0 0 1-2.223 1.73 11.074 11.074 0 0 1-8.476 1.117 10.401 10.401 0 0 1-2.621-1.117c-.81-.487-1.55-1.06-2.224-1.719a10.48 10.48 0 0 1-1.73-2.224A11.078 11.078 0 0 1 .388 9.067c.258-.938.63-1.812 1.117-2.621.487-.81 1.06-1.55 1.719-2.224a10.5 10.5 0 0 1 2.223-1.73A11.078 11.078 0 0 1 11 .99Zm1.214 11 3.674-3.674L14.674 7.1 11 10.775 7.326 7.1 6.112 8.315l3.674 3.674-3.674 3.673 1.214 1.214L11 13.202l3.674 3.674 1.214-1.214-3.674-3.673Z" fill="currentColor"/></symbol><symbol fill="none" id="ic-web-vitals-success" viewBox="0 0 22 23"><path d="M11 .989c-6.075 0-11 4.925-11 11s4.925 11 11 11 11-4.925 11-11-4.925-11-11-11Zm4.72 5.152 2.285 2.285-7.138 7.14-2.272 2.27-2.285-2.285-2.315-2.316 2.27-2.27L8.58 13.28l7.14-7.14Z" fill="currentColor"/></symbol></svg>