<svg xmlns="http://www.w3.org/2000/svg"><symbol fill="none" id="fmd-logo" viewBox="0 0 512 512"><title>fmd-logo</title><path d="M259.273 405.05a116.773 116.773 0 0 1-47.09 9.222 124.522 124.522 0 0 1-38.911-6.056 87.976 87.976 0 0 1-31.348-18.03 84.024 84.024 0 0 1-21.105-28.833 92.914 92.914 0 0 1-7.768-38.949 77.83 77.83 0 0 1 5.637-29.865 85.604 85.604 0 0 1 15.262-24.567 123.71 123.71 0 0 1 21.724-19.612 203.037 203.037 0 0 1 25.779-15.071 197.645 197.645 0 0 1-20.624-30.072 71.697 71.697 0 0 1-8.386-35.302 61.42 61.42 0 0 1 6.668-28.902 69.9 69.9 0 0 1 17.805-22.227 82.462 82.462 0 0 1 25.642-14.107 90.804 90.804 0 0 1 29.836-4.955 110.43 110.43 0 0 1 33.273 4.749 78.962 78.962 0 0 1 26.673 13.762 66.339 66.339 0 0 1 18.011 23.053 71.91 71.91 0 0 1 6.875 31.862 68.377 68.377 0 0 1-15.674 45.624 133.05 133.05 0 0 1-38.91 30.966l39.597 48.652a85.725 85.725 0 0 0 7.287-17.892 132.784 132.784 0 0 0 3.85-18.717h52.934a160.431 160.431 0 0 1-9.486 40.05 132.999 132.999 0 0 1-20.212 35.715l62.353 72.737h-75.346l-24.954-30.348a130.613 130.613 0 0 1-39.392 27.113Zm-61.252-123.866a65.962 65.962 0 0 0-13.749 11.148 54.393 54.393 0 0 0-9.693 14.245 40.154 40.154 0 0 0-3.644 17.203 35.937 35.937 0 0 0 3.644 15.69 40.227 40.227 0 0 0 9.693 12.868 47.08 47.08 0 0 0 13.749 8.602 43.895 43.895 0 0 0 16.568 3.235 53.589 53.589 0 0 0 28.598-7.501 104.623 104.623 0 0 0 23.03-19.612l-52.522-64.136a115.774 115.774 0 0 0-15.674 8.189v.069Zm56.99-133.982a26.54 26.54 0 0 0-19.592-8.602 27.483 27.483 0 0 0-19.318 7.295 25.187 25.187 0 0 0-8.181 19.818 40.423 40.423 0 0 0 7.7 24.98c5.225 6.881 10.655 13.763 16.361 21.126a122.473 122.473 0 0 0 22.136-17.754 35.796 35.796 0 0 0 9.281-26.219 28.797 28.797 0 0 0-2.115-11.168 28.76 28.76 0 0 0-6.272-9.476Z" fill="#fff"/></symbol></svg>