<svg xmlns="http://www.w3.org/2000/svg"><symbol fill="none" id="fmd-logo" viewBox="0 0 88 26"><path fill-rule="evenodd" clip-rule="evenodd" d="M24.031 25.632a9.238 9.238 0 0 0 3.723-.728 10.324 10.324 0 0 0 3.114-2.141l1.973 2.396h5.135v.017h5V8.144h.065l5.978 17.032h4.065l5.978-17.2h.065v17.2h5V.906h-7.494l-5.37 16.689h-.07L45.519.905h-7.543v23.298l-4.108-4.788a10.5 10.5 0 0 0 1.597-2.82 12.66 12.66 0 0 0 .75-3.163h-4.184c-.066.5-.168.993-.304 1.478a6.77 6.77 0 0 1-.576 1.413l-3.13-3.842a10.515 10.515 0 0 0 3.075-2.446 5.397 5.397 0 0 0 1.24-3.603 5.673 5.673 0 0 0-.544-2.516 5.238 5.238 0 0 0-1.424-1.82 6.244 6.244 0 0 0-2.109-1.087 8.738 8.738 0 0 0-2.63-.375c-.803-.003-1.6.13-2.359.39a6.521 6.521 0 0 0-2.027 1.115 5.52 5.52 0 0 0-1.407 1.755c-.36.707-.54 1.49-.527 2.283-.022.97.206 1.93.663 2.788a15.61 15.61 0 0 0 1.63 2.375 16.04 16.04 0 0 0-2.038 1.19 9.782 9.782 0 0 0-1.717 1.549 6.762 6.762 0 0 0-1.207 1.94 6.141 6.141 0 0 0-.445 2.358 7.331 7.331 0 0 0 .614 3.076c.386.87.955 1.647 1.668 2.277a6.957 6.957 0 0 0 2.478 1.424 9.852 9.852 0 0 0 3.076.478Zm-2.206-9.63c.321-.34.687-.637 1.087-.88v-.005c.396-.247.81-.464 1.239-.647l4.152 5.065a8.27 8.27 0 0 1-1.82 1.549 4.239 4.239 0 0 1-2.262.592c-.448 0-.893-.086-1.31-.255a3.723 3.723 0 0 1-1.086-.68 3.18 3.18 0 0 1-.766-1.016 2.838 2.838 0 0 1-.288-1.24 3.17 3.17 0 0 1 .288-1.358c.194-.413.452-.793.766-1.125Zm4.89-11.964c.266.117.505.288.702.503a2.27 2.27 0 0 1 .663 1.63 2.826 2.826 0 0 1-.734 2.07 9.677 9.677 0 0 1-1.75 1.403l-.436-.56v-.001c-.294-.377-.58-.742-.857-1.107a3.19 3.19 0 0 1-.609-1.973 1.988 1.988 0 0 1 .647-1.565c.415-.383.963-.59 1.527-.576.291 0 .58.06.846.176Zm-9.65 1.356V.905H0v24.27h5.337V15.15h10.162v-4.146H5.337v-5.61h11.727Zm63.87-3.739a12.467 12.467 0 0 0-4.347-.75H66.116v24.26h10.472c1.663.04 3.314-.28 4.842-.935a9.574 9.574 0 0 0 3.435-2.565 10.821 10.821 0 0 0 2.06-3.875c.464-1.588.693-3.236.679-4.89a15.13 15.13 0 0 0-.832-5.267 10.326 10.326 0 0 0-2.315-3.739 9.38 9.38 0 0 0-3.521-2.239Zm-2.477 18.662c-.722.25-1.48.377-2.245.375h-4.771V5.394h3.804a8.603 8.603 0 0 1 3.315.544 5.206 5.206 0 0 1 2.174 1.63 6.64 6.64 0 0 1 1.174 2.533c.25 1.086.37 2.2.358 3.314a10.03 10.03 0 0 1-.51 3.402 6.245 6.245 0 0 1-1.36 2.256 4.93 4.93 0 0 1-1.94 1.244Z" fill="currentColor"/></symbol><symbol fill="none" id="ic-arrow-right" viewBox="0 0 32 32"><path fill-rule="evenodd" clip-rule="evenodd" d="M3.001 15.978a.9.9 0 0 1 .9-.9h20.147a.9.9 0 0 1 0 1.8H3.901a.9.9 0 0 1-.9-.9Z" fill="currentColor"/><path fill-rule="evenodd" clip-rule="evenodd" d="M16.96 8.889a.9.9 0 0 1 1.273-.003l6.503 6.476a.9.9 0 0 1 0 1.275l-6.503 6.476a.9.9 0 1 1-1.27-1.275L22.826 16l-5.863-5.838a.9.9 0 0 1-.003-1.273Z" fill="currentColor"/></symbol><symbol id="menosdomesmo" viewBox="0 0 234 51"><path d="M118.8 0v25.2l7.812-23.94L118.8 25.2l14.868-20.412L118.8 25.2l20.412-14.868L118.8 25.2l23.94-7.812L118.8 25.2H144h-25.2l23.94 7.812L118.8 25.2l20.412 14.868L118.8 25.2l14.868 20.412L118.8 25.2l7.812 23.94L118.8 25.2v25.2-25.2l-7.812 23.94L118.8 25.2l-14.868 20.412L118.8 25.2 98.388 40.068 118.8 25.2l-23.94 7.812L118.8 25.2H93.6h25.2l-23.94-7.812L118.8 25.2 98.388 10.332 118.8 25.2 103.932 4.788 118.8 25.2l-7.812-23.94L118.8 25.2V0Z" stroke="#E9FF00" stroke-width="3.168" stroke-miterlimit="10" stroke-linecap="square"/><path d="M3.037 34.764H.672V15.948h4.73l6.828 18.816 6.398-18.816h4.677v18.816h-2.366V16.109h-.026l-6.29 18.655H9.838L3.064 16.002h-.027v18.762Zm38.16-18.816v2.285H28.132v5.913h13.063v2.205H28.133v6.101h13.063v2.312H25.713V15.948h15.483Zm20.535 0v18.816h-5L46.007 15.948h2.527L59.34 34.764V15.948h2.392ZM43.615 34.764V15.948h2.392v18.816h-2.392Zm40.713-9.408c0 3.064-.869 5.403-2.607 7.016-1.738 1.595-4.238 2.392-7.5 2.392-3.297 0-5.806-.797-7.526-2.392-1.702-1.613-2.554-3.952-2.554-7.016 0-3.1.878-5.439 2.635-7.016 1.756-1.595 4.247-2.392 7.472-2.392 3.226 0 5.708.78 7.446 2.339 1.756 1.54 2.634 3.897 2.634 7.069Zm-2.446-.08c0-2.294-.636-4.033-1.908-5.215-1.273-1.201-3.163-1.801-5.672-1.801-2.563 0-4.489.609-5.78 1.828-1.29 1.218-1.935 2.974-1.935 5.268 0 2.348.645 4.122 1.936 5.322 1.308 1.183 3.234 1.774 5.779 1.774 2.563 0 4.462-.636 5.698-1.908 1.255-1.272 1.882-3.029 1.882-5.269Zm5.128-3.818c0-1.164.251-2.105.753-2.822a5.12 5.12 0 0 1 1.935-1.666 8.105 8.105 0 0 1 2.688-.807 20.329 20.329 0 0 1 2.93-.215c1.022 0 2.025.063 3.01.188 1.004.108 1.9.359 2.689.753a4.84 4.84 0 0 1 1.908 1.693c.484.735.726 1.72.726 2.957h-2.365c0-.788-.171-1.407-.511-1.855a2.944 2.944 0 0 0-1.344-1.021c-.556-.233-1.192-.376-1.909-.43a22.168 22.168 0 0 0-2.204-.108c-.699 0-1.407.027-2.123.081a6.335 6.335 0 0 0-1.909.43 3.199 3.199 0 0 0-1.37.995c-.359.43-.538 1.021-.538 1.774 0 .77.26 1.389.78 1.854.537.466 1.361.753 2.472.86l6.344.565c1.595.143 2.822.573 3.683 1.29.86.7 1.29 1.774 1.29 3.226 0 1.272-.269 2.276-.807 3.01a5.053 5.053 0 0 1-2.096 1.667c-.86.376-1.82.618-2.877.726a30.813 30.813 0 0 1-3.118.161c-.985 0-1.97-.063-2.956-.188a9.048 9.048 0 0 1-2.688-.806 5.352 5.352 0 0 1-1.936-1.694c-.483-.735-.725-1.702-.725-2.903h2.365c0 .735.17 1.326.51 1.774.341.448.79.797 1.345 1.048a7.65 7.65 0 0 0 1.935.484 21.78 21.78 0 0 0 2.177.108c.807 0 1.595-.027 2.366-.08a8.274 8.274 0 0 0 2.123-.404c.628-.215 1.129-.538 1.506-.968.394-.43.591-1.021.591-1.774 0-.448-.081-.815-.242-1.102a1.681 1.681 0 0 0-.645-.726c-.269-.179-.609-.313-1.022-.403a11.89 11.89 0 0 0-1.317-.215l-6.37-.591c-1.63-.144-2.885-.619-3.763-1.425-.86-.806-1.29-1.953-1.29-3.44Zm30.158 8.807V27.39c-.12.688-.33 1.238-.629 1.647-.3.4-.629.709-.989.928a3.17 3.17 0 0 1-1.078.405 4.59 4.59 0 0 1-.869.105c-.619 0-1.168-.095-1.647-.285a3.292 3.292 0 0 1-1.183-.794 3.416 3.416 0 0 1-.719-1.243 5.04 5.04 0 0 1-.24-1.602c0-.55.08-1.053.24-1.513.16-.469.389-.873.689-1.213.309-.35.689-.619 1.138-.808.459-.2.978-.3 1.558-.3.149 0 .329.015.539.045.219.02.454.07.704.15.249.07.504.175.763.314.26.14.505.325.734.554.23.22.429.495.599.824.18.33.31.724.39 1.183v-5.99h1.332v10.468h-1.332Zm0-3.714c0-.3-.055-.604-.165-.914a2.158 2.158 0 0 0-.554-.838c-.25-.25-.584-.45-1.004-.6-.409-.159-.923-.239-1.542-.239-.4 0-.769.07-1.108.21-.33.14-.619.33-.869.569-.24.24-.429.519-.569.838-.13.31-.195.634-.195.974 0 .35.065.684.195 1.003.14.32.334.604.584.854.25.25.544.45.884.599.349.14.738.21 1.168.21.599 0 1.098-.08 1.497-.24.41-.16.739-.364.989-.614a2.2 2.2 0 0 0 .524-.869c.11-.32.165-.634.165-.943Zm2.079-.03c0-1.298.375-2.251 1.124-2.86.758-.62 1.817-.929 3.175-.929.669 0 1.263.075 1.782.225.529.14.973.364 1.333.674.359.3.634.689.823 1.168.19.479.285 1.053.285 1.722 0 1.258-.375 2.201-1.123 2.83-.749.62-1.783.929-3.1.929a6.371 6.371 0 0 1-1.738-.225 3.93 3.93 0 0 1-1.347-.704 3.415 3.415 0 0 1-.899-1.183c-.21-.469-.315-1.018-.315-1.647Zm1.318-.015c0 .48.065.889.195 1.228.14.33.335.594.584.794.26.2.574.344.944.434.369.09.793.135 1.273.135.908 0 1.617-.22 2.126-.66.509-.448.764-1.092.764-1.931 0-.879-.255-1.528-.764-1.947-.509-.42-1.218-.629-2.126-.629-.929 0-1.663.225-2.202.674-.529.44-.794 1.073-.794 1.902Zm12.712-9.87-.003.025c.386.33.805.786 1.204 1.37.396.608.576 1.115.519 1.495l-2.201 14.679h.41l2.186-14.577 7.532 9.608 10.371-11.89-2.529 16.859h2.436l2.635-17.569h-2.487l-8.989 10.37-7.777-10.37h-3.307Zm25.849 0-2.635 17.569h9.972l4.173-6.287a34.82 34.82 0 0 1-2.595 2.434c-.82.684-1.71 1.318-2.695 1.9a11.639 11.639 0 0 1-6.502 1.648l1.239-8.264h7.794l.057-.38h-7.794l1.244-8.29c1.41 0 2.702.101 3.821.33 1.12.227 2.026.506 2.721.836.668.33 1.295.76 1.856 1.293.561.532.98.988 1.253 1.394.268.431.555.913.907 1.47.326.558.573.964.77 1.192l-2.486-6.845h-11.1Zm21.016 17.924c1.798-.025 3.324-.456 4.595-1.242 1.272-.786 2.015-1.978 2.228-3.575.154-1.191-.134-2.18-.858-2.991-.75-.812-1.706-1.445-2.846-1.877a181.113 181.113 0 0 0-3.451-1.267c-1.144-.406-2.115-.938-2.891-1.572-.777-.634-1.124-1.394-1.009-2.332.13-1.04.786-1.826 1.968-2.358 1.183-.532 2.517-.71 4.054-.532 1.537.177 2.853.633 3.94 1.42.766.532 1.341 1.14 1.704 1.8.337.658.486 1.546.417 2.687h.128l.168-5.907-.9-.153a44.58 44.58 0 0 0-2.551-.253 34.645 34.645 0 0 0-3.222-.05c-1.055.025-2.026.177-2.859.43-.859.254-1.545.558-2.03.887a6.18 6.18 0 0 0-1.307 1.192c-.347.431-.613.837-.743 1.192-.13.354-.231.684-.28 1.014-.096.811.024 1.546.391 2.18.341.634.85 1.166 1.529 1.597.653.431 1.391.811 2.209 1.166.819.355 1.641.685 2.463 1.014.797.33 1.542.66 2.206 1.014.665.355 1.19.786 1.553 1.268.36.507.507 1.065.412 1.699-.049.33-.176.659-.353.988a4.08 4.08 0 0 1-.819 1.015c-.361.354-.864.633-1.51.836-.675.228-1.433.33-2.283.355a9.285 9.285 0 0 1-2.101-.177 5.488 5.488 0 0 1-1.911-.761 4.628 4.628 0 0 1-1.534-1.394c-.429-.558-.755-1.293-.977-2.206-.226-.887-.301-1.927-.25-3.118h-.154l-.199 6.794c.073.025.267.101.633.228.365.127.584.203.683.228.099.026.318.102.662.203.314.127.589.178.764.203.176.025.425.076.798.152.373.076.702.102 1.032.127.304.025.688.025 1.12.05.432.026.894.026 1.381.026Zm9.589-17.924-.004.025c.386.33.805.786 1.205 1.37.395.608.576 1.115.519 1.495l-2.202 14.679h.41l2.187-14.577 7.531 9.608 10.371-11.89-2.528 16.859h2.435l2.635-17.569h-2.487l-8.989 10.37-7.776-10.37h-3.307Zm42.572 8.011c.12-2.51-.7-4.563-2.452-6.21-1.782-1.623-3.957-2.333-6.573-2.156-2.619.203-4.881 1.268-6.833 3.17-1.951 1.9-2.974 4.106-3.094 6.616-.095 2.51.721 4.589 2.503 6.211 1.756 1.623 3.957 2.333 6.573 2.155 2.62-.203 4.881-1.267 6.833-3.169 1.926-1.901 2.949-4.107 3.043-6.617Zm-1.692 0c-.628 2.307-1.983 4.336-4.069 6.11-2.09 1.8-4.183 2.763-6.283 2.916-1.791.152-3.248-.558-4.32-2.13-1.076-1.546-1.325-3.473-.726-5.755.602-2.307 1.902-4.31 3.882-6.059 1.976-1.724 3.988-2.662 6.011-2.814 1.843-.152 3.355.532 4.563 2.053 1.203 1.547 1.511 3.423.942 5.68Z"/></symbol></svg>