<svg width="32" height="32" viewBox="0 0 32 32" fill="none"
     xmlns="http://www.w3.org/2000/svg">

    <path fill-rule="evenodd" clip-rule="evenodd"
          d="M19.6829 10.6499C19.3674 10.5449 19.1217 10.2992 19.0167 9.98362L17.9518 6.79058C17.6717 5.95071 16.8857 5.38425 16.0004 5.38425C15.115 5.38425 14.329 5.95071 14.0489 6.79058L12.9843 9.98264C12.8794 10.2974 12.6313 10.5454 12.3165 10.6503L9.12473 11.7147C8.28486 11.9948 7.7184 12.7809 7.7184 13.6662C7.7184 14.5515 8.28486 15.3376 9.12473 15.6177L12.3168 16.6822C12.6316 16.7872 12.8795 17.0353 12.9844 17.3501L14.0489 20.5418C14.329 21.3817 15.115 21.9482 16.0004 21.9482C16.8857 21.9482 17.6717 21.3817 17.9518 20.5418L19.0164 17.3498C19.1213 17.035 19.3694 16.7871 19.6842 16.6821L22.876 15.6177C23.7159 15.3376 24.2823 14.5515 24.2823 13.6662C24.2823 12.7809 23.7159 11.9948 22.876 11.7147L19.6829 10.6499ZM17.0648 10.6332C17.0713 10.6528 17.078 10.6723 17.0849 10.6917C17.3984 11.5748 18.0917 12.2682 18.9749 12.5816C18.9943 12.5885 19.0138 12.5952 19.0334 12.6018L22.2252 13.6662L19.0334 14.7306C19.0138 14.7372 18.9943 14.7439 18.9749 14.7508C18.0932 15.0643 17.3984 15.759 17.0849 16.6408C17.078 16.6602 17.0713 16.6797 17.0648 16.6992L16.0004 19.891L14.9359 16.6992C14.9294 16.6797 14.9227 16.6602 14.9158 16.6408C14.6023 15.759 13.9075 15.0643 13.0258 14.7508C13.0064 14.7439 12.9869 14.7372 12.9673 14.7306L9.77554 13.6662L12.9673 12.6018C12.9869 12.5952 13.0064 12.5885 13.0258 12.5816C13.9075 12.2681 14.6023 11.5734 14.9158 10.6916C14.9227 10.6722 14.9294 10.6527 14.9359 10.6332L16.0004 7.44139L17.0648 10.6332Z"
          fill="currentColor"/>
    <path d="M23.934 20.5713C23.934 20.0032 23.4735 19.5427 22.9054 19.5427C22.3374 19.5427 21.8769 20.0032 21.8769 20.5713V21.877H20.5715C20.0034 21.877 19.5429 22.3375 19.5429 22.9056C19.5429 23.4736 20.0034 23.9341 20.5715 23.9341H21.8769V25.2399C21.8769 25.808 22.3374 26.2685 22.9054 26.2685C23.4735 26.2685 23.934 25.808 23.934 25.2399V23.9341H25.2401C25.8081 23.9341 26.2686 23.4736 26.2686 22.9056C26.2686 22.3375 25.8081 21.877 25.2401 21.877H23.934V20.5713Z"
          fill="currentColor"/>
    <path d="M9.44183 19.4284C9.44183 18.8604 8.98133 18.3999 8.41326 18.3999C7.8452 18.3999 7.38469 18.8604 7.38469 19.4284V19.9562H6.85718C6.28912 19.9562 5.82861 20.4167 5.82861 20.9848C5.82861 21.5529 6.28912 22.0134 6.85718 22.0134H7.38469V22.5408C7.38469 23.1089 7.8452 23.5694 8.41326 23.5694C8.98133 23.5694 9.44183 23.1089 9.44183 22.5408V22.0134H9.96959C10.5377 22.0134 10.9982 21.5529 10.9982 20.9848C10.9982 20.4167 10.5377 19.9562 9.96959 19.9562H9.44183V19.4284Z"
          fill="currentColor"/>
    <path fill-rule="evenodd" clip-rule="evenodd"
          d="M8.21899 0.966278C4.21327 0.966278 0.965607 4.21395 0.965607 8.21966V23.7817C0.965607 27.7874 4.21327 31.0351 8.21899 31.0351H23.781C27.7867 31.0351 31.0344 27.7874 31.0344 23.7817V8.21966C31.0344 4.21395 27.7867 0.966278 23.781 0.966278H8.21899ZM3.02275 8.21966C3.02275 5.35007 5.3494 3.02342 8.21899 3.02342H23.781C26.6506 3.02342 28.9773 5.35007 28.9773 8.21966V23.7817C28.9773 26.6513 26.6506 28.9779 23.781 28.9779H8.21899C5.3494 28.9779 3.02275 26.6513 3.02275 23.7817V8.21966Z"
          fill="currentColor"/>

</svg>
