<svg width="40" height="40" viewBox="0 0 40 40" fill="none"
     xmlns="http://www.w3.org/2000/svg">
    <path fill-rule="evenodd" clip-rule="evenodd"
          d="M19.9962 1C9.5208 1 1 9.5163 1 19.9924C1 30.4685 9.5208 39 19.9962 39C30.4716 39 39 30.466 39 19.9924C39 9.5163 30.4716 1 19.9962 1ZM19.9962 4.16709C28.7596 4.16709 35.8331 11.2284 35.8331 19.9924C35.8331 28.7564 28.7596 35.8304 19.9962 35.8304C11.2328 35.8304 4.16688 28.7564 4.16688 19.9924C4.16688 11.2284 11.2303 4.16709 19.9962 4.16709ZM20.0086 10.756C19.588 10.756 19.1847 10.9217 18.8878 11.2162C18.5884 11.5131 18.4202 11.9164 18.4202 12.337V21.9821C18.4177 22.4027 18.586 22.8085 18.8829 23.1078C19.1822 23.4047 19.588 23.573 20.0086 23.5705C20.4292 23.5681 20.8325 23.3998 21.1269 23.1029C21.4237 22.8035 21.587 22.4002 21.587 21.9821V12.337C21.5846 11.4661 20.8795 10.7609 20.0086 10.756ZM20.0086 25.2923C19.4395 25.2898 18.8928 25.5174 18.4895 25.9183C18.0862 26.3216 17.8611 26.8709 17.8635 27.4399C17.8685 28.6202 18.8284 29.5728 20.0086 29.5678C21.1813 29.5629 22.1314 28.6128 22.1363 27.4399C22.1413 26.2597 21.1887 25.2997 20.0086 25.2923Z"
          fill="currentColor"/>
</svg>
