<svg width="17" height="20" viewBox="0 0 17 20" fill="none"
     xmlns="http://www.w3.org/2000/svg">
    <path d="M8.49769 19.6334C8.0085 19.6334 7.51932 19.4569 7.12901 19.1038L3.02892 15.3929C1.73778 14.2248 0.998047 12.5528 0.998047 10.8071V4.1567C0.998047 3.14884 1.70881 2.29781 2.68973 2.13241C3.43201 2.00729 4.17432 1.83502 4.89609 1.62163C6.02956 1.28569 7.13671 0.84003 8.18655 0.297526C8.38257 0.196397 8.61436 0.196397 8.80954 0.297526C9.85949 0.84003 10.9665 1.28481 12.1 1.62163C12.8218 1.83589 13.5641 2.00729 14.3064 2.13241C15.2864 2.29867 15.998 3.14884 15.998 4.1567V10.8055C15.998 12.5521 15.2575 14.2242 13.9672 15.3914L9.86708 19.1023C9.47675 19.4554 8.98759 19.6319 8.49841 19.6319L8.49769 19.6334ZM8.49769 1.67534C7.46563 2.18612 6.385 2.60949 5.2814 2.93688C4.50757 3.16656 3.7116 3.35081 2.91555 3.48537C2.59425 3.53936 2.3616 3.82219 2.3616 4.15727V10.8061C2.3616 12.1645 2.9377 13.4645 3.94164 14.3731L8.04173 18.084C8.30166 18.3188 8.69369 18.3188 8.95362 18.084L13.0537 14.3731C14.0577 13.4646 14.6338 12.1637 14.6338 10.8061L14.6346 4.1564C14.6346 3.82131 14.4011 3.53848 14.0806 3.48449C13.2847 3.34994 12.4887 3.16568 11.7148 2.936C10.6112 2.60861 9.53134 2.18524 8.49852 1.67446L8.49769 1.67534ZM8.29826 11.6768L12.389 7.56309C12.6557 7.29483 12.6557 6.86205 12.389 6.59379C12.1222 6.32553 11.6919 6.32553 11.4251 6.59379L7.81676 10.2224L6.25376 8.65062C5.987 8.38236 5.55664 8.38236 5.28988 8.65062C5.02312 8.91887 5.02312 9.35166 5.28988 9.61991L7.33523 11.6768C7.46818 11.8105 7.6429 11.8773 7.81759 11.8773C7.9923 11.8773 8.16701 11.8105 8.29994 11.6768L8.29826 11.6768Z"
          fill="currentColor" stroke="currentColor" stroke-width="0.2"/>
</svg>
