<svg width="32" height="32" viewBox="0 0 32 32" fill="none"
     xmlns="http://www.w3.org/2000/svg">
    <path d="M17.1314 3.66858C16.5066 3.04374 15.4935 3.04374 14.8687 3.66858C14.2438 4.29342 14.2438 5.30648 14.8687 5.93132L23.3372 14.3999H4.79995C3.9163 14.3999 3.19995 15.1162 3.19995 15.9999C3.19995 16.8836 3.9163 17.5999 4.79995 17.5999H23.3373L14.8687 26.0686C14.2438 26.6934 14.2438 27.7065 14.8687 28.3313C15.4935 28.9562 16.5066 28.9562 17.1314 28.3313L28.3314 17.1313C28.5137 16.9491 28.6428 16.7338 28.7187 16.5047C28.7544 16.3971 28.7791 16.2844 28.7912 16.168C28.8026 16.0595 28.8029 15.9502 28.7922 15.8417C28.7789 15.7058 28.7485 15.5748 28.7033 15.4511C28.6259 15.2385 28.5019 15.0391 28.3314 14.8686L17.1314 3.66858Z"
          fill="currentColor"/>
</svg>
