<svg width="32" height="32" viewBox="0 0 32 32" fill="none"
     xmlns="http://www.w3.org/2000/svg">
    <path d="M19.2 4C19.2 4.44183 19.5582 4.8 20 4.8H26.0686L19.4343 11.4343C19.1219 11.7467 19.1219 12.2533 19.4343 12.5657C19.7467 12.8781 20.2533 12.8781 20.5657 12.5657L27.2 5.93138V12C27.2 12.4418 27.5582 12.8 28 12.8C28.4418 12.8 28.8 12.4418 28.8 12V4C28.8 3.9862 28.7997 3.97247 28.799 3.95884C28.7942 3.86535 28.7734 3.7761 28.7393 3.69378C28.7003 3.59942 28.6424 3.51102 28.5657 3.43432C28.489 3.35762 28.4006 3.29975 28.3062 3.26071C28.2119 3.22159 28.1085 3.2 28 3.2H20C19.5582 3.2 19.2 3.55818 19.2 4Z"
          fill="currentColor"/>
    <path d="M4.80001 20C4.80001 19.5582 4.44184 19.2 4.00001 19.2C3.55818 19.2 3.20001 19.5582 3.20001 20V28C3.20001 28.1085 3.2216 28.2119 3.26072 28.3062C3.29976 28.4006 3.35763 28.489 3.43433 28.5657C3.51103 28.6424 3.59943 28.7003 3.69379 28.7393C3.7761 28.7734 3.86536 28.7942 3.95884 28.799C3.97248 28.7997 3.98621 28.8 4.00001 28.8H12C12.4418 28.8 12.8 28.4418 12.8 28C12.8 27.5582 12.4418 27.2 12 27.2H5.93138L12.5657 20.5657C12.8781 20.2533 12.8781 19.7467 12.5657 19.4343C12.2533 19.1219 11.7467 19.1219 11.4343 19.4343L4.80001 26.0686V20Z"
          fill="currentColor"/>
</svg>
