<svg width="32" height="32" viewBox="0 0 32 32" fill="none"
     xmlns="http://www.w3.org/2000/svg">
    <path fill-rule="evenodd" clip-rule="evenodd"
          d="M19.2053 21.02C15.103 24.1159 9.24235 23.7949 5.50461 20.0572C1.41578 15.9684 1.41578 9.33907 5.50461 5.25024C9.59343 1.16142 16.2227 1.16142 20.3116 5.25024C24.094 9.03273 24.3774 14.9893 21.1617 19.0975L29.1668 27.2121C29.6987 27.7513 29.6928 28.6196 29.1536 29.1515C28.6144 29.6835 27.7461 29.6776 27.2142 29.1384L19.2053 21.02ZM7.4441 7.18974C10.4618 4.17206 15.3544 4.17206 18.3721 7.18974C21.371 10.1887 21.3896 15.0393 18.4279 18.0613C18.3883 18.0926 18.3499 18.1264 18.3131 18.1627C18.2777 18.1976 18.2447 18.2339 18.2139 18.2715C15.1858 21.1345 10.4096 21.0832 7.4441 18.1177C4.42643 15.1 4.42643 10.2074 7.4441 7.18974Z"
          fill="currentColor"/>
</svg>
