<svg width="22" height="23" viewBox="0 0 22 23" fill="none" xmlns="http://www.w3.org/2000/svg">
    <path d="M11 0.988647C12.0098 0.988647 12.9837 1.11755 13.9219 1.37537C14.86 1.63318 15.7337 2.00557 16.543 2.49255C17.3522 2.97953 18.0934 3.55245 18.7666 4.2113C19.4398 4.87016 20.0163 5.61137 20.4961 6.43494C20.9759 7.2585 21.3447 8.13578 21.6025 9.06677C21.8604 9.99776 21.9928 10.9717 22 11.9886C22 12.9984 21.8711 13.9724 21.6133 14.9105C21.3555 15.8487 20.9831 16.7224 20.4961 17.5316C20.0091 18.3409 19.4362 19.0821 18.7773 19.7552C18.1185 20.4284 17.3773 21.0049 16.5537 21.4847C15.7301 21.9646 14.8529 22.3334 13.9219 22.5912C12.9909 22.849 12.0169 22.9815 11 22.9886C9.99023 22.9886 9.01628 22.8597 8.07812 22.6019C7.13997 22.3441 6.26628 21.9717 5.45703 21.4847C4.64779 20.9978 3.90658 20.4248 3.2334 19.766C2.56022 19.1071 1.98372 18.3659 1.50391 17.5424C1.02409 16.7188 0.655273 15.8415 0.397461 14.9105C0.139648 13.9795 0.00716146 13.0056 0 11.9886C0 10.9789 0.128906 10.0049 0.386719 9.06677C0.644531 8.12862 1.01693 7.25492 1.50391 6.44568C1.99089 5.63643 2.5638 4.89522 3.22266 4.22205C3.88151 3.54887 4.62272 2.97237 5.44629 2.49255C6.26986 2.01274 7.14714 1.64392 8.07812 1.38611C9.00911 1.1283 9.98307 0.995809 11 0.988647ZM12.2139 11.9886L15.8877 8.31482L14.6738 7.10095L11 10.7748L7.32617 7.10095L6.1123 8.31482L9.78613 11.9886L6.1123 15.6625L7.32617 16.8763L11 13.2025L14.6738 16.8763L15.8877 15.6625L12.2139 11.9886Z"
          fill="currentColor"/>
</svg>
