<svg id="Layer_1" data-name="Layer 1" xmlns="http://www.w3.org/2000/svg" viewBox="0 0 128 128"><defs><style>.cls-1{fill:#8c8880;}.cls-2{fill:#666054;}.cls-3{fill:#5b5446;}.cls-4{fill:#544c3e;}.cls-10,.cls-17,.cls-20,.cls-23,.cls-5,.cls-7{fill:none;}.cls-10,.cls-17,.cls-20,.cls-23,.cls-5{stroke:#333;}.cls-10,.cls-17,.cls-5,.cls-7{stroke-linejoin:round;}.cls-23,.cls-5{stroke-width:4px;}.cls-6{fill:#959fa0;}.cls-7{stroke:#5d6268;}.cls-17,.cls-20,.cls-7{stroke-width:2px;}.cls-8{fill:#626b6b;}.cls-9{fill:#516060;}.cls-10{stroke-width:3px;}.cls-11{fill:#acb6b7;}.cls-12{fill:#90a0a3;}.cls-13{fill:#7f9193;}.cls-14{fill:#b5c1c6;}.cls-15{fill:#a1acb2;}.cls-16{fill:#333;}.cls-18{fill:#ccc;}.cls-19{fill:#aaa;}.cls-20,.cls-23{stroke-miterlimit:10;}.cls-21{fill:#708eba;}.cls-22{fill:#82a6d1;}</style></defs><title>robot-02</title><path class="cls-1" d="M99.08,92.54C88,89.79,82.66,88,64,88a130.41,130.41,0,0,0-35,4.56c-6.86,1.72-5.85,1.89-9,11.43a103.78,103.78,0,0,0,44,10c24.18,0,43.56-9.63,44-10C106,98.84,105.29,94.1,99.08,92.54Z"/><path class="cls-2" d="M41.77,89.78l24.15,24.15c23.27-.49,41.65-9.6,42.08-10-2-5.14-2.71-9.88-8.92-11.44C88,89.79,82.66,88,64,88A126.42,126.42,0,0,0,41.77,89.78Z"/><path class="cls-2" d="M99.08,98.57C88,95.81,82.66,94,64,94a130.38,130.38,0,0,0-35,4.57c-5.28,1.32-5.9,1.75-7.36,6.22A105.52,105.52,0,0,0,64,114a107.2,107.2,0,0,0,42.11-9.06C104.86,102,103.13,99.58,99.08,98.57Z"/><path class="cls-3" d="M99.08,98.57C88,95.81,82.66,94,64,94a134.25,134.25,0,0,0-17,1l18.92,18.92a108.71,108.71,0,0,0,38.56-8.31l.06,0,1.22-.53L106,105l.08,0C104.85,102,103.13,99.58,99.08,98.57Z"/><path class="cls-4" d="M78.79,90.13a14.17,14.17,0,0,0-.09-1.6C74.77,88.17,70.11,88,64,88a135.25,135.25,0,0,0-14.93.76c0,.46-.07.92-.07,1.39a14.9,14.9,0,0,0,29.79,0Z"/><path class="cls-5" d="M99.08,92.54C88,89.79,82.66,88,64,88a130.41,130.41,0,0,0-35,4.56c-6.86,1.72-5.85,1.89-9,11.43a103.78,103.78,0,0,0,44,10c24.18,0,43.56-9.63,44-10C106,98.84,105.29,94.1,99.08,92.54Z"/><path class="cls-6" d="M54,80H74a0,0,0,0,1,0,0V90a10,10,0,0,1-10,10h0A10,10,0,0,1,54,90V80A0,0,0,0,1,54,80Z"/><path class="cls-7" d="M74,84c-2.7,2.67-17.3,2.67-20,0"/><path class="cls-7" d="M74,88c-2.7,2.67-17.3,2.67-20,0"/><path class="cls-7" d="M74,92c-2.7,2.67-17.3,2.67-20,0"/><path class="cls-5" d="M54,80H74a0,0,0,0,1,0,0V90a10,10,0,0,1-10,10h0A10,10,0,0,1,54,90V80A0,0,0,0,1,54,80Z"/><ellipse class="cls-8" cx="64" cy="76.69" rx="17.69" ry="8.45"/><path class="cls-9" d="M64,68.24c-9.77,0-17.69,3.78-17.69,8.45,0,2.21,1.79,4.22,4.71,5.72A12.81,12.81,0,0,0,54.94,81l2.55-1.42a13.35,13.35,0,0,1,13,0L73.06,81A12.81,12.81,0,0,0,77,82.41c2.92-1.5,4.71-3.51,4.71-5.72C81.69,72,73.77,68.24,64,68.24Z"/><ellipse class="cls-5" cx="64" cy="77" rx="18" ry="9"/><path class="cls-1" d="M45.24,105.49H88.8a5.47,5.47,0,0,1,2.32.52,5.43,5.43,0,0,0-5.34-4.45H42.22A5.43,5.43,0,0,0,36.79,107v2.94c1,.26,2,.51,3,.75A5.43,5.43,0,0,1,45.24,105.49Z"/><path class="cls-1" d="M64,114a103.56,103.56,0,0,0,26-3.48V106a4,4,0,0,0-4-4H42a4,4,0,0,0-4,4v4.51A102.71,102.71,0,0,0,64,114Z"/><path class="cls-2" d="M64,114a103.56,103.56,0,0,0,26-3.48V106H44a2,2,0,0,0-2,2v3.48A101.46,101.46,0,0,0,64,114Z"/><path class="cls-10" d="M64,114a103.56,103.56,0,0,0,26-3.48V106a4,4,0,0,0-4-4H42a4,4,0,0,0-4,4v4.51A102.71,102.71,0,0,0,64,114Z"/><path class="cls-11" d="M96,78H79a9.85,9.85,0,0,1-5.46-1.66l-4.07-2.72a9.79,9.79,0,0,0-10.9,0l-4.07,2.72A9.85,9.85,0,0,1,49,78H32a8,8,0,0,1-8-8V40a8,8,0,0,1,8-8H96a8,8,0,0,1,8,8V70A8,8,0,0,1,96,78Z"/><path class="cls-12" d="M34,38a4,4,0,0,0-4,4V76a7.42,7.42,0,0,0,.22,1.78A7.42,7.42,0,0,0,32,78H49a9.85,9.85,0,0,0,5.46-1.66l4.06-2.72a9.82,9.82,0,0,1,10.92,0l4.06,2.72A9.85,9.85,0,0,0,79,78H96a8,8,0,0,0,8-8V40a7.42,7.42,0,0,0-.22-1.78A7.42,7.42,0,0,0,102,38Z"/><path class="cls-13" d="M30,54H58a0,0,0,0,1,0,0V68a4,4,0,0,1-4,4H34a4,4,0,0,1-4-4V54A0,0,0,0,1,30,54Z"/><circle class="cls-14" cx="44.05" cy="54.05" r="14"/><circle class="cls-15" cx="44.05" cy="54.05" r="10"/><circle class="cls-16" cx="44.05" cy="54.05" r="7"/><circle class="cls-17" cx="44.05" cy="54.05" r="14"/><circle class="cls-18" cx="41.91" cy="51.86" r="2"/><circle class="cls-19" cx="46.64" cy="56.58" r="1"/><path class="cls-13" d="M70,54H98a0,0,0,0,1,0,0V68a4,4,0,0,1-4,4H74a4,4,0,0,1-4-4V54A0,0,0,0,1,70,54Z"/><circle class="cls-14" cx="84" cy="54.05" r="14"/><circle class="cls-15" cx="84" cy="54.05" r="10"/><circle class="cls-17" cx="84" cy="54.05" r="14"/><circle class="cls-16" cx="84" cy="54.05" r="7"/><circle class="cls-18" cx="81.86" cy="51.86" r="2"/><circle class="cls-19" cx="86.6" cy="56.58" r="1"/><line class="cls-5" x1="64" y1="26" x2="64" y2="31.97"/><path class="cls-5" d="M96,78H79a9.85,9.85,0,0,1-5.46-1.66l-4.07-2.72a9.79,9.79,0,0,0-10.9,0l-4.07,2.72A9.85,9.85,0,0,1,49,78H32a8,8,0,0,1-8-8V40a8,8,0,0,1,8-8H96a8,8,0,0,1,8,8V70A8,8,0,0,1,96,78Z"/><line class="cls-20" x1="60" y1="80" x2="68" y2="80"/><circle class="cls-21" cx="64" cy="20" r="6"/><path class="cls-22" d="M61,22.81a6,6,0,0,1,8.29-5.55,6,6,0,1,0-7.6,8.28A6,6,0,0,1,61,22.81Z"/><circle class="cls-23" cx="64" cy="20" r="6"/></svg>