<svg height="512pt" viewBox="0 0 512 512.00001" width="512pt" xmlns="http://www.w3.org/2000/svg"><path d="m512 256c0 141.386719-114.617188 256-256 256-141.386719 0-256-114.613281-256-256 0-141.382812 114.613281-256 256-256 141.382812 0 256 114.617188 256 256zm0 0" fill="#673389"/><path d="m422.800781 166.804688c0 76.335937-51.28125 140.699218-121.273437 160.507812-14.472656 4.101562-29.742188 6.289062-45.523438 6.289062-92.125 0-166.804687-74.679687-166.804687-166.796874-.003907-92.125 74.675781-166.804688 166.804687-166.804688 15.78125 0 31.046875 2.1875 45.523438 6.289062 69.988281 19.8125 121.273437 84.171876 121.273437 160.515626zm0 0" fill="#151a1c"/><path d="m422.800781 166.804688c0 76.335937-51.28125 140.699218-121.273437 160.507812-69.996094-19.800781-121.28125-84.171875-121.28125-160.507812 0-76.34375 51.285156-140.703126 121.28125-160.515626 69.988281 19.8125 121.273437 84.171876 121.273437 160.515626zm0 0" fill="#2f373b"/><path d="m382.121094 449.578125v29.246094c-34.949219 19.832031-75.03125 31.671875-117.757813 33.039062-2.78125.09375-5.558593.136719-8.359375.136719-2.800781 0-5.589844-.042969-8.359375-.136719-24.042969-.773437-47.238281-4.859375-69.171875-11.816406-17.03125-5.402344-33.300781-12.550781-48.589844-21.222656v-29.246094c0-49.914063 38.445313-90.867187 87.355469-94.816406 2.570313-.207031 5.160157-.3125 7.785157-.3125h61.949218c7.328125 0 14.453125.816406 21.296875 2.382812 42.296875 9.675781 73.851563 47.53125 73.851563 92.746094zm0 0" fill="#dd104f"/><path d="m382.121094 449.578125v29.246094c-30.773438 17.460937-65.515625 28.722656-102.546875 32.089843-7.761719.71875-15.628907 1.085938-23.570313 1.085938-7.953125 0-15.820312-.367188-23.585937-1.078125-18.628907-1.703125-36.683594-5.398437-53.945313-10.875v-50.46875c0-52.539063 42.597656-95.128906 95.148438-95.128906h13.351562c52.558594 0 95.148438 42.589843 95.148438 95.128906zm0 0" fill="#f73b6c"/><path d="m264.363281 379.015625v132.847656c-2.78125.09375-5.558593.136719-8.359375.136719-2.800781 0-5.589844-.042969-8.359375-.136719v-132.847656zm0 0" fill="#dd104f"/><path d="m255.992188 393.394531-42.832032 23.800781-13.027344-60.601562 26.613282-15.675781" fill="#f2efea"/><path d="m255.992188 393.394531 42.828124 23.800781 13.03125-60.601562-26.613281-15.675781" fill="#f2efea"/><path d="m162.882812 249.535156c0 15.714844-11.476562 28.742188-26.507812 31.160156-1.640625.265626-3.332031.40625-5.054688.40625-17.4375 0-31.566406-14.128906-31.566406-31.566406s14.128906-31.566406 31.566406-31.566406c1.722657 0 3.414063.140625 5.054688.40625 15.03125 2.417969 26.507812 15.449219 26.507812 31.160156zm0 0" fill="#d39272"/><path d="m162.882812 249.535156c0 15.714844-11.476562 28.742188-26.507812 31.160156-2.730469-9.925781-4.1875-20.375-4.1875-31.160156s1.457031-21.230468 4.1875-31.160156c15.03125 2.417969 26.507812 15.449219 26.507812 31.160156zm0 0" fill="#bf7c5e"/><path d="m142.601562 249.535156c0 6.230469-5.050781 11.28125-11.28125 11.28125-6.230468 0-11.28125-5.050781-11.28125-11.28125 0-6.230468 5.050782-11.28125 11.28125-11.28125 6.230469 0 11.28125 5.050782 11.28125 11.28125zm0 0" fill="#bf7c5e"/><path d="m349.101562 249.535156c0 15.714844 11.476563 28.742188 26.507813 31.160156 1.644531.265626 3.332031.40625 5.058594.40625 17.4375 0 31.5625-14.128906 31.5625-31.566406s-14.125-31.566406-31.5625-31.566406c-1.726563 0-3.414063.140625-5.058594.40625-15.03125 2.417969-26.507813 15.449219-26.507813 31.160156zm0 0" fill="#d39272"/><path d="m349.101562 249.535156c0 15.714844 11.476563 28.742188 26.507813 31.160156 2.730469-9.925781 4.191406-20.375 4.191406-31.160156s-1.457031-21.230468-4.191406-31.160156c-15.03125 2.417969-26.507813 15.449219-26.507813 31.160156zm0 0" fill="#bf7c5e"/><path d="m391.949219 249.535156c0 6.230469-5.050781 11.28125-11.28125 11.28125s-11.28125-5.050781-11.28125-11.28125c0-6.230468 5.050781-11.28125 11.28125-11.28125s11.28125 5.050782 11.28125 11.28125zm0 0" fill="#bf7c5e"/><path d="m289.9375 317.804688v41.652343c0 15.25-10.054688 28.140625-23.90625 32.421875-3.167969.984375-6.546875 1.515625-10.042969 1.515625-18.742187 0-33.9375-15.191406-33.9375-33.9375v-41.652343zm0 0" fill="#bf7c5e"/><path d="m289.9375 356.820312v2.636719c0 15.25-10.054688 28.140625-23.90625 32.421875-12.496094-3.839844-21.890625-14.707031-23.625-28 2.265625.136719 4.546875.207032 6.835938.207032 6.421874 0 12.71875-.507813 18.851562-1.515626 7.554688-1.214843 14.855469-3.160156 21.84375-5.75zm0 0" fill="#d39272"/><path d="m373.441406 232.761719c0 58.441406-42.695312 106.921875-98.597656 115.921875-6.132812 1.011718-12.425781 1.511718-18.851562 1.511718-64.867188 0-117.445313-52.578124-117.445313-117.433593 0-22.027344 6.058594-42.644531 16.625-60.261719h201.644531c10.5625 17.617188 16.625 38.234375 16.625 60.261719zm0 0" fill="#bf7c5e"/><path d="m373.441406 232.761719c0 58.441406-42.695312 106.921875-98.597656 115.921875-55.902344-9-98.597656-57.480469-98.597656-115.921875 0-22.027344 6.0625-42.644531 16.625-60.261719h163.945312c8.660156 14.453125 14.304688 30.921875 16.046875 48.546875.378907 3.855469.578125 7.765625.578125 11.714844zm0 0" fill="#d39272"/><path d="m122.875 131.753906h32.449219v87.058594h-32.449219zm0 0" fill="#151a1c"/><path d="m356.085938 131.753906h32.449218v87.058594h-32.449218zm0 0" fill="#2f373b"/><g fill="#bf7c5e"><path d="m335.933594 263.597656c0 8.078125-6.550782 14.625-14.628906 14.625-8.078126 0-14.628907-6.546875-14.628907-14.625 0-8.082031 6.550781-14.628906 14.628907-14.628906 8.078124 0 14.628906 6.546875 14.628906 14.628906zm0 0"/><path d="m205.320312 263.597656c0 8.078125-6.546874 14.625-14.628906 14.625-8.078125 0-14.628906-6.546875-14.628906-14.625 0-8.082031 6.550781-14.628906 14.628906-14.628906 8.082032 0 14.628906 6.546875 14.628906 14.628906zm0 0"/><path d="m319.066406 222.84375c0-10.773438-8.730468-19.507812-19.503906-19.507812s-19.507812 8.734374-19.507812 19.507812"/><path d="m231.949219 222.84375c0-10.773438-8.734375-19.507812-19.507813-19.507812-10.769531 0-19.503906 8.734374-19.503906 19.507812"/></g><path d="m225.765625 231.148438c0 7.355468-5.964844 13.320312-13.320313 13.320312-7.359374 0-13.324218-5.964844-13.324218-13.320312 0-7.359376 5.964844-13.324219 13.324218-13.324219 7.355469 0 13.320313 5.964843 13.320313 13.324219zm0 0" fill="#2f373b"/><path d="m312.882812 231.148438c0 7.355468-5.964843 13.320312-13.320312 13.320312-7.359375 0-13.324219-5.964844-13.324219-13.320312 0-7.359376 5.964844-13.324219 13.324219-13.324219 7.355469 0 13.320312 5.964843 13.320312 13.324219zm0 0" fill="#2f373b"/><path d="m269.324219 264.691406h-26.644531c-3.175782 0-5.746094-2.574218-5.746094-5.75 0-3.171875 2.570312-5.746094 5.746094-5.746094h26.644531c3.175781 0 5.746093 2.574219 5.746093 5.746094 0 3.175782-2.570312 5.75-5.746093 5.75zm0 0" fill="#bf7c5e"/><path d="m256.003906 301.050781c-9.835937 0-19.667968-2.464843-28.632812-7.394531-2.53125-1.386719-3.453125-4.566406-2.0625-7.09375s4.566406-3.449219 7.09375-2.0625c14.777344 8.125 32.421875 8.125 47.199218 0 2.527344-1.386719 5.703126-.46875 7.09375 2.0625 1.390626 2.527344.46875 5.707031-2.0625 7.09375-8.960937 4.929688-18.796874 7.394531-28.628906 7.394531zm0 0" fill="#bf7c5e"/><path d="m223.050781 228.796875c0 3.152344-2.558593 5.707031-5.710937 5.707031s-5.707032-2.554687-5.707032-5.707031 2.554688-5.710937 5.707032-5.710937 5.710937 2.558593 5.710937 5.710937zm0 0" fill="#fff"/><path d="m310.820312 228.796875c0 3.152344-2.554687 5.707031-5.707031 5.707031-3.152343 0-5.707031-2.554687-5.707031-5.707031s2.554688-5.710937 5.707031-5.710937c3.152344 0 5.707031 2.558593 5.707031 5.710937zm0 0" fill="#fff"/><path d="m378.601562 148.53125c0 5.570312-.398437 11.054688-1.179687 16.414062-8.289063-57.132812-59.488281-101.113281-121.429687-101.113281-6.707032 0-13.28125.503907-19.675782 1.515625-15.683594 2.414063-30.363281 7.679688-43.445312 15.214844-31.011719 17.878906-53.101563 48.535156-58.316406 84.34375-.773438-5.351562-1.167969-10.816406-1.167969-16.375 0-42.746094 23.84375-80.164062 59.484375-100.695312 13.09375-7.542969 27.773437-12.8125 43.445312-15.226563 6.394532-1.011719 12.96875-1.511719 19.675782-1.511719 67.722656 0 122.609374 52.578125 122.609374 117.433594zm0 0" fill="#ffe05c"/><path d="m192.871094 47.835938v32.726562c-31.011719 17.878906-53.101563 48.535156-58.316406 84.34375-.773438-5.351562-1.167969-10.816406-1.167969-16.375 0-42.746094 23.84375-80.164062 59.484375-100.695312zm0 0" fill="#e89f18"/></svg>