<svg height="512pt" viewBox="0 0 512 512" width="512pt" xmlns="http://www.w3.org/2000/svg"><path d="m512 256c0 141.386719-114.613281 256-256 256s-256-114.613281-256-256 114.613281-256 256-256 256 114.613281 256 256zm0 0" fill="#27ba9e"/><path d="m161.355469 249.53125c0 15.714844-11.476563 28.742188-26.507813 31.160156-1.644531.269532-3.332031.40625-5.058594.40625-17.433593 0-31.5625-14.128906-31.5625-31.566406 0-17.433594 14.128907-31.5625 31.5625-31.5625 1.726563 0 3.414063.136719 5.058594.40625 15.03125 2.417969 26.507813 15.445312 26.507813 31.15625zm0 0" fill="#f6ba97"/><path d="m161.355469 249.53125c0 15.714844-11.476563 28.742188-26.507813 31.160156-2.730468-9.925781-4.1875-20.375-4.1875-31.160156 0-10.78125 1.457032-21.230469 4.1875-31.15625 15.03125 2.417969 26.507813 15.445312 26.507813 31.15625zm0 0" fill="#eaa27f"/><path d="m141.074219 249.53125c0 6.234375-5.050781 11.285156-11.285157 11.285156-6.230468 0-11.28125-5.050781-11.28125-11.285156 0-6.230469 5.050782-11.28125 11.28125-11.28125 6.234376 0 11.285157 5.050781 11.285157 11.28125zm0 0" fill="#eaa27f"/><path d="m350.640625 249.53125c0 15.714844 11.476563 28.742188 26.507813 31.160156 1.644531.269532 3.332031.40625 5.058593.40625 17.4375 0 31.5625-14.128906 31.5625-31.566406 0-17.433594-14.125-31.5625-31.5625-31.5625-1.726562 0-3.414062.136719-5.058593.40625-15.03125 2.417969-26.507813 15.445312-26.507813 31.15625zm0 0" fill="#f6ba97"/><path d="m350.640625 249.53125c0 15.714844 11.476563 28.742188 26.507813 31.160156 2.730468-9.925781 4.191406-20.375 4.191406-31.160156 0-10.78125-1.457032-21.230469-4.191406-31.15625-15.03125 2.417969-26.507813 15.445312-26.507813 31.15625zm0 0" fill="#eaa27f"/><path d="m393.488281 249.53125c0 6.234375-5.050781 11.285156-11.28125 11.285156s-11.28125-5.050781-11.28125-11.285156c0-6.230469 5.050781-11.28125 11.28125-11.28125s11.28125 5.050781 11.28125 11.28125zm0 0" fill="#eaa27f"/><path d="m438.515625 354.5c0 33.09375-26.824219 59.914062-59.914063 59.914062h-245.195312c-16.542969 0-31.527344-6.707031-42.371094-17.542968-10.835937-10.84375-17.542968-25.820313-17.542968-42.371094 33.089843 0 59.914062-26.820312 59.914062-59.902344v-114.9375c0-33.855468 13.71875-64.503906 35.914062-86.695312 22.054688-22.070313 52.472657-35.757813 86.085938-35.902344.199219-.011719.398438-.011719.597656-.011719 67.707032 0 122.597656 54.898438 122.597656 122.609375v114.9375c0 16.539063 6.707032 31.515625 17.542969 42.359375 10.847657 10.835938 25.832031 17.542969 42.371094 17.542969zm0 0" fill="#f73b6c"/><path d="m244.507812 371.984375-100.421874 42.429687h-10.679688c-16.542969 0-31.527344-6.707031-42.371094-17.542968-10.835937-10.84375-17.542968-25.820313-17.542968-42.371094 33.089843 0 59.914062-26.820312 59.914062-59.902344v-114.9375c0-33.855468 13.71875-64.503906 35.914062-86.695312 22.054688-22.070313 52.472657-35.757813 86.085938-35.902344-37.46875 1.347656-79.621094 129.085938-29.453125 142.523438 50.425781 13.5 18.554687 172.398437 18.554687 172.398437zm0 0" fill="#dd104f"/><path d="m382.121094 449.578125v29.246094c-15.035156 8.515625-31.011719 15.578125-47.75 20.9375-1.734375.566406-3.46875 1.097656-5.226563 1.621093-6.507812 1.945313-13.132812 3.636719-19.851562 5.046876-2.945313.625-5.902344 1.203124-8.882813 1.714843-14.429687 2.539063-29.265625 3.855469-44.40625 3.855469s-29.980468-1.316406-44.410156-3.847656c-2.976562-.511719-5.933594-1.085938-8.878906-1.710938-7.808594-1.652344-15.464844-3.660156-22.988282-6-.417968-.136718-.835937-.261718-1.253906-.394531-.28125-.085937-.554687-.179687-.835937-.273437-16.730469-5.359376-32.714844-12.421876-47.753907-20.949219v-29.246094c0-35.289063 19.207032-66.089844 47.753907-82.507813 7.742187-4.460937 16.164062-7.855468 25.078125-9.988281 4.710937-1.136719 9.558594-1.921875 14.523437-2.320312 2.570313-.207031 5.160157-.3125 7.785157-.3125h61.949218c7.324219 0 14.453125.816406 21.296875 2.382812.34375.082031.6875.15625 1.023438.238281 8.914062 2.144532 17.335937 5.539063 25.078125 10 28.535156 16.425782 47.75 47.230469 47.75 82.507813zm0 0" fill="#eaa27f"/><path d="m382.121094 449.578125v29.246094c-37.222656 21.117187-80.261719 33.175781-126.121094 33.175781-27.03125 0-53.070312-4.191406-77.53125-11.953125v-50.46875c0-52.539063 42.601562-95.128906 95.148438-95.128906h13.355468c52.554688 0 95.148438 42.589843 95.148438 95.128906zm0 0" fill="#f6ba97"/><path d="m297.101562 356.601562v2.371094c0 18.128906-11.628906 33.90625-28.953124 39.257813-3.917969 1.222656-8.015626 1.839843-12.152344 1.839843-22.664063 0-41.097656-18.433593-41.097656-41.097656v-4.242187c2.320312-.1875 4.660156-.28125 7.03125-.28125h55.945312c6.613281 0 13.050781.742187 19.226562 2.152343zm0 0" fill="#ffe05c"/><path d="m289.941406 317.800781v41.65625c0 15.25-10.054687 28.140625-23.90625 32.421875-3.167968.980469-6.546875 1.515625-10.042968 1.515625-18.742188 0-33.9375-15.195312-33.9375-33.9375v-41.65625zm0 0" fill="#eaa27f"/><path d="m289.941406 356.816406v2.640625c0 15.25-10.054687 28.140625-23.90625 32.421875-12.496094-3.84375-21.890625-14.707031-23.625-28.003906 2.265625.140625 4.546875.210938 6.835938.210938 6.421875 0 12.71875-.511719 18.851562-1.519532 7.554688-1.210937 14.855469-3.15625 21.84375-5.75zm0 0" fill="#f6ba97"/><path d="m358.761719 246.492188c1.339843 49.085937-32.703125 92.636718-80.964844 101.675781-.980469.183593-1.964844.355469-2.953125.511719-.1875.03125-.386719.0625-.574219.097656-5.945312.949218-12.050781 1.417968-18.277343 1.417968-6.976563 0-13.8125-.609374-20.457032-1.773437-49.515625-8.703125-84.230468-53.433594-82.238281-103.671875 1.078125-27.222656 10-48.699219 30.261719-46.984375 41.097656 3.480469 72.445312-23.6875 72.445312-38.828125 0 15.140625 31.34375 42.308594 72.441406 38.828125 20.695313-1.753906 29.554688 20.683594 30.316407 48.726563zm0 0" fill="#eaa27f"/><path d="m358.765625 246.5c1.335937 49.082031-32.707031 92.625-80.964844 101.667969-.980469.183593-1.96875.355469-2.957031.511719-.1875.03125-.386719.0625-.574219.097656-56.175781-8.777344-99.140625-57.386719-99.140625-116.015625v-34.242188c2.558594-.742187 5.371094-1.015625 8.429688-.753906 41.097656 3.480469 72.445312-23.6875 72.445312-38.828125 0 15.140625 31.347656 42.308594 72.441406 38.828125 20.699219-1.753906 29.558594 20.6875 30.320313 48.734375zm0 0" fill="#f6ba97"/><g fill="#eaa27f"><path d="m335.933594 263.59375c0 8.082031-6.550782 14.628906-14.628906 14.628906-8.078126 0-14.628907-6.546875-14.628907-14.628906 0-8.078125 6.550781-14.628906 14.628907-14.628906 8.078124 0 14.628906 6.550781 14.628906 14.628906zm0 0"/><path d="m205.320312 263.59375c0 8.082031-6.550781 14.628906-14.628906 14.628906s-14.628906-6.546875-14.628906-14.628906c0-8.078125 6.550781-14.628906 14.628906-14.628906s14.628906 6.550781 14.628906 14.628906zm0 0"/><path d="m319.066406 222.84375c0-10.773438-8.734375-19.507812-19.503906-19.507812-10.773438 0-19.507812 8.734374-19.507812 19.507812"/><path d="m231.949219 222.84375c0-10.773438-8.734375-19.507812-19.503907-19.507812-10.773437 0-19.507812 8.734374-19.507812 19.507812"/></g><path d="m225.765625 231.144531c0 7.359375-5.964844 13.324219-13.320313 13.324219-7.359374 0-13.324218-5.964844-13.324218-13.324219 0-7.355469 5.964844-13.320312 13.324218-13.320312 7.355469 0 13.320313 5.964843 13.320313 13.320312zm0 0" fill="#2f373b"/><path d="m312.882812 231.144531c0 7.359375-5.964843 13.324219-13.320312 13.324219-7.359375 0-13.324219-5.964844-13.324219-13.324219 0-7.355469 5.964844-13.320312 13.324219-13.320312 7.355469 0 13.320312 5.964843 13.320312 13.320312zm0 0" fill="#2f373b"/><path d="m269.324219 264.6875h-26.644531c-3.175782 0-5.746094-2.570312-5.746094-5.746094 0-3.171875 2.570312-5.746094 5.746094-5.746094h26.644531c3.175781 0 5.746093 2.574219 5.746093 5.746094 0 3.175782-2.570312 5.746094-5.746093 5.746094zm0 0" fill="#eaa27f"/><path d="m256.003906 301.046875c-9.835937 0-19.667968-2.460937-28.632812-7.390625-2.527344-1.390625-3.453125-4.566406-2.0625-7.09375s4.566406-3.449219 7.09375-2.0625c14.777344 8.125 32.421875 8.125 47.199218 0 2.527344-1.390625 5.703126-.46875 7.09375 2.0625 1.390626 2.527344.46875 5.703125-2.0625 7.09375-8.960937 4.929688-18.796874 7.390625-28.628906 7.390625zm0 0" fill="#eaa27f"/><path d="m223.050781 228.796875c0 3.152344-2.558593 5.707031-5.710937 5.707031s-5.707032-2.554687-5.707032-5.707031c0-3.15625 2.554688-5.710937 5.707032-5.710937s5.710937 2.554687 5.710937 5.710937zm0 0" fill="#fff"/><path d="m217.609375 212.394531h103.875v46.8125h-103.875zm0 0" fill="#eaa27f"/><path d="m310.820312 228.796875c0 3.152344-2.554687 5.707031-5.707031 5.707031-3.152343 0-5.707031-2.554687-5.707031-5.707031 0-3.15625 2.554688-5.710937 5.707031-5.710937 3.152344 0 5.707031 2.554687 5.707031 5.710937zm0 0" fill="#fff"/><path d="m403.417969 278.710938c0 4.957031-4.019531 8.972656-8.976563 8.972656-4.957031 0-8.972656-4.015625-8.972656-8.972656 0-4.957032 4.015625-8.976563 8.972656-8.976563 4.957032 0 8.976563 4.019531 8.976563 8.976563zm0 0" fill="#ffe05c"/><path d="m126.539062 278.710938c0 4.957031-4.019531 8.972656-8.976562 8.972656s-8.972656-4.015625-8.972656-8.972656c0-4.957032 4.015625-8.976563 8.972656-8.976563s8.976562 4.019531 8.976562 8.976563zm0 0" fill="#ffe05c"/><path d="m368.101562 208.113281c-.003906-2.796875-.011718-6.039062-.019531-8.769531-.003906-1.902344-1.125-3.636719-2.878906-4.375-11.867187-4.992188-35.015625-8.753906-49.835937-8.753906-16.273438 0-28.253907 3.578125-36.621094 10.941406-2.261719 1.992188-4.210938 4.226562-5.855469 6.695312-.957031 1.441407-2.886719 1.863282-4.382813.996094-3.066406-1.773437-6.542968-2.710937-10.082031-2.710937h-4.832031c-3.539062 0-7.015625.9375-10.078125 2.710937-1.496094.867188-3.429687.445313-4.386719-.996094-1.640625-2.46875-3.59375-4.703124-5.855468-6.695312-8.367188-7.363281-20.347657-10.941406-36.621094-10.941406-14.820313 0-37.96875 3.761718-49.835938 8.753906-1.753906.738281-2.875 2.472656-2.878906 4.378906-.003906 2.730469-.015625 5.96875-.019531 8.765625 0 1.074219.324219 2.101563.867187 3.027344 3.109375 5.308594 1.910156 13.183594 1.910156 21.109375 0 12.511719 5.445313 24.242188 15.335938 33.03125 9.4375 8.386719 21.734375 13.007812 34.621094 13.007812 13.007812 0 25.410156-5.613281 34.925781-15.800781 8.941406-9.574219 14.066406-22.070312 14.066406-34.285156 0-.851563-.015625-1.691406-.050781-2.523437-.242188-5.851563 4.375-10.804688 10.234375-10.832032h.179687.183594c5.855469.027344 10.472656 4.980469 10.230469 10.832032-.035156.828124-.050781 1.671874-.050781 2.523437 0 12.214844 5.128906 24.710937 14.070312 34.285156 9.511719 10.1875 21.917969 15.800781 34.925782 15.800781 12.886718 0 25.179687-4.621093 34.617187-13.007812 9.890625-8.789062 15.339844-20.519531 15.339844-33.03125 0-7.925781-1.203125-15.808594 1.910156-21.113281.542969-.925781.867187-1.953125.867187-3.023438zm0 0" fill="#ffe05c"/><path d="m233.832031 228.203125c0 16.136719-12.144531 32.625-28.484375 37.085937-2.792968.773438-5.695312 1.179688-8.695312 1.179688-20.53125 0-38.136719-15.316406-38.136719-34.21875s10.867187-34.222656 38.136719-34.222656c3.917968 0 7.480468.230468 10.699218.691406 19.214844 2.707031 26.480469 13.300781 26.480469 29.484375zm0 0" fill="#151a1c"/><path d="m353.511719 232.25c0 15.808594-12.308594 29.109375-28.355469 33.039062-3.148438.773438-6.429688 1.179688-9.792969 1.179688-20.53125 0-37.175781-19.371094-37.175781-38.265625 0-18.902344 9.914062-30.175781 37.175781-30.175781 4.453125 0 8.464844.40625 12.070313 1.171875 18.460937 3.929687 26.078125 17.230469 26.078125 33.050781zm0 0" fill="#151a1c"/><path d="m353.511719 232.25c0 15.808594-12.308594 29.109375-28.355469 33.039062 16.664062-26.480468 11.492188-49.644531 2.277344-66.089843 18.460937 3.929687 26.078125 17.230469 26.078125 33.050781zm0 0" fill="#2f373b"/><path d="m233.832031 228.203125c0 16.136719-12.144531 32.625-28.484375 37.085937 16.832032-26.738281 11.386719-50.09375 2.003906-66.570312 19.214844 2.707031 26.480469 13.300781 26.480469 29.484375zm0 0" fill="#2f373b"/><path d="m335.152344 477.800781v21.710938c-24.917969 8.109375-51.523438 12.488281-79.148438 12.488281-27.03125 0-53.070312-4.191406-77.53125-11.953125-.542968-.167969-1.078125-.347656-1.621094-.523437v-21.722657c0-23.375 18.945313-42.320312 42.320313-42.320312 15.796875 0 29.558594 8.664062 36.832031 21.496093 7.273438-12.832031 21.03125-21.496093 36.832032-21.496093 23.375 0 42.316406 18.945312 42.316406 42.320312zm0 0" fill="#2f373b"/></svg>