<svg height="512pt" viewBox="0 0 512 512.00011" width="512pt" xmlns="http://www.w3.org/2000/svg"><path d="m511.777344 256.113281c0 141.320313-114.566406 255.886719-255.890625 255.886719-141.320313 0-255.886719-114.566406-255.886719-255.886719 0-141.324219 114.566406-255.886719 255.886719-255.886719 141.324219 0 255.890625 114.5625 255.890625 255.886719zm0 0" fill="#ffe05c"/><path d="m361.679688 265.492188c15.304687 15.300781 32.078124 58.789062-4.476563 84.898437-36.554687 26.113281 8.355469 88.777344 8.355469 88.777344l-92.957032 37.601562-118.019531-66.84375 20.46875-177.042969" fill="#dd104f"/><path d="m381.957031 449.605469v29.234375c-15.03125 8.511718-31 15.570312-47.730469 20.929687-1.734374.5625-3.46875 1.097657-5.222656 1.617188-6.507812 1.945312-13.128906 3.636719-19.84375 5.046875-2.945312.625-5.902344 1.199218-8.878906 1.710937-14.425781 2.539063-29.253906 3.855469-44.390625 3.855469-15.132813 0-29.964844-1.316406-44.386719-3.84375-2.976562-.511719-5.933594-1.085938-8.878906-1.714844-7.800781-1.648437-15.457031-3.652344-22.976562-5.992187-.417969-.136719-.835938-.261719-1.253907-.398438-.28125-.082031-.554687-.175781-.835937-.273437-16.722656-5.355469-32.699219-12.417969-47.730469-20.9375v-29.234375c0-35.273438 19.195313-66.0625 47.730469-82.46875 7.738281-4.460938 16.15625-7.855469 25.066406-9.984375 4.710938-1.140625 9.558594-1.921875 14.519531-2.320313 2.566407-.210937 5.160157-.3125 7.78125-.3125h61.921875c7.324219 0 14.445313.8125 21.289063 2.378907.34375.085937.6875.15625 1.023437.242187 8.90625 2.140625 17.324219 5.535156 25.066406 9.996094 28.523438 16.417969 47.730469 47.207031 47.730469 82.46875zm0 0" fill="#17a388"/><path d="m381.957031 449.605469v29.234375c-35.40625 20.09375-76.089843 31.980468-119.453125 33.074218-2.203125.054688-4.398437.085938-6.613281.085938-2.210937 0-4.417969-.03125-6.609375-.09375-24.660156-.617188-48.441406-4.734375-70.886719-11.855469v-50.445312c0-52.515625 42.582031-95.085938 95.105469-95.085938h13.347656c52.535156 0 95.109375 42.570313 95.109375 95.085938zm0 0" fill="#27ba9e"/><path d="m289.8125 317.886719v41.636719c0 15.242187-10.046875 28.128906-23.894531 32.40625-3.167969.984374-6.542969 1.515624-10.039063 1.515624-18.734375 0-33.921875-15.1875-33.921875-33.921874v-41.636719zm0 0" fill="#eaa27f"/><path d="m289.8125 356.886719v2.636719c0 15.242187-10.046875 28.128906-23.894531 32.40625-12.488281-3.839844-21.878907-14.699219-23.613281-27.988282 2.265624.140625 4.542968.207032 6.832031.207032 6.421875 0 12.710937-.507813 18.839843-1.515626 7.554688-1.210937 14.851563-3.15625 21.835938-5.746093zm0 0" fill="#f6ba97"/><path d="m161.285156 249.648438c0 15.707031-11.472656 28.730468-26.496094 31.144531-1.644531.269531-3.332031.40625-5.054687.40625-17.429687 0-31.550781-14.121094-31.550781-31.550781 0-17.429688 14.121094-31.550782 31.550781-31.550782 1.722656 0 3.410156.136719 5.054687.40625 15.023438 2.414063 26.496094 15.4375 26.496094 31.144532zm0 0" fill="#f6ba97"/><path d="m161.285156 249.648438c0 15.707031-11.472656 28.730468-26.496094 31.144531-2.730468-9.921875-4.1875-20.367188-4.1875-31.144531 0-10.78125 1.457032-21.222657 4.1875-31.144532 15.023438 2.414063 26.496094 15.4375 26.496094 31.144532zm0 0" fill="#eaa27f"/><path d="m141.011719 249.648438c0 6.226562-5.050781 11.277343-11.277344 11.277343s-11.277344-5.050781-11.277344-11.277343c0-6.226563 5.050781-11.277344 11.277344-11.277344s11.277344 5.050781 11.277344 11.277344zm0 0" fill="#eaa27f"/><path d="m350.488281 249.648438c0 15.707031 11.472657 28.730468 26.496094 31.144531 1.640625.269531 3.332031.40625 5.054687.40625 17.429688 0 31.550782-14.121094 31.550782-31.550781 0-17.429688-14.121094-31.550782-31.550782-31.550782-1.722656 0-3.414062.136719-5.054687.40625-15.023437 2.414063-26.496094 15.4375-26.496094 31.144532zm0 0" fill="#f6ba97"/><path d="m350.488281 249.648438c0 15.707031 11.472657 28.730468 26.496094 31.144531 2.730469-9.921875 4.1875-20.367188 4.1875-31.144531 0-10.78125-1.457031-21.222657-4.1875-31.144532-15.023437 2.414063-26.496094 15.4375-26.496094 31.144532zm0 0" fill="#eaa27f"/><path d="m393.316406 249.648438c0 6.226562-5.050781 11.277343-11.277344 11.277343-6.230468 0-11.277343-5.050781-11.277343-11.277343 0-6.226563 5.046875-11.277344 11.277343-11.277344 6.226563 0 11.277344 5.050781 11.277344 11.277344zm0 0" fill="#eaa27f"/><path d="m373.277344 188.179688v44.703124c0 58.414063-42.675782 106.878907-98.554688 115.871094-.1875.03125-.386718.0625-.574218.09375-5.941407.949219-12.042969 1.421875-18.265626 1.421875-64.828124 0-117.386718-52.558593-117.386718-117.386719v-44.703124c0-13.648438 2.328125-26.769532 6.632812-38.957032 16.054688-45.683594 59.585938-78.4375 110.753906-78.4375h.007813c6.214844 0 12.324219.480469 18.277344 1.421875 56.152343 8.773438 99.109375 57.359375 99.109375 115.972657zm0 0" fill="#eaa27f"/><path d="m373.277344 188.179688v44.703124c0 58.414063-42.675782 106.875-98.554688 115.871094-.1875.03125-.386718.0625-.574218.09375-56.148438-8.773437-99.097657-57.363281-99.097657-115.964844v-44.703124c0-58.613282 42.960938-107.199219 99.117188-115.972657 56.152343 8.773438 99.109375 57.359375 99.109375 115.972657zm0 0" fill="#f6ba97"/><g fill="#eaa27f"><path d="m335.785156 263.703125c0 8.078125-6.546875 14.625-14.621094 14.625-8.074218 0-14.621093-6.546875-14.621093-14.625 0-8.074219 6.546875-14.621094 14.621093-14.621094 8.074219 0 14.621094 6.546875 14.621094 14.621094zm0 0"/><path d="m205.230469 263.703125c0 8.078125-6.546875 14.625-14.621094 14.625s-14.621094-6.546875-14.621094-14.625c0-8.074219 6.546875-14.621094 14.621094-14.621094s14.621094 6.546875 14.621094 14.621094zm0 0"/><path d="m318.925781 222.96875c0-10.769531-8.726562-19.496094-19.496093-19.496094-10.765626 0-19.496094 8.726563-19.496094 19.496094"/><path d="m231.847656 222.96875c0-10.769531-8.730468-19.496094-19.496094-19.496094-10.769531 0-19.496093 8.726563-19.496093 19.496094"/></g><path d="m225.667969 231.269531c0 7.351563-5.960938 13.316407-13.316407 13.316407-7.355468 0-13.316406-5.964844-13.316406-13.316407 0-7.355469 5.960938-13.316406 13.316406-13.316406 7.355469 0 13.316407 5.960937 13.316407 13.316406zm0 0" fill="#2f373b"/><path d="m312.746094 231.269531c0 7.351563-5.960938 13.316407-13.316406 13.316407-7.355469 0-13.316407-5.964844-13.316407-13.316407 0-7.355469 5.960938-13.316406 13.316407-13.316406 7.355468 0 13.316406 5.960937 13.316406 13.316406zm0 0" fill="#2f373b"/><path d="m269.207031 264.796875h-26.632812c-3.171875 0-5.746094-2.570313-5.746094-5.742187 0-3.175782 2.574219-5.746094 5.746094-5.746094h26.632812c3.171875 0 5.746094 2.570312 5.746094 5.746094 0 3.171874-2.574219 5.742187-5.746094 5.742187zm0 0" fill="#eaa27f"/><path d="m255.890625 301.140625c-9.828125 0-19.660156-2.460937-28.621094-7.386719-2.527343-1.390625-3.449219-4.566406-2.058593-7.09375 1.390624-2.527344 4.566406-3.449218 7.089843-2.058594 14.773438 8.121094 32.410157 8.117188 47.179688 0 2.523437-1.390624 5.699219-.46875 7.089843 2.058594 1.390626 2.527344.46875 5.703125-2.0625 7.09375-8.957031 4.925782-18.789062 7.386719-28.617187 7.386719zm0 0" fill="#eaa27f"/><path d="m222.953125 228.917969c0 3.152343-2.554687 5.707031-5.707031 5.707031s-5.707032-2.554688-5.707032-5.707031c0-3.152344 2.554688-5.707031 5.707032-5.707031s5.707031 2.554687 5.707031 5.707031zm0 0" fill="#fff"/><path d="m310.6875 228.917969c0 3.152343-2.554688 5.707031-5.707031 5.707031-3.152344 0-5.707031-2.554688-5.707031-5.707031 0-3.152344 2.554687-5.707031 5.707031-5.707031 3.152343 0 5.707031 2.554687 5.707031 5.707031zm0 0" fill="#fff"/><path d="m376.984375 218.5c-50.195313 0-61.289063-87.753906-61.289063-87.753906 0 33.421875-70.769531 63.503906-101.582031 32.691406 0 0 30.289063 48.046875-36.554687 84.601562 0 0 41.777344 18.765626 20.890625 68.933594-20.890625 50.164063-4.179688 106.53125-4.179688 106.53125s17.953125 46.6875-8.679687 78.71875c-39.195313-11.175781-74.550782-31.457031-103.628906-58.425781 6.390624-41.589844 61.445312-107.96875 47.773437-205.425781-19.84375-141.476563 36.335937-175.199219 108.402344-184.597656 72.066406-9.402344 87.734375 40.730468 87.734375 40.730468 60.574218-14.621094 73.109375 123.996094 51.113281 123.996094zm0 0" fill="#f73b6c"/><path d="m156.671875 249.644531c18.734375 133.554688-32.335937 187.574219-13.515625 236.253907-22.445312-11.039063-43.042969-25.265626-61.195312-42.101563 6.390624-41.589844 61.445312-107.96875 47.773437-205.425781-19.84375-141.476563 36.335937-175.199219 108.402344-184.597656 17.933593-2.339844 32.378906-.992188 43.960937 2.359374-68.714844 13.441407-143.957031 61.433594-125.425781 193.511719zm0 0" fill="#dd104f"/><path d="m403.242188 278.8125c0 4.957031-4.015626 8.972656-8.972657 8.972656-4.953125 0-8.96875-4.015625-8.96875-8.972656 0-4.953125 4.015625-8.96875 8.96875-8.96875 4.957031 0 8.972657 4.015625 8.972657 8.96875zm0 0" fill="#1da2dd"/><path d="m360.417969 119.664062-104.921875 33.570313-63.429688 20.28125-63.429687 20.292969-15.695313-49.046875c-17.078125-53.410157 12.363282-110.550781 65.765625-127.628907l38.394531-12.28125c4.242188-1.359374 8.511719-2.425781 12.785157-3.195312 49.441406-9.058594 99.117187 19.800781 114.835937 68.960938zm0 0" fill="#0c85a5"/><path d="m339.511719 57.5-141.597657 45.289062-24.910156 7.96875c-7.78125-44.871093 15.574219-89.761718 56.882813-109.101562 44.867187-8.222656 89.914062 14.777344 109.625 55.84375zm0 0" fill="#1da2dd"/><path d="m379.898438 162.246094-191.183594 61.164062c-.03125.011719-.074219.019532-.105469.03125l-47.867187 15.3125c-11.351563 3.632813-23.5-2.632812-27.125-13.976562l-15.183594-47.46875c-3.625-11.34375 2.628906-23.488282 13.972656-27.125l47.980469-15.34375 47.972656-15.339844 143.359375-45.851562c11.3125-3.542969 23.363281 2.714843 26.96875 14.015624l15.183594 47.460938c3.636718 11.351562-2.628906 23.5-13.972656 27.121094zm0 0" fill="#0c85a5"/><path d="m379.898438 162.246094-191.183594 61.164062c-.03125.011719-.074219.019532-.105469.03125-11.3125 3.550782-23.394531-2.695312-27.019531-14.015625l-15.175782-47.460937c-3.636718-11.351563 2.621094-23.488282 13.972657-27.125l47.972656-15.339844 143.359375-45.851562c11.3125-3.542969 23.363281 2.714843 26.96875 14.015624l15.183594 47.460938c3.636718 11.351562-2.628906 23.5-13.972656 27.121094zm0 0" fill="#1da2dd"/></svg>