<svg height="512pt" viewBox="0 0 512 512" width="512pt" xmlns="http://www.w3.org/2000/svg"><path d="m512 256c0 141.386719-114.613281 256-256 256s-256-114.613281-256-256 114.613281-256 256-256 256 114.613281 256 256zm0 0" fill="#27ba9e"/><path d="m382.121094 449.578125v29.246094c-25.550782 14.503906-53.84375 24.722656-83.90625 29.707031-6.449219 1.066406-12.96875 1.902344-19.5625 2.476562-4.105469.367188-8.242188.625-12.414063.785157-3.394531.144531-6.8125.207031-10.238281.207031-7.648438 0-15.203125-.335938-22.675781-.992188-18.953125-1.660156-37.3125-5.390624-54.855469-10.960937-17.03125-5.402344-33.300781-12.550781-48.589844-21.222656v-29.246094c0-44.011719 29.886719-81.042969 70.480469-91.898437 1.484375-.398438 2.976563-.761719 4.492187-1.085938 4.035157-.878906 8.171876-1.484375 12.382813-1.828125 2.570313-.210937 5.160156-.316406 7.785156-.316406h61.953125c6.925782 0 13.675782.734375 20.175782 2.144531.375.070312.75.15625 1.117187.238281 1.097656.25 2.195313.523438 3.269531.816407.03125.007812.054688.007812.085938.019531 10.710937 2.863281 20.675781 7.554687 29.539062 13.710937 24.753906 17.175782 40.960938 45.796875 40.960938 78.199219zm0 0" fill="#2f373b"/><path d="m311.851562 356.59375-.230468 1.074219-32.96875 153.339843c-7.460938.65625-15.023438.992188-22.652344.992188-7.648438 0-15.203125-.335938-22.675781-.992188l-32.964844-153.328124-.230469-1.085938zm0 0" fill="#f2efea"/><path d="m255.988281 393.394531-42.828125 23.804688-13.03125-60.605469 26.613282-15.671875" fill="#d8d4ce"/><path d="m255.988281 393.394531 42.832031 23.804688 13.027344-60.605469-26.613281-15.671875" fill="#d8d4ce"/><path d="m289.9375 317.804688v41.652343c0 15.25-10.054688 28.140625-23.90625 32.421875-3.167969.984375-6.546875 1.515625-10.042969 1.515625-18.746093 0-33.9375-15.191406-33.9375-33.9375v-41.652343zm0 0" fill="#eaa27f"/><path d="m289.9375 356.820312v2.640626c0 15.25-10.054688 28.140624-23.90625 32.417968-12.496094-3.839844-21.890625-14.703125-23.625-28 2.265625.140625 4.546875.207032 6.835938.207032 6.421874 0 12.71875-.507813 18.847656-1.515626 7.558594-1.214843 14.859375-3.15625 21.847656-5.75zm0 0" fill="#f6ba97"/><path d="m341.160156 371.378906-27.691406 66.996094h13.585938l-28.839844 70.15625c-6.449219 1.066406-12.96875 1.902344-19.5625 2.476562-4.105469.367188-8.242188.625-12.414063.785157l45.296875-154.144531.316406-1.054688zm0 0" fill="#151a1c"/><path d="m170.507812 371.378906 27.6875 66.996094h-13.582031l28.839844 70.15625c6.445313 1.066406 12.964844 1.902344 19.558594 2.476562 4.105469.367188 8.246093.625 12.414062.785157l-45.296875-154.144531-.3125-1.054688zm0 0" fill="#151a1c"/><path d="m256.003906 392.210938-37.914062-21.886719c-4.796875-2.773438-10.792969.691406-10.792969 6.230469v31.3125c0 5.539062 5.996094 9 10.792969 6.230468zm0 0" fill="#f73b6c"/><path d="m256.003906 392.210938 37.910156-21.886719c4.796876-2.773438 10.792969.691406 10.792969 6.230469v31.3125c0 5.539062-5.996093 9-10.792969 6.230468zm0 0" fill="#f73b6c"/><path d="m265.394531 425.554688c0 5.195312-4.210937 9.402343-9.40625 9.402343-5.191406 0-9.402343-4.207031-9.402343-9.402343 0-5.195313 4.210937-9.402344 9.402343-9.402344 5.195313 0 9.40625 4.207031 9.40625 9.402344zm0 0" fill="#151a1c"/><path d="m265.394531 476.921875c0 5.195313-4.210937 9.402344-9.40625 9.402344-5.191406 0-9.402343-4.207031-9.402343-9.402344s4.210937-9.402344 9.402343-9.402344c5.195313 0 9.40625 4.207031 9.40625 9.402344zm0 0" fill="#151a1c"/><path d="m271.300781 392.582031c0 8.542969-6.925781 15.46875-15.46875 15.46875s-15.46875-6.925781-15.46875-15.46875 6.925781-15.46875 15.46875-15.46875 15.46875 6.925781 15.46875 15.46875zm0 0" fill="#f73b6c"/><path d="m162.886719 249.53125c0 15.714844-11.476563 28.742188-26.507813 31.160156-1.640625.269532-3.332031.40625-5.054687.40625-17.4375 0-31.566407-14.128906-31.566407-31.566406 0-17.433594 14.128907-31.5625 31.566407-31.5625 1.722656 0 3.414062.136719 5.054687.40625 15.03125 2.417969 26.507813 15.445312 26.507813 31.15625zm0 0" fill="#f6ba97"/><path d="m162.886719 249.53125c0 15.714844-11.476563 28.742188-26.507813 31.160156-2.730468-9.925781-4.1875-20.375-4.1875-31.160156 0-10.78125 1.457032-21.230469 4.1875-31.15625 15.03125 2.417969 26.507813 15.445312 26.507813 31.15625zm0 0" fill="#eaa27f"/><path d="m142.605469 249.53125c0 6.234375-5.050781 11.285156-11.28125 11.285156s-11.285157-5.050781-11.285157-11.285156c0-6.230469 5.054688-11.28125 11.285157-11.28125s11.28125 5.050781 11.28125 11.28125zm0 0" fill="#eaa27f"/><path d="m349.105469 249.53125c0 15.714844 11.476562 28.742188 26.507812 31.160156 1.644531.269532 3.332031.40625 5.058594.40625 17.4375 0 31.5625-14.128906 31.5625-31.566406 0-17.433594-14.125-31.5625-31.5625-31.5625-1.726563 0-3.414063.136719-5.058594.40625-15.03125 2.417969-26.507812 15.445312-26.507812 31.15625zm0 0" fill="#f6ba97"/><g fill="#eaa27f"><path d="m349.105469 249.53125c0 15.714844 11.476562 28.742188 26.507812 31.160156 2.730469-9.925781 4.191407-20.375 4.191407-31.160156 0-10.78125-1.457032-21.230469-4.191407-31.15625-15.03125 2.417969-26.507812 15.445312-26.507812 31.15625zm0 0"/><path d="m391.953125 249.53125c0 6.234375-5.050781 11.285156-11.285156 11.285156-6.230469 0-11.28125-5.050781-11.28125-11.285156 0-6.230469 5.050781-11.28125 11.28125-11.28125 6.234375 0 11.285156 5.050781 11.285156 11.28125zm0 0"/><path d="m373.441406 232.753906c0 58.445313-42.695312 106.925782-98.59375 115.929688-6.132812 1.003906-12.429687 1.515625-18.851562 1.515625-64.863282 0-117.441406-52.578125-117.441406-117.445313 0-64.863281 52.578124-117.441406 117.441406-117.441406 6.421875 0 12.71875.507812 18.851562 1.515625 55.898438 9 98.59375 57.484375 98.59375 115.925781zm0 0"/></g><path d="m373.441406 232.753906c0 58.445313-42.695312 106.925782-98.59375 115.929688-55.898437-9.003906-98.59375-57.484375-98.59375-115.929688 0-35.984375 16.1875-68.195312 41.6875-89.742187 15.898438-13.445313 35.429688-22.726563 56.90625-26.183594 52.113282 8.386719 92.761719 51.105469 98.015625 104.21875.382813 3.851563.578125 7.761719.578125 11.707031zm0 0" fill="#f6ba97"/><path d="m255.996094 290.597656c-9.832032 0-19.667969-2.460937-28.628906-7.390625-2.53125-1.390625-3.453126-4.566406-2.0625-7.09375 1.390624-2.53125 4.566406-3.453125 7.09375-2.0625 14.777343 8.125 32.421874 8.121094 47.199218 0 2.523438-1.390625 5.703125-.46875 7.09375 2.0625 1.390625 2.527344.464844 5.703125-2.0625 7.09375-8.960937 4.929688-18.796875 7.390625-28.632812 7.390625zm0 0" fill="#eaa27f"/><path d="m372.863281 221.046875-26.695312 8.265625-1.953125-12.988281-1.578125-10.492188-7.492188-49.820312h-89.046875l-28.640625-13.25c15.945313-13.476563 35.535157-22.789063 57.082031-26.257813 44.273438 7.128906 64.398438-25.976562 77.59375 15.957032 1.035157 3.3125 11.796876-15.445313 12.539063-12.015626.984375 4.417969 7.742187 96.003907 8.191406 100.601563zm0 0" fill="#151a1c"/><path d="m367.753906 53.414062c28.332032 28.332032 28.332032 74.265626 0 102.59375-28.332031 28.332032-74.261718 28.332032-102.59375 0zm0 0" fill="#2f373b"/><path d="m265.160156 156.007812h-89.035156l-11.027344 73.304688-26.695312-8.265625 3.578125-71.828125c1.894531-37.996094 33.328125-67.785156 71.367187-67.644531l128.589844.484375 17 30.601562" fill="#2f373b"/><path d="m262.871094 81.761719c-35.578125 2.542969-64.144532 31.28125-65.953125 67.460937l-.335938 6.789063h-20.464843l-11.027344 73.300781-26.695313-8.265625 3.585938-71.824219c1.890625-38.003906 33.324219-67.785156 71.363281-67.648437zm0 0" fill="#151a1c"/><path d="m230.984375 225.921875c0 7.355469-5.960937 13.320313-13.320313 13.320313-7.359374 0-13.324218-5.964844-13.324218-13.320313 0-7.359375 5.964844-13.324219 13.324218-13.324219 7.359376 0 13.320313 5.964844 13.320313 13.324219zm0 0" fill="#2f373b"/><path d="m307.65625 225.921875c0 7.355469-5.964844 13.320313-13.324219 13.320313s-13.324219-5.964844-13.324219-13.320313c0-7.359375 5.964844-13.324219 13.324219-13.324219s13.324219 5.964844 13.324219 13.324219zm0 0" fill="#2f373b"/><path d="m228.269531 223.570312c0 3.152344-2.554687 5.707032-5.707031 5.707032s-5.707031-2.554688-5.707031-5.707032c0-3.152343 2.554687-5.710937 5.707031-5.710937s5.707031 2.558594 5.707031 5.710937zm0 0" fill="#fff"/><path d="m305.59375 223.570312c0 3.152344-2.554688 5.707032-5.710938 5.707032-3.152343 0-5.707031-2.554688-5.707031-5.707032 0-3.152343 2.554688-5.710937 5.707031-5.710937 3.15625 0 5.710938 2.558594 5.710938 5.710937zm0 0" fill="#fff"/><path d="m269.320312 259.464844h-26.644531c-3.175781 0-5.746093-2.574219-5.746093-5.746094 0-3.175781 2.570312-5.75 5.746093-5.75h26.644531c3.175782 0 5.746094 2.574219 5.746094 5.75 0 3.171875-2.570312 5.746094-5.746094 5.746094zm0 0" fill="#eaa27f"/></svg>