<svg height="512pt" viewBox="0 0 512 512" width="512pt" xmlns="http://www.w3.org/2000/svg"><path d="m512 256c0 141.386719-114.613281 256-256 256s-256-114.613281-256-256 114.613281-256 256-256 256 114.613281 256 256zm0 0" fill="#ffe05c"/><path d="m300.054688 223.542969v118.066406c0 5.769531 4.675781 10.449219 10.445312 10.449219 5.773438 0 10.449219-4.679688 10.449219-10.449219v-118.066406zm0 0" fill="#2f373b"/><path d="m191.035156 223.542969v118.066406c0 5.769531 4.679688 10.449219 10.449219 10.449219s10.449219-4.679688 10.449219-10.449219v-118.066406zm0 0" fill="#2f373b"/><path d="m382.113281 449.578125v29.246094c-37.21875 21.117187-80.261719 33.175781-126.121093 33.175781-27.03125 0-53.070313-4.191406-77.53125-11.953125-17.03125-5.402344-33.300782-12.550781-48.585938-21.222656v-29.246094c0-.347656 0-.691406.007812-1.035156.054688-5.464844.574219-10.816407 1.527344-16.019531 7.574219-41.910157 42.609375-74.269532 85.816406-77.761719 2.570313-.207031 5.164063-.3125 7.785157-.3125h61.953125c7.324218 0 14.449218.816406 21.292968 2.382812 42.296876 9.675781 73.855469 47.53125 73.855469 92.746094zm0 0" fill="#bf7c5e"/><path d="m183.558594 432.523438v16.019531h-53.675782c.054688-5.464844.574219-10.816407 1.527344-16.019531zm0 0" fill="#512375"/><path d="m129.875 459.691406h53.683594v16.019532h-53.683594zm0 0" fill="#512375"/><path d="m382.121094 449.578125v29.246094c-5.746094 3.257812-11.640625 6.300781-17.648438 9.121093-6.464844 3.03125-13.082031 5.800782-19.832031 8.285157-11.785156 4.359375-23.988281 7.867187-36.519531 10.449219-14.773438 3.0625-30.019532 4.847656-45.609375 5.234374-2.160157.054688-4.335938.085938-6.507813.085938-27.03125 0-53.070312-4.191406-77.53125-11.953125v-50.46875c0-6.742187.699219-13.324219 2.035156-19.667969 2.71875-12.957031 8.078126-24.929687 15.488282-35.359375 17.238281-24.269531 45.585937-40.101562 77.625-40.101562h13.351562c35.160156 0 65.871094 19.058593 82.328125 47.417969 3.554688 6.101562 6.4375 12.632812 8.570313 19.507812 2.765625 8.914062 4.25 18.378906 4.25 28.203125zm0 0" fill="#d39272"/><g fill="#512375"><path d="m377.871094 421.375h-52.203125c-2.695313 0-5.128907-1.085938-6.90625-2.851562-1.753907-1.765626-2.851563-4.210938-2.851563-6.898438 0-5.390625 4.367188-9.757812 9.757813-9.757812h43.632812c3.554688 6.101562 6.4375 12.632812 8.570313 19.507812zm0 0"/><path d="m302.496094 387.214844 8.398437 17.023437 18.789063 2.730469-13.59375 13.25 3.207031 18.710938-16.800781-8.835938-16.804688 8.835938 3.210938-18.710938-13.59375-13.25 18.785156-2.730469zm0 0"/><path d="m209.5 387.214844 8.398438 17.023437 18.789062 2.730469-13.59375 13.25 3.207031 18.710938-16.800781-8.835938-16.804688 8.835938 3.210938-18.710938-13.59375-13.25 18.785156-2.730469zm0 0"/><path d="m366 476.136719c-.617188 3.40625-1.515625 8.351562-1.527344 11.808593-6.464844 3.03125-13.082031 5.800782-19.832031 8.285157-2.121094-7.792969-.542969-16.445313.796875-23.832031 1.191406-6.519532 2.664062-14.628907.394531-17.347657-.730469-.875-4.085937-3.71875-16.6875-3.71875v-20.898437c15.714844 0 26.425781 3.667968 32.726563 11.222656 8.539062 10.230469 6.09375 23.675781 4.128906 34.480469zm0 0"/></g><path d="m333.535156 363.90625v136.117188c-1.453125.472656-2.914062.921874-4.390625 1.359374-6.507812 1.945313-13.132812 3.636719-19.851562 5.046876-2.945313.625-5.902344 1.203124-8.882813 1.714843-14.429687 2.539063-29.265625 3.855469-44.40625 3.855469s-29.980468-1.316406-44.410156-3.847656c-.867188-.144532-1.742188-.300782-2.609375-.46875-1.746094-.3125-3.492187-.660156-5.226563-1.023438-.34375-.074218-.699218-.148437-1.042968-.21875-8.234375-1.746094-16.3125-3.878906-24.242188-6.394531v-136.140625l24.242188-10.449219v63.269531c0 7.238282 2.316406 13.949219 6.269531 19.414063 6.027344 8.359375 15.847656 13.792969 26.9375 13.792969h40.164063c18.339843 0 33.207031-14.871094 33.207031-33.207032v-63.269531zm0 0" fill="#f2efea"/><path d="m289.9375 317.800781v41.65625c0 15.25-10.054688 28.140625-23.90625 32.421875-3.167969.984375-6.546875 1.515625-10.042969 1.515625-18.746093 0-33.9375-15.191406-33.9375-33.9375v-41.65625zm0 0" fill="#bf7c5e"/><path d="m289.9375 356.820312v2.636719c0 15.25-10.054688 28.140625-23.90625 32.421875-12.496094-3.839844-21.890625-14.707031-23.625-28 2.265625.136719 4.546875.207032 6.835938.207032 6.421874 0 12.71875-.507813 18.847656-1.515626 7.558594-1.214843 14.859375-3.160156 21.847656-5.75zm0 0" fill="#d39272"/><path d="m162.886719 249.535156c0 15.710938-11.480469 28.742188-26.511719 31.160156-1.640625.265626-3.332031.402344-5.054688.402344-17.4375 0-31.566406-14.125-31.566406-31.5625s14.128906-31.566406 31.566406-31.566406c1.722657 0 3.414063.140625 5.054688.40625 15.03125 2.417969 26.511719 15.445312 26.511719 31.160156zm0 0" fill="#d39272"/><path d="m162.886719 249.535156c0 15.710938-11.480469 28.742188-26.511719 31.160156-2.730469-9.929687-4.1875-20.378906-4.1875-31.160156 0-10.785156 1.457031-21.234375 4.1875-31.160156 15.03125 2.417969 26.511719 15.445312 26.511719 31.160156zm0 0" fill="#bf7c5e"/><path d="m142.601562 249.535156c0 6.230469-5.050781 11.28125-11.28125 11.28125-6.230468 0-11.28125-5.050781-11.28125-11.28125 0-6.230468 5.050782-11.28125 11.28125-11.28125 6.230469 0 11.28125 5.050782 11.28125 11.28125zm0 0" fill="#bf7c5e"/><path d="m349.101562 249.535156c0 15.710938 11.476563 28.742188 26.507813 31.160156 1.644531.265626 3.332031.402344 5.058594.402344 17.4375 0 31.5625-14.125 31.5625-31.5625s-14.125-31.566406-31.5625-31.566406c-1.726563 0-3.414063.140625-5.058594.40625-15.03125 2.417969-26.507813 15.445312-26.507813 31.160156zm0 0" fill="#d39272"/><path d="m349.101562 249.535156c0 15.710938 11.476563 28.742188 26.507813 31.160156 2.730469-9.929687 4.191406-20.378906 4.191406-31.160156 0-10.785156-1.457031-21.234375-4.191406-31.160156-15.03125 2.417969-26.507813 15.445312-26.507813 31.160156zm0 0" fill="#bf7c5e"/><path d="m373.4375 188.039062v44.722657c0 58.441406-42.695312 106.925781-98.597656 115.921875-.1875.03125-.386719.0625-.574219.09375-5.945313.949218-12.046875 1.421875-18.277344 1.421875-64.855469 0-117.433593-52.582031-117.433593-117.4375v-44.722657c0-13.65625 2.328124-26.78125 6.632812-38.972656 16.0625-45.707031 59.613281-78.472656 110.800781-78.472656h.011719c6.21875 0 12.328125.480469 18.285156 1.421875 56.175782 8.777344 99.152344 57.382813 99.152344 116.023437zm0 0" fill="#bf7c5e"/><path d="m391.949219 249.535156c0 6.230469-5.050781 11.28125-11.28125 11.28125s-11.28125-5.050781-11.28125-11.28125c0-6.230468 5.050781-11.28125 11.28125-11.28125s11.28125 5.050782 11.28125 11.28125zm0 0" fill="#bf7c5e"/><path d="m318.070312 217.273438v115.191406c-12.9375 8.066406-27.566406 13.6875-43.226562 16.214844-.1875.03125-.386719.0625-.574219.097656-48.921875-7.652344-87.824219-45.496094-97.050781-93.875v-37.628906c0-20.394532 16.207031-30.761719 40.949219-44.25.105469-.058594.214843-.117188.324219-.175782 18.171874-9.917968 40.132812-9.917968 58.304687 0 .109375.058594.214844.117188.324219.175782 24.730468 13.488281 40.949218 23.855468 40.949218 44.25zm0 0" fill="#d39272"/><path d="m255.992188 295.828125c-9.835938 0-19.667969-2.464844-28.632813-7.394531-2.527344-1.386719-3.453125-4.566406-2.0625-7.09375s4.566406-3.449219 7.097656-2.0625c14.773438 8.125 32.417969 8.125 47.195313 0 2.527344-1.390625 5.703125-.46875 7.09375 2.0625 1.390625 2.527344.46875 5.707031-2.0625 7.09375-8.960938 4.929687-18.796875 7.394531-28.628906 7.394531zm0 0" fill="#bf7c5e"/><path d="m269.3125 259.46875h-26.644531c-3.171875 0-5.746094-2.574219-5.746094-5.75 0-3.171875 2.574219-5.746094 5.746094-5.746094h26.644531c3.175781 0 5.75 2.574219 5.75 5.746094 0 3.175781-2.574219 5.75-5.75 5.75zm0 0" fill="#bf7c5e"/><path d="m230.984375 225.921875c0 7.359375-5.964844 13.324219-13.324219 13.324219-7.355468 0-13.320312-5.964844-13.320312-13.324219 0-7.355469 5.964844-13.320313 13.320312-13.320313 7.359375 0 13.324219 5.964844 13.324219 13.320313zm0 0" fill="#2f373b"/><path d="m307.652344 225.921875c0 7.359375-5.964844 13.324219-13.324219 13.324219-7.355469 0-13.320313-5.964844-13.320313-13.324219 0-7.355469 5.964844-13.320313 13.320313-13.320313 7.359375 0 13.324219 5.964844 13.324219 13.320313zm0 0" fill="#2f373b"/><path d="m228.265625 223.570312c0 3.152344-2.554687 5.710938-5.707031 5.710938s-5.707032-2.558594-5.707032-5.710938c0-3.152343 2.554688-5.707031 5.707032-5.707031s5.707031 2.554688 5.707031 5.707031zm0 0" fill="#fff"/><path d="m305.589844 223.570312c0 3.152344-2.558594 5.710938-5.710938 5.710938s-5.707031-2.558594-5.707031-5.710938c0-3.152343 2.554687-5.707031 5.707031-5.707031s5.710938 2.554688 5.710938 5.707031zm0 0" fill="#fff"/><path d="m260.933594 73.039062c-.644532 2.695313-2.347656 5.015626-4.667969 6.445313-.085937.050781-.167969.105469-.261719.144531-.273437.167969-.542968.316406-.835937.441406-1.160157.542969-2.445313.875-3.804688.949219-94.1875 5.328125-107.164062 63.1875-107.164062 124.917969 0 5.769531-4.679688 10.449219-10.449219 10.449219s-10.449219-4.679688-10.449219-10.449219c0-28.140625 2.332031-64.167969 20.53125-93.246094 19.226563-30.699218 52.945313-48.222656 100.300781-52.097656 1.503907-.136719 3.019532-.242188 4.554688-.335938.492188-.03125.992188-.0625 1.496094-.09375 2.121094-.125 4.117187.386719 5.820312 1.359376 2.945313 1.703124 4.992188 4.828124 5.203125 8.484374.0625 1.042969-.042969 2.066407-.273437 3.03125zm0 0" fill="#1da2dd"/><path d="m265.773438 63.832031c-1.234376 3.269531-2.875 6.332031-4.839844 9.207031-1.460938 2.152344-3.113282 4.199219-4.929688 6.152344-.085937.09375-.179687.199219-.273437.292969-.175781.199219-.363281.386719-.5625.585937-10.492188 10.929688-25.851563 19.058594-40.855469 27-25.308594 13.394532-49.214844 26.046876-49.214844 48.753907v178.671875c0 5.769531-4.683594 10.449218-10.449218 10.449218-5.769532 0-10.449219-4.679687-10.449219-10.449218v-178.671875c0-35.285157 32.058593-52.253907 60.332031-67.226563 16.855469-8.925781 32.894531-17.410156 39.601562-28.003906 1.503907-.136719 3.019532-.242188 4.554688-.335938.492188-.03125.992188-.0625 1.496094-.09375 2.121094-.125 4.117187.386719 5.820312 1.359376 1.703125-.972657 3.699219-1.484376 5.808594-1.359376.5.03125.992188.0625 1.496094.09375 1.898437.972657 2.996094 2.152344 2.464844 3.574219zm0 0" fill="#151a1c"/><path d="m133.75 335.691406c-5.769531 0-10.449219-4.675781-10.449219-10.445312v-119.308594c0-46.113281 45.257813-73.882812 81.625-96.195312 18.101563-11.109376 40.625-24.929688 40.625-33.375 0-5.769532 20.898438-5.769532 20.898438 0 0 20.140624-22.328125 33.839843-50.59375 51.1875-33.585938 20.609374-71.65625 43.96875-71.65625 78.382812v119.308594c0 5.769531-4.679688 10.445312-10.449219 10.445312zm0 0" fill="#f73b6c"/><path d="m154.648438 395.058594c-5.769532 0-10.449219-4.679688-10.449219-10.449219v-178.671875c0-33.835938 33.441406-55.285156 62.949219-74.210938 18-11.542968 38.402343-24.628906 38.402343-34.460937 0-5.769531 4.679688-10.449219 10.449219-10.449219s10.449219 4.679688 10.449219 10.449219c0 21.253906-23.324219 41.441406-48.019531 57.277344-25 16.035156-53.332032 28.984375-53.332032 51.394531v178.671875c0 5.769531-4.679687 10.449219-10.449218 10.449219zm0 0" fill="#151a1c"/><path d="m175.125 360.769531c-5.769531 0-10.449219-4.675781-10.449219-10.449219v-137.925781c0-34.324219 28.746094-50 51.839844-62.597656 18.066406-9.851563 29.035156-16.460937 29.035156-25.171875 0-5.773438 4.679688-10.449219 10.449219-10.449219s10.449219 4.675781 10.449219 10.449219c0 21.746094-20.296875 32.8125-39.929688 43.519531-24.734375 13.488281-40.945312 23.859375-40.945312 44.25v137.925781c0 5.773438-4.679688 10.449219-10.449219 10.449219zm0 0" fill="#1da2dd"/><path d="m388.707031 205.9375c0 5.769531-4.683593 10.449219-10.449219 10.449219-5.78125 0-10.449218-4.679688-10.449218-10.449219 0-.960938 0-1.933594-.011719-2.894531-.417969-60.636719-14.449219-116.777344-107.164063-122.023438-1.359374-.074219-2.644531-.40625-3.804687-.949219-.28125-.125-.554687-.273437-.824219-.441406-.09375-.039062-.179687-.09375-.273437-.144531-2.320313-1.441406-4.023438-3.75-4.667969-6.445313-.230469-.972656-.335938-1.988281-.273438-3.03125.210938-3.667968 2.257813-6.78125 5.214844-8.484374 1.703125-.972657 3.699219-1.484376 5.808594-1.359376.5.03125.992188.0625 1.496094.09375 1.535156.09375 3.050781.199219 4.554687.335938 47.355469 3.875 81.082031 21.398438 100.308594 52.097656 18.191406 29.078125 20.535156 65.105469 20.535156 93.246094zm0 0" fill="#f73b6c"/><path d="m367.796875 155.824219v178.671875c0 5.769531-4.671875 10.449218-10.449219 10.449218-5.769531 0-10.449218-4.679687-10.449218-10.449218v-178.671875c0-22.707031-23.90625-35.359375-49.214844-48.753907-14.992188-7.941406-30.355469-16.070312-40.855469-27-.1875-.199218-.375-.386718-.5625-.585937-.085937-.09375-.179687-.199219-.261719-.292969-1.820312-1.953125-3.480468-4-4.941406-6.152344-1.964844-2.875-3.605469-5.9375-4.839844-9.207031-.53125-1.421875.566406-2.601562 2.464844-3.574219.492188-.03125.992188-.0625 1.496094-.09375 2.121094-.125 4.117187.386719 5.820312 1.359376 1.703125-.972657 3.699219-1.484376 5.808594-1.359376.5.03125.992188.0625 1.496094.09375 1.535156.09375 3.050781.199219 4.554687.335938 6.71875 10.59375 22.746094 19.078125 39.601563 28.003906 28.285156 14.972656 60.332031 31.941406 60.332031 67.226563zm0 0" fill="#151a1c"/><path d="m378.25 384.609375c5.769531 0 10.449219-4.679687 10.449219-10.449219v-168.222656c0-46.113281-45.257813-73.882812-81.625-96.195312-18.101563-11.109376-40.625-24.929688-40.625-33.375 0-5.769532-20.898438-5.769532-20.898438 0 0 20.140624 22.328125 33.839843 50.59375 51.1875 33.585938 20.609374 71.65625 43.96875 71.65625 78.382812v168.222656c0 5.769532 4.679688 10.449219 10.449219 10.449219zm0 0" fill="#2f373b"/><path d="m357.351562 295.292969c5.769532 0 10.449219-4.679688 10.449219-10.449219v-78.90625c0-33.832031-33.441406-55.28125-62.949219-74.207031-18-11.546875-38.402343-24.632813-38.402343-34.464844 0-5.769531-4.679688-10.449219-10.449219-10.449219s-10.449219 4.679688-10.449219 10.449219c0 21.253906 23.324219 41.441406 48.019531 57.277344 25 16.035156 53.332032 28.984375 53.332032 51.394531v78.90625c0 5.769531 4.679687 10.449219 10.449218 10.449219zm0 0" fill="#1da2dd"/><path d="m336.875 401.515625c5.769531 0 10.449219-4.675781 10.449219-10.449219v-178.671875c0-34.324219-28.742188-50-51.839844-62.597656-18.066406-9.851563-29.035156-16.460937-29.035156-25.171875 0-5.773438-4.679688-10.449219-10.449219-10.449219s-10.449219 4.675781-10.449219 10.449219c0 21.746094 20.296875 32.8125 39.929688 43.519531 24.734375 13.488281 40.945312 23.859375 40.945312 44.25v178.671875c0 5.773438 4.679688 10.449219 10.449219 10.449219zm0 0" fill="#f73b6c"/><path d="m302.429688 186.507812-11.222657 19.4375h22.441407zm0 0" fill="#512375"/><path d="m291.871094 246.527344h25.773437v9.058594h-25.773437zm0 0" fill="#512375"/><path d="m194.347656 246.527344h25.773438v9.058594h-25.773438zm0 0" fill="#512375"/></svg>