<svg height="512pt" viewBox="0 0 512 512" width="512pt" xmlns="http://www.w3.org/2000/svg"><path d="m512 256c0 141.382812-114.617188 256-256 256-141.386719 0-256-114.617188-256-256 0-141.386719 114.613281-256 256-256 141.382812 0 256 114.613281 256 256zm0 0" fill="#ffe05c"/><path d="m382.113281 449.578125v29.246094c-37.21875 21.117187-80.257812 33.175781-126.117187 33.175781-27.03125 0-53.070313-4.191406-77.53125-11.953125-17.03125-5.402344-33.300782-12.550781-48.589844-21.222656v-29.246094c0-49.914063 38.441406-90.863281 87.355469-94.8125 2.570312-.210937 5.160156-.316406 7.785156-.316406h61.949219c7.324218 0 14.453125.816406 21.296875 2.382812 42.296875 9.675781 73.851562 47.535157 73.851562 92.746094zm0 0" fill="#17a388"/><path d="m382.117188 449.578125v29.246094c-22.726563 12.894531-47.613282 22.414062-74 27.855469-14.773438 3.0625-30.019532 4.847656-45.609376 5.234374-2.160156.054688-4.335937.085938-6.507812.085938-27.03125 0-53.070312-4.191406-77.53125-11.953125v-50.46875c0-6.742187.699219-13.324219 2.035156-19.667969 2.71875-12.953125 8.078125-24.929687 15.488282-35.359375 17.238281-24.269531 45.585937-40.101562 77.625-40.101562h13.351562c52.558594 0 95.148438 42.589843 95.148438 95.128906zm0 0" fill="#27ba9e"/><path d="m310.683594 357.417969v8.578125c0 30.195312-24.484375 54.679687-54.679688 54.679687h-.011718c-23.78125 0-44.03125-15.195312-51.542969-36.40625-2.027344-5.714843-3.136719-11.859375-3.136719-18.273437v-8.570313c5.152344-1.328125 10.46875-2.226562 15.925781-2.664062 2.570313-.207031 5.160157-.3125 7.78125-.3125h61.953125c7.324219 0 14.453125.8125 21.296875 2.382812.804688.1875 1.617188.375 2.414063.585938zm0 0" fill="#d39272"/><path d="m273.621094 354.449219c-27.253906 0-51.828125 11.460937-69.171875 29.820312-2.027344-5.714843-3.136719-11.859375-3.136719-18.273437v-8.570313c5.152344-1.328125 10.46875-2.226562 15.925781-2.664062 2.570313-.207031 5.160157-.3125 7.78125-.3125zm0 0" fill="#bf7c5e"/><path d="m289.9375 317.800781v41.65625c0 15.25-10.054688 28.140625-23.90625 32.421875-3.171875.980469-6.550781 1.515625-10.042969 1.515625-18.746093 0-33.9375-15.195312-33.9375-33.9375v-41.65625zm0 0" fill="#bf7c5e"/><path d="m289.9375 356.816406v2.640625c0 15.25-10.054688 28.140625-23.90625 32.421875-12.496094-3.84375-21.890625-14.707031-23.625-28.003906 2.265625.140625 4.546875.210938 6.835938.210938 6.421874 0 12.714843-.511719 18.847656-1.515626 7.558594-1.214843 14.859375-3.160156 21.847656-5.753906zm0 0" fill="#d39272"/><path d="m162.882812 249.535156c0 15.710938-11.476562 28.742188-26.507812 31.160156-1.640625.265626-3.332031.40625-5.054688.40625-17.4375 0-31.566406-14.128906-31.566406-31.566406s14.128906-31.566406 31.566406-31.566406c1.722657 0 3.414063.140625 5.054688.40625 15.03125 2.417969 26.507812 15.445312 26.507812 31.160156zm0 0" fill="#d39272"/><path d="m162.882812 249.535156c0 15.710938-11.476562 28.742188-26.507812 31.160156-2.730469-9.929687-4.1875-20.378906-4.1875-31.160156 0-10.785156 1.457031-21.234375 4.1875-31.160156 15.03125 2.417969 26.507812 15.445312 26.507812 31.160156zm0 0" fill="#bf7c5e"/><path d="m142.601562 249.535156c0 6.230469-5.050781 11.28125-11.28125 11.28125-6.230468 0-11.28125-5.050781-11.28125-11.28125 0-6.230468 5.050782-11.28125 11.28125-11.28125 6.230469 0 11.28125 5.050782 11.28125 11.28125zm0 0" fill="#bf7c5e"/><path d="m349.101562 249.535156c0 15.710938 11.476563 28.742188 26.507813 31.160156 1.644531.265626 3.332031.40625 5.054687.40625 17.4375 0 31.566407-14.128906 31.566407-31.566406s-14.128907-31.566406-31.566407-31.566406c-1.722656 0-3.410156.140625-5.054687.40625-15.03125 2.417969-26.507813 15.445312-26.507813 31.160156zm0 0" fill="#d39272"/><g fill="#bf7c5e"><path d="m349.101562 249.535156c0 15.710938 11.476563 28.742188 26.507813 31.160156 2.730469-9.929687 4.1875-20.378906 4.1875-31.160156 0-10.785156-1.457031-21.234375-4.1875-31.160156-15.03125 2.417969-26.507813 15.445312-26.507813 31.160156zm0 0"/><path d="m373.433594 188.039062v44.722657c0 58.441406-42.691406 106.921875-98.59375 115.921875-.1875.03125-.386719.0625-.574219.09375-5.945313.949218-12.050781 1.417968-18.277344 1.417968-64.855469 0-117.433593-52.578124-117.433593-117.433593v-44.722657c0-13.65625 2.328124-26.78125 6.632812-38.972656 16.0625-45.707031 59.613281-78.472656 110.800781-78.472656h.011719c6.214844 0 12.328125.480469 18.285156 1.421875 56.171875 8.777344 99.148438 57.382813 99.148438 116.023437zm0 0"/><path d="m391.949219 249.535156c0 6.230469-5.050781 11.28125-11.285157 11.28125-6.230468 0-11.28125-5.050781-11.28125-11.28125 0-6.230468 5.050782-11.28125 11.28125-11.28125 6.234376 0 11.285157 5.050782 11.285157 11.28125zm0 0"/></g><path d="m373.433594 188.039062v44.722657c0 58.441406-42.691406 106.921875-98.59375 115.921875-.1875.03125-.386719.0625-.574219.09375-56.175781-8.777344-99.140625-57.386719-99.140625-116.015625v-44.722657c0-58.640624 42.976562-107.246093 99.160156-116.023437 56.171875 8.777344 99.148438 57.382813 99.148438 116.023437zm0 0" fill="#d39272"/><path d="m255.992188 290.601562c-9.835938 0-19.667969-2.464843-28.632813-7.390624-2.527344-1.390626-3.453125-4.566407-2.0625-7.097657 1.390625-2.527343 4.566406-3.449219 7.09375-2.058593 14.777344 8.121093 32.421875 8.121093 47.199219 0 2.527344-1.390626 5.703125-.46875 7.09375 2.058593 1.390625 2.53125.46875 5.707031-2.0625 7.097657-8.964844 4.925781-18.796875 7.390624-28.628906 7.390624zm0 0" fill="#bf7c5e"/><path d="m269.3125 259.464844h-26.644531c-3.175781 0-5.746094-2.570313-5.746094-5.746094 0-3.171875 2.570313-5.746094 5.746094-5.746094h26.644531c3.175781 0 5.746094 2.574219 5.746094 5.746094 0 3.175781-2.570313 5.746094-5.746094 5.746094zm0 0" fill="#bf7c5e"/><path d="m230.984375 225.921875c0 7.359375-5.964844 13.324219-13.324219 13.324219s-13.324218-5.964844-13.324218-13.324219 5.964843-13.320313 13.324218-13.320313 13.324219 5.960938 13.324219 13.320313zm0 0" fill="#2f373b"/><path d="m307.648438 225.921875c0 7.359375-5.964844 13.324219-13.320313 13.324219-7.359375 0-13.324219-5.964844-13.324219-13.324219s5.964844-13.320313 13.324219-13.320313c7.355469 0 13.320313 5.960938 13.320313 13.320313zm0 0" fill="#2f373b"/><path d="m228.265625 223.570312c0 3.152344-2.554687 5.710938-5.707031 5.710938s-5.710938-2.558594-5.710938-5.710938c0-3.152343 2.558594-5.707031 5.710938-5.707031s5.707031 2.554688 5.707031 5.707031zm0 0" fill="#fff"/><path d="m305.589844 223.570312c0 3.152344-2.558594 5.710938-5.710938 5.710938s-5.707031-2.558594-5.707031-5.710938c0-3.152343 2.554687-5.707031 5.707031-5.707031s5.710938 2.554688 5.710938 5.707031zm0 0" fill="#fff"/><path d="m177.1875 449.574219v50.0625c-16.574219-5.359375-32.402344-12.359375-47.304688-20.8125v-29.25zm0 0" fill="#bf7c5e"/><path d="m382.121094 449.574219v29.25c-14.898438 8.453125-30.730469 15.453125-47.300782 20.8125v-50.0625zm0 0" fill="#d39272"/><path d="m373.4375 125.542969v63.625h-234.882812v-63.625c0-38.964844 32.441406-70.5625 72.464843-70.5625h89.953125c40.027344 0 72.464844 31.597656 72.464844 70.5625zm0 0" fill="#dd104f"/><path d="m373.4375 125.542969v63.625h-180.15625v-63.625c0-38.964844 32.4375-70.5625 72.464844-70.5625h35.226562c40.027344 0 72.464844 31.597656 72.464844 70.5625zm0 0" fill="#f73b6c"/><path d="m312.234375 120.550781h-31.148437c-13.855469 0-25.089844 11.234375-25.089844 25.089844v22.625h81.328125v-22.625c0-13.855469-11.230469-25.089844-25.089844-25.089844zm0 0" fill="#151a1c"/><path d="m62.441406 159.46875h79.199219v29.695312h-79.199219c-8.199218 0-14.847656-6.648437-14.847656-14.847656 0-8.199218 6.648438-14.847656 14.847656-14.847656zm0 0" fill="#dd104f"/></svg>