<svg height="512pt" viewBox="0 0 512 512" width="512pt" xmlns="http://www.w3.org/2000/svg"><path d="m512 256c0 141.386719-114.613281 256-256 256s-256-114.613281-256-256 114.613281-256 256-256 256 114.613281 256 256zm0 0" fill="#ffe05c"/><path d="m382.113281 449.578125v29.246094c-37.21875 21.117187-80.261719 33.175781-126.121093 33.175781-27.03125 0-53.070313-4.191406-77.53125-11.953125-17.03125-5.402344-33.300782-12.550781-48.585938-21.222656v-29.246094c0-44.933594 31.136719-82.589844 73.027344-92.546875 4.648437-1.109375 9.433594-1.871094 14.324218-2.269531 2.570313-.207031 5.164063-.3125 7.785157-.3125h61.953125c7.324218 0 14.449218.816406 21.292968 2.382812 30.542969 6.988281 55.484376 28.671875 66.988282 57.207031 4.429687 10.984376 6.867187 22.976563 6.867187 35.539063zm0 0" fill="#0c85a5"/><path d="m382.121094 449.578125v29.246094c-22.726563 12.894531-47.617188 22.414062-74 27.855469-14.777344 3.0625-30.023438 4.851562-45.613282 5.238281-2.160156.050781-4.335937.082031-6.507812.082031-27.03125 0-53.070312-4.191406-77.53125-11.953125v-50.46875c0-6.738281.699219-13.324219 2.039062-19.664063 2.714844-12.957031 8.074219-24.933593 15.484376-35.359374 17.238281-24.273438 45.589843-40.105469 77.625-40.105469h13.355468c52.554688 0 95.148438 42.589843 95.148438 95.128906zm0 0" fill="#1da2dd"/><path d="m375.246094 414.039062c-17.949219 15.128907-48.742188 25.097657-83.714844 25.097657-55.402344 0-100.3125-25.023438-100.3125-55.902344 0-9.476563 4.222656-18.386719 11.683594-26.203125 4.648437-1.109375 9.433594-1.871094 14.324218-2.269531 2.570313-.207031 5.164063-.3125 7.785157-.3125h61.953125c7.324218 0 14.449218.816406 21.292968 2.382812 30.542969 6.988281 55.484376 28.671875 66.988282 57.207031zm0 0" fill="#d39272"/><path d="m225.011719 354.449219h48.609375c-32.039063 0-60.386719 15.832031-77.625 40.101562-.574219.816407-1.152344 1.640625-1.695313 2.476563-2.015625-4.40625-3.082031-9.027344-3.082031-13.792969 0-9.476563 4.222656-18.386719 11.683594-26.203125 4.648437-1.109375 9.433594-1.871094 14.324218-2.269531 2.570313-.207031 5.164063-.3125 7.785157-.3125zm0 0" fill="#bf7c5e"/><path d="m289.9375 317.800781v41.65625c0 15.25-10.054688 28.140625-23.90625 32.421875-3.167969.984375-6.546875 1.515625-10.042969 1.515625-18.746093 0-33.9375-15.191406-33.9375-33.9375v-41.65625zm0 0" fill="#bf7c5e"/><path d="m289.9375 356.820312v2.636719c0 15.25-10.054688 28.140625-23.90625 32.421875-12.496094-3.839844-21.890625-14.707031-23.625-28 2.265625.136719 4.546875.207032 6.835938.207032 6.421874 0 12.71875-.507813 18.847656-1.515626 7.558594-1.214843 14.859375-3.160156 21.847656-5.75zm0 0" fill="#d39272"/><path d="m162.886719 249.535156c0 15.710938-11.480469 28.742188-26.511719 31.160156-1.640625.265626-3.332031.402344-5.054688.402344-17.4375 0-31.566406-14.125-31.566406-31.5625s14.128906-31.566406 31.566406-31.566406c1.722657 0 3.414063.140625 5.054688.40625 15.03125 2.417969 26.511719 15.445312 26.511719 31.160156zm0 0" fill="#d39272"/><path d="m162.886719 249.535156c0 15.710938-11.480469 28.742188-26.511719 31.160156-2.730469-9.929687-4.1875-20.378906-4.1875-31.160156 0-10.785156 1.457031-21.234375 4.1875-31.160156 15.03125 2.417969 26.511719 15.445312 26.511719 31.160156zm0 0" fill="#bf7c5e"/><path d="m142.601562 249.535156c0 6.230469-5.050781 11.28125-11.28125 11.28125-6.230468 0-11.28125-5.050781-11.28125-11.28125 0-6.230468 5.050782-11.28125 11.28125-11.28125 6.230469 0 11.28125 5.050782 11.28125 11.28125zm0 0" fill="#bf7c5e"/><path d="m349.101562 249.535156c0 15.710938 11.476563 28.742188 26.507813 31.160156 1.644531.265626 3.332031.402344 5.058594.402344 17.4375 0 31.5625-14.125 31.5625-31.5625s-14.125-31.566406-31.5625-31.566406c-1.726563 0-3.414063.140625-5.058594.40625-15.03125 2.417969-26.507813 15.445312-26.507813 31.160156zm0 0" fill="#d39272"/><g fill="#bf7c5e"><path d="m349.101562 249.535156c0 15.710938 11.476563 28.742188 26.507813 31.160156 2.730469-9.929687 4.191406-20.378906 4.191406-31.160156 0-10.785156-1.457031-21.234375-4.191406-31.160156-15.03125 2.417969-26.507813 15.445312-26.507813 31.160156zm0 0"/><path d="m373.4375 188.039062v44.722657c0 58.441406-42.691406 106.921875-98.59375 115.917969-.1875.03125-.386719.0625-.574219.097656-5.945312.949218-12.050781 1.417968-18.277343 1.417968-64.855469 0-117.4375-52.578124-117.4375-117.433593v-44.722657c0-13.65625 2.332031-26.78125 6.636718-38.976562 16.058594-45.703125 59.613282-78.46875 110.800782-78.46875h.011718c6.214844 0 12.328125.480469 18.285156 1.417969 56.171876 8.777343 99.148438 57.386719 99.148438 116.027343zm0 0"/><path d="m391.949219 249.535156c0 6.230469-5.050781 11.28125-11.28125 11.28125s-11.28125-5.050781-11.28125-11.28125c0-6.230468 5.050781-11.28125 11.28125-11.28125s11.28125 5.050782 11.28125 11.28125zm0 0"/></g><path d="m373.4375 188.039062v44.722657c0 58.441406-42.695312 106.925781-98.597656 115.921875-.1875.03125-.386719.0625-.574219.09375-56.175781-8.777344-99.140625-57.386719-99.140625-116.015625v-44.722657c0-58.640624 42.976562-107.246093 99.160156-116.023437 56.175782 8.777344 99.152344 57.382813 99.152344 116.023437zm0 0" fill="#d39272"/><path d="m373.4375 188.039062v29.351563l-18.167969-8.128906-9.644531-52.359375c-2.726562-14.777344-17.167969-24.347656-31.839844-21.085938l-36.914062 8.199219c-13.742188 3.0625-27.996094 3.0625-41.734375 0l-36.917969-8.199219c-14.667969-3.261718-29.109375 6.308594-31.835938 21.085938l-9.644531 52.359375-18.183593 8.140625v-29.363282c0-13.65625 2.332031-26.78125 6.636718-38.976562 16.058594-45.703125 59.613282-78.46875 110.800782-78.46875h.011718c6.214844 0 12.328125.480469 18.285156 1.417969 56.171876 8.777343 99.148438 57.386719 99.148438 116.027343zm0 0" fill="#bf7c5e"/><path d="m255.992188 295.828125c-9.835938 0-19.667969-2.464844-28.632813-7.394531-2.527344-1.386719-3.453125-4.566406-2.0625-7.09375s4.566406-3.449219 7.097656-2.0625c14.773438 8.125 32.417969 8.125 47.195313 0 2.527344-1.390625 5.703125-.46875 7.09375 2.0625 1.390625 2.527344.46875 5.707031-2.0625 7.09375-8.960938 4.929687-18.796875 7.394531-28.628906 7.394531zm0 0" fill="#bf7c5e"/><path d="m269.3125 259.46875h-26.644531c-3.171875 0-5.746094-2.574219-5.746094-5.75 0-3.171875 2.574219-5.746094 5.746094-5.746094h26.644531c3.175781 0 5.75 2.574219 5.75 5.746094 0 3.175781-2.574219 5.75-5.75 5.75zm0 0" fill="#bf7c5e"/><path d="m230.984375 225.921875c0 7.359375-5.964844 13.324219-13.324219 13.324219-7.355468 0-13.320312-5.964844-13.320312-13.324219 0-7.355469 5.964844-13.320313 13.320312-13.320313 7.359375 0 13.324219 5.964844 13.324219 13.320313zm0 0" fill="#2f373b"/><path d="m307.652344 225.921875c0 7.359375-5.964844 13.324219-13.324219 13.324219-7.355469 0-13.320313-5.964844-13.320313-13.324219 0-7.355469 5.964844-13.320313 13.320313-13.320313 7.359375 0 13.324219 5.964844 13.324219 13.320313zm0 0" fill="#2f373b"/><path d="m228.265625 223.570312c0 3.152344-2.554687 5.710938-5.707031 5.710938s-5.707032-2.558594-5.707032-5.710938c0-3.152343 2.554688-5.707031 5.707032-5.707031s5.707031 2.554688 5.707031 5.707031zm0 0" fill="#fff"/><path d="m305.589844 223.570312c0 3.152344-2.558594 5.710938-5.710938 5.710938s-5.707031-2.558594-5.707031-5.710938c0-3.152343 2.554687-5.707031 5.707031-5.707031s5.710938 2.554688 5.710938 5.707031zm0 0" fill="#fff"/><path d="m261.863281 57.75h-11.738281c-7.339844 0-13.289062 5.949219-13.289062 13.289062v49.355469c0 7.335938 5.949218 13.285157 13.289062 13.285157h11.738281c7.339844 0 13.289063-5.949219 13.289063-13.285157v-49.355469c0-7.339843-5.949219-13.289062-13.289063-13.289062zm0 0" fill="#2f373b"/><path d="m344.628906 85.96875-11.554687-5.613281c-6.324219-3.070313-13.945313-.433594-17.019531 5.890625l-19.273438 39.675781c-3.074219 6.328125-.4375 13.945313 5.890625 17.019531l11.554687 5.613282c6.324219 3.074218 13.945313.4375 17.015626-5.890626l19.277343-39.675781c3.070313-6.324219.4375-13.945312-5.890625-17.019531zm0 0" fill="#2f373b"/><path d="m390.824219 163.546875-9.613281-12.777344c-3.707032-4.925781-10.707032-5.914062-15.628907-2.207031l-21.503906 16.183594c-4.925781 3.707031-5.910156 10.703125-2.203125 15.628906l9.613281 12.777344c3.707031 4.925781 10.707031 5.914062 15.628907 2.203125l21.503906-16.179688c4.921875-3.707031 5.910156-10.703125 2.203125-15.628906zm0 0" fill="#2f373b"/><path d="m167.359375 85.96875 11.554687-5.613281c6.324219-3.070313 13.945313-.433594 17.019532 5.890625l19.273437 39.675781c3.074219 6.328125.4375 13.945313-5.890625 17.019531l-11.554687 5.613282c-6.324219 3.074218-13.941407.4375-17.015625-5.890626l-19.277344-39.675781c-3.070312-6.324219-.433594-13.945312 5.890625-17.019531zm0 0" fill="#151a1c"/><path d="m121.164062 163.546875 9.617188-12.777344c3.707031-4.925781 10.703125-5.914062 15.628906-2.207031l21.5 16.183594c4.925782 3.707031 5.914063 10.703125 2.207032 15.628906l-9.617188 12.777344c-3.707031 4.925781-10.703125 5.914062-15.628906 2.203125l-21.5-16.179688c-4.925782-3.707031-5.914063-10.703125-2.207032-15.628906zm0 0" fill="#151a1c"/><path d="m177.1875 449.578125v50.058594c-16.574219-5.359375-32.402344-12.359375-47.304688-20.8125v-29.246094zm0 0" fill="#bf7c5e"/><path d="m255.996094 318.726562 10.039062-17.390624h-20.082031zm0 0" fill="#2f373b"/></svg>