<svg height="512pt" viewBox="0 0 512 512" width="512pt" xmlns="http://www.w3.org/2000/svg"><path d="m512 256c0 141.382812-114.617188 256-256 256-141.386719 0-256-114.617188-256-256 0-141.386719 114.613281-256 256-256 141.382812 0 256 114.613281 256 256zm0 0" fill="#2f373b"/><path d="m382.117188 449.578125v29.246094c-37.222657 21.117187-80.261719 33.175781-126.121094 33.175781-27.03125 0-53.070313-4.191406-77.53125-11.953125-17.03125-5.402344-33.300782-12.550781-48.585938-21.222656v-29.246094c0-49.914063 38.441406-90.863281 87.351563-94.8125 2.570312-.210937 5.160156-.316406 7.785156-.316406h61.953125c7.324219 0 14.449219.816406 21.292969 2.382812 42.296875 9.675781 73.855469 47.535157 73.855469 92.746094zm0 0" fill="#d65a05"/><path d="m382.117188 449.578125v29.246094c-22.726563 12.894531-47.613282 22.414062-74 27.855469-14.773438 3.0625-30.019532 4.847656-45.609376 5.234374-2.160156.054688-4.335937.085938-6.507812.085938-27.03125 0-53.070312-4.191406-77.53125-11.953125v-50.46875c0-6.742187.699219-13.324219 2.035156-19.667969 2.71875-12.953125 8.078125-24.929687 15.488282-35.359375 17.238281-24.269531 45.585937-40.101562 77.625-40.101562h13.351562c52.558594 0 95.148438 42.589843 95.148438 95.128906zm0 0" fill="#f46d11"/><path d="m289.9375 317.800781v41.65625c0 15.25-10.054688 28.140625-23.90625 32.421875-3.167969.980469-6.546875 1.515625-10.042969 1.515625-18.742187 0-33.9375-15.195312-33.9375-33.9375v-41.65625zm0 0" fill="#eaa27f"/><path d="m289.9375 356.816406v2.640625c0 15.25-10.054688 28.140625-23.90625 32.421875-12.496094-3.84375-21.890625-14.707031-23.625-28.003906 2.265625.140625 4.546875.210938 6.835938.210938 6.421874 0 12.71875-.511719 18.851562-1.515626 7.554688-1.214843 14.855469-3.160156 21.84375-5.753906zm0 0" fill="#f6ba97"/><path d="m162.882812 249.535156c0 15.710938-11.476562 28.742188-26.507812 31.160156-1.640625.265626-3.332031.402344-5.054688.402344-17.4375 0-31.566406-14.125-31.566406-31.5625s14.128906-31.566406 31.566406-31.566406c1.722657 0 3.414063.136719 5.054688.40625 15.03125 2.417969 26.507812 15.445312 26.507812 31.160156zm0 0" fill="#f6ba97"/><path d="m162.882812 249.535156c0 15.710938-11.476562 28.742188-26.507812 31.160156-2.730469-9.929687-4.1875-20.378906-4.1875-31.160156 0-10.785156 1.457031-21.234375 4.1875-31.160156 15.03125 2.417969 26.507812 15.445312 26.507812 31.160156zm0 0" fill="#eaa27f"/><path d="m142.601562 249.535156c0 6.230469-5.050781 11.28125-11.28125 11.28125-6.230468 0-11.28125-5.050781-11.28125-11.28125 0-6.230468 5.050782-11.285156 11.28125-11.285156 6.230469 0 11.28125 5.054688 11.28125 11.285156zm0 0" fill="#eaa27f"/><path d="m349.101562 249.535156c0 15.710938 11.476563 28.742188 26.507813 31.160156 1.644531.265626 3.332031.402344 5.058594.402344 17.4375 0 31.5625-14.125 31.5625-31.5625s-14.125-31.566406-31.5625-31.566406c-1.726563 0-3.414063.136719-5.058594.40625-15.03125 2.417969-26.507813 15.445312-26.507813 31.160156zm0 0" fill="#f6ba97"/><g fill="#eaa27f"><path d="m349.101562 249.535156c0 15.710938 11.476563 28.742188 26.507813 31.160156 2.730469-9.929687 4.191406-20.378906 4.191406-31.160156 0-10.785156-1.457031-21.234375-4.191406-31.160156-15.03125 2.417969-26.507813 15.445312-26.507813 31.160156zm0 0"/><path d="m373.433594 188.039062v44.722657c0 58.441406-42.691406 106.921875-98.59375 115.921875-.1875.03125-.386719.0625-.574219.09375-5.945313.949218-12.050781 1.417968-18.277344 1.417968-64.855469 0-117.433593-52.578124-117.433593-117.433593v-44.722657c0-13.65625 2.328124-26.78125 6.632812-38.972656 16.0625-45.707031 59.613281-78.472656 110.800781-78.472656h.011719c6.214844 0 12.328125.480469 18.285156 1.421875 56.171875 8.777344 99.148438 57.382813 99.148438 116.023437zm0 0"/><path d="m391.949219 249.535156c0 6.230469-5.050781 11.28125-11.28125 11.28125s-11.28125-5.050781-11.28125-11.28125c0-6.230468 5.050781-11.285156 11.28125-11.285156s11.28125 5.054688 11.28125 11.285156zm0 0"/></g><path d="m373.433594 188.039062v44.722657c0 58.441406-42.691406 106.921875-98.59375 115.921875-.1875.03125-.386719.0625-.574219.09375-56.175781-8.777344-99.140625-57.386719-99.140625-116.015625v-44.722657c0-58.640624 42.976562-107.246093 99.160156-116.023437 56.171875 8.777344 99.148438 57.382813 99.148438 116.023437zm0 0" fill="#f6ba97"/><path d="m255.992188 290.601562c-9.835938 0-19.667969-2.464843-28.632813-7.390624-2.527344-1.390626-3.449219-4.566407-2.0625-7.097657 1.390625-2.527343 4.570313-3.449219 7.097656-2.058593 14.777344 8.121093 32.417969 8.121093 47.195313 0 2.527344-1.390626 5.703125-.46875 7.09375 2.058593 1.390625 2.53125.46875 5.707031-2.058594 7.097657-8.964844 4.925781-18.800781 7.390624-28.632812 7.390624zm0 0" fill="#eaa27f"/><path d="m269.3125 259.464844h-26.644531c-3.171875 0-5.746094-2.570313-5.746094-5.746094 0-3.171875 2.574219-5.746094 5.746094-5.746094h26.644531c3.175781 0 5.746094 2.574219 5.746094 5.746094 0 3.175781-2.570313 5.746094-5.746094 5.746094zm0 0" fill="#eaa27f"/><path d="m230.984375 225.921875c0 7.359375-5.964844 13.324219-13.324219 13.324219s-13.324218-5.964844-13.324218-13.324219 5.964843-13.320313 13.324218-13.320313 13.324219 5.960938 13.324219 13.320313zm0 0" fill="#2f373b"/><path d="m307.652344 225.921875c0 7.359375-5.964844 13.324219-13.324219 13.324219s-13.320313-5.964844-13.320313-13.324219 5.960938-13.320313 13.320313-13.320313 13.324219 5.960938 13.324219 13.320313zm0 0" fill="#2f373b"/><path d="m228.265625 223.570312c0 3.152344-2.554687 5.710938-5.707031 5.710938s-5.707032-2.558594-5.707032-5.710938c0-3.152343 2.554688-5.707031 5.707032-5.707031s5.707031 2.554688 5.707031 5.707031zm0 0" fill="#fff"/><path d="m305.589844 223.570312c0 3.152344-2.554688 5.710938-5.707032 5.710938-3.15625 0-5.710937-2.558594-5.710937-5.710938 0-3.152343 2.554687-5.707031 5.710937-5.707031 3.152344 0 5.707032 2.554688 5.707032 5.707031zm0 0" fill="#fff"/><path d="m397.253906 158.988281c7.042969 22.539063-3.019531 46.917969-23.8125 58.097657-13.535156-41.785157-43.28125-64.511719-69.644531-76.789063-26.371094-12.277344-49.359375-14.105469-49.359375-14.105469 16.195312 16.195313 10.824219 35.503906 10.824219 35.503906-17.1875-11.210937-32.902344-16.40625-45.609375-18.578124-19.246094-3.292969-31.566406.3125-31.566406.3125l8.359374 19.855468c-33.4375 0-60.070312 39.410156-60.070312 39.410156-31.464844-31.46875-18.296875-74.9375-18.296875-74.9375l16.71875 8.359376s-7.835937-47.542969 17.761719-73.144532l18.808594 9.40625s9.402343-55.378906 75.230468-60.605468v33.4375s33.4375-33.4375 109.714844-16.71875l-26.121094 30.300781s54.335938 4.179687 72.097656 62.695312h-26.121093s13.832031 14.273438 21.085937 37.5zm0 0" fill="#f73b6c"/><path d="m356.3125 28.492188c-66.871094 0-82.023438 27.847656-82.023438 27.847656l-27.691406-11.128906s33.4375-33.4375 109.714844-16.71875zm0 0" fill="#dd104f"/><path d="m219.652344 143.117188c-19.246094-3.292969-31.566406.3125-31.566406.3125l8.359374 19.855468c-33.4375 0-60.070312 39.410156-60.070312 39.410156-31.464844-31.46875-18.296875-74.9375-18.296875-74.9375l16.71875 8.359376s-7.835937-47.542969 17.761719-73.144532l18.808594 9.40625s9.402343-55.378906 75.230468-60.605468c-34.480468 22.988281-34.480468 66.875-34.480468 66.875l39.707031-10.449219s-79.285157 44.792969-32.171875 74.917969zm0 0" fill="#dd104f"/><path d="m136.375 202.695312 2.476562 38.457032 13.136719-13.132813-2.5625-52.71875" fill="#dd104f"/><path d="m375.511719 202.695312-2.480469 38.457032-13.132812-13.132813 2.5625-52.71875" fill="#f73b6c"/></svg>