<svg height="512pt" viewBox="0 0 512 512" width="512pt" xmlns="http://www.w3.org/2000/svg"><path d="m512 256c0 141.386719-114.613281 256-256 256s-256-114.613281-256-256 114.613281-256 256-256 256 114.613281 256 256zm0 0" fill="#673389"/><path d="m382.121094 449.578125v29.246094c-37.21875 21.117187-80.257813 33.175781-126.117188 33.175781-27.03125 0-53.070312-4.191406-77.53125-11.953125-17.03125-5.402344-33.300781-12.550781-48.589844-21.222656v-29.246094c0-49.914063 38.441407-90.863281 87.355469-94.8125 2.570313-.210937 5.160157-.316406 7.785157-.316406h61.949218c7.324219 0 14.453125.816406 21.296875 2.382812 42.296875 9.675781 73.851563 47.53125 73.851563 92.746094zm0 0" fill="#eaa27f"/><path d="m382.125 449.578125v29.246094c-22.726562 12.894531-47.617188 22.414062-74 27.855469-14.773438 3.0625-30.019531 4.847656-45.609375 5.234374-2.164063.054688-4.335937.085938-6.507813.085938-27.03125 0-53.070312-4.191406-77.53125-11.953125v-50.46875c0-6.742187.699219-13.324219 2.035157-19.667969 2.71875-12.957031 8.078125-24.929687 15.484375-35.359375 17.242187-24.269531 45.589844-40.101562 77.628906-40.101562h13.351562c52.558594 0 95.148438 42.589843 95.148438 95.128906zm0 0" fill="#f6ba97"/><path d="m289.945312 317.800781v41.65625c0 15.25-10.054687 28.140625-23.90625 32.421875-3.167968.980469-6.550781 1.515625-10.042968 1.515625-18.746094 0-33.9375-15.195312-33.9375-33.9375v-41.65625zm0 0" fill="#eaa27f"/><path d="m289.945312 356.816406v2.640625c0 15.25-10.054687 28.140625-23.90625 32.421875-12.496093-3.84375-21.890624-14.707031-23.625-28.003906 2.265626.140625 4.546876.210938 6.835938.210938 6.421875 0 12.714844-.511719 18.847656-1.519532 7.558594-1.210937 14.859375-3.15625 21.847656-5.75zm0 0" fill="#f6ba97"/><path d="m162.890625 249.535156c0 15.710938-11.476563 28.742188-26.507813 31.160156-1.644531.265626-3.332031.402344-5.058593.402344-17.4375 0-31.5625-14.125-31.5625-31.5625s14.125-31.566406 31.5625-31.566406c1.726562 0 3.414062.140625 5.058593.40625 15.03125 2.417969 26.507813 15.445312 26.507813 31.160156zm0 0" fill="#f6ba97"/><path d="m162.890625 249.535156c0 15.710938-11.476563 28.742188-26.507813 31.160156-2.730468-9.929687-4.191406-20.378906-4.191406-31.160156 0-10.785156 1.460938-21.234375 4.191406-31.160156 15.03125 2.417969 26.507813 15.445312 26.507813 31.160156zm0 0" fill="#eaa27f"/><path d="m142.609375 249.535156c0 6.230469-5.050781 11.28125-11.28125 11.28125s-11.28125-5.050781-11.28125-11.28125c0-6.230468 5.050781-11.28125 11.28125-11.28125s11.28125 5.050782 11.28125 11.28125zm0 0" fill="#eaa27f"/><path d="m349.109375 249.535156c0 15.710938 11.476563 28.742188 26.507813 31.160156 1.644531.265626 3.332031.402344 5.058593.402344 17.4375 0 31.5625-14.125 31.5625-31.5625s-14.125-31.566406-31.5625-31.566406c-1.726562 0-3.414062.140625-5.058593.40625-15.03125 2.417969-26.507813 15.445312-26.507813 31.160156zm0 0" fill="#f6ba97"/><g fill="#eaa27f"><path d="m349.109375 249.535156c0 15.710938 11.476563 28.742188 26.507813 31.160156 2.730468-9.929687 4.191406-20.378906 4.191406-31.160156 0-10.785156-1.460938-21.234375-4.191406-31.160156-15.03125 2.417969-26.507813 15.445312-26.507813 31.160156zm0 0"/><path d="m373.441406 188.039062v44.722657c0 58.441406-42.695312 106.921875-98.59375 115.917969-.191406.03125-.386718.0625-.578125.097656-5.945312.949218-12.046875 1.417968-18.273437 1.417968-64.855469 0-117.4375-52.578124-117.4375-117.433593v-44.722657c0-13.65625 2.332031-26.78125 6.636718-38.976562 16.058594-45.703125 59.609376-78.46875 110.800782-78.46875h.011718c6.214844 0 12.328126.480469 18.285157 1.417969 56.171875 8.777343 99.148437 57.386719 99.148437 116.027343zm0 0"/><path d="m391.953125 249.535156c0 6.230469-5.050781 11.28125-11.28125 11.28125s-11.28125-5.050781-11.28125-11.28125c0-6.230468 5.050781-11.28125 11.28125-11.28125s11.28125 5.050782 11.28125 11.28125zm0 0"/></g><path d="m373.441406 188.039062v44.722657c0 58.441406-42.695312 106.921875-98.59375 115.917969-.191406.03125-.386718.0625-.578125.097656-56.171875-8.777344-99.136719-57.386719-99.136719-116.015625v-44.722657c0-58.640624 42.976563-107.25 99.160157-116.027343 56.171875 8.777343 99.148437 57.386719 99.148437 116.027343zm0 0" fill="#f6ba97"/><path d="m255.996094 290.601562c-9.832032 0-19.667969-2.464843-28.628906-7.390624-2.53125-1.390626-3.453126-4.566407-2.0625-7.097657 1.390624-2.527343 4.566406-3.449219 7.09375-2.0625 14.777343 8.125 32.421874 8.125 47.199218 0 2.523438-1.386719 5.703125-.464843 7.09375 2.0625 1.390625 2.53125.464844 5.707031-2.0625 7.097657-8.960937 4.925781-18.796875 7.390624-28.632812 7.390624zm0 0" fill="#eaa27f"/><path d="m269.320312 259.464844h-26.644531c-3.175781 0-5.746093-2.570313-5.746093-5.746094s2.570312-5.746094 5.746093-5.746094h26.644531c3.175782 0 5.746094 2.570313 5.746094 5.746094s-2.570312 5.746094-5.746094 5.746094zm0 0" fill="#eaa27f"/><path d="m230.988281 225.921875c0 7.359375-5.964843 13.320313-13.320312 13.320313-7.359375 0-13.324219-5.960938-13.324219-13.320313s5.964844-13.324219 13.324219-13.324219c7.355469 0 13.320312 5.964844 13.320312 13.324219zm0 0" fill="#2f373b"/><path d="m307.65625 225.921875c0 7.359375-5.964844 13.320313-13.320312 13.320313-7.359376 0-13.324219-5.960938-13.324219-13.320313s5.964843-13.324219 13.324219-13.324219c7.355468 0 13.320312 5.964844 13.320312 13.324219zm0 0" fill="#2f373b"/><path d="m228.273438 223.570312c0 3.152344-2.554688 5.707032-5.707032 5.707032s-5.710937-2.554688-5.710937-5.707032c0-3.152343 2.558593-5.707031 5.710937-5.707031s5.707032 2.554688 5.707032 5.707031zm0 0" fill="#fff"/><path d="m305.597656 223.570312c0 3.152344-2.558594 5.707032-5.710937 5.707032-3.152344 0-5.707031-2.554688-5.707031-5.707032 0-3.152343 2.554687-5.707031 5.707031-5.707031 3.152343 0 5.710937 2.554688 5.710937 5.707031zm0 0" fill="#fff"/><path d="m255.996094 218.695312c3.492187 0 7.375.457032 8.5625 8.664063.84375 5.238281 2.484375 10.246094 4.066406 14.464844 5.921875 15.78125 10.917969 23.902343 17.824219 28.964843 8.261719 6.0625 22.316406 6.054688 30.726562 6.054688 8.414063 0 22.464844.007812 30.730469-6.054688 6.90625-5.0625 11.902344-13.183593 17.824219-28.964843 3.25-8.492188 9.527343-25.800781 10.65625-37.207031.167969-1.722657.257812-4.324219.300781-6.769532.066406-3.570312-2.816406-6.5-6.386719-6.5h-52.230469c-36.675781 0-54.09375 6.140625-62.074218 6.140625-7.980469 0-25.398438-6.140625-62.074219-6.140625h-52.230469c-3.574218 0-6.453125 2.929688-6.386718 6.5.042968 2.445313.132812 5.046875.300781 6.769532 1.128906 11.40625 7.40625 28.714843 10.65625 37.207031 5.921875 15.78125 10.917969 23.902343 17.824219 28.964843 8.265624 6.0625 22.316406 6.054688 30.726562 6.054688 8.414062 0 22.464844.007812 30.730469-6.054688 6.90625-5.0625 11.902343-13.183593 17.824219-28.964843 1.582031-4.21875 3.222656-9.226563 4.066406-14.464844 1.183594-8.207031 5.066406-8.664063 8.5625-8.664063zm0 0" fill="#151a1c"/><path d="m355.121094 237.847656c-10.867188 28.957032-17.144532 27.671875-37.9375 27.671875-2.71875 0-5.183594.019531-7.441406 0 19.9375-22.726562 26.363281-45.925781 28.085937-62.246093 17.316406 1.734374 27.09375 8.453124 17.292969 34.574218zm0 0" fill="#2f373b"/><path d="m232.753906 237.847656c-10.867187 28.957032-17.148437 27.671875-37.941406 27.671875-3.082031 0-5.851562.03125-8.359375-.023437 19.96875-22.765625 26.375-45.984375 28.089844-62.304688 17.875 1.585938 28.191406 8.074219 18.210937 34.65625zm0 0" fill="#2f373b"/></svg>