<svg height="512pt" viewBox="0 0 512 512" width="512pt" xmlns="http://www.w3.org/2000/svg"><path d="m512 256c0 141.386719-114.613281 256-256 256s-256-114.613281-256-256 114.613281-256 256-256 256 114.613281 256 256zm0 0" fill="#2f373b"/><path d="m336.113281 296.683594h-167.882812l33.082031 54.335937v65.480469h107.980469v-67.570312zm0 0" fill="#cea90d"/><path d="m382.121094 449.578125v29.246094c-15.035156 8.515625-31.011719 15.578125-47.75 20.9375-1.734375.566406-3.46875 1.097656-5.226563 1.621093-6.507812 1.945313-13.132812 3.636719-19.851562 5.046876-2.945313.625-5.902344 1.203124-8.882813 1.714843-14.429687 2.539063-29.265625 3.855469-44.40625 3.855469s-29.980468-1.316406-44.410156-3.847656c-2.976562-.511719-5.933594-1.085938-8.878906-1.710938-7.808594-1.652344-15.464844-3.660156-22.988282-6-.417968-.136718-.835937-.261718-1.253906-.394531-.28125-.085937-.554687-.179687-.835937-.273437-16.730469-5.359376-32.714844-12.421876-47.753907-20.949219v-29.246094c0-35.289063 19.207032-66.089844 47.753907-82.507813 7.742187-4.460937 16.164062-7.855468 25.078125-9.988281 4.710937-1.136719 9.558594-1.921875 14.523437-2.320312 2.570313-.207031 5.160157-.3125 7.785157-.3125h61.949218c7.324219 0 14.453125.816406 21.296875 2.382812.34375.082031.6875.15625 1.023438.238281 8.914062 2.144532 17.335937 5.539063 25.078125 10 28.535156 16.425782 47.75 47.230469 47.75 82.507813zm0 0" fill="#dd104f"/><path d="m382.121094 449.578125v29.246094c-15.328125 8.691406-31.648438 15.859375-48.753906 21.261719-24.398438 7.742187-50.394532 11.914062-77.363282 11.914062-26.980468 0-52.976562-4.179688-77.394531-11.914062-.042969-.007813-.097656-.03125-.136719-.039063v-50.46875c0-52.539063 42.597656-95.128906 95.148438-95.128906h13.351562c52.558594 0 95.148438 42.589843 95.148438 95.128906zm0 0" fill="#f73b6c"/><path d="m310.683594 357.417969v33.460937c0 16.457032-13.339844 29.796875-29.796875 29.796875h-49.777344c-16.457031 0-29.796875-13.339843-29.796875-29.796875v-33.453125c5.152344-1.324219 10.46875-2.222656 15.925781-2.664062 2.570313-.207031 5.160157-.3125 7.785157-.3125h61.949218c7.324219 0 14.453125.816406 21.296875 2.382812.804688.1875 1.617188.375 2.414063.585938zm0 0" fill="#d39272"/><path d="m225.023438 354.449219h48.597656c-28.933594 0-54.847656 12.914062-72.308594 33.289062v-30.3125c5.152344-1.324219 10.46875-2.222656 15.925781-2.664062 2.570313-.207031 5.160157-.3125 7.785157-.3125zm0 0" fill="#bf7c5e"/><path d="m289.941406 317.800781v41.65625c0 15.25-10.054687 28.140625-23.90625 32.421875-3.167968.980469-6.546875 1.515625-10.042968 1.515625-18.742188 0-33.9375-15.195312-33.9375-33.9375v-41.65625zm0 0" fill="#bf7c5e"/><path d="m289.941406 356.816406v2.640625c0 15.25-10.054687 28.140625-23.90625 32.421875-12.496094-3.84375-21.890625-14.707031-23.625-28.003906 2.265625.140625 4.546875.210938 6.835938.210938 6.421875 0 12.71875-.511719 18.851562-1.519532 7.554688-1.210937 14.855469-3.15625 21.84375-5.75zm0 0" fill="#d39272"/><path d="m161.355469 249.53125c0 15.714844-11.476563 28.742188-26.507813 31.160156-1.644531.269532-3.332031.40625-5.058594.40625-17.433593 0-31.5625-14.128906-31.5625-31.566406 0-17.433594 14.128907-31.5625 31.5625-31.5625 1.726563 0 3.414063.136719 5.058594.40625 15.03125 2.417969 26.507813 15.445312 26.507813 31.15625zm0 0" fill="#d39272"/><path d="m161.355469 249.53125c0 15.714844-11.476563 28.742188-26.507813 31.160156-2.730468-9.925781-4.1875-20.375-4.1875-31.160156 0-10.78125 1.457032-21.230469 4.1875-31.15625 15.03125 2.417969 26.507813 15.445312 26.507813 31.15625zm0 0" fill="#bf7c5e"/><path d="m141.074219 249.53125c0 6.234375-5.050781 11.285156-11.285157 11.285156-6.230468 0-11.28125-5.050781-11.28125-11.285156 0-6.230469 5.050782-11.28125 11.28125-11.28125 6.234376 0 11.285157 5.050781 11.285157 11.28125zm0 0" fill="#bf7c5e"/><path d="m350.640625 249.53125c0 15.714844 11.476563 28.742188 26.507813 31.160156 1.644531.269532 3.332031.40625 5.058593.40625 17.4375 0 31.5625-14.128906 31.5625-31.566406 0-17.433594-14.125-31.5625-31.5625-31.5625-1.726562 0-3.414062.136719-5.058593.40625-15.03125 2.417969-26.507813 15.445312-26.507813 31.15625zm0 0" fill="#d39272"/><path d="m350.640625 249.53125c0 15.714844 11.476563 28.742188 26.507813 31.160156 2.730468-9.925781 4.191406-20.375 4.191406-31.160156 0-10.78125-1.457032-21.230469-4.191406-31.15625-15.03125 2.417969-26.507813 15.445312-26.507813 31.15625zm0 0" fill="#bf7c5e"/><path d="m393.488281 249.53125c0 6.234375-5.050781 11.285156-11.28125 11.285156s-11.28125-5.050781-11.28125-11.285156c0-6.230469 5.050781-11.28125 11.28125-11.28125s11.28125 5.050781 11.28125 11.28125zm0 0" fill="#bf7c5e"/><path d="m373.4375 188.039062v44.722657c0 58.441406-42.691406 106.921875-98.59375 115.917969-.1875.03125-.386719.0625-.574219.097656-5.945312.949218-12.050781 1.417968-18.277343 1.417968-64.855469 0-117.4375-52.578124-117.4375-117.433593v-44.722657c0-13.65625 2.332031-26.78125 6.636718-38.976562 16.058594-45.703125 59.613282-78.46875 110.800782-78.46875h.011718c6.214844 0 12.328125.480469 18.285156 1.417969 56.171876 8.777343 99.148438 57.386719 99.148438 116.027343zm0 0" fill="#bf7c5e"/><path d="m373.4375 188.039062v44.722657c0 58.441406-42.691406 106.921875-98.59375 115.917969-.1875.03125-.386719.0625-.574219.097656-56.175781-8.777344-99.140625-57.386719-99.140625-116.015625v-44.722657c0-58.640624 42.976563-107.25 99.160156-116.027343 56.171876 8.777343 99.148438 57.386719 99.148438 116.027343zm0 0" fill="#d39272"/><g fill="#bf7c5e"><path d="m335.933594 263.59375c0 8.082031-6.550782 14.628906-14.628906 14.628906-8.078126 0-14.628907-6.546875-14.628907-14.628906 0-8.078125 6.550781-14.628906 14.628907-14.628906 8.078124 0 14.628906 6.550781 14.628906 14.628906zm0 0"/><path d="m205.320312 263.59375c0 8.082031-6.550781 14.628906-14.628906 14.628906s-14.628906-6.546875-14.628906-14.628906c0-8.078125 6.550781-14.628906 14.628906-14.628906s14.628906 6.550781 14.628906 14.628906zm0 0"/><path d="m319.066406 222.84375c0-10.773438-8.734375-19.507812-19.503906-19.507812-10.773438 0-19.507812 8.734374-19.507812 19.507812"/><path d="m231.949219 222.84375c0-10.773438-8.734375-19.507812-19.503907-19.507812-10.773437 0-19.507812 8.734374-19.507812 19.507812"/></g><path d="m225.765625 231.144531c0 7.359375-5.964844 13.324219-13.320313 13.324219-7.359374 0-13.324218-5.964844-13.324218-13.324219 0-7.355469 5.964844-13.320312 13.324218-13.320312 7.355469 0 13.320313 5.964843 13.320313 13.320312zm0 0" fill="#2f373b"/><path d="m312.882812 231.144531c0 7.359375-5.964843 13.324219-13.320312 13.324219-7.359375 0-13.324219-5.964844-13.324219-13.324219 0-7.355469 5.964844-13.320312 13.324219-13.320312 7.355469 0 13.320312 5.964843 13.320312 13.320312zm0 0" fill="#2f373b"/><path d="m269.324219 264.6875h-26.644531c-3.171876 0-5.746094-2.570312-5.746094-5.746094 0-3.171875 2.574218-5.746094 5.746094-5.746094h26.644531c3.175781 0 5.75 2.574219 5.75 5.746094 0 3.175782-2.574219 5.746094-5.75 5.746094zm0 0" fill="#bf7c5e"/><path d="m256.003906 301.046875c-9.835937 0-19.667968-2.460937-28.632812-7.390625-2.527344-1.390625-3.453125-4.566406-2.0625-7.09375s4.566406-3.449219 7.09375-2.0625c14.777344 8.125 32.421875 8.125 47.199218 0 2.527344-1.390625 5.703126-.46875 7.09375 2.0625 1.390626 2.527344.46875 5.703125-2.0625 7.09375-8.960937 4.929688-18.796874 7.390625-28.628906 7.390625zm0 0" fill="#bf7c5e"/><path d="m223.050781 228.796875c0 3.152344-2.554687 5.707031-5.707031 5.707031-3.15625 0-5.710938-2.554687-5.710938-5.707031 0-3.15625 2.554688-5.710937 5.710938-5.710937 3.152344 0 5.707031 2.554687 5.707031 5.710937zm0 0" fill="#fff"/><path d="m310.820312 228.796875c0 3.152344-2.554687 5.707031-5.707031 5.707031-3.152343 0-5.707031-2.554687-5.707031-5.707031 0-3.15625 2.554688-5.710937 5.707031-5.710937 3.152344 0 5.707031 2.554687 5.707031 5.710937zm0 0" fill="#fff"/><path d="m407.210938 219.300781c0 19.519531-3.699219 38.183594-10.4375 55.308594-19.59375 49.839844-64.898438 86.765625-119.589844 94.4375 41.125-27.019531 68.285156-73.570313 68.285156-126.464844 0-13.113281-1.671875-25.839843-4.820312-37.980469-4.492188-3.042968-9.160157-5.84375-13.980469-8.402343-21.09375-11.160157-45.136719-17.492188-70.664063-17.492188-13.730468 0-27.03125 1.828125-39.675781 5.257813-3.144531.855468-6.25 1.804687-9.300781 2.863281-7.523438 2.558594-14.761719 5.703125-21.691406 9.371094-4.816407 2.558593-9.488282 5.359375-13.980469 8.402343-3.144531 12.140626-4.816407 24.867188-4.816407 37.980469 0 52.894531 27.15625 99.445313 68.285157 126.464844-54.691407-7.671875-99.996094-44.597656-119.589844-94.4375-6.738281-17.125-10.4375-35.789063-10.4375-55.308594 0-52.890625 27.15625-99.441406 68.28125-126.460937 23.816406-15.644532 52.308594-24.746094 82.925781-24.746094 30.613282 0 59.109375 9.101562 82.921875 24.746094 41.128907 27.019531 68.285157 73.570312 68.285157 126.460937zm0 0" fill="#ffe05c"/><path d="m171.355469 204.601562c-3.144531 12.140626-4.816407 24.867188-4.816407 37.980469 0 52.894531 27.15625 99.445313 68.285157 126.464844-54.691407-7.671875-99.996094-44.597656-119.589844-94.4375-6.738281-17.125-10.4375-35.789063-10.4375-55.308594 0-52.890625 27.15625-99.441406 68.28125-126.460937 23.816406-15.644532 52.308594-24.746094 82.925781-24.746094 12.359375 0 24.375 1.484375 35.882813 4.285156-16.992188 4.128906-32.851563 11.128906-47.054688 20.460938-36.183593 23.769531-61.554687 62.660156-67.125 107.695312-2.152343 1.296875-4.273437 2.65625-6.351562 4.066406zm0 0" fill="#e89f18"/><path d="m326.667969 196.199219c1.601562-19.75-5.179688-49.976563-5.179688-49.976563s14.628907 31.347656 19.160157 58.378906c-4.492188-3.042968-9.160157-5.84375-13.980469-8.402343zm0 0" fill="#bf7c5e"/><path d="m185.335938 196.199219c-4.816407 2.558593-9.488282 5.359375-13.980469 8.402343 4.535156-27.03125 19.164062-58.378906 19.164062-58.378906s-6.78125 30.226563-5.183593 49.976563zm0 0" fill="#bf7c5e"/><path d="m221.5 148.21875s-4.105469 18.316406-5.171875 35.746094c-3.144531.855468-6.25 1.804687-9.300781 2.863281 6.039062-20.542969 14.472656-38.609375 14.472656-38.609375zm0 0" fill="#bf7c5e"/></svg>