<svg height="512pt" viewBox="0 0 512 512" width="512pt" xmlns="http://www.w3.org/2000/svg"><path d="m512 256c0 141.386719-114.613281 256-256 256s-256-114.613281-256-256 114.613281-256 256-256 256 114.613281 256 256zm0 0" fill="#f46d11"/><path d="m352.132812 445.757812 29.988282 33.066407c-25.671875 14.566406-54.105469 24.816406-84.320313 29.769531-13.605469 2.246094-27.566406 3.40625-41.796875 3.40625-14.230468 0-28.203125-1.160156-41.796875-3.394531-12.226562-2.019531-24.15625-4.890625-35.734375-8.558594-17.03125-5.402344-33.300781-12.550781-48.589844-21.222656l28.421876-22.964844c0-48.882813 8.441406-95.441406 55.902343-100.792969 1.003907-.125 2.015625-.21875 3.03125-.300781 2.570313-.210937 5.160157-.316406 7.785157-.316406h61.949218c3.660156 0 7.273438.199219 10.828125.605469 3.550781.398437 7.039063.996093 10.46875 1.777343 42.296875 9.675781 43.863281 43.710938 43.863281 88.925781zm0 0" fill="#f2efea"/><path d="m214.207031 355.066406v153.535156c-12.226562-2.015624-24.15625-4.886718-35.734375-8.554687-17.03125-5.402344-33.300781-12.550781-48.589844-21.222656v-29.246094c0-48.882813 36.863282-89.164063 84.324219-94.511719zm0 0" fill="#512375"/><path d="m382.121094 449.578125v29.246094c-25.671875 14.566406-54.105469 24.816406-84.320313 29.769531v-153.539062c3.550781.398437 7.039063.992187 10.46875 1.777343 42.296875 9.675781 73.851563 47.53125 73.851563 92.746094zm0 0" fill="#673389"/><path d="m255.992188 393.394531-42.828126 23.800781-13.03125-60.601562 26.613282-15.675781" fill="#d8d4ce"/><path d="m255.992188 393.394531 42.828124 23.800781 13.03125-60.601562-26.613281-15.675781" fill="#d8d4ce"/><path d="m427.972656 224.214844c0 20.199218-16.371094 36.570312-36.570312 36.570312-20.199219 0-36.570313-16.371094-36.570313-36.570312 0-20.199219 16.371094-36.570313 36.570313-36.570313 20.199218 0 36.570312 16.371094 36.570312 36.570313zm0 0" fill="#2f373b"/><path d="m353.734375 253.15625c-15.777344 0-29.21875 9.988281-34.351563 23.988281-4.042968-1.542969-8.429687-2.394531-13.019531-2.394531-20.195312 0-36.570312 16.375-36.570312 36.570312 0 20.199219 16.375 36.570313 36.570312 36.570313 15.777344 0 29.222657-9.988281 34.351563-23.988281 4.046875 1.542968 8.429687 2.394531 13.019531 2.394531 20.195313 0 36.570313-16.371094 36.570313-36.570313 0-20.195312-16.371094-36.570312-36.570313-36.570312zm0 0" fill="#2f373b"/><path d="m157.164062 224.214844c0 20.199218-16.371093 36.570312-36.570312 36.570312s-36.570312-16.371094-36.570312-36.570312c0-20.199219 16.371093-36.570313 36.570312-36.570313s36.570312 16.371094 36.570312 36.570313zm0 0" fill="#151a1c"/><path d="m205.628906 274.75c-4.585937 0-8.972656.851562-13.019531 2.394531-5.128906-14-18.570313-23.988281-34.347656-23.988281-20.195313 0-36.570313 16.375-36.570313 36.570312 0 20.199219 16.375 36.574219 36.570313 36.574219 4.585937 0 8.972656-.855469 13.019531-2.394531 5.128906 14 18.574219 23.988281 34.347656 23.988281 20.199219 0 36.574219-16.375 36.574219-36.574219 0-20.195312-16.375-36.570312-36.574219-36.570312zm0 0" fill="#151a1c"/><path d="m289.941406 317.800781v41.65625c0 15.25-10.054687 28.140625-23.90625 32.421875-3.167968.980469-6.546875 1.515625-10.042968 1.515625-18.742188 0-33.9375-15.195312-33.9375-33.9375v-41.65625zm0 0" fill="#bf7c5e"/><path d="m289.941406 356.816406v2.640625c0 15.25-10.054687 28.140625-23.90625 32.421875-12.496094-3.84375-21.890625-14.707031-23.625-28.003906 2.265625.140625 4.546875.210938 6.835938.210938 6.421875 0 12.71875-.511719 18.851562-1.519532 7.554688-1.210937 14.855469-3.15625 21.84375-5.75zm0 0" fill="#d39272"/><path d="m161.355469 249.535156c0 15.710938-11.476563 28.742188-26.507813 31.160156-1.644531.265626-3.332031.402344-5.058594.402344-17.433593 0-31.5625-14.125-31.5625-31.5625s14.128907-31.566406 31.5625-31.566406c1.726563 0 3.414063.140625 5.058594.40625 15.03125 2.417969 26.507813 15.445312 26.507813 31.160156zm0 0" fill="#d39272"/><path d="m161.355469 249.535156c0 15.710938-11.476563 28.742188-26.507813 31.160156-2.730468-9.929687-4.1875-20.378906-4.1875-31.160156 0-10.785156 1.457032-21.234375 4.1875-31.160156 15.03125 2.417969 26.507813 15.445312 26.507813 31.160156zm0 0" fill="#bf7c5e"/><path d="m141.074219 249.535156c0 6.230469-5.050781 11.28125-11.285157 11.28125-6.230468 0-11.28125-5.050781-11.28125-11.28125 0-6.230468 5.050782-11.28125 11.28125-11.28125 6.234376 0 11.285157 5.050782 11.285157 11.28125zm0 0" fill="#bf7c5e"/><path d="m350.640625 249.535156c0 15.710938 11.476563 28.742188 26.507813 31.160156 1.644531.265626 3.332031.402344 5.058593.402344 17.4375 0 31.5625-14.125 31.5625-31.5625s-14.125-31.566406-31.5625-31.566406c-1.726562 0-3.414062.140625-5.058593.40625-15.03125 2.417969-26.507813 15.445312-26.507813 31.160156zm0 0" fill="#d39272"/><path d="m350.640625 249.535156c0 15.710938 11.476563 28.742188 26.507813 31.160156 2.730468-9.929687 4.191406-20.378906 4.191406-31.160156 0-10.785156-1.457032-21.234375-4.191406-31.160156-15.03125 2.417969-26.507813 15.445312-26.507813 31.160156zm0 0" fill="#bf7c5e"/><path d="m393.488281 249.535156c0 6.230469-5.050781 11.28125-11.28125 11.28125s-11.28125-5.050781-11.28125-11.28125c0-6.230468 5.050781-11.28125 11.28125-11.28125s11.28125 5.050782 11.28125 11.28125zm0 0" fill="#bf7c5e"/><path d="m373.4375 188.039062v44.722657c0 58.441406-42.691406 106.921875-98.59375 115.917969-.1875.03125-.386719.0625-.574219.097656-5.945312.949218-12.050781 1.417968-18.277343 1.417968-64.855469 0-117.4375-52.578124-117.4375-117.433593v-44.722657c0-13.65625 2.332031-26.78125 6.636718-38.976562 16.058594-45.703125 59.613282-78.46875 110.800782-78.46875h.011718c6.214844 0 12.328125.480469 18.285156 1.417969 56.171876 8.777343 99.148438 57.386719 99.148438 116.027343zm0 0" fill="#bf7c5e"/><path d="m373.4375 188.039062v44.722657c0 58.441406-42.691406 106.921875-98.59375 115.917969-.1875.03125-.386719.0625-.574219.097656-56.175781-8.777344-99.140625-57.386719-99.140625-116.015625v-44.722657c0-58.640624 42.976563-107.25 99.160156-116.027343 56.171876 8.777343 99.148438 57.386719 99.148438 116.027343zm0 0" fill="#d39272"/><g fill="#bf7c5e"><path d="m335.933594 263.59375c0 8.082031-6.550782 14.628906-14.628906 14.628906-8.078126 0-14.628907-6.546875-14.628907-14.628906 0-8.078125 6.550781-14.628906 14.628907-14.628906 8.078124 0 14.628906 6.550781 14.628906 14.628906zm0 0"/><path d="m205.320312 263.59375c0 8.082031-6.550781 14.628906-14.628906 14.628906s-14.628906-6.546875-14.628906-14.628906c0-8.078125 6.550781-14.628906 14.628906-14.628906s14.628906 6.550781 14.628906 14.628906zm0 0"/><path d="m319.066406 222.84375c0-10.773438-8.734375-19.507812-19.503906-19.507812-10.773438 0-19.507812 8.734374-19.507812 19.507812"/><path d="m231.949219 222.84375c0-10.773438-8.734375-19.507812-19.503907-19.507812-10.773437 0-19.507812 8.734374-19.507812 19.507812"/></g><path d="m225.765625 231.144531c0 7.359375-5.964844 13.324219-13.320313 13.324219-7.359374 0-13.324218-5.964844-13.324218-13.324219 0-7.355469 5.964844-13.320312 13.324218-13.320312 7.355469 0 13.320313 5.964843 13.320313 13.320312zm0 0" fill="#2f373b"/><path d="m312.882812 231.144531c0 7.359375-5.964843 13.324219-13.320312 13.324219-7.359375 0-13.324219-5.964844-13.324219-13.324219 0-7.355469 5.964844-13.320312 13.324219-13.320312 7.355469 0 13.320312 5.964843 13.320312 13.320312zm0 0" fill="#2f373b"/><path d="m269.324219 264.6875h-26.644531c-3.171876 0-5.746094-2.570312-5.746094-5.746094 0-3.171875 2.574218-5.746094 5.746094-5.746094h26.644531c3.175781 0 5.75 2.574219 5.75 5.746094 0 3.175782-2.574219 5.746094-5.75 5.746094zm0 0" fill="#bf7c5e"/><path d="m256.003906 301.046875c-9.835937 0-19.667968-2.460937-28.632812-7.390625-2.527344-1.390625-3.453125-4.566406-2.0625-7.09375s4.566406-3.449219 7.09375-2.0625c14.777344 8.125 32.421875 8.125 47.199218 0 2.527344-1.390625 5.703126-.46875 7.09375 2.0625 1.390626 2.527344.46875 5.703125-2.0625 7.09375-8.960937 4.929688-18.796874 7.390625-28.628906 7.390625zm0 0" fill="#bf7c5e"/><path d="m223.050781 228.796875c0 3.152344-2.554687 5.707031-5.707031 5.707031-3.15625 0-5.710938-2.554687-5.710938-5.707031 0-3.15625 2.554688-5.710937 5.710938-5.710937 3.152344 0 5.707031 2.554687 5.707031 5.710937zm0 0" fill="#fff"/><path d="m310.820312 228.796875c0 3.152344-2.554687 5.707031-5.707031 5.707031-3.152343 0-5.707031-2.554687-5.707031-5.707031 0-3.15625 2.554688-5.710937 5.707031-5.710937 3.152344 0 5.707031 2.554687 5.707031 5.710937zm0 0" fill="#fff"/><path d="m399.132812 110.058594c.910157-3.199219 1.410157-6.5625 1.410157-10.050782 0-20.199218-16.371094-36.574218-36.570313-36.574218-.636718 0-1.265625.011718-1.882812.042968-1.566406-18.746093-17.269532-33.480468-36.433594-33.480468-3.625 0-7.136719.535156-10.449219 1.515625-6.226562-11.285157-18.234375-18.933594-32.035156-18.933594-10.785156 0-20.480469 4.671875-27.167969 12.089844-6.699218-7.417969-16.394531-12.089844-27.167968-12.089844-13.8125 0-25.820313 7.648437-32.046876 18.933594-3.3125-.980469-6.824218-1.515625-10.449218-1.515625-19.164063 0-34.867188 14.734375-36.4375 33.480468-.613282-.03125-1.242188-.042968-1.878906-.042968-20.199219 0-36.570313 16.375-36.570313 36.574218 0 3.488282.5 6.851563 1.410156 10.0625-17.347656 8.773438-29.238281 26.757813-29.238281 47.53125 0 22.382813 13.816406 41.535157 33.386719 49.402344 4.511719 11.429688 15.652343 19.527344 28.691406 19.527344 17.042969 0 30.855469-13.8125 30.855469-30.855469 0-.824219-.039063-1.628906-.105469-2.445312 7.242187-8.042969 12.070313-18.304688 13.34375-29.652344.191406 0 .386719.011719.578125.011719 1.472656 0 2.933594-.105469 4.355469-.304688 3.519531-.5 6.832031-1.589844 9.863281-3.167968 6.457031 5.71875 14.933594 9.195312 24.242188 9.195312 10.773437 0 20.46875-4.667969 27.167968-12.085938 6.6875 7.417969 16.382813 12.085938 27.167969 12.085938 9.296875 0 17.78125-3.476562 24.230469-9.195312 4.261718 2.21875 9.089844 3.472656 14.230468 3.472656.1875 0 .375-.011719.574219-.011719 1.265625 11.347656 6.09375 21.609375 13.34375 29.652344-.0625.816406-.105469 1.621093-.105469 2.445312 0 17.042969 13.816407 30.855469 30.855469 30.855469 13.03125 0 24.171875-8.097656 28.695313-19.527344 19.558594-7.867187 33.382812-27.019531 33.382812-49.402344 0-20.785156-11.898437-38.757812-29.246094-47.542968zm0 0" fill="#2f373b"/><path d="m228.835938 12.578125c-13.8125 0-25.820313 7.648437-32.046876 18.933594-3.3125-.980469-6.824218-1.515625-10.449218-1.515625-19.164063 0-34.867188 14.734375-36.4375 33.480468-.613282-.03125-1.242188-.042968-1.878906-.042968-20.199219 0-36.570313 16.375-36.570313 36.574218 0 3.488282.5 6.851563 1.410156 10.0625-17.347656 8.773438-29.238281 26.757813-29.238281 47.53125 0 22.382813 13.816406 41.535157 33.386719 49.402344 4.511719 11.429688 15.652343 19.527344 28.691406 19.527344 17.042969 0 30.855469-13.8125 30.855469-30.855469 0-.824219-.039063-1.628906-.105469-2.445312 7.242187-8.042969 12.070313-18.304688 13.34375-29.652344.191406 0 .386719.011719.578125.011719 1.472656 0 2.933594-.105469 4.355469-.304688-4.003907-7.472656-6.269531-16.019531-6.269531-25.089844 0-20.769531 11.890624-38.753906 29.234374-47.53125-.90625-3.195312-1.410156-6.570312-1.410156-10.0625 0-20.195312 16.375-36.570312 36.574219-36.570312.625 0 2.515625-19.363281 3.144531-19.363281-6.699218-7.417969-16.394531-12.089844-27.167968-12.089844zm0 0" fill="#151a1c"/><path d="m414.75 267.308594c-.226562-.171875-.476562-.296875-.730469-.394532-1.277343-.890624-2.621093-1.644531-4.03125-2.230468-1.003906 1.859375-2.195312 3.59375-3.542969 5.203125 1.625.503906 3.160157 1.304687 4.574219 2.359375.628907.46875 1.253907.988281 1.863281 1.550781 4.300782 4.273437 6.898438 10.964844 6.898438 18.066406 0 12.511719-7.792969 22.691407-17.375 22.691407s-17.378906-10.179688-17.378906-22.691407c0-8.300781 3.492187-15.945312 9.117187-19.945312 1.378907-.984375 1.699219-2.898438.71875-4.277344s-2.898437-1.703125-4.277343-.71875c-7.210938 5.132813-11.691407 14.6875-11.691407 24.941406 0 15.894531 10.546875 28.824219 23.511719 28.824219 12.960938 0 23.507812-12.929688 23.507812-28.824219 0-10.09375-4.171874-19.273437-11.164062-24.554687zm0 0" fill="#ffe05c"/><path d="m97.246094 267.308594c.226562-.171875.476562-.296875.730468-.394532 1.277344-.890624 2.625-1.644531 4.035157-2.230468 1 1.859375 2.191406 3.59375 3.539062 5.203125-1.625.503906-3.160156 1.304687-4.574219 2.359375-.628906.46875-1.25.988281-1.863281 1.550781-4.300781 4.273437-6.898437 10.964844-6.898437 18.066406 0 12.511719 7.796875 22.691407 17.378906 22.691407 9.578125 0 17.375-10.179688 17.375-22.691407 0-8.300781-3.492188-15.945312-9.113281-19.945312-1.382813-.984375-1.703125-2.898438-.722657-4.277344.984376-1.378906 2.898438-1.703125 4.277344-.71875 7.210938 5.132813 11.691406 14.6875 11.691406 24.941406 0 15.894531-10.546874 28.824219-23.507812 28.824219-12.964844 0-23.511719-12.929688-23.511719-28.824219 0-10.09375 4.171875-19.273437 11.164063-24.554687zm0 0" fill="#ffe05c"/></svg>