<svg height="512pt" viewBox="0 0 512 512" width="512pt" xmlns="http://www.w3.org/2000/svg"><path d="m512 256c0 141.386719-114.613281 256-256 256-24.398438 0-47.992188-3.40625-70.332031-9.78125-14.742188-4.199219-28.933594-9.683594-42.453125-16.332031-22.457032-11.042969-43.0625-25.273438-61.222656-42.117188-50.425782-46.75-81.992188-113.570312-81.992188-187.769531 0-141.386719 114.613281-256 256-256s256 114.613281 256 256zm0 0" fill="#673389"/><path d="m361.835938 265.386719c15.308593 15.308593 32.089843 58.8125-4.480469 84.9375-36.570313 26.121093 8.359375 88.816406 8.359375 88.816406l-92.996094 37.613281-118.074219-66.871094 20.480469-177.121093" fill="#e89f18"/><path d="m382.121094 449.578125v29.246094c-15.039063 8.515625-31.015625 15.578125-47.753906 20.941406-1.734376.5625-3.46875 1.097656-5.222657 1.617187-6.511719 1.945313-13.136719 3.636719-19.855469 5.046876-2.945312.628906-5.902343 1.203124-8.882812 1.714843-14.429688 2.539063-29.265625 3.855469-44.40625 3.855469s-29.976562-1.316406-44.40625-3.84375c-2.980469-.511719-5.9375-1.089844-8.882812-1.714844-7.804688-1.652344-15.464844-3.65625-22.988282-5.996094-.417968-.136718-.835937-.261718-1.253906-.398437-.28125-.085937-.554688-.179687-.835938-.273437-16.730468-5.359376-32.714843-12.421876-47.753906-20.949219v-29.246094c0-35.285156 19.207032-66.089844 47.753906-82.503906 7.742188-4.464844 16.164063-7.859375 25.078126-9.992188 4.710937-1.136719 9.558593-1.921875 14.523437-2.316406 2.570313-.210937 5.160156-.316406 7.785156-.316406h61.953125c7.324219 0 14.449219.816406 21.292969 2.382812.34375.085938.691406.15625 1.023437.242188 8.914063 2.140625 17.335938 5.535156 25.078126 10 28.535156 16.425781 47.753906 47.226562 47.753906 82.503906zm0 0" fill="#dd104f"/><path d="m382.121094 449.578125v29.246094c-35.425782 20.105469-76.121094 31.996093-119.507813 33.09375-2.203125.050781-4.398437.082031-6.613281.082031s-4.417969-.03125-6.613281-.09375c-24.671875-.617188-48.464844-4.734375-70.917969-11.859375v-50.46875c0-52.539063 42.601562-95.128906 95.148438-95.128906h13.355468c52.554688 0 95.148438 42.589843 95.148438 95.128906zm0 0" fill="#f73b6c"/><path d="m310.679688 357.417969v33.460937c0 16.457032-13.339844 29.796875-29.796876 29.796875h-49.777343c-16.457031 0-29.796875-13.339843-29.796875-29.796875v-33.449218c5.152344-1.328126 10.472656-2.226563 15.925781-2.664063 2.570313-.210937 5.160156-.316406 7.785156-.316406h61.953125c7.324219 0 14.449219.816406 21.292969 2.382812.804687.1875 1.621094.375 2.414063.585938zm0 0" fill="#f6ba97"/><path d="m225.019531 354.449219h48.597657c-28.933594 0-54.847657 12.914062-72.308594 33.292969v-30.3125c5.152344-1.328126 10.472656-2.226563 15.925781-2.664063 2.570313-.210937 5.160156-.316406 7.785156-.316406zm0 0" fill="#eaa27f"/><path d="m289.9375 317.800781v41.65625c0 15.25-10.054688 28.140625-23.90625 32.421875-3.167969.984375-6.546875 1.515625-10.042969 1.515625-18.742187 0-33.9375-15.191406-33.9375-33.9375v-41.65625zm0 0" fill="#eaa27f"/><path d="m289.9375 356.820312v2.636719c0 15.25-10.054688 28.140625-23.90625 32.421875-12.492188-3.839844-21.890625-14.707031-23.625-28 2.265625.136719 4.546875.207032 6.835938.207032 6.421874 0 12.71875-.507813 18.851562-1.515626 7.554688-1.214843 14.855469-3.160156 21.84375-5.75zm0 0" fill="#f6ba97"/><path d="m161.351562 249.535156c0 15.710938-11.476562 28.742188-26.507812 31.160156-1.640625.265626-3.332031.402344-5.054688.402344-17.4375 0-31.566406-14.125-31.566406-31.5625s14.128906-31.566406 31.566406-31.566406c1.722657 0 3.414063.140625 5.054688.40625 15.03125 2.417969 26.507812 15.445312 26.507812 31.160156zm0 0" fill="#f6ba97"/><path d="m161.351562 249.535156c0 15.710938-11.476562 28.742188-26.507812 31.160156-2.730469-9.929687-4.1875-20.378906-4.1875-31.160156 0-10.785156 1.457031-21.234375 4.1875-31.160156 15.03125 2.417969 26.507812 15.445312 26.507812 31.160156zm0 0" fill="#eaa27f"/><path d="m141.070312 249.535156c0 6.230469-5.050781 11.28125-11.28125 11.28125-6.230468 0-11.28125-5.050781-11.28125-11.28125 0-6.230468 5.050782-11.28125 11.28125-11.28125 6.230469 0 11.28125 5.050782 11.28125 11.28125zm0 0" fill="#eaa27f"/><path d="m350.636719 249.535156c0 15.710938 11.480469 28.742188 26.511719 31.160156 1.640624.265626 3.332031.402344 5.054687.402344 17.4375 0 31.566406-14.125 31.566406-31.5625s-14.128906-31.566406-31.566406-31.566406c-1.722656 0-3.414063.140625-5.054687.40625-15.03125 2.417969-26.511719 15.445312-26.511719 31.160156zm0 0" fill="#f6ba97"/><path d="m350.636719 249.535156c0 15.710938 11.480469 28.742188 26.511719 31.160156 2.726562-9.929687 4.1875-20.378906 4.1875-31.160156 0-10.785156-1.457032-21.234375-4.1875-31.160156-15.03125 2.417969-26.511719 15.445312-26.511719 31.160156zm0 0" fill="#eaa27f"/><path d="m393.484375 249.535156c0 6.230469-5.050781 11.28125-11.28125 11.28125s-11.28125-5.050781-11.28125-11.28125c0-6.230468 5.050781-11.28125 11.28125-11.28125s11.28125 5.050782 11.28125 11.28125zm0 0" fill="#eaa27f"/><path d="m373.4375 188.039062v44.722657c0 58.441406-42.695312 106.925781-98.597656 115.921875-.1875.03125-.386719.0625-.574219.09375-5.945313.949218-12.046875 1.421875-18.277344 1.421875-64.855469 0-117.433593-52.582031-117.433593-117.4375v-44.722657c0-13.65625 2.328124-26.78125 6.632812-38.972656 16.0625-45.707031 59.613281-78.472656 110.800781-78.472656h.011719c6.21875 0 12.328125.480469 18.285156 1.421875 56.175782 8.777344 99.152344 57.382813 99.152344 116.023437zm0 0" fill="#eaa27f"/><path d="m373.4375 188.039062v44.722657c0 58.441406-42.695312 106.925781-98.597656 115.921875-.1875.03125-.386719.0625-.574219.09375-56.175781-8.777344-99.140625-57.386719-99.140625-116.015625v-44.722657c0-58.640624 42.976562-107.246093 99.160156-116.023437 56.175782 8.777344 99.152344 57.382813 99.152344 116.023437zm0 0" fill="#f6ba97"/><g fill="#eaa27f"><path d="m335.929688 263.597656c0 8.078125-6.550782 14.628906-14.628907 14.628906s-14.628906-6.550781-14.628906-14.628906c0-8.082031 6.550781-14.628906 14.628906-14.628906s14.628907 6.546875 14.628907 14.628906zm0 0"/><path d="m205.316406 263.597656c0 8.078125-6.546875 14.628906-14.628906 14.628906-8.078125 0-14.628906-6.550781-14.628906-14.628906 0-8.082031 6.550781-14.628906 14.628906-14.628906 8.082031 0 14.628906 6.546875 14.628906 14.628906zm0 0"/><path d="m319.0625 222.84375c0-10.773438-8.730469-19.503906-19.503906-19.503906-10.773438 0-19.507813 8.730468-19.507813 19.503906"/><path d="m231.945312 222.84375c0-10.773438-8.730468-19.503906-19.503906-19.503906-10.773437 0-19.507812 8.730468-19.507812 19.503906"/></g><path d="m225.761719 231.148438c0 7.355468-5.964844 13.320312-13.320313 13.320312-7.359375 0-13.324218-5.964844-13.324218-13.320312 0-7.359376 5.964843-13.324219 13.324218-13.324219 7.355469 0 13.320313 5.964843 13.320313 13.324219zm0 0" fill="#2f373b"/><path d="m312.882812 231.148438c0 7.355468-5.964843 13.320312-13.324218 13.320312s-13.324219-5.964844-13.324219-13.320312c0-7.359376 5.964844-13.324219 13.324219-13.324219s13.324218 5.964843 13.324218 13.324219zm0 0" fill="#2f373b"/><path d="m269.320312 264.691406h-26.644531c-3.171875 0-5.746093-2.574218-5.746093-5.746094 0-3.175781 2.574218-5.75 5.746093-5.75h26.644531c3.175782 0 5.746094 2.574219 5.746094 5.75 0 3.171876-2.570312 5.746094-5.746094 5.746094zm0 0" fill="#eaa27f"/><path d="m256 301.050781c-9.835938 0-19.667969-2.464843-28.632812-7.394531-2.527344-1.386719-3.449219-4.5625-2.0625-7.09375 1.390624-2.527344 4.570312-3.449219 7.097656-2.0625 14.777344 8.125 32.417968 8.125 47.195312 0 2.527344-1.386719 5.703125-.464844 7.09375 2.0625 1.390625 2.53125.46875 5.707031-2.058594 7.09375-8.964843 4.929688-18.800781 7.394531-28.632812 7.394531zm0 0" fill="#eaa27f"/><path d="m223.046875 228.796875c0 3.152344-2.554687 5.707031-5.710937 5.707031-3.152344 0-5.707032-2.554687-5.707032-5.707031s2.554688-5.710937 5.707032-5.710937c3.15625 0 5.710937 2.558593 5.710937 5.710937zm0 0" fill="#fff"/><path d="m310.820312 228.796875c0 3.152344-2.558593 5.707031-5.710937 5.707031s-5.707031-2.554687-5.707031-5.707031 2.554687-5.710937 5.707031-5.710937 5.710937 2.558593 5.710937 5.710937zm0 0" fill="#fff"/><path d="m377.144531 218.375c-50.21875 0-61.316406-87.796875-61.316406-87.796875 0 33.4375-70.800781 63.53125-101.625 32.707031 0 0 30.304687 48.066406-36.570313 84.636719 0 0 41.796876 18.777344 20.898438 68.964844s-4.179688 106.578125-4.179688 106.578125 17.960938 46.707031-8.683593 78.753906c-39.214844-11.179688-74.585938-31.472656-103.675781-58.449219 6.394531-41.609375 29.90625-96.738281 16.226562-194.238281-19.851562-141.542969 67.921875-186.554688 140.019531-195.960938 72.097657-9.402343 87.769531 40.753907 87.769531 40.753907 60.605469-14.628907 73.144532 124.050781 51.136719 124.050781zm0 0" fill="#ffe05c"/><path d="m156.734375 249.53125c18.746094 133.613281-32.351563 187.652344-13.519531 236.355469-22.457032-11.042969-43.0625-25.273438-61.222656-42.117188 6.394531-41.609375 29.90625-96.738281 16.226562-194.238281-19.851562-141.542969 67.921875-186.554688 140.019531-195.960938 17.9375-2.339843 32.390625-.992187 43.976563 2.363282-68.742188 13.449218-144.015625 61.460937-125.480469 193.597656zm0 0" fill="#e89f18"/><path d="m403.414062 278.710938c0 4.957031-4.019531 8.976562-8.972656 8.976562-4.957031 0-8.976562-4.019531-8.976562-8.976562 0-4.957032 4.019531-8.972657 8.976562-8.972657 4.953125 0 8.972656 4.015625 8.972656 8.972657zm0 0" fill="#f73b6c"/></svg>