<svg id="Layer_1" data-name="Layer 1" xmlns="http://www.w3.org/2000/svg" viewBox="0 0 128 128"><defs><style>.cls-1,.cls-11,.cls-4,.cls-9{fill:#333;}.cls-1,.cls-10,.cls-11,.cls-4,.cls-5,.cls-7,.cls-8{stroke:#333;}.cls-1,.cls-11,.cls-4,.cls-5,.cls-7{stroke-linejoin:round;}.cls-1,.cls-5{stroke-width:4px;}.cls-2{fill:#fbd3ca;}.cls-3{fill:#e8bfba;}.cls-11,.cls-4,.cls-8{stroke-linecap:round;}.cls-4,.cls-7{stroke-width:3px;}.cls-10,.cls-5,.cls-7,.cls-8{fill:none;}.cls-6{fill:#f3cac2;}.cls-10,.cls-8{stroke-miterlimit:10;}.cls-10,.cls-11,.cls-8{stroke-width:2px;}</style></defs><title>trinity</title><path class="cls-1" d="M79.72,19.31a9,9,0,0,0-8.47-1.91s-6.94-4.91-18.12-.69C47.39,18.88,37.74,29.08,37.74,43.4A37.27,37.27,0,0,0,39.6,55.59L46,74.16H82s4.06-11.63,8.27-22.94S84.28,23.06,79.72,19.31Z"/><path class="cls-2" d="M112.83,95.35A8,8,0,0,0,107.14,89L80.8,85.08A5.63,5.63,0,0,1,76,79.51V70.45H52v9.06a5.63,5.63,0,0,1-4.8,5.57L20.86,89a8,8,0,0,0-5.69,6.37l-1.17,7c15.28,6.75,32.23,10,50,10s34.73-3.27,50-10Z"/><path class="cls-3" d="M68.64,92.21A9.42,9.42,0,0,0,83.2,90.66c1.44-2.25,2.56-4.21,2.93-4.8-3-.44-10.1-.33-10.1-6.11v-9.3H52v5.12Z"/><path class="cls-4" d="M80.8,85.08a7.54,7.54,0,0,1-.82-.2c-.18,9.57-4.06,15.28-16,15.28S48.2,94.45,48,84.88a7.54,7.54,0,0,1-.82.2l-5.33.78c-.55,5.32-2.85,16.22-6,23.53a132.15,132.15,0,0,0,28.14,3,132.19,132.19,0,0,0,28.13-3c-3.19-7.33-5.47-18.25-6-23.53Z"/><path class="cls-5" d="M52,72.45v7.06a5.63,5.63,0,0,1-4.8,5.57L20.86,89a8,8,0,0,0-5.69,6.37l-1.17,7c15.28,6.75,32.23,10,50,10s34.73-3.27,50-10l-1.17-7A8,8,0,0,0,107.14,89L80.8,85.08A5.63,5.63,0,0,1,76,79.51V72.45"/><path class="cls-2" d="M64,19.43c16.08,0,21,9.17,21,20v4c3.46,0,4.56,3.41,4,8-.48,3.9-2,8-6,8v3c0,6-4.78,8.7-10.36,14.5-3.68,3.83-6.21,3.5-8.64,3.5s-5,.33-8.64-3.5C49.78,71.13,45,68.43,45,62.43v-3c-4,0-5.52-4.1-6-8-.56-4.59.54-8,4-8v-4C43,28.6,47.92,19.43,64,19.43Z"/><path class="cls-6" d="M85,43.43v-4c0-10.83-4.92-20-21-20-.63,0-1.21,0-1.8.06l-1.27,4.63c-3.25,7.8-6.51,19.51-6.51,35.15,0,2.63.23,10.34.48,17.21l.46.45c3.68,3.83,6.21,3.5,8.64,3.5s5,.33,8.64-3.5C78.22,71.13,83,68.43,83,62.43v-3c4,0,5.52-4.1,6-8C89.56,46.84,88.46,43.43,85,43.43Z"/><path class="cls-7" d="M64,19.43c16.08,0,21,9.17,21,20,0,.63.06,3.37,0,4,3.46,0,4.56,3.41,4,8-.48,3.9-2,8-6,8v3c0,6-4.84,8.58-10.42,14.38-3.68,3.83-6.15,3.62-8.58,3.62s-5,.21-8.7-3.62C49.72,71,45,68.43,45,62.43v-3c-4,0-5.52-4.1-6-8-.56-4.59.54-8,4-8-.06-.63,0-3.37,0-4C43,28.6,47.92,19.43,64,19.43Z"/><line class="cls-8" x1="60.2" y1="68.58" x2="68.2" y2="68.58"/><line class="cls-8" x1="63" y1="71.81" x2="65.6" y2="71.81"/><path class="cls-8" d="M60.2,62.58l2.2.6a5.55,5.55,0,0,0,3.6,0l2.2-.6"/><path class="cls-9" d="M47,47.63c4.6-2.3,13,.39,14.67,2,3.11,3.11-1.92,7.44-7.64,7.44S42.41,49.93,47,47.63Z"/><path class="cls-9" d="M80.87,47.63c-4.6-2.3-13,.39-14.67,2-3.11,3.11,1.92,7.44,7.64,7.44S85.46,49.93,80.87,47.63Z"/><line class="cls-10" x1="59.9" y1="51.12" x2="67.9" y2="51.12"/><path class="cls-11" d="M64,16.16c-18,0-24,13.14-24,21v3c0,6.89,5.06,8.24,5.06,13.51V51.8c0-3.39.86-7.82,4.94-9.64,13.94-6.24,18.15-7.81,22-13.8,2,10,4.06,12,8.06,16,2,2,3,3.17,3,6v3.8c0-4.4,4.93-6.62,4.93-13.51V37.17C88,29.3,82,16.14,64,16.16Z"/><path class="cls-9" d="M51.32,52.16a11.87,11.87,0,0,1,.2-4.33,9.86,9.86,0,0,1,2.31-3.89,21.32,21.32,0,0,1,3.25-2.8l3.26-2.4c2.13-1.6,4.44-3,6.27-4.69A16.07,16.07,0,0,0,69,31.11c.74-1.12,1.56-2.26,2.42-3.33a.69.69,0,0,1,1.14.76c-.64,1.18-1.2,2.37-1.8,3.59a16.19,16.19,0,0,1-2.32,3.66,32.21,32.21,0,0,1-6.39,5.43c-1.13.76-2.32,1.45-3.45,2.17a24,24,0,0,0-3.09,2.25,7.7,7.7,0,0,0-2.14,2.82,11.65,11.65,0,0,0-.7,3.7.68.68,0,0,1-.74.62A.69.69,0,0,1,51.32,52.16Z"/></svg>