<svg height="512pt" viewBox="0 0 512 512.00001" width="512pt" xmlns="http://www.w3.org/2000/svg"><path d="m512 256c0 141.386719-114.617188 256-256 256-141.386719 0-256-114.613281-256-256 0-141.382812 114.613281-256 256-256 141.382812 0 256 114.617188 256 256zm0 0" fill="#f46d11"/><path d="m445.503906 189.511719c0 86.726562-58.261718 159.847656-137.777344 182.355469-16.449218 4.660156-33.792968 7.148437-51.722656 7.148437-104.667968 0-189.515625-84.847656-189.515625-189.503906 0-104.667969 84.847657-189.511719 189.515625-189.511719 17.929688 0 35.273438 2.488281 51.722656 7.148438 79.515626 22.503906 137.777344 95.628906 137.777344 182.363281zm0 0" fill="#151a1c"/><path d="m445.503906 189.511719c0 86.726562-58.261718 159.847656-137.777344 182.355469-79.527343-22.496094-137.792968-95.628907-137.792968-182.355469 0-86.734375 58.265625-159.859375 137.792968-182.363281 79.515626 22.503906 137.777344 95.628906 137.777344 182.363281zm0 0" fill="#2f373b"/><path d="m382.121094 449.578125v29.246094c-14.898438 8.453125-30.730469 15.453125-47.300782 20.804687-24.828124 8.035156-51.316406 12.371094-78.816406 12.371094-22.882812 0-45.066406-3-66.175781-8.640625-3.824219-1.015625-7.605469-2.121094-11.355469-3.3125-.429687-.136719-.859375-.273437-1.285156-.417969-5.988281-1.925781-11.882812-4.078125-17.660156-6.4375-10.230469-4.160156-20.125-8.964844-29.644532-14.367187v-29.246094c0-20.03125 6.195313-38.621094 16.769532-53.949219 13.679687-19.851562 34.714844-34.242187 59.175781-39.246094 3.730469-.761718 7.53125-1.304687 11.410156-1.621093 2.570313-.207031 5.160157-.3125 7.78125-.3125h61.953125c6.675782 0 13.1875.679687 19.46875 1.984375.613282.125 1.222656.261718 1.828125.398437 23.5625 5.390625 43.78125 19.519531 57.082031 38.796875 10.574219 15.328125 16.769532 33.917969 16.769532 53.949219zm0 0" fill="#e89f18"/><path d="m382.117188 449.578125v29.246094c-37.21875 21.117187-80.257813 33.175781-126.117188 33.175781-27.03125 0-53.070312-4.191406-77.53125-11.953125v-50.46875c0-52.539063 42.601562-95.128906 95.148438-95.128906h13.351562c52.558594 0 95.148438 42.589843 95.148438 95.128906zm0 0" fill="#ffe05c"/><path d="m298.84375 393.164062c0 22.203126-16.894531 40.46875-38.535156 42.628907-1.410156.136719-2.855469.210937-4.304688.210937-1.441406 0-2.875-.074218-4.285156-.210937-21.652344-2.152344-38.558594-20.414063-38.558594-42.628907 0-23.65625 19.1875-42.84375 42.84375-42.84375s42.839844 19.1875 42.839844 42.84375zm0 0" fill="#f2efea"/><path d="m255.992188 393.394531-42.832032 23.800781-13.027344-60.601562 26.613282-15.675781" fill="#d8d4ce"/><path d="m255.992188 393.394531 42.828124 23.800781 13.03125-60.601562-26.613281-15.675781" fill="#d8d4ce"/><path d="m289.941406 317.800781v41.65625c0 15.25-10.058594 28.140625-23.90625 32.421875-3.171875.980469-6.550781 1.515625-10.042968 1.515625-18.746094 0-33.9375-15.195312-33.9375-33.9375v-41.65625zm0 0" fill="#bf7c5e"/><path d="m289.941406 356.816406v2.640625c0 15.25-10.058594 28.140625-23.90625 32.421875-12.496094-3.84375-21.890625-14.707031-23.628906-28.003906 2.269531.140625 4.546875.210938 6.839844.210938 6.421875 0 12.714844-.511719 18.847656-1.515626 7.554688-1.214843 14.859375-3.160156 21.847656-5.753906zm0 0" fill="#d39272"/><path d="m177.1875 449.578125v50.050781c-5.988281-1.925781-11.882812-4.078125-17.660156-6.4375-10.230469-4.160156-20.125-8.964844-29.644532-14.367187v-29.246094c0-20.03125 6.195313-38.621094 16.769532-53.949219zm0 0" fill="#d8d4ce"/><path d="m382.121094 449.578125v29.246094c-14.898438 8.453125-30.730469 15.453125-47.300782 20.804687v-50.050781l30.53125-53.949219c10.574219 15.328125 16.769532 33.917969 16.769532 53.949219zm0 0" fill="#f2efea"/><path d="m162.882812 249.535156c0 15.714844-11.476562 28.742188-26.507812 31.160156-1.640625.265626-3.332031.40625-5.054688.40625-17.4375 0-31.566406-14.128906-31.566406-31.566406s14.128906-31.566406 31.566406-31.566406c1.722657 0 3.414063.140625 5.054688.40625 15.03125 2.417969 26.507812 15.449219 26.507812 31.160156zm0 0" fill="#d39272"/><path d="m162.882812 249.535156c0 15.714844-11.476562 28.742188-26.507812 31.160156-2.730469-9.925781-4.1875-20.375-4.1875-31.160156s1.457031-21.230468 4.1875-31.160156c15.03125 2.417969 26.507812 15.449219 26.507812 31.160156zm0 0" fill="#bf7c5e"/><path d="m142.601562 249.535156c0 6.230469-5.050781 11.28125-11.28125 11.28125-6.230468 0-11.28125-5.050781-11.28125-11.28125 0-6.230468 5.050782-11.28125 11.28125-11.28125 6.230469 0 11.28125 5.050782 11.28125 11.28125zm0 0" fill="#bf7c5e"/><path d="m349.101562 249.535156c0 15.714844 11.476563 28.742188 26.507813 31.160156 1.644531.265626 3.332031.40625 5.054687.40625 17.4375 0 31.566407-14.128906 31.566407-31.566406s-14.128907-31.566406-31.566407-31.566406c-1.722656 0-3.410156.140625-5.054687.40625-15.03125 2.417969-26.507813 15.449219-26.507813 31.160156zm0 0" fill="#d39272"/><path d="m349.101562 249.535156c0 15.714844 11.476563 28.742188 26.507813 31.160156 2.730469-9.925781 4.1875-20.375 4.1875-31.160156s-1.457031-21.230468-4.1875-31.160156c-15.03125 2.417969-26.507813 15.449219-26.507813 31.160156zm0 0" fill="#bf7c5e"/><path d="m391.949219 249.535156c0 6.230469-5.050781 11.28125-11.285157 11.28125-6.230468 0-11.28125-5.050781-11.28125-11.28125 0-6.230468 5.050782-11.28125 11.28125-11.28125 6.234376 0 11.285157 5.050782 11.285157 11.28125zm0 0" fill="#bf7c5e"/><path d="m373.4375 232.761719c0 58.441406-42.695312 106.921875-98.59375 115.921875-6.136719 1.011718-12.425781 1.511718-18.851562 1.511718-64.867188 0-117.445313-52.578124-117.445313-117.433593 0-22.027344 6.058594-42.644531 16.625-60.261719h201.640625c10.566406 17.617188 16.625 38.234375 16.625 60.261719zm0 0" fill="#bf7c5e"/><path d="m373.4375 232.761719c0 58.441406-42.695312 106.921875-98.59375 115.921875-55.902344-9-98.597656-57.480469-98.597656-115.921875 0-22.027344 6.058594-42.644531 16.625-60.261719h163.941406c8.664062 14.453125 14.304688 30.921875 16.050781 48.546875.375 3.855469.574219 7.765625.574219 11.714844zm0 0" fill="#d39272"/><path d="m122.875 131.753906h32.449219v87.058594h-32.449219zm0 0" fill="#151a1c"/><path d="m356.085938 131.753906h32.445312v87.058594h-32.445312zm0 0" fill="#2f373b"/><g fill="#bf7c5e"><path d="m335.933594 263.597656c0 8.078125-6.550782 14.625-14.628906 14.625-8.082032 0-14.628907-6.546875-14.628907-14.625 0-8.082031 6.546875-14.628906 14.628907-14.628906 8.078124 0 14.628906 6.546875 14.628906 14.628906zm0 0"/><path d="m205.320312 263.597656c0 8.078125-6.550781 14.625-14.628906 14.625s-14.628906-6.546875-14.628906-14.625c0-8.082031 6.550781-14.628906 14.628906-14.628906s14.628906 6.546875 14.628906 14.628906zm0 0"/><path d="m319.066406 222.84375c0-10.773438-8.734375-19.507812-19.507812-19.507812-10.769532 0-19.503906 8.734374-19.503906 19.507812"/><path d="m231.949219 222.84375c0-10.773438-8.734375-19.507812-19.507813-19.507812-10.769531 0-19.503906 8.734374-19.503906 19.507812"/></g><path d="m225.765625 231.148438c0 7.355468-5.964844 13.320312-13.324219 13.320312-7.355468 0-13.320312-5.964844-13.320312-13.320312 0-7.359376 5.964844-13.324219 13.320312-13.324219 7.359375 0 13.324219 5.964843 13.324219 13.324219zm0 0" fill="#2f373b"/><path d="m312.882812 231.148438c0 7.355468-5.964843 13.320312-13.324218 13.320312-7.355469 0-13.320313-5.964844-13.320313-13.320312 0-7.359376 5.964844-13.324219 13.320313-13.324219 7.359375 0 13.324218 5.964843 13.324218 13.324219zm0 0" fill="#2f373b"/><path d="m269.324219 264.691406h-26.644531c-3.175782 0-5.746094-2.574218-5.746094-5.75 0-3.171875 2.570312-5.746094 5.746094-5.746094h26.644531c3.175781 0 5.746093 2.574219 5.746093 5.746094 0 3.175782-2.570312 5.75-5.746093 5.75zm0 0" fill="#bf7c5e"/><path d="m256 301.050781c-9.832031 0-19.667969-2.464843-28.628906-7.394531-2.53125-1.386719-3.453125-4.566406-2.0625-7.09375s4.566406-3.449219 7.09375-2.0625c14.777344 8.125 32.421875 8.125 47.195312 0 2.527344-1.386719 5.707032-.46875 7.097656 2.0625 1.390626 2.527344.464844 5.707031-2.0625 7.09375-8.964843 4.929688-18.796874 7.394531-28.632812 7.394531zm0 0" fill="#bf7c5e"/><path d="m223.046875 228.796875c0 3.152344-2.554687 5.707031-5.707031 5.707031s-5.707032-2.554687-5.707032-5.707031 2.554688-5.710937 5.707032-5.710937 5.707031 2.558593 5.707031 5.710937zm0 0" fill="#fff"/><path d="m310.820312 228.796875c0 3.152344-2.554687 5.707031-5.707031 5.707031-3.152343 0-5.707031-2.554687-5.707031-5.707031s2.554688-5.710937 5.707031-5.710937c3.152344 0 5.707031 2.558593 5.707031 5.710937zm0 0" fill="#fff"/><path d="m403.417969 278.710938c0 4.957031-4.019531 8.976562-8.976563 8.976562-4.957031 0-8.972656-4.019531-8.972656-8.976562 0-4.957032 4.015625-8.972657 8.972656-8.972657 4.957032 0 8.976563 4.015625 8.976563 8.972657zm0 0" fill="#ffe05c"/><path d="m126.539062 278.710938c0 4.957031-4.019531 8.976562-8.976562 8.976562s-8.972656-4.019531-8.972656-8.976562c0-4.957032 4.015625-8.972657 8.972656-8.972657s8.976562 4.015625 8.976562 8.972657zm0 0" fill="#ffe05c"/></svg>