<svg width="64" height="64" viewBox="0 0 64 64" fill="none" xmlns="http://www.w3.org/2000/svg">
<g clip-path="url(#clip0_3377_60)">
<path d="M24.0559 0.204811C18.7951 1.12641 14.5071 4.13441 12.3951 8.38401C11.4735 10.24 11.1919 11.4048 11.1023 13.568C10.9231 18.0992 12.0879 21.184 15.8895 26.1376C16.4271 26.8288 16.8367 27.4176 16.8111 27.4432C16.7855 27.456 16.2095 27.7632 15.5439 28.1088C12.5615 29.6704 10.4239 31.2192 8.24791 33.3952C6.44311 35.2 5.53431 36.48 4.53591 38.5536C2.34711 43.1232 2.53911 49.3312 5.00951 54.1824C7.54391 59.1488 11.8575 62.2592 18.0143 63.5648C19.3199 63.8464 20.0367 63.9104 22.4175 63.9616C25.4255 64.0384 26.8207 63.936 28.9199 63.4752C32.7983 62.6176 36.3823 60.7104 39.8127 57.6512L40.7215 56.8448L45.6879 62.9632H53.3423C58.0655 62.976 60.9839 62.9248 60.9583 62.8608C60.9455 62.784 58.2191 59.584 54.9039 55.7312L48.6575 48.4352C48.4271 48.1408 48.4399 48.128 49.0543 47.2704C51.0383 44.544 52.6127 41.1136 53.4959 37.6064C53.8415 36.288 54.3279 33.6 54.3279 33.0752V32.768H43.4479V33.0752C43.4479 34.1504 42.4879 37.632 41.7455 39.2192L41.3359 40.1024L33.4511 30.4256L34.2703 29.952C37.2015 28.2496 40.1967 25.664 41.8351 23.424C42.9999 21.8368 43.8575 19.7888 44.2287 17.664C44.4335 16.4736 44.4335 13.1584 44.2287 12.032C43.0511 5.59361 38.1871 1.30561 30.8015 0.192011C29.2271 -0.0511893 25.4511 -0.0383893 24.0559 0.204811ZM29.7519 8.69121C31.2495 9.25441 32.7087 10.8288 33.2079 12.4032C33.6943 13.952 33.4767 16.3584 32.7087 17.8816C32.0815 19.136 30.4943 20.6976 28.1775 22.336L27.2943 22.9504L26.9999 22.6432C26.2447 21.8496 23.5311 18.1504 23.2111 17.472C22.3535 15.6672 22.1999 12.9408 22.8783 11.4816C23.2879 10.5856 24.4399 9.40801 25.3359 8.97281C26.7439 8.26881 28.3823 8.17921 29.7519 8.69121ZM28.7919 41.9712L33.9759 48.4352C33.9759 48.6528 32.0175 50.4704 30.8015 51.392C28.5743 53.0688 26.5135 53.7856 23.9279 53.7984C22.1999 53.7984 21.2783 53.5808 19.6399 52.7744C18.0399 51.9936 16.4911 50.4832 15.7743 49.024C14.5199 46.4768 14.6607 43.904 16.1967 41.3056C16.8367 40.2176 18.8207 38.1824 19.9599 37.44C21.0223 36.7488 23.2495 35.584 23.4543 35.6224C23.5439 35.6352 25.9375 38.4896 28.7919 41.9712Z" fill="black"/>
</g>
<defs>
<clipPath id="clip0_3377_60">
<rect width="57.984" height="64" fill="white" transform="translate(3)"/>
</clipPath>
</defs>
</svg>
