<?xml version="1.0" standalone="no"?>
<!DOCTYPE svg PUBLIC "-//W3C//DTD SVG 20010904//EN"
 "http://www.w3.org/TR/2001/REC-SVG-20010904/DTD/svg10.dtd">
<svg version="1.0" xmlns="http://www.w3.org/2000/svg"
 width="512.000000pt" height="512.000000pt" viewBox="0 0 512.000000 512.000000"
 preserveAspectRatio="xMidYMid meet">
<metadata>
Created by potrace 1.11, written by Peter Selinger 2001-2013
</metadata>
<g transform="translate(0.000000,512.000000) scale(0.100000,-0.100000)"
fill="#000000" stroke="none">
<path d="M453 3199 c0 -918 4 -1696 9 -1727 4 -31 10 -68 12 -82 20 -134 98
-334 183 -468 198 -312 515 -524 884 -592 95 -18 143 -19 584 -16 264 2 498 6
520 9 22 4 58 9 81 12 196 26 494 123 689 225 84 44 179 102 183 112 2 4 8 8
14 8 12 0 86 53 188 134 87 70 253 236 325 325 119 148 248 362 322 536 50
116 110 311 128 414 3 19 7 37 9 40 2 3 7 30 11 60 4 30 8 61 10 70 17 94 22
311 11 461 -8 104 -9 112 -21 185 -10 68 -13 84 -19 103 -3 9 -7 28 -10 42
-21 126 -104 355 -189 520 -51 102 -185 315 -220 352 -6 7 -32 38 -57 68 -250
306 -634 565 -1025 692 -67 21 -194 55 -240 63 -16 2 -41 7 -55 10 -14 3 -41
8 -60 10 -19 2 -64 8 -100 14 -36 5 -425 10 -865 11 -440 0 -818 3 -840 5 -84
8 -151 16 -180 21 -16 3 -41 7 -55 9 -14 2 -68 13 -120 24 -52 12 -97 21 -101
21 -3 0 -6 -752 -6 -1671z m2102 258 c208 -37 424 -170 557 -343 76 -99 116
-180 167 -335 26 -80 34 -274 15 -369 -27 -136 -34 -158 -80 -256 -111 -236
-330 -416 -595 -489 -81 -23 -119 -27 -269 -30 -241 -6 -287 -13 -394 -60 -53
-23 -157 -92 -164 -107 -2 -5 -7 -8 -11 -8 -4 0 -7 452 -7 1005 l0 1006 370
-4 c204 -2 389 -6 411 -10z"/>
</g>
</svg>
