<svg xmlns="http://www.w3.org/2000/svg" xmlns:xlink="http://www.w3.org/1999/xlink"><symbol fill="none" id="sprite-fmd-logo" viewBox="0 0 88 26"><path fill="#000" fill-rule="evenodd" d="M24.031 25.632a9.2 9.2 0 0 0 3.723-.728 10.3 10.3 0 0 0 3.114-2.141l1.973 2.396h5.135v.017h5V8.144h.065l5.978 17.032h4.065l5.978-17.2h.065v17.2h5V.906h-7.494l-5.37 16.689h-.07L45.519.905h-7.543v23.298l-4.108-4.788a10.5 10.5 0 0 0 1.597-2.82 12.7 12.7 0 0 0 .75-3.163h-4.184q-.1.75-.304 1.478a6.8 6.8 0 0 1-.576 1.413l-3.13-3.842a10.5 10.5 0 0 0 3.075-2.446 5.4 5.4 0 0 0 1.24-3.603 5.7 5.7 0 0 0-.544-2.516 5.2 5.2 0 0 0-1.424-1.82 6.2 6.2 0 0 0-2.109-1.087 8.7 8.7 0 0 0-2.63-.375c-.803-.003-1.6.13-2.359.39a6.5 6.5 0 0 0-2.027 1.115 5.5 5.5 0 0 0-1.407 1.755c-.36.707-.54 1.49-.527 2.283-.022.97.206 1.93.663 2.788a15.6 15.6 0 0 0 1.63 2.375 16 16 0 0 0-2.038 1.19 9.8 9.8 0 0 0-1.717 1.549 6.8 6.8 0 0 0-1.207 1.94 6.1 6.1 0 0 0-.445 2.358 7.3 7.3 0 0 0 .614 3.076c.386.87.955 1.647 1.668 2.277a7 7 0 0 0 2.478 1.424 9.9 9.9 0 0 0 3.076.478m-2.206-9.63c.321-.34.687-.637 1.087-.88v-.005q.595-.372 1.239-.647l4.152 5.065a8.3 8.3 0 0 1-1.82 1.549 4.24 4.24 0 0 1-2.262.592c-.448 0-.893-.086-1.31-.255a3.7 3.7 0 0 1-1.086-.68 3.2 3.2 0 0 1-.766-1.016 2.84 2.84 0 0 1-.288-1.24 3.2 3.2 0 0 1 .288-1.358c.194-.413.452-.793.766-1.125m4.89-11.964c.266.117.505.288.702.503a2.27 2.27 0 0 1 .663 1.63 2.83 2.83 0 0 1-.734 2.07 9.7 9.7 0 0 1-1.75 1.403l-.436-.56v-.001c-.294-.377-.58-.742-.857-1.107a3.2 3.2 0 0 1-.609-1.973 1.99 1.99 0 0 1 .647-1.565c.415-.383.963-.59 1.527-.576.291 0 .58.06.846.176m-9.65 1.356V.905H0v24.27h5.337V15.15h10.162v-4.146H5.337V5.394zm63.87-3.739a12.5 12.5 0 0 0-4.347-.75H66.116v24.26h10.472c1.663.04 3.314-.28 4.842-.935a9.6 9.6 0 0 0 3.435-2.565 10.8 10.8 0 0 0 2.06-3.875c.464-1.588.693-3.236.679-4.89a15.1 15.1 0 0 0-.832-5.267 10.3 10.3 0 0 0-2.315-3.739 9.4 9.4 0 0 0-3.521-2.239m-2.477 18.662c-.722.25-1.48.377-2.245.375h-4.771V5.394h3.804a8.6 8.6 0 0 1 3.315.544 5.2 5.2 0 0 1 2.174 1.63 6.6 6.6 0 0 1 1.174 2.533c.25 1.086.37 2.2.358 3.314a10 10 0 0 1-.51 3.403 6.25 6.25 0 0 1-1.36 2.255 4.9 4.9 0 0 1-1.94 1.244" clip-rule="evenodd"/></symbol><use xlink:href="#sprite-fmd-logo" width="88" height="26" y="0"/><view id="sprite-fmd-logo-view" viewBox="0 0 88 26"/><symbol fill="none" id="sprite-ic-arrow-right" viewBox="0 0 32 32"><path fill="currentColor" fill-rule="evenodd" d="M3.001 15.978a.9.9 0 0 1 .9-.9h20.147a.9.9 0 0 1 0 1.8H3.901a.9.9 0 0 1-.9-.9" clip-rule="evenodd"/><path fill="currentColor" fill-rule="evenodd" d="M16.96 8.889a.9.9 0 0 1 1.273-.003l6.503 6.476a.9.9 0 0 1 0 1.275l-6.503 6.476a.9.9 0 1 1-1.27-1.275L22.826 16l-5.863-5.838a.9.9 0 0 1-.003-1.273" clip-rule="evenodd"/></symbol><use xlink:href="#sprite-ic-arrow-right" width="32" height="32" y="26"/><view id="sprite-ic-arrow-right-view" viewBox="0 26 32 32"/><symbol fill="none" id="sprite-ic-web-vitals-danger" viewBox="0 0 22 23"><path fill="currentColor" d="M11 .989q1.515 0 2.922.386 1.407.387 2.621 1.118 1.214.73 2.224 1.718 1.01.989 1.73 2.224a11.08 11.08 0 0 1 1.116 8.476 10.4 10.4 0 0 1-1.117 2.62q-.73 1.215-1.719 2.224-.988 1.01-2.223 1.73a11.07 11.07 0 0 1-8.476 1.117 10.4 10.4 0 0 1-2.621-1.117q-1.214-.73-2.224-1.719-1.01-.988-1.73-2.224A11.08 11.08 0 0 1 .388 9.067Q.774 7.66 1.504 6.446t1.719-2.224 2.223-1.73A11.1 11.1 0 0 1 11 .99m1.214 11 3.674-3.674L14.674 7.1 11 10.775 7.326 7.1 6.112 8.315l3.674 3.674-3.674 3.673 1.214 1.214L11 13.202l3.674 3.674 1.214-1.214z"/></symbol><use xlink:href="#sprite-ic-web-vitals-danger" width="22" height="23" y="58"/><view id="sprite-ic-web-vitals-danger-view" viewBox="0 58 22 23"/><symbol fill="none" id="sprite-ic-web-vitals-success" viewBox="0 0 22 23"><path fill="currentColor" d="M11 .989c-6.075 0-11 4.925-11 11s4.925 11 11 11 11-4.925 11-11-4.925-11-11-11m4.72 5.152 2.285 2.285-7.138 7.14-2.272 2.27-2.285-2.285-2.315-2.316 2.27-2.27L8.58 13.28z"/></symbol><use xlink:href="#sprite-ic-web-vitals-success" width="22" height="23" y="81"/><view id="sprite-ic-web-vitals-success-view" viewBox="0 81 22 23"/></svg>